<?xml version="1.0" encoding="utf-8" standalone="no"?>
<!DOCTYPE svg PUBLIC "-//W3C//DTD SVG 1.1//EN"
  "http://www.w3.org/Graphics/SVG/1.1/DTD/svg11.dtd">
<!-- Created with matplotlib (https://matplotlib.org/) -->
<svg height="345.6pt" version="1.1" viewBox="0 0 460.8 345.6" width="460.8pt" xmlns="http://www.w3.org/2000/svg" xmlns:xlink="http://www.w3.org/1999/xlink">
 <defs>
  <style type="text/css">
*{stroke-linecap:butt;stroke-linejoin:round;}
  </style>
 </defs>
 <g id="figure_1">
  <g id="patch_1">
   <path d="M 0 345.6 
L 460.8 345.6 
L 460.8 0 
L 0 0 
z
" style="fill:#ffffff;"/>
  </g>
  <g id="axes_1">
   <g id="patch_2">
    <path d="M 57.6 307.584 
L 414.72 307.584 
L 414.72 41.472 
L 57.6 41.472 
z
" style="fill:#ffffff;"/>
   </g>
   <g id="matplotlib.axis_1">
    <g id="xtick_1">
     <g id="line2d_1">
      <defs>
       <path d="M 0 0 
L 0 3.5 
" id="mc581222cd2" style="stroke:#000000;stroke-width:0.8;"/>
      </defs>
      <g>
       <use style="stroke:#000000;stroke-width:0.8;" x="73.832727" xlink:href="#mc581222cd2" y="307.584"/>
      </g>
     </g>
     <g id="text_1">
      <!-- 0 -->
      <defs>
       <path d="M 31.78125 66.40625 
Q 24.171875 66.40625 20.328125 58.90625 
Q 16.5 51.421875 16.5 36.375 
Q 16.5 21.390625 20.328125 13.890625 
Q 24.171875 6.390625 31.78125 6.390625 
Q 39.453125 6.390625 43.28125 13.890625 
Q 47.125 21.390625 47.125 36.375 
Q 47.125 51.421875 43.28125 58.90625 
Q 39.453125 66.40625 31.78125 66.40625 
z
M 31.78125 74.21875 
Q 44.046875 74.21875 50.515625 64.515625 
Q 56.984375 54.828125 56.984375 36.375 
Q 56.984375 17.96875 50.515625 8.265625 
Q 44.046875 -1.421875 31.78125 -1.421875 
Q 19.53125 -1.421875 13.0625 8.265625 
Q 6.59375 17.96875 6.59375 36.375 
Q 6.59375 54.828125 13.0625 64.515625 
Q 19.53125 74.21875 31.78125 74.21875 
z
" id="DejaVuSans-48"/>
      </defs>
      <g transform="translate(70.651477 322.182437)scale(0.1 -0.1)">
       <use xlink:href="#DejaVuSans-48"/>
      </g>
     </g>
    </g>
    <g id="xtick_2">
     <g id="line2d_2">
      <g>
       <use style="stroke:#000000;stroke-width:0.8;" x="138.763636" xlink:href="#mc581222cd2" y="307.584"/>
      </g>
     </g>
     <g id="text_2">
      <!-- 20 -->
      <defs>
       <path d="M 19.1875 8.296875 
L 53.609375 8.296875 
L 53.609375 0 
L 7.328125 0 
L 7.328125 8.296875 
Q 12.9375 14.109375 22.625 23.890625 
Q 32.328125 33.6875 34.8125 36.53125 
Q 39.546875 41.84375 41.421875 45.53125 
Q 43.3125 49.21875 43.3125 52.78125 
Q 43.3125 58.59375 39.234375 62.25 
Q 35.15625 65.921875 28.609375 65.921875 
Q 23.96875 65.921875 18.8125 64.3125 
Q 13.671875 62.703125 7.8125 59.421875 
L 7.8125 69.390625 
Q 13.765625 71.78125 18.9375 73 
Q 24.125 74.21875 28.421875 74.21875 
Q 39.75 74.21875 46.484375 68.546875 
Q 53.21875 62.890625 53.21875 53.421875 
Q 53.21875 48.921875 51.53125 44.890625 
Q 49.859375 40.875 45.40625 35.40625 
Q 44.1875 33.984375 37.640625 27.21875 
Q 31.109375 20.453125 19.1875 8.296875 
z
" id="DejaVuSans-50"/>
      </defs>
      <g transform="translate(132.401136 322.182437)scale(0.1 -0.1)">
       <use xlink:href="#DejaVuSans-50"/>
       <use x="63.623047" xlink:href="#DejaVuSans-48"/>
      </g>
     </g>
    </g>
    <g id="xtick_3">
     <g id="line2d_3">
      <g>
       <use style="stroke:#000000;stroke-width:0.8;" x="203.694545" xlink:href="#mc581222cd2" y="307.584"/>
      </g>
     </g>
     <g id="text_3">
      <!-- 40 -->
      <defs>
       <path d="M 37.796875 64.3125 
L 12.890625 25.390625 
L 37.796875 25.390625 
z
M 35.203125 72.90625 
L 47.609375 72.90625 
L 47.609375 25.390625 
L 58.015625 25.390625 
L 58.015625 17.1875 
L 47.609375 17.1875 
L 47.609375 0 
L 37.796875 0 
L 37.796875 17.1875 
L 4.890625 17.1875 
L 4.890625 26.703125 
z
" id="DejaVuSans-52"/>
      </defs>
      <g transform="translate(197.332045 322.182437)scale(0.1 -0.1)">
       <use xlink:href="#DejaVuSans-52"/>
       <use x="63.623047" xlink:href="#DejaVuSans-48"/>
      </g>
     </g>
    </g>
    <g id="xtick_4">
     <g id="line2d_4">
      <g>
       <use style="stroke:#000000;stroke-width:0.8;" x="268.625455" xlink:href="#mc581222cd2" y="307.584"/>
      </g>
     </g>
     <g id="text_4">
      <!-- 60 -->
      <defs>
       <path d="M 33.015625 40.375 
Q 26.375 40.375 22.484375 35.828125 
Q 18.609375 31.296875 18.609375 23.390625 
Q 18.609375 15.53125 22.484375 10.953125 
Q 26.375 6.390625 33.015625 6.390625 
Q 39.65625 6.390625 43.53125 10.953125 
Q 47.40625 15.53125 47.40625 23.390625 
Q 47.40625 31.296875 43.53125 35.828125 
Q 39.65625 40.375 33.015625 40.375 
z
M 52.59375 71.296875 
L 52.59375 62.3125 
Q 48.875 64.0625 45.09375 64.984375 
Q 41.3125 65.921875 37.59375 65.921875 
Q 27.828125 65.921875 22.671875 59.328125 
Q 17.53125 52.734375 16.796875 39.40625 
Q 19.671875 43.65625 24.015625 45.921875 
Q 28.375 48.1875 33.59375 48.1875 
Q 44.578125 48.1875 50.953125 41.515625 
Q 57.328125 34.859375 57.328125 23.390625 
Q 57.328125 12.15625 50.6875 5.359375 
Q 44.046875 -1.421875 33.015625 -1.421875 
Q 20.359375 -1.421875 13.671875 8.265625 
Q 6.984375 17.96875 6.984375 36.375 
Q 6.984375 53.65625 15.1875 63.9375 
Q 23.390625 74.21875 37.203125 74.21875 
Q 40.921875 74.21875 44.703125 73.484375 
Q 48.484375 72.75 52.59375 71.296875 
z
" id="DejaVuSans-54"/>
      </defs>
      <g transform="translate(262.262955 322.182437)scale(0.1 -0.1)">
       <use xlink:href="#DejaVuSans-54"/>
       <use x="63.623047" xlink:href="#DejaVuSans-48"/>
      </g>
     </g>
    </g>
    <g id="xtick_5">
     <g id="line2d_5">
      <g>
       <use style="stroke:#000000;stroke-width:0.8;" x="333.556364" xlink:href="#mc581222cd2" y="307.584"/>
      </g>
     </g>
     <g id="text_5">
      <!-- 80 -->
      <defs>
       <path d="M 31.78125 34.625 
Q 24.75 34.625 20.71875 30.859375 
Q 16.703125 27.09375 16.703125 20.515625 
Q 16.703125 13.921875 20.71875 10.15625 
Q 24.75 6.390625 31.78125 6.390625 
Q 38.8125 6.390625 42.859375 10.171875 
Q 46.921875 13.96875 46.921875 20.515625 
Q 46.921875 27.09375 42.890625 30.859375 
Q 38.875 34.625 31.78125 34.625 
z
M 21.921875 38.8125 
Q 15.578125 40.375 12.03125 44.71875 
Q 8.5 49.078125 8.5 55.328125 
Q 8.5 64.0625 14.71875 69.140625 
Q 20.953125 74.21875 31.78125 74.21875 
Q 42.671875 74.21875 48.875 69.140625 
Q 55.078125 64.0625 55.078125 55.328125 
Q 55.078125 49.078125 51.53125 44.71875 
Q 48 40.375 41.703125 38.8125 
Q 48.828125 37.15625 52.796875 32.3125 
Q 56.78125 27.484375 56.78125 20.515625 
Q 56.78125 9.90625 50.3125 4.234375 
Q 43.84375 -1.421875 31.78125 -1.421875 
Q 19.734375 -1.421875 13.25 4.234375 
Q 6.78125 9.90625 6.78125 20.515625 
Q 6.78125 27.484375 10.78125 32.3125 
Q 14.796875 37.15625 21.921875 38.8125 
z
M 18.3125 54.390625 
Q 18.3125 48.734375 21.84375 45.5625 
Q 25.390625 42.390625 31.78125 42.390625 
Q 38.140625 42.390625 41.71875 45.5625 
Q 45.3125 48.734375 45.3125 54.390625 
Q 45.3125 60.0625 41.71875 63.234375 
Q 38.140625 66.40625 31.78125 66.40625 
Q 25.390625 66.40625 21.84375 63.234375 
Q 18.3125 60.0625 18.3125 54.390625 
z
" id="DejaVuSans-56"/>
      </defs>
      <g transform="translate(327.193864 322.182437)scale(0.1 -0.1)">
       <use xlink:href="#DejaVuSans-56"/>
       <use x="63.623047" xlink:href="#DejaVuSans-48"/>
      </g>
     </g>
    </g>
    <g id="xtick_6">
     <g id="line2d_6">
      <g>
       <use style="stroke:#000000;stroke-width:0.8;" x="398.487273" xlink:href="#mc581222cd2" y="307.584"/>
      </g>
     </g>
     <g id="text_6">
      <!-- 100 -->
      <defs>
       <path d="M 12.40625 8.296875 
L 28.515625 8.296875 
L 28.515625 63.921875 
L 10.984375 60.40625 
L 10.984375 69.390625 
L 28.421875 72.90625 
L 38.28125 72.90625 
L 38.28125 8.296875 
L 54.390625 8.296875 
L 54.390625 0 
L 12.40625 0 
z
" id="DejaVuSans-49"/>
      </defs>
      <g transform="translate(388.943523 322.182437)scale(0.1 -0.1)">
       <use xlink:href="#DejaVuSans-49"/>
       <use x="63.623047" xlink:href="#DejaVuSans-48"/>
       <use x="127.246094" xlink:href="#DejaVuSans-48"/>
      </g>
     </g>
    </g>
    <g id="text_7">
     <!-- # of Generation -->
     <defs>
      <path d="M 51.125 44 
L 36.921875 44 
L 32.8125 27.6875 
L 47.125 27.6875 
z
M 43.796875 71.78125 
L 38.71875 51.515625 
L 52.984375 51.515625 
L 58.109375 71.78125 
L 65.921875 71.78125 
L 60.890625 51.515625 
L 76.125 51.515625 
L 76.125 44 
L 58.984375 44 
L 54.984375 27.6875 
L 70.515625 27.6875 
L 70.515625 20.21875 
L 53.078125 20.21875 
L 48 0 
L 40.1875 0 
L 45.21875 20.21875 
L 30.90625 20.21875 
L 25.875 0 
L 18.015625 0 
L 23.09375 20.21875 
L 7.71875 20.21875 
L 7.71875 27.6875 
L 24.90625 27.6875 
L 29 44 
L 13.28125 44 
L 13.28125 51.515625 
L 30.90625 51.515625 
L 35.890625 71.78125 
z
" id="DejaVuSans-35"/>
      <path id="DejaVuSans-32"/>
      <path d="M 30.609375 48.390625 
Q 23.390625 48.390625 19.1875 42.75 
Q 14.984375 37.109375 14.984375 27.296875 
Q 14.984375 17.484375 19.15625 11.84375 
Q 23.34375 6.203125 30.609375 6.203125 
Q 37.796875 6.203125 41.984375 11.859375 
Q 46.1875 17.53125 46.1875 27.296875 
Q 46.1875 37.015625 41.984375 42.703125 
Q 37.796875 48.390625 30.609375 48.390625 
z
M 30.609375 56 
Q 42.328125 56 49.015625 48.375 
Q 55.71875 40.765625 55.71875 27.296875 
Q 55.71875 13.875 49.015625 6.21875 
Q 42.328125 -1.421875 30.609375 -1.421875 
Q 18.84375 -1.421875 12.171875 6.21875 
Q 5.515625 13.875 5.515625 27.296875 
Q 5.515625 40.765625 12.171875 48.375 
Q 18.84375 56 30.609375 56 
z
" id="DejaVuSans-111"/>
      <path d="M 37.109375 75.984375 
L 37.109375 68.5 
L 28.515625 68.5 
Q 23.6875 68.5 21.796875 66.546875 
Q 19.921875 64.59375 19.921875 59.515625 
L 19.921875 54.6875 
L 34.71875 54.6875 
L 34.71875 47.703125 
L 19.921875 47.703125 
L 19.921875 0 
L 10.890625 0 
L 10.890625 47.703125 
L 2.296875 47.703125 
L 2.296875 54.6875 
L 10.890625 54.6875 
L 10.890625 58.5 
Q 10.890625 67.625 15.140625 71.796875 
Q 19.390625 75.984375 28.609375 75.984375 
z
" id="DejaVuSans-102"/>
      <path d="M 59.515625 10.40625 
L 59.515625 29.984375 
L 43.40625 29.984375 
L 43.40625 38.09375 
L 69.28125 38.09375 
L 69.28125 6.78125 
Q 63.578125 2.734375 56.6875 0.65625 
Q 49.8125 -1.421875 42 -1.421875 
Q 24.90625 -1.421875 15.25 8.5625 
Q 5.609375 18.5625 5.609375 36.375 
Q 5.609375 54.25 15.25 64.234375 
Q 24.90625 74.21875 42 74.21875 
Q 49.125 74.21875 55.546875 72.453125 
Q 61.96875 70.703125 67.390625 67.28125 
L 67.390625 56.78125 
Q 61.921875 61.421875 55.765625 63.765625 
Q 49.609375 66.109375 42.828125 66.109375 
Q 29.4375 66.109375 22.71875 58.640625 
Q 16.015625 51.171875 16.015625 36.375 
Q 16.015625 21.625 22.71875 14.15625 
Q 29.4375 6.6875 42.828125 6.6875 
Q 48.046875 6.6875 52.140625 7.59375 
Q 56.25 8.5 59.515625 10.40625 
z
" id="DejaVuSans-71"/>
      <path d="M 56.203125 29.59375 
L 56.203125 25.203125 
L 14.890625 25.203125 
Q 15.484375 15.921875 20.484375 11.0625 
Q 25.484375 6.203125 34.421875 6.203125 
Q 39.59375 6.203125 44.453125 7.46875 
Q 49.3125 8.734375 54.109375 11.28125 
L 54.109375 2.78125 
Q 49.265625 0.734375 44.1875 -0.34375 
Q 39.109375 -1.421875 33.890625 -1.421875 
Q 20.796875 -1.421875 13.15625 6.1875 
Q 5.515625 13.8125 5.515625 26.8125 
Q 5.515625 40.234375 12.765625 48.109375 
Q 20.015625 56 32.328125 56 
Q 43.359375 56 49.78125 48.890625 
Q 56.203125 41.796875 56.203125 29.59375 
z
M 47.21875 32.234375 
Q 47.125 39.59375 43.09375 43.984375 
Q 39.0625 48.390625 32.421875 48.390625 
Q 24.90625 48.390625 20.390625 44.140625 
Q 15.875 39.890625 15.1875 32.171875 
z
" id="DejaVuSans-101"/>
      <path d="M 54.890625 33.015625 
L 54.890625 0 
L 45.90625 0 
L 45.90625 32.71875 
Q 45.90625 40.484375 42.875 44.328125 
Q 39.84375 48.1875 33.796875 48.1875 
Q 26.515625 48.1875 22.3125 43.546875 
Q 18.109375 38.921875 18.109375 30.90625 
L 18.109375 0 
L 9.078125 0 
L 9.078125 54.6875 
L 18.109375 54.6875 
L 18.109375 46.1875 
Q 21.34375 51.125 25.703125 53.5625 
Q 30.078125 56 35.796875 56 
Q 45.21875 56 50.046875 50.171875 
Q 54.890625 44.34375 54.890625 33.015625 
z
" id="DejaVuSans-110"/>
      <path d="M 41.109375 46.296875 
Q 39.59375 47.171875 37.8125 47.578125 
Q 36.03125 48 33.890625 48 
Q 26.265625 48 22.1875 43.046875 
Q 18.109375 38.09375 18.109375 28.8125 
L 18.109375 0 
L 9.078125 0 
L 9.078125 54.6875 
L 18.109375 54.6875 
L 18.109375 46.1875 
Q 20.953125 51.171875 25.484375 53.578125 
Q 30.03125 56 36.53125 56 
Q 37.453125 56 38.578125 55.875 
Q 39.703125 55.765625 41.0625 55.515625 
z
" id="DejaVuSans-114"/>
      <path d="M 34.28125 27.484375 
Q 23.390625 27.484375 19.1875 25 
Q 14.984375 22.515625 14.984375 16.5 
Q 14.984375 11.71875 18.140625 8.90625 
Q 21.296875 6.109375 26.703125 6.109375 
Q 34.1875 6.109375 38.703125 11.40625 
Q 43.21875 16.703125 43.21875 25.484375 
L 43.21875 27.484375 
z
M 52.203125 31.203125 
L 52.203125 0 
L 43.21875 0 
L 43.21875 8.296875 
Q 40.140625 3.328125 35.546875 0.953125 
Q 30.953125 -1.421875 24.3125 -1.421875 
Q 15.921875 -1.421875 10.953125 3.296875 
Q 6 8.015625 6 15.921875 
Q 6 25.140625 12.171875 29.828125 
Q 18.359375 34.515625 30.609375 34.515625 
L 43.21875 34.515625 
L 43.21875 35.40625 
Q 43.21875 41.609375 39.140625 45 
Q 35.0625 48.390625 27.6875 48.390625 
Q 23 48.390625 18.546875 47.265625 
Q 14.109375 46.140625 10.015625 43.890625 
L 10.015625 52.203125 
Q 14.9375 54.109375 19.578125 55.046875 
Q 24.21875 56 28.609375 56 
Q 40.484375 56 46.34375 49.84375 
Q 52.203125 43.703125 52.203125 31.203125 
z
" id="DejaVuSans-97"/>
      <path d="M 18.3125 70.21875 
L 18.3125 54.6875 
L 36.8125 54.6875 
L 36.8125 47.703125 
L 18.3125 47.703125 
L 18.3125 18.015625 
Q 18.3125 11.328125 20.140625 9.421875 
Q 21.96875 7.515625 27.59375 7.515625 
L 36.8125 7.515625 
L 36.8125 0 
L 27.59375 0 
Q 17.1875 0 13.234375 3.875 
Q 9.28125 7.765625 9.28125 18.015625 
L 9.28125 47.703125 
L 2.6875 47.703125 
L 2.6875 54.6875 
L 9.28125 54.6875 
L 9.28125 70.21875 
z
" id="DejaVuSans-116"/>
      <path d="M 9.421875 54.6875 
L 18.40625 54.6875 
L 18.40625 0 
L 9.421875 0 
z
M 9.421875 75.984375 
L 18.40625 75.984375 
L 18.40625 64.59375 
L 9.421875 64.59375 
z
" id="DejaVuSans-105"/>
     </defs>
     <g transform="translate(196.079531 335.860562)scale(0.1 -0.1)">
      <use xlink:href="#DejaVuSans-35"/>
      <use x="83.789062" xlink:href="#DejaVuSans-32"/>
      <use x="115.576172" xlink:href="#DejaVuSans-111"/>
      <use x="176.757812" xlink:href="#DejaVuSans-102"/>
      <use x="211.962891" xlink:href="#DejaVuSans-32"/>
      <use x="243.75" xlink:href="#DejaVuSans-71"/>
      <use x="321.240234" xlink:href="#DejaVuSans-101"/>
      <use x="382.763672" xlink:href="#DejaVuSans-110"/>
      <use x="446.142578" xlink:href="#DejaVuSans-101"/>
      <use x="507.666016" xlink:href="#DejaVuSans-114"/>
      <use x="548.779297" xlink:href="#DejaVuSans-97"/>
      <use x="610.058594" xlink:href="#DejaVuSans-116"/>
      <use x="649.267578" xlink:href="#DejaVuSans-105"/>
      <use x="677.050781" xlink:href="#DejaVuSans-111"/>
      <use x="738.232422" xlink:href="#DejaVuSans-110"/>
     </g>
    </g>
   </g>
   <g id="matplotlib.axis_2">
    <g id="ytick_1">
     <g id="line2d_7">
      <defs>
       <path d="M 0 0 
L -3.5 0 
" id="mf3730beb98" style="stroke:#000000;stroke-width:0.8;"/>
      </defs>
      <g>
       <use style="stroke:#000000;stroke-width:0.8;" x="57.6" xlink:href="#mf3730beb98" y="287.992085"/>
      </g>
     </g>
     <g id="text_8">
      <!-- 0.06 -->
      <defs>
       <path d="M 10.6875 12.40625 
L 21 12.40625 
L 21 0 
L 10.6875 0 
z
" id="DejaVuSans-46"/>
      </defs>
      <g transform="translate(28.334375 291.791303)scale(0.1 -0.1)">
       <use xlink:href="#DejaVuSans-48"/>
       <use x="63.623047" xlink:href="#DejaVuSans-46"/>
       <use x="95.410156" xlink:href="#DejaVuSans-48"/>
       <use x="159.033203" xlink:href="#DejaVuSans-54"/>
      </g>
     </g>
    </g>
    <g id="ytick_2">
     <g id="line2d_8">
      <g>
       <use style="stroke:#000000;stroke-width:0.8;" x="57.6" xlink:href="#mf3730beb98" y="233.448456"/>
      </g>
     </g>
     <g id="text_9">
      <!-- 0.08 -->
      <g transform="translate(28.334375 237.247675)scale(0.1 -0.1)">
       <use xlink:href="#DejaVuSans-48"/>
       <use x="63.623047" xlink:href="#DejaVuSans-46"/>
       <use x="95.410156" xlink:href="#DejaVuSans-48"/>
       <use x="159.033203" xlink:href="#DejaVuSans-56"/>
      </g>
     </g>
    </g>
    <g id="ytick_3">
     <g id="line2d_9">
      <g>
       <use style="stroke:#000000;stroke-width:0.8;" x="57.6" xlink:href="#mf3730beb98" y="178.904828"/>
      </g>
     </g>
     <g id="text_10">
      <!-- 0.10 -->
      <g transform="translate(28.334375 182.704047)scale(0.1 -0.1)">
       <use xlink:href="#DejaVuSans-48"/>
       <use x="63.623047" xlink:href="#DejaVuSans-46"/>
       <use x="95.410156" xlink:href="#DejaVuSans-49"/>
       <use x="159.033203" xlink:href="#DejaVuSans-48"/>
      </g>
     </g>
    </g>
    <g id="ytick_4">
     <g id="line2d_10">
      <g>
       <use style="stroke:#000000;stroke-width:0.8;" x="57.6" xlink:href="#mf3730beb98" y="124.3612"/>
      </g>
     </g>
     <g id="text_11">
      <!-- 0.12 -->
      <g transform="translate(28.334375 128.160418)scale(0.1 -0.1)">
       <use xlink:href="#DejaVuSans-48"/>
       <use x="63.623047" xlink:href="#DejaVuSans-46"/>
       <use x="95.410156" xlink:href="#DejaVuSans-49"/>
       <use x="159.033203" xlink:href="#DejaVuSans-50"/>
      </g>
     </g>
    </g>
    <g id="ytick_5">
     <g id="line2d_11">
      <g>
       <use style="stroke:#000000;stroke-width:0.8;" x="57.6" xlink:href="#mf3730beb98" y="69.817571"/>
      </g>
     </g>
     <g id="text_12">
      <!-- 0.14 -->
      <g transform="translate(28.334375 73.61679)scale(0.1 -0.1)">
       <use xlink:href="#DejaVuSans-48"/>
       <use x="63.623047" xlink:href="#DejaVuSans-46"/>
       <use x="95.410156" xlink:href="#DejaVuSans-49"/>
       <use x="159.033203" xlink:href="#DejaVuSans-52"/>
      </g>
     </g>
    </g>
    <g id="text_13">
     <!-- Fitness Of Best Individual (× 1e-3) -->
     <defs>
      <path d="M 9.8125 72.90625 
L 51.703125 72.90625 
L 51.703125 64.59375 
L 19.671875 64.59375 
L 19.671875 43.109375 
L 48.578125 43.109375 
L 48.578125 34.8125 
L 19.671875 34.8125 
L 19.671875 0 
L 9.8125 0 
z
" id="DejaVuSans-70"/>
      <path d="M 44.28125 53.078125 
L 44.28125 44.578125 
Q 40.484375 46.53125 36.375 47.5 
Q 32.28125 48.484375 27.875 48.484375 
Q 21.1875 48.484375 17.84375 46.4375 
Q 14.5 44.390625 14.5 40.28125 
Q 14.5 37.15625 16.890625 35.375 
Q 19.28125 33.59375 26.515625 31.984375 
L 29.59375 31.296875 
Q 39.15625 29.25 43.1875 25.515625 
Q 47.21875 21.78125 47.21875 15.09375 
Q 47.21875 7.46875 41.1875 3.015625 
Q 35.15625 -1.421875 24.609375 -1.421875 
Q 20.21875 -1.421875 15.453125 -0.5625 
Q 10.6875 0.296875 5.421875 2 
L 5.421875 11.28125 
Q 10.40625 8.6875 15.234375 7.390625 
Q 20.0625 6.109375 24.8125 6.109375 
Q 31.15625 6.109375 34.5625 8.28125 
Q 37.984375 10.453125 37.984375 14.40625 
Q 37.984375 18.0625 35.515625 20.015625 
Q 33.0625 21.96875 24.703125 23.78125 
L 21.578125 24.515625 
Q 13.234375 26.265625 9.515625 29.90625 
Q 5.8125 33.546875 5.8125 39.890625 
Q 5.8125 47.609375 11.28125 51.796875 
Q 16.75 56 26.8125 56 
Q 31.78125 56 36.171875 55.265625 
Q 40.578125 54.546875 44.28125 53.078125 
z
" id="DejaVuSans-115"/>
      <path d="M 39.40625 66.21875 
Q 28.65625 66.21875 22.328125 58.203125 
Q 16.015625 50.203125 16.015625 36.375 
Q 16.015625 22.609375 22.328125 14.59375 
Q 28.65625 6.59375 39.40625 6.59375 
Q 50.140625 6.59375 56.421875 14.59375 
Q 62.703125 22.609375 62.703125 36.375 
Q 62.703125 50.203125 56.421875 58.203125 
Q 50.140625 66.21875 39.40625 66.21875 
z
M 39.40625 74.21875 
Q 54.734375 74.21875 63.90625 63.9375 
Q 73.09375 53.65625 73.09375 36.375 
Q 73.09375 19.140625 63.90625 8.859375 
Q 54.734375 -1.421875 39.40625 -1.421875 
Q 24.03125 -1.421875 14.8125 8.828125 
Q 5.609375 19.09375 5.609375 36.375 
Q 5.609375 53.65625 14.8125 63.9375 
Q 24.03125 74.21875 39.40625 74.21875 
z
" id="DejaVuSans-79"/>
      <path d="M 19.671875 34.8125 
L 19.671875 8.109375 
L 35.5 8.109375 
Q 43.453125 8.109375 47.28125 11.40625 
Q 51.125 14.703125 51.125 21.484375 
Q 51.125 28.328125 47.28125 31.5625 
Q 43.453125 34.8125 35.5 34.8125 
z
M 19.671875 64.796875 
L 19.671875 42.828125 
L 34.28125 42.828125 
Q 41.5 42.828125 45.03125 45.53125 
Q 48.578125 48.25 48.578125 53.8125 
Q 48.578125 59.328125 45.03125 62.0625 
Q 41.5 64.796875 34.28125 64.796875 
z
M 9.8125 72.90625 
L 35.015625 72.90625 
Q 46.296875 72.90625 52.390625 68.21875 
Q 58.5 63.53125 58.5 54.890625 
Q 58.5 48.1875 55.375 44.234375 
Q 52.25 40.28125 46.1875 39.3125 
Q 53.46875 37.75 57.5 32.78125 
Q 61.53125 27.828125 61.53125 20.40625 
Q 61.53125 10.640625 54.890625 5.3125 
Q 48.25 0 35.984375 0 
L 9.8125 0 
z
" id="DejaVuSans-66"/>
      <path d="M 9.8125 72.90625 
L 19.671875 72.90625 
L 19.671875 0 
L 9.8125 0 
z
" id="DejaVuSans-73"/>
      <path d="M 45.40625 46.390625 
L 45.40625 75.984375 
L 54.390625 75.984375 
L 54.390625 0 
L 45.40625 0 
L 45.40625 8.203125 
Q 42.578125 3.328125 38.25 0.953125 
Q 33.9375 -1.421875 27.875 -1.421875 
Q 17.96875 -1.421875 11.734375 6.484375 
Q 5.515625 14.40625 5.515625 27.296875 
Q 5.515625 40.1875 11.734375 48.09375 
Q 17.96875 56 27.875 56 
Q 33.9375 56 38.25 53.625 
Q 42.578125 51.265625 45.40625 46.390625 
z
M 14.796875 27.296875 
Q 14.796875 17.390625 18.875 11.75 
Q 22.953125 6.109375 30.078125 6.109375 
Q 37.203125 6.109375 41.296875 11.75 
Q 45.40625 17.390625 45.40625 27.296875 
Q 45.40625 37.203125 41.296875 42.84375 
Q 37.203125 48.484375 30.078125 48.484375 
Q 22.953125 48.484375 18.875 42.84375 
Q 14.796875 37.203125 14.796875 27.296875 
z
" id="DejaVuSans-100"/>
      <path d="M 2.984375 54.6875 
L 12.5 54.6875 
L 29.59375 8.796875 
L 46.6875 54.6875 
L 56.203125 54.6875 
L 35.6875 0 
L 23.484375 0 
z
" id="DejaVuSans-118"/>
      <path d="M 8.5 21.578125 
L 8.5 54.6875 
L 17.484375 54.6875 
L 17.484375 21.921875 
Q 17.484375 14.15625 20.5 10.265625 
Q 23.53125 6.390625 29.59375 6.390625 
Q 36.859375 6.390625 41.078125 11.03125 
Q 45.3125 15.671875 45.3125 23.6875 
L 45.3125 54.6875 
L 54.296875 54.6875 
L 54.296875 0 
L 45.3125 0 
L 45.3125 8.40625 
Q 42.046875 3.421875 37.71875 1 
Q 33.40625 -1.421875 27.6875 -1.421875 
Q 18.265625 -1.421875 13.375 4.4375 
Q 8.5 10.296875 8.5 21.578125 
z
M 31.109375 56 
z
" id="DejaVuSans-117"/>
      <path d="M 9.421875 75.984375 
L 18.40625 75.984375 
L 18.40625 0 
L 9.421875 0 
z
" id="DejaVuSans-108"/>
      <path d="M 31 75.875 
Q 24.46875 64.65625 21.28125 53.65625 
Q 18.109375 42.671875 18.109375 31.390625 
Q 18.109375 20.125 21.3125 9.0625 
Q 24.515625 -2 31 -13.1875 
L 23.1875 -13.1875 
Q 15.875 -1.703125 12.234375 9.375 
Q 8.59375 20.453125 8.59375 31.390625 
Q 8.59375 42.28125 12.203125 53.3125 
Q 15.828125 64.359375 23.1875 75.875 
z
" id="DejaVuSans-40"/>
      <path d="M 70.125 53.71875 
L 47.796875 31.296875 
L 70.125 8.984375 
L 64.3125 3.078125 
L 41.890625 25.484375 
L 19.484375 3.078125 
L 13.71875 8.984375 
L 35.984375 31.296875 
L 13.71875 53.71875 
L 19.484375 59.625 
L 41.890625 37.203125 
L 64.3125 59.625 
z
" id="DejaVuSans-215"/>
      <path d="M 4.890625 31.390625 
L 31.203125 31.390625 
L 31.203125 23.390625 
L 4.890625 23.390625 
z
" id="DejaVuSans-45"/>
      <path d="M 40.578125 39.3125 
Q 47.65625 37.796875 51.625 33 
Q 55.609375 28.21875 55.609375 21.1875 
Q 55.609375 10.40625 48.1875 4.484375 
Q 40.765625 -1.421875 27.09375 -1.421875 
Q 22.515625 -1.421875 17.65625 -0.515625 
Q 12.796875 0.390625 7.625 2.203125 
L 7.625 11.71875 
Q 11.71875 9.328125 16.59375 8.109375 
Q 21.484375 6.890625 26.8125 6.890625 
Q 36.078125 6.890625 40.9375 10.546875 
Q 45.796875 14.203125 45.796875 21.1875 
Q 45.796875 27.640625 41.28125 31.265625 
Q 36.765625 34.90625 28.71875 34.90625 
L 20.21875 34.90625 
L 20.21875 43.015625 
L 29.109375 43.015625 
Q 36.375 43.015625 40.234375 45.921875 
Q 44.09375 48.828125 44.09375 54.296875 
Q 44.09375 59.90625 40.109375 62.90625 
Q 36.140625 65.921875 28.71875 65.921875 
Q 24.65625 65.921875 20.015625 65.03125 
Q 15.375 64.15625 9.8125 62.3125 
L 9.8125 71.09375 
Q 15.4375 72.65625 20.34375 73.4375 
Q 25.25 74.21875 29.59375 74.21875 
Q 40.828125 74.21875 47.359375 69.109375 
Q 53.90625 64.015625 53.90625 55.328125 
Q 53.90625 49.265625 50.4375 45.09375 
Q 46.96875 40.921875 40.578125 39.3125 
z
" id="DejaVuSans-51"/>
      <path d="M 8.015625 75.875 
L 15.828125 75.875 
Q 23.140625 64.359375 26.78125 53.3125 
Q 30.421875 42.28125 30.421875 31.390625 
Q 30.421875 20.453125 26.78125 9.375 
Q 23.140625 -1.703125 15.828125 -13.1875 
L 8.015625 -13.1875 
Q 14.5 -2 17.703125 9.0625 
Q 20.90625 20.125 20.90625 31.390625 
Q 20.90625 42.671875 17.703125 53.65625 
Q 14.5 64.65625 8.015625 75.875 
z
" id="DejaVuSans-41"/>
     </defs>
     <g transform="translate(22.254687 260.601437)rotate(-90)scale(0.1 -0.1)">
      <use xlink:href="#DejaVuSans-70"/>
      <use x="57.410156" xlink:href="#DejaVuSans-105"/>
      <use x="85.193359" xlink:href="#DejaVuSans-116"/>
      <use x="124.402344" xlink:href="#DejaVuSans-110"/>
      <use x="187.78125" xlink:href="#DejaVuSans-101"/>
      <use x="249.304688" xlink:href="#DejaVuSans-115"/>
      <use x="301.404297" xlink:href="#DejaVuSans-115"/>
      <use x="353.503906" xlink:href="#DejaVuSans-32"/>
      <use x="385.291016" xlink:href="#DejaVuSans-79"/>
      <use x="464.001953" xlink:href="#DejaVuSans-102"/>
      <use x="499.207031" xlink:href="#DejaVuSans-32"/>
      <use x="530.994141" xlink:href="#DejaVuSans-66"/>
      <use x="599.597656" xlink:href="#DejaVuSans-101"/>
      <use x="661.121094" xlink:href="#DejaVuSans-115"/>
      <use x="713.220703" xlink:href="#DejaVuSans-116"/>
      <use x="752.429688" xlink:href="#DejaVuSans-32"/>
      <use x="784.216797" xlink:href="#DejaVuSans-73"/>
      <use x="813.708984" xlink:href="#DejaVuSans-110"/>
      <use x="877.087891" xlink:href="#DejaVuSans-100"/>
      <use x="940.564453" xlink:href="#DejaVuSans-105"/>
      <use x="968.347656" xlink:href="#DejaVuSans-118"/>
      <use x="1027.527344" xlink:href="#DejaVuSans-105"/>
      <use x="1055.310547" xlink:href="#DejaVuSans-100"/>
      <use x="1118.787109" xlink:href="#DejaVuSans-117"/>
      <use x="1182.166016" xlink:href="#DejaVuSans-97"/>
      <use x="1243.445312" xlink:href="#DejaVuSans-108"/>
      <use x="1271.228516" xlink:href="#DejaVuSans-32"/>
      <use x="1303.015625" xlink:href="#DejaVuSans-40"/>
      <use x="1342.029297" xlink:href="#DejaVuSans-215"/>
      <use x="1425.818359" xlink:href="#DejaVuSans-32"/>
      <use x="1457.605469" xlink:href="#DejaVuSans-49"/>
      <use x="1521.228516" xlink:href="#DejaVuSans-101"/>
      <use x="1582.751953" xlink:href="#DejaVuSans-45"/>
      <use x="1618.835938" xlink:href="#DejaVuSans-51"/>
      <use x="1682.458984" xlink:href="#DejaVuSans-41"/>
     </g>
    </g>
   </g>
   <g id="line2d_12">
    <path clip-path="url(#p370485fa03)" d="M 73.832727 295.488 
L 77.079273 273.319161 
L 80.325818 212.410682 
L 83.572364 153.969556 
L 86.818909 118.895406 
L 90.065455 88.695004 
L 93.312 73.928555 
L 96.558545 67.038657 
L 99.805091 62.649675 
L 103.051636 60.59637 
L 106.298182 58.645909 
L 109.544727 57.610311 
L 112.791273 57.070045 
L 116.037818 56.683866 
L 119.284364 56.683866 
L 122.530909 56.605129 
L 125.777455 56.511094 
L 129.024 56.511094 
L 132.270545 56.511094 
L 135.517091 56.167145 
L 138.763636 55.90826 
L 142.010182 55.556524 
L 145.256727 55.389193 
L 148.503273 55.389193 
L 151.749818 55.389193 
L 154.996364 55.389193 
L 158.242909 55.389193 
L 161.489455 55.186548 
L 164.736 55.186548 
L 167.982545 55.186548 
L 171.229091 55.005953 
L 174.475636 55.005953 
L 177.722182 55.005953 
L 180.968727 55.005953 
L 184.215273 55.005953 
L 187.461818 54.938668 
L 190.708364 54.938668 
L 193.954909 54.815049 
L 197.201455 54.815049 
L 200.448 54.815049 
L 203.694545 54.815049 
L 206.941091 54.62336 
L 210.187636 54.62336 
L 213.434182 54.5368 
L 216.680727 54.5368 
L 219.927273 54.5368 
L 223.173818 54.462035 
L 226.420364 54.462035 
L 229.666909 54.462035 
L 232.913455 54.462035 
L 236.16 54.462035 
L 239.406545 54.27782 
L 242.653091 54.27782 
L 245.899636 54.27782 
L 249.146182 54.27782 
L 252.392727 54.222416 
L 255.639273 54.222416 
L 258.885818 54.222416 
L 262.132364 54.222416 
L 265.378909 54.222416 
L 268.625455 54.222416 
L 271.872 54.222416 
L 275.118545 54.135856 
L 278.365091 54.135856 
L 281.611636 54.135856 
L 284.858182 54.135856 
L 288.104727 54.135856 
L 291.351273 54.135856 
L 294.597818 54.135856 
L 297.844364 54.135856 
L 301.090909 54.135856 
L 304.337455 54.135856 
L 307.584 54.007976 
L 310.830545 53.880095 
L 314.077091 53.880095 
L 317.323636 53.880095 
L 320.570182 53.880095 
L 323.816727 53.880095 
L 327.063273 53.880095 
L 330.309818 53.880095 
L 333.556364 53.880095 
L 336.802909 53.880095 
L 340.049455 53.880095 
L 343.296 53.880095 
L 346.542545 53.880095 
L 349.789091 53.880095 
L 353.035636 53.880095 
L 356.282182 53.880095 
L 359.528727 53.880095 
L 362.775273 53.880095 
L 366.021818 53.880095 
L 369.268364 53.880095 
L 372.514909 53.880095 
L 375.761455 53.628596 
L 379.008 53.628596 
L 382.254545 53.628596 
L 385.501091 53.628596 
L 388.747636 53.628596 
L 391.994182 53.568 
L 395.240727 53.568 
L 398.487273 53.568 
" style="fill:none;stroke:#1f77b4;stroke-linecap:square;stroke-width:1.5;"/>
   </g>
   <g id="patch_3">
    <path d="M 57.6 307.584 
L 57.6 41.472 
" style="fill:none;stroke:#000000;stroke-linecap:square;stroke-linejoin:miter;stroke-width:0.8;"/>
   </g>
   <g id="patch_4">
    <path d="M 414.72 307.584 
L 414.72 41.472 
" style="fill:none;stroke:#000000;stroke-linecap:square;stroke-linejoin:miter;stroke-width:0.8;"/>
   </g>
   <g id="patch_5">
    <path d="M 57.6 307.584 
L 414.72 307.584 
" style="fill:none;stroke:#000000;stroke-linecap:square;stroke-linejoin:miter;stroke-width:0.8;"/>
   </g>
   <g id="patch_6">
    <path d="M 57.6 41.472 
L 414.72 41.472 
" style="fill:none;stroke:#000000;stroke-linecap:square;stroke-linejoin:miter;stroke-width:0.8;"/>
   </g>
  </g>
  <g id="axes_2">
   <g id="matplotlib.axis_3">
    <g id="ytick_6">
     <g id="line2d_13">
      <defs>
       <path d="M 0 0 
L 3.5 0 
" id="m6047468d30" style="stroke:#000000;stroke-width:0.8;"/>
      </defs>
      <g>
       <use style="stroke:#000000;stroke-width:0.8;" x="414.72" xlink:href="#m6047468d30" y="295.488"/>
      </g>
     </g>
     <g id="text_14">
      <!-- 0.0 -->
      <g transform="translate(421.72 299.287219)scale(0.1 -0.1)">
       <use xlink:href="#DejaVuSans-48"/>
       <use x="63.623047" xlink:href="#DejaVuSans-46"/>
       <use x="95.410156" xlink:href="#DejaVuSans-48"/>
      </g>
     </g>
    </g>
    <g id="ytick_7">
     <g id="line2d_14">
      <g>
       <use style="stroke:#000000;stroke-width:0.8;" x="414.72" xlink:href="#m6047468d30" y="247.104"/>
      </g>
     </g>
     <g id="text_15">
      <!-- 0.2 -->
      <g transform="translate(421.72 250.903219)scale(0.1 -0.1)">
       <use xlink:href="#DejaVuSans-48"/>
       <use x="63.623047" xlink:href="#DejaVuSans-46"/>
       <use x="95.410156" xlink:href="#DejaVuSans-50"/>
      </g>
     </g>
    </g>
    <g id="ytick_8">
     <g id="line2d_15">
      <g>
       <use style="stroke:#000000;stroke-width:0.8;" x="414.72" xlink:href="#m6047468d30" y="198.72"/>
      </g>
     </g>
     <g id="text_16">
      <!-- 0.4 -->
      <g transform="translate(421.72 202.519219)scale(0.1 -0.1)">
       <use xlink:href="#DejaVuSans-48"/>
       <use x="63.623047" xlink:href="#DejaVuSans-46"/>
       <use x="95.410156" xlink:href="#DejaVuSans-52"/>
      </g>
     </g>
    </g>
    <g id="ytick_9">
     <g id="line2d_16">
      <g>
       <use style="stroke:#000000;stroke-width:0.8;" x="414.72" xlink:href="#m6047468d30" y="150.336"/>
      </g>
     </g>
     <g id="text_17">
      <!-- 0.6 -->
      <g transform="translate(421.72 154.135219)scale(0.1 -0.1)">
       <use xlink:href="#DejaVuSans-48"/>
       <use x="63.623047" xlink:href="#DejaVuSans-46"/>
       <use x="95.410156" xlink:href="#DejaVuSans-54"/>
      </g>
     </g>
    </g>
    <g id="ytick_10">
     <g id="line2d_17">
      <g>
       <use style="stroke:#000000;stroke-width:0.8;" x="414.72" xlink:href="#m6047468d30" y="101.952"/>
      </g>
     </g>
     <g id="text_18">
      <!-- 0.8 -->
      <g transform="translate(421.72 105.751219)scale(0.1 -0.1)">
       <use xlink:href="#DejaVuSans-48"/>
       <use x="63.623047" xlink:href="#DejaVuSans-46"/>
       <use x="95.410156" xlink:href="#DejaVuSans-56"/>
      </g>
     </g>
    </g>
    <g id="ytick_11">
     <g id="line2d_18">
      <g>
       <use style="stroke:#000000;stroke-width:0.8;" x="414.72" xlink:href="#m6047468d30" y="53.568"/>
      </g>
     </g>
     <g id="text_19">
      <!-- 1.0 -->
      <g transform="translate(421.72 57.367219)scale(0.1 -0.1)">
       <use xlink:href="#DejaVuSans-49"/>
       <use x="63.623047" xlink:href="#DejaVuSans-46"/>
       <use x="95.410156" xlink:href="#DejaVuSans-48"/>
      </g>
     </g>
    </g>
    <g id="text_20">
     <!-- Diversity Metric -->
     <defs>
      <path d="M 19.671875 64.796875 
L 19.671875 8.109375 
L 31.59375 8.109375 
Q 46.6875 8.109375 53.6875 14.9375 
Q 60.6875 21.78125 60.6875 36.53125 
Q 60.6875 51.171875 53.6875 57.984375 
Q 46.6875 64.796875 31.59375 64.796875 
z
M 9.8125 72.90625 
L 30.078125 72.90625 
Q 51.265625 72.90625 61.171875 64.09375 
Q 71.09375 55.28125 71.09375 36.53125 
Q 71.09375 17.671875 61.125 8.828125 
Q 51.171875 0 30.078125 0 
L 9.8125 0 
z
" id="DejaVuSans-68"/>
      <path d="M 32.171875 -5.078125 
Q 28.375 -14.84375 24.75 -17.8125 
Q 21.140625 -20.796875 15.09375 -20.796875 
L 7.90625 -20.796875 
L 7.90625 -13.28125 
L 13.1875 -13.28125 
Q 16.890625 -13.28125 18.9375 -11.515625 
Q 21 -9.765625 23.484375 -3.21875 
L 25.09375 0.875 
L 2.984375 54.6875 
L 12.5 54.6875 
L 29.59375 11.921875 
L 46.6875 54.6875 
L 56.203125 54.6875 
z
" id="DejaVuSans-121"/>
      <path d="M 9.8125 72.90625 
L 24.515625 72.90625 
L 43.109375 23.296875 
L 61.8125 72.90625 
L 76.515625 72.90625 
L 76.515625 0 
L 66.890625 0 
L 66.890625 64.015625 
L 48.09375 14.015625 
L 38.1875 14.015625 
L 19.390625 64.015625 
L 19.390625 0 
L 9.8125 0 
z
" id="DejaVuSans-77"/>
      <path d="M 48.78125 52.59375 
L 48.78125 44.1875 
Q 44.96875 46.296875 41.140625 47.34375 
Q 37.3125 48.390625 33.40625 48.390625 
Q 24.65625 48.390625 19.8125 42.84375 
Q 14.984375 37.3125 14.984375 27.296875 
Q 14.984375 17.28125 19.8125 11.734375 
Q 24.65625 6.203125 33.40625 6.203125 
Q 37.3125 6.203125 41.140625 7.25 
Q 44.96875 8.296875 48.78125 10.40625 
L 48.78125 2.09375 
Q 45.015625 0.34375 40.984375 -0.53125 
Q 36.96875 -1.421875 32.421875 -1.421875 
Q 20.0625 -1.421875 12.78125 6.34375 
Q 5.515625 14.109375 5.515625 27.296875 
Q 5.515625 40.671875 12.859375 48.328125 
Q 20.21875 56 33.015625 56 
Q 37.15625 56 41.109375 55.140625 
Q 45.0625 54.296875 48.78125 52.59375 
z
" id="DejaVuSans-99"/>
     </defs>
     <g transform="translate(449.221563 213.905344)rotate(-90)scale(0.1 -0.1)">
      <use xlink:href="#DejaVuSans-68"/>
      <use x="77.001953" xlink:href="#DejaVuSans-105"/>
      <use x="104.785156" xlink:href="#DejaVuSans-118"/>
      <use x="163.964844" xlink:href="#DejaVuSans-101"/>
      <use x="225.488281" xlink:href="#DejaVuSans-114"/>
      <use x="266.601562" xlink:href="#DejaVuSans-115"/>
      <use x="318.701172" xlink:href="#DejaVuSans-105"/>
      <use x="346.484375" xlink:href="#DejaVuSans-116"/>
      <use x="385.693359" xlink:href="#DejaVuSans-121"/>
      <use x="444.873047" xlink:href="#DejaVuSans-32"/>
      <use x="476.660156" xlink:href="#DejaVuSans-77"/>
      <use x="562.939453" xlink:href="#DejaVuSans-101"/>
      <use x="624.462891" xlink:href="#DejaVuSans-116"/>
      <use x="663.671875" xlink:href="#DejaVuSans-114"/>
      <use x="704.785156" xlink:href="#DejaVuSans-105"/>
      <use x="732.568359" xlink:href="#DejaVuSans-99"/>
     </g>
    </g>
   </g>
   <g id="line2d_19">
    <path clip-path="url(#p370485fa03)" d="M 73.832727 53.568 
L 77.079273 53.72928 
L 80.325818 56.30976 
L 83.572364 72.35712 
L 86.818909 86.06592 
L 90.065455 85.0176 
L 93.312 86.95296 
L 96.558545 103.88736 
L 99.805091 112.35456 
L 103.051636 117.6768 
L 106.298182 121.62816 
L 109.544727 128.24064 
L 112.791273 132.27264 
L 116.037818 134.04672 
L 119.284364 136.224 
L 122.530909 137.51424 
L 125.777455 139.12704 
L 129.024 140.90112 
L 132.270545 141.78816 
L 135.517091 142.03008 
L 138.763636 143.32032 
L 142.010182 144.12672 
L 145.256727 145.82016 
L 148.503273 147.99744 
L 151.749818 150.01344 
L 154.996364 151.5456 
L 158.242909 152.83584 
L 161.489455 154.20672 
L 164.736 155.65824 
L 167.982545 157.1904 
L 171.229091 158.56128 
L 174.475636 160.17408 
L 177.722182 161.78688 
L 180.968727 163.72224 
L 184.215273 165.49632 
L 187.461818 166.78656 
L 190.708364 167.59296 
L 193.954909 167.6736 
L 197.201455 169.2864 
L 200.448 170.57664 
L 203.694545 171.7056 
L 206.941091 172.59264 
L 210.187636 173.80224 
L 213.434182 174.528 
L 216.680727 175.89888 
L 219.927273 177.18912 
L 223.173818 177.99552 
L 226.420364 178.88256 
L 229.666909 179.93088 
L 232.913455 180.49536 
L 236.16 181.54368 
L 239.406545 181.7856 
L 242.653091 183.15648 
L 245.899636 184.04352 
L 249.146182 185.17248 
L 252.392727 185.97888 
L 255.639273 187.0272 
L 258.885818 187.8336 
L 262.132364 189.20448 
L 265.378909 190.17216 
L 268.625455 190.97856 
L 271.872 192.10752 
L 275.118545 192.99456 
L 278.365091 192.91392 
L 281.611636 193.55904 
L 284.858182 194.60736 
L 288.104727 194.688 
L 291.351273 195.81696 
L 294.597818 196.94592 
L 297.844364 197.26848 
L 301.090909 198.3168 
L 304.337455 198.88128 
L 307.584 199.28448 
L 310.830545 200.01024 
L 314.077091 200.81664 
L 317.323636 201.5424 
L 320.570182 202.10688 
L 323.816727 202.91328 
L 327.063273 203.80032 
L 330.309818 204.52608 
L 333.556364 205.73568 
L 336.802909 206.54208 
L 340.049455 207.34848 
L 343.296 208.15488 
L 346.542545 209.2032 
L 349.789091 210.0096 
L 353.035636 210.816 
L 356.282182 211.6224 
L 359.528727 212.50944 
L 362.775273 213.31584 
L 366.021818 213.79968 
L 369.268364 214.52544 
L 372.514909 215.81568 
L 375.761455 216.13824 
L 379.008 216.70272 
L 382.254545 217.2672 
L 385.501091 217.50912 
L 388.747636 217.99296 
L 391.994182 218.79936 
L 395.240727 219.20256 
L 398.487273 220.33152 
" style="fill:none;stroke:#ff0000;stroke-linecap:square;stroke-width:1.5;"/>
   </g>
   <g id="line2d_20">
    <path clip-path="url(#p370485fa03)" d="M 73.832727 295.488 
L 77.079273 295.488 
L 80.325818 295.488 
L 83.572364 294.2784 
L 86.818909 284.35968 
L 90.065455 259.28064 
L 93.312 245.00736 
L 96.558545 200.89728 
L 99.805091 158.23872 
L 103.051636 125.01504 
L 106.298182 98.40384 
L 109.544727 88.16256 
L 112.791273 76.22784 
L 116.037818 63.97056 
L 119.284364 59.53536 
L 122.530909 59.2128 
L 125.777455 58.4064 
L 129.024 58.4064 
L 132.270545 57.76128 
L 135.517091 61.39008 
L 138.763636 62.19648 
L 142.010182 62.51904 
L 145.256727 63.40608 
L 148.503273 60.26112 
L 151.749818 59.85792 
L 154.996364 59.69664 
L 158.242909 59.77728 
L 161.489455 60.58368 
L 164.736 60.50304 
L 167.982545 60.34176 
L 171.229091 60.8256 
L 174.475636 61.2288 
L 177.722182 60.0192 
L 180.968727 60.50304 
L 184.215273 60.50304 
L 187.461818 61.55136 
L 190.708364 61.06752 
L 193.954909 61.87392 
L 197.201455 61.55136 
L 200.448 62.0352 
L 203.694545 62.4384 
L 206.941091 63.97056 
L 210.187636 63.40608 
L 213.434182 63.72864 
L 216.680727 63.648 
L 219.927273 63.16416 
L 223.173818 64.0512 
L 226.420364 63.72864 
L 229.666909 63.648 
L 232.913455 64.0512 
L 236.16 64.37376 
L 239.406545 65.50272 
L 242.653091 65.18016 
L 245.899636 64.8576 
L 249.146182 64.61568 
L 252.392727 65.34144 
L 255.639273 65.18016 
L 258.885818 64.53504 
L 262.132364 64.4544 
L 265.378909 64.4544 
L 268.625455 65.01888 
L 271.872 65.2608 
L 275.118545 65.90592 
L 278.365091 66.38976 
L 281.611636 66.22848 
L 284.858182 66.30912 
L 288.104727 67.11552 
L 291.351273 67.19616 
L 294.597818 66.55104 
L 297.844364 66.8736 
L 301.090909 67.03488 
L 304.337455 67.11552 
L 307.584 68.00256 
L 310.830545 68.72832 
L 314.077091 68.24448 
L 317.323636 67.35744 
L 320.570182 67.68 
L 323.816727 67.59936 
L 327.063273 67.59936 
L 330.309818 67.59936 
L 333.556364 67.51872 
L 336.802909 67.68 
L 340.049455 67.84128 
L 343.296 68.16384 
L 346.542545 67.92192 
L 349.789091 67.76064 
L 353.035636 67.92192 
L 356.282182 68.24448 
L 359.528727 68.00256 
L 362.775273 67.92192 
L 366.021818 68.00256 
L 369.268364 67.76064 
L 372.514909 67.68 
L 375.761455 68.32512 
L 379.008 67.84128 
L 382.254545 67.92192 
L 385.501091 68.16384 
L 388.747636 69.13152 
L 391.994182 69.05088 
L 395.240727 67.84128 
L 398.487273 67.03488 
" style="fill:none;stroke:#800080;stroke-dasharray:5.55,2.4;stroke-dashoffset:0;stroke-width:1.5;"/>
    <defs>
     <path d="M 0 -3 
L -2.85317 -0.927051 
L -1.763356 2.427051 
L 1.763356 2.427051 
L 2.85317 -0.927051 
z
" id="m77d5444c0d" style="stroke:#800080;stroke-linejoin:miter;"/>
    </defs>
    <g clip-path="url(#p370485fa03)">
     <use style="fill:#800080;stroke:#800080;stroke-linejoin:miter;" x="73.832727" xlink:href="#m77d5444c0d" y="295.488"/>
     <use style="fill:#800080;stroke:#800080;stroke-linejoin:miter;" x="77.079273" xlink:href="#m77d5444c0d" y="295.488"/>
     <use style="fill:#800080;stroke:#800080;stroke-linejoin:miter;" x="80.325818" xlink:href="#m77d5444c0d" y="295.488"/>
     <use style="fill:#800080;stroke:#800080;stroke-linejoin:miter;" x="83.572364" xlink:href="#m77d5444c0d" y="294.2784"/>
     <use style="fill:#800080;stroke:#800080;stroke-linejoin:miter;" x="86.818909" xlink:href="#m77d5444c0d" y="284.35968"/>
     <use style="fill:#800080;stroke:#800080;stroke-linejoin:miter;" x="90.065455" xlink:href="#m77d5444c0d" y="259.28064"/>
     <use style="fill:#800080;stroke:#800080;stroke-linejoin:miter;" x="93.312" xlink:href="#m77d5444c0d" y="245.00736"/>
     <use style="fill:#800080;stroke:#800080;stroke-linejoin:miter;" x="96.558545" xlink:href="#m77d5444c0d" y="200.89728"/>
     <use style="fill:#800080;stroke:#800080;stroke-linejoin:miter;" x="99.805091" xlink:href="#m77d5444c0d" y="158.23872"/>
     <use style="fill:#800080;stroke:#800080;stroke-linejoin:miter;" x="103.051636" xlink:href="#m77d5444c0d" y="125.01504"/>
     <use style="fill:#800080;stroke:#800080;stroke-linejoin:miter;" x="106.298182" xlink:href="#m77d5444c0d" y="98.40384"/>
     <use style="fill:#800080;stroke:#800080;stroke-linejoin:miter;" x="109.544727" xlink:href="#m77d5444c0d" y="88.16256"/>
     <use style="fill:#800080;stroke:#800080;stroke-linejoin:miter;" x="112.791273" xlink:href="#m77d5444c0d" y="76.22784"/>
     <use style="fill:#800080;stroke:#800080;stroke-linejoin:miter;" x="116.037818" xlink:href="#m77d5444c0d" y="63.97056"/>
     <use style="fill:#800080;stroke:#800080;stroke-linejoin:miter;" x="119.284364" xlink:href="#m77d5444c0d" y="59.53536"/>
     <use style="fill:#800080;stroke:#800080;stroke-linejoin:miter;" x="122.530909" xlink:href="#m77d5444c0d" y="59.2128"/>
     <use style="fill:#800080;stroke:#800080;stroke-linejoin:miter;" x="125.777455" xlink:href="#m77d5444c0d" y="58.4064"/>
     <use style="fill:#800080;stroke:#800080;stroke-linejoin:miter;" x="129.024" xlink:href="#m77d5444c0d" y="58.4064"/>
     <use style="fill:#800080;stroke:#800080;stroke-linejoin:miter;" x="132.270545" xlink:href="#m77d5444c0d" y="57.76128"/>
     <use style="fill:#800080;stroke:#800080;stroke-linejoin:miter;" x="135.517091" xlink:href="#m77d5444c0d" y="61.39008"/>
     <use style="fill:#800080;stroke:#800080;stroke-linejoin:miter;" x="138.763636" xlink:href="#m77d5444c0d" y="62.19648"/>
     <use style="fill:#800080;stroke:#800080;stroke-linejoin:miter;" x="142.010182" xlink:href="#m77d5444c0d" y="62.51904"/>
     <use style="fill:#800080;stroke:#800080;stroke-linejoin:miter;" x="145.256727" xlink:href="#m77d5444c0d" y="63.40608"/>
     <use style="fill:#800080;stroke:#800080;stroke-linejoin:miter;" x="148.503273" xlink:href="#m77d5444c0d" y="60.26112"/>
     <use style="fill:#800080;stroke:#800080;stroke-linejoin:miter;" x="151.749818" xlink:href="#m77d5444c0d" y="59.85792"/>
     <use style="fill:#800080;stroke:#800080;stroke-linejoin:miter;" x="154.996364" xlink:href="#m77d5444c0d" y="59.69664"/>
     <use style="fill:#800080;stroke:#800080;stroke-linejoin:miter;" x="158.242909" xlink:href="#m77d5444c0d" y="59.77728"/>
     <use style="fill:#800080;stroke:#800080;stroke-linejoin:miter;" x="161.489455" xlink:href="#m77d5444c0d" y="60.58368"/>
     <use style="fill:#800080;stroke:#800080;stroke-linejoin:miter;" x="164.736" xlink:href="#m77d5444c0d" y="60.50304"/>
     <use style="fill:#800080;stroke:#800080;stroke-linejoin:miter;" x="167.982545" xlink:href="#m77d5444c0d" y="60.34176"/>
     <use style="fill:#800080;stroke:#800080;stroke-linejoin:miter;" x="171.229091" xlink:href="#m77d5444c0d" y="60.8256"/>
     <use style="fill:#800080;stroke:#800080;stroke-linejoin:miter;" x="174.475636" xlink:href="#m77d5444c0d" y="61.2288"/>
     <use style="fill:#800080;stroke:#800080;stroke-linejoin:miter;" x="177.722182" xlink:href="#m77d5444c0d" y="60.0192"/>
     <use style="fill:#800080;stroke:#800080;stroke-linejoin:miter;" x="180.968727" xlink:href="#m77d5444c0d" y="60.50304"/>
     <use style="fill:#800080;stroke:#800080;stroke-linejoin:miter;" x="184.215273" xlink:href="#m77d5444c0d" y="60.50304"/>
     <use style="fill:#800080;stroke:#800080;stroke-linejoin:miter;" x="187.461818" xlink:href="#m77d5444c0d" y="61.55136"/>
     <use style="fill:#800080;stroke:#800080;stroke-linejoin:miter;" x="190.708364" xlink:href="#m77d5444c0d" y="61.06752"/>
     <use style="fill:#800080;stroke:#800080;stroke-linejoin:miter;" x="193.954909" xlink:href="#m77d5444c0d" y="61.87392"/>
     <use style="fill:#800080;stroke:#800080;stroke-linejoin:miter;" x="197.201455" xlink:href="#m77d5444c0d" y="61.55136"/>
     <use style="fill:#800080;stroke:#800080;stroke-linejoin:miter;" x="200.448" xlink:href="#m77d5444c0d" y="62.0352"/>
     <use style="fill:#800080;stroke:#800080;stroke-linejoin:miter;" x="203.694545" xlink:href="#m77d5444c0d" y="62.4384"/>
     <use style="fill:#800080;stroke:#800080;stroke-linejoin:miter;" x="206.941091" xlink:href="#m77d5444c0d" y="63.97056"/>
     <use style="fill:#800080;stroke:#800080;stroke-linejoin:miter;" x="210.187636" xlink:href="#m77d5444c0d" y="63.40608"/>
     <use style="fill:#800080;stroke:#800080;stroke-linejoin:miter;" x="213.434182" xlink:href="#m77d5444c0d" y="63.72864"/>
     <use style="fill:#800080;stroke:#800080;stroke-linejoin:miter;" x="216.680727" xlink:href="#m77d5444c0d" y="63.648"/>
     <use style="fill:#800080;stroke:#800080;stroke-linejoin:miter;" x="219.927273" xlink:href="#m77d5444c0d" y="63.16416"/>
     <use style="fill:#800080;stroke:#800080;stroke-linejoin:miter;" x="223.173818" xlink:href="#m77d5444c0d" y="64.0512"/>
     <use style="fill:#800080;stroke:#800080;stroke-linejoin:miter;" x="226.420364" xlink:href="#m77d5444c0d" y="63.72864"/>
     <use style="fill:#800080;stroke:#800080;stroke-linejoin:miter;" x="229.666909" xlink:href="#m77d5444c0d" y="63.648"/>
     <use style="fill:#800080;stroke:#800080;stroke-linejoin:miter;" x="232.913455" xlink:href="#m77d5444c0d" y="64.0512"/>
     <use style="fill:#800080;stroke:#800080;stroke-linejoin:miter;" x="236.16" xlink:href="#m77d5444c0d" y="64.37376"/>
     <use style="fill:#800080;stroke:#800080;stroke-linejoin:miter;" x="239.406545" xlink:href="#m77d5444c0d" y="65.50272"/>
     <use style="fill:#800080;stroke:#800080;stroke-linejoin:miter;" x="242.653091" xlink:href="#m77d5444c0d" y="65.18016"/>
     <use style="fill:#800080;stroke:#800080;stroke-linejoin:miter;" x="245.899636" xlink:href="#m77d5444c0d" y="64.8576"/>
     <use style="fill:#800080;stroke:#800080;stroke-linejoin:miter;" x="249.146182" xlink:href="#m77d5444c0d" y="64.61568"/>
     <use style="fill:#800080;stroke:#800080;stroke-linejoin:miter;" x="252.392727" xlink:href="#m77d5444c0d" y="65.34144"/>
     <use style="fill:#800080;stroke:#800080;stroke-linejoin:miter;" x="255.639273" xlink:href="#m77d5444c0d" y="65.18016"/>
     <use style="fill:#800080;stroke:#800080;stroke-linejoin:miter;" x="258.885818" xlink:href="#m77d5444c0d" y="64.53504"/>
     <use style="fill:#800080;stroke:#800080;stroke-linejoin:miter;" x="262.132364" xlink:href="#m77d5444c0d" y="64.4544"/>
     <use style="fill:#800080;stroke:#800080;stroke-linejoin:miter;" x="265.378909" xlink:href="#m77d5444c0d" y="64.4544"/>
     <use style="fill:#800080;stroke:#800080;stroke-linejoin:miter;" x="268.625455" xlink:href="#m77d5444c0d" y="65.01888"/>
     <use style="fill:#800080;stroke:#800080;stroke-linejoin:miter;" x="271.872" xlink:href="#m77d5444c0d" y="65.2608"/>
     <use style="fill:#800080;stroke:#800080;stroke-linejoin:miter;" x="275.118545" xlink:href="#m77d5444c0d" y="65.90592"/>
     <use style="fill:#800080;stroke:#800080;stroke-linejoin:miter;" x="278.365091" xlink:href="#m77d5444c0d" y="66.38976"/>
     <use style="fill:#800080;stroke:#800080;stroke-linejoin:miter;" x="281.611636" xlink:href="#m77d5444c0d" y="66.22848"/>
     <use style="fill:#800080;stroke:#800080;stroke-linejoin:miter;" x="284.858182" xlink:href="#m77d5444c0d" y="66.30912"/>
     <use style="fill:#800080;stroke:#800080;stroke-linejoin:miter;" x="288.104727" xlink:href="#m77d5444c0d" y="67.11552"/>
     <use style="fill:#800080;stroke:#800080;stroke-linejoin:miter;" x="291.351273" xlink:href="#m77d5444c0d" y="67.19616"/>
     <use style="fill:#800080;stroke:#800080;stroke-linejoin:miter;" x="294.597818" xlink:href="#m77d5444c0d" y="66.55104"/>
     <use style="fill:#800080;stroke:#800080;stroke-linejoin:miter;" x="297.844364" xlink:href="#m77d5444c0d" y="66.8736"/>
     <use style="fill:#800080;stroke:#800080;stroke-linejoin:miter;" x="301.090909" xlink:href="#m77d5444c0d" y="67.03488"/>
     <use style="fill:#800080;stroke:#800080;stroke-linejoin:miter;" x="304.337455" xlink:href="#m77d5444c0d" y="67.11552"/>
     <use style="fill:#800080;stroke:#800080;stroke-linejoin:miter;" x="307.584" xlink:href="#m77d5444c0d" y="68.00256"/>
     <use style="fill:#800080;stroke:#800080;stroke-linejoin:miter;" x="310.830545" xlink:href="#m77d5444c0d" y="68.72832"/>
     <use style="fill:#800080;stroke:#800080;stroke-linejoin:miter;" x="314.077091" xlink:href="#m77d5444c0d" y="68.24448"/>
     <use style="fill:#800080;stroke:#800080;stroke-linejoin:miter;" x="317.323636" xlink:href="#m77d5444c0d" y="67.35744"/>
     <use style="fill:#800080;stroke:#800080;stroke-linejoin:miter;" x="320.570182" xlink:href="#m77d5444c0d" y="67.68"/>
     <use style="fill:#800080;stroke:#800080;stroke-linejoin:miter;" x="323.816727" xlink:href="#m77d5444c0d" y="67.59936"/>
     <use style="fill:#800080;stroke:#800080;stroke-linejoin:miter;" x="327.063273" xlink:href="#m77d5444c0d" y="67.59936"/>
     <use style="fill:#800080;stroke:#800080;stroke-linejoin:miter;" x="330.309818" xlink:href="#m77d5444c0d" y="67.59936"/>
     <use style="fill:#800080;stroke:#800080;stroke-linejoin:miter;" x="333.556364" xlink:href="#m77d5444c0d" y="67.51872"/>
     <use style="fill:#800080;stroke:#800080;stroke-linejoin:miter;" x="336.802909" xlink:href="#m77d5444c0d" y="67.68"/>
     <use style="fill:#800080;stroke:#800080;stroke-linejoin:miter;" x="340.049455" xlink:href="#m77d5444c0d" y="67.84128"/>
     <use style="fill:#800080;stroke:#800080;stroke-linejoin:miter;" x="343.296" xlink:href="#m77d5444c0d" y="68.16384"/>
     <use style="fill:#800080;stroke:#800080;stroke-linejoin:miter;" x="346.542545" xlink:href="#m77d5444c0d" y="67.92192"/>
     <use style="fill:#800080;stroke:#800080;stroke-linejoin:miter;" x="349.789091" xlink:href="#m77d5444c0d" y="67.76064"/>
     <use style="fill:#800080;stroke:#800080;stroke-linejoin:miter;" x="353.035636" xlink:href="#m77d5444c0d" y="67.92192"/>
     <use style="fill:#800080;stroke:#800080;stroke-linejoin:miter;" x="356.282182" xlink:href="#m77d5444c0d" y="68.24448"/>
     <use style="fill:#800080;stroke:#800080;stroke-linejoin:miter;" x="359.528727" xlink:href="#m77d5444c0d" y="68.00256"/>
     <use style="fill:#800080;stroke:#800080;stroke-linejoin:miter;" x="362.775273" xlink:href="#m77d5444c0d" y="67.92192"/>
     <use style="fill:#800080;stroke:#800080;stroke-linejoin:miter;" x="366.021818" xlink:href="#m77d5444c0d" y="68.00256"/>
     <use style="fill:#800080;stroke:#800080;stroke-linejoin:miter;" x="369.268364" xlink:href="#m77d5444c0d" y="67.76064"/>
     <use style="fill:#800080;stroke:#800080;stroke-linejoin:miter;" x="372.514909" xlink:href="#m77d5444c0d" y="67.68"/>
     <use style="fill:#800080;stroke:#800080;stroke-linejoin:miter;" x="375.761455" xlink:href="#m77d5444c0d" y="68.32512"/>
     <use style="fill:#800080;stroke:#800080;stroke-linejoin:miter;" x="379.008" xlink:href="#m77d5444c0d" y="67.84128"/>
     <use style="fill:#800080;stroke:#800080;stroke-linejoin:miter;" x="382.254545" xlink:href="#m77d5444c0d" y="67.92192"/>
     <use style="fill:#800080;stroke:#800080;stroke-linejoin:miter;" x="385.501091" xlink:href="#m77d5444c0d" y="68.16384"/>
     <use style="fill:#800080;stroke:#800080;stroke-linejoin:miter;" x="388.747636" xlink:href="#m77d5444c0d" y="69.13152"/>
     <use style="fill:#800080;stroke:#800080;stroke-linejoin:miter;" x="391.994182" xlink:href="#m77d5444c0d" y="69.05088"/>
     <use style="fill:#800080;stroke:#800080;stroke-linejoin:miter;" x="395.240727" xlink:href="#m77d5444c0d" y="67.84128"/>
     <use style="fill:#800080;stroke:#800080;stroke-linejoin:miter;" x="398.487273" xlink:href="#m77d5444c0d" y="67.03488"/>
    </g>
   </g>
   <g id="patch_7">
    <path d="M 57.6 307.584 
L 57.6 41.472 
" style="fill:none;stroke:#000000;stroke-linecap:square;stroke-linejoin:miter;stroke-width:0.8;"/>
   </g>
   <g id="patch_8">
    <path d="M 414.72 307.584 
L 414.72 41.472 
" style="fill:none;stroke:#000000;stroke-linecap:square;stroke-linejoin:miter;stroke-width:0.8;"/>
   </g>
   <g id="patch_9">
    <path d="M 57.6 307.584 
L 414.72 307.584 
" style="fill:none;stroke:#000000;stroke-linecap:square;stroke-linejoin:miter;stroke-width:0.8;"/>
   </g>
   <g id="patch_10">
    <path d="M 57.6 41.472 
L 414.72 41.472 
" style="fill:none;stroke:#000000;stroke-linecap:square;stroke-linejoin:miter;stroke-width:0.8;"/>
   </g>
  </g>
  <g id="axes_3">
   <g id="matplotlib.axis_4">
    <g id="xtick_7">
     <g id="line2d_21">
      <defs>
       <path d="M 0 0 
L 0 -3.5 
" id="m273cf8f3e8" style="stroke:#000000;stroke-width:0.8;"/>
      </defs>
      <g>
       <use style="stroke:#000000;stroke-width:0.8;" x="73.832727" xlink:href="#m273cf8f3e8" y="41.472"/>
      </g>
     </g>
     <g id="text_21">
      <!-- 100 -->
      <g transform="translate(66.697048 32.833526)rotate(-10)scale(0.08 -0.08)">
       <use xlink:href="#DejaVuSans-49"/>
       <use x="63.623047" xlink:href="#DejaVuSans-48"/>
       <use x="127.246094" xlink:href="#DejaVuSans-48"/>
      </g>
     </g>
    </g>
    <g id="xtick_8">
     <g id="line2d_22">
      <g>
       <use style="stroke:#000000;stroke-width:0.8;" x="106.298182" xlink:href="#m273cf8f3e8" y="41.472"/>
      </g>
     </g>
     <g id="text_22">
      <!-- 5561 -->
      <defs>
       <path d="M 10.796875 72.90625 
L 49.515625 72.90625 
L 49.515625 64.59375 
L 19.828125 64.59375 
L 19.828125 46.734375 
Q 21.96875 47.46875 24.109375 47.828125 
Q 26.265625 48.1875 28.421875 48.1875 
Q 40.625 48.1875 47.75 41.5 
Q 54.890625 34.8125 54.890625 23.390625 
Q 54.890625 11.625 47.5625 5.09375 
Q 40.234375 -1.421875 26.90625 -1.421875 
Q 22.3125 -1.421875 17.546875 -0.640625 
Q 12.796875 0.140625 7.71875 1.703125 
L 7.71875 11.625 
Q 12.109375 9.234375 16.796875 8.0625 
Q 21.484375 6.890625 26.703125 6.890625 
Q 35.15625 6.890625 40.078125 11.328125 
Q 45.015625 15.765625 45.015625 23.390625 
Q 45.015625 31 40.078125 35.4375 
Q 35.15625 39.890625 26.703125 39.890625 
Q 22.75 39.890625 18.8125 39.015625 
Q 14.890625 38.140625 10.796875 36.28125 
z
" id="DejaVuSans-53"/>
      </defs>
      <g transform="translate(96.656167 32.833526)rotate(-10)scale(0.08 -0.08)">
       <use xlink:href="#DejaVuSans-53"/>
       <use x="63.623047" xlink:href="#DejaVuSans-53"/>
       <use x="127.246094" xlink:href="#DejaVuSans-54"/>
       <use x="190.869141" xlink:href="#DejaVuSans-49"/>
      </g>
     </g>
    </g>
    <g id="xtick_9">
     <g id="line2d_23">
      <g>
       <use style="stroke:#000000;stroke-width:0.8;" x="138.763636" xlink:href="#m273cf8f3e8" y="41.472"/>
      </g>
     </g>
     <g id="text_23">
      <!-- 7614 -->
      <defs>
       <path d="M 8.203125 72.90625 
L 55.078125 72.90625 
L 55.078125 68.703125 
L 28.609375 0 
L 18.3125 0 
L 43.21875 64.59375 
L 8.203125 64.59375 
z
" id="DejaVuSans-55"/>
      </defs>
      <g transform="translate(129.121622 32.833526)rotate(-10)scale(0.08 -0.08)">
       <use xlink:href="#DejaVuSans-55"/>
       <use x="63.623047" xlink:href="#DejaVuSans-54"/>
       <use x="127.246094" xlink:href="#DejaVuSans-49"/>
       <use x="190.869141" xlink:href="#DejaVuSans-52"/>
      </g>
     </g>
    </g>
    <g id="xtick_10">
     <g id="line2d_24">
      <g>
       <use style="stroke:#000000;stroke-width:0.8;" x="171.229091" xlink:href="#m273cf8f3e8" y="41.472"/>
      </g>
     </g>
     <g id="text_24">
      <!-- 9461 -->
      <defs>
       <path d="M 10.984375 1.515625 
L 10.984375 10.5 
Q 14.703125 8.734375 18.5 7.8125 
Q 22.3125 6.890625 25.984375 6.890625 
Q 35.75 6.890625 40.890625 13.453125 
Q 46.046875 20.015625 46.78125 33.40625 
Q 43.953125 29.203125 39.59375 26.953125 
Q 35.25 24.703125 29.984375 24.703125 
Q 19.046875 24.703125 12.671875 31.3125 
Q 6.296875 37.9375 6.296875 49.421875 
Q 6.296875 60.640625 12.9375 67.421875 
Q 19.578125 74.21875 30.609375 74.21875 
Q 43.265625 74.21875 49.921875 64.515625 
Q 56.59375 54.828125 56.59375 36.375 
Q 56.59375 19.140625 48.40625 8.859375 
Q 40.234375 -1.421875 26.421875 -1.421875 
Q 22.703125 -1.421875 18.890625 -0.6875 
Q 15.09375 0.046875 10.984375 1.515625 
z
M 30.609375 32.421875 
Q 37.25 32.421875 41.125 36.953125 
Q 45.015625 41.5 45.015625 49.421875 
Q 45.015625 57.28125 41.125 61.84375 
Q 37.25 66.40625 30.609375 66.40625 
Q 23.96875 66.40625 20.09375 61.84375 
Q 16.21875 57.28125 16.21875 49.421875 
Q 16.21875 41.5 20.09375 36.953125 
Q 23.96875 32.421875 30.609375 32.421875 
z
" id="DejaVuSans-57"/>
      </defs>
      <g transform="translate(161.587076 32.833526)rotate(-10)scale(0.08 -0.08)">
       <use xlink:href="#DejaVuSans-57"/>
       <use x="63.623047" xlink:href="#DejaVuSans-52"/>
       <use x="127.246094" xlink:href="#DejaVuSans-54"/>
       <use x="190.869141" xlink:href="#DejaVuSans-49"/>
      </g>
     </g>
    </g>
    <g id="xtick_11">
     <g id="line2d_25">
      <g>
       <use style="stroke:#000000;stroke-width:0.8;" x="203.694545" xlink:href="#m273cf8f3e8" y="41.472"/>
      </g>
     </g>
     <g id="text_25">
      <!-- 11280 -->
      <g transform="translate(191.546195 32.833526)rotate(-10)scale(0.08 -0.08)">
       <use xlink:href="#DejaVuSans-49"/>
       <use x="63.623047" xlink:href="#DejaVuSans-49"/>
       <use x="127.246094" xlink:href="#DejaVuSans-50"/>
       <use x="190.869141" xlink:href="#DejaVuSans-56"/>
       <use x="254.492188" xlink:href="#DejaVuSans-48"/>
      </g>
     </g>
    </g>
    <g id="xtick_12">
     <g id="line2d_26">
      <g>
       <use style="stroke:#000000;stroke-width:0.8;" x="236.16" xlink:href="#m273cf8f3e8" y="41.472"/>
      </g>
     </g>
     <g id="text_26">
      <!-- 13097 -->
      <g transform="translate(224.01165 32.833526)rotate(-10)scale(0.08 -0.08)">
       <use xlink:href="#DejaVuSans-49"/>
       <use x="63.623047" xlink:href="#DejaVuSans-51"/>
       <use x="127.246094" xlink:href="#DejaVuSans-48"/>
       <use x="190.869141" xlink:href="#DejaVuSans-57"/>
       <use x="254.492188" xlink:href="#DejaVuSans-55"/>
      </g>
     </g>
    </g>
    <g id="xtick_13">
     <g id="line2d_27">
      <g>
       <use style="stroke:#000000;stroke-width:0.8;" x="268.625455" xlink:href="#m273cf8f3e8" y="41.472"/>
      </g>
     </g>
     <g id="text_27">
      <!-- 14905 -->
      <g transform="translate(256.477104 32.833526)rotate(-10)scale(0.08 -0.08)">
       <use xlink:href="#DejaVuSans-49"/>
       <use x="63.623047" xlink:href="#DejaVuSans-52"/>
       <use x="127.246094" xlink:href="#DejaVuSans-57"/>
       <use x="190.869141" xlink:href="#DejaVuSans-48"/>
       <use x="254.492188" xlink:href="#DejaVuSans-53"/>
      </g>
     </g>
    </g>
    <g id="xtick_14">
     <g id="line2d_28">
      <g>
       <use style="stroke:#000000;stroke-width:0.8;" x="301.090909" xlink:href="#m273cf8f3e8" y="41.472"/>
      </g>
     </g>
     <g id="text_28">
      <!-- 16710 -->
      <g transform="translate(288.942559 32.833526)rotate(-10)scale(0.08 -0.08)">
       <use xlink:href="#DejaVuSans-49"/>
       <use x="63.623047" xlink:href="#DejaVuSans-54"/>
       <use x="127.246094" xlink:href="#DejaVuSans-55"/>
       <use x="190.869141" xlink:href="#DejaVuSans-49"/>
       <use x="254.492188" xlink:href="#DejaVuSans-48"/>
      </g>
     </g>
    </g>
    <g id="xtick_15">
     <g id="line2d_29">
      <g>
       <use style="stroke:#000000;stroke-width:0.8;" x="333.556364" xlink:href="#m273cf8f3e8" y="41.472"/>
      </g>
     </g>
     <g id="text_29">
      <!-- 18522 -->
      <g transform="translate(321.408013 32.833526)rotate(-10)scale(0.08 -0.08)">
       <use xlink:href="#DejaVuSans-49"/>
       <use x="63.623047" xlink:href="#DejaVuSans-56"/>
       <use x="127.246094" xlink:href="#DejaVuSans-53"/>
       <use x="190.869141" xlink:href="#DejaVuSans-50"/>
       <use x="254.492188" xlink:href="#DejaVuSans-50"/>
      </g>
     </g>
    </g>
    <g id="xtick_16">
     <g id="line2d_30">
      <g>
       <use style="stroke:#000000;stroke-width:0.8;" x="366.021818" xlink:href="#m273cf8f3e8" y="41.472"/>
      </g>
     </g>
     <g id="text_30">
      <!-- 20315 -->
      <g transform="translate(353.873468 32.833526)rotate(-10)scale(0.08 -0.08)">
       <use xlink:href="#DejaVuSans-50"/>
       <use x="63.623047" xlink:href="#DejaVuSans-48"/>
       <use x="127.246094" xlink:href="#DejaVuSans-51"/>
       <use x="190.869141" xlink:href="#DejaVuSans-49"/>
       <use x="254.492188" xlink:href="#DejaVuSans-53"/>
      </g>
     </g>
    </g>
    <g id="xtick_17">
     <g id="line2d_31">
      <g>
       <use style="stroke:#000000;stroke-width:0.8;" x="398.487273" xlink:href="#m273cf8f3e8" y="41.472"/>
      </g>
     </g>
     <g id="text_31">
      <!-- 22123 -->
      <g transform="translate(386.338922 32.833526)rotate(-10)scale(0.08 -0.08)">
       <use xlink:href="#DejaVuSans-50"/>
       <use x="63.623047" xlink:href="#DejaVuSans-50"/>
       <use x="127.246094" xlink:href="#DejaVuSans-49"/>
       <use x="190.869141" xlink:href="#DejaVuSans-50"/>
       <use x="254.492188" xlink:href="#DejaVuSans-51"/>
      </g>
     </g>
    </g>
    <g id="text_32">
     <!-- # of Fitness Evaluation -->
     <defs>
      <path d="M 9.8125 72.90625 
L 55.90625 72.90625 
L 55.90625 64.59375 
L 19.671875 64.59375 
L 19.671875 43.015625 
L 54.390625 43.015625 
L 54.390625 34.71875 
L 19.671875 34.71875 
L 19.671875 8.296875 
L 56.78125 8.296875 
L 56.78125 0 
L 9.8125 0 
z
" id="DejaVuSans-69"/>
     </defs>
     <g transform="translate(178.327187 18.42778)scale(0.1 -0.1)">
      <use xlink:href="#DejaVuSans-35"/>
      <use x="83.789062" xlink:href="#DejaVuSans-32"/>
      <use x="115.576172" xlink:href="#DejaVuSans-111"/>
      <use x="176.757812" xlink:href="#DejaVuSans-102"/>
      <use x="211.962891" xlink:href="#DejaVuSans-32"/>
      <use x="243.75" xlink:href="#DejaVuSans-70"/>
      <use x="301.160156" xlink:href="#DejaVuSans-105"/>
      <use x="328.943359" xlink:href="#DejaVuSans-116"/>
      <use x="368.152344" xlink:href="#DejaVuSans-110"/>
      <use x="431.53125" xlink:href="#DejaVuSans-101"/>
      <use x="493.054688" xlink:href="#DejaVuSans-115"/>
      <use x="545.154297" xlink:href="#DejaVuSans-115"/>
      <use x="597.253906" xlink:href="#DejaVuSans-32"/>
      <use x="629.041016" xlink:href="#DejaVuSans-69"/>
      <use x="692.224609" xlink:href="#DejaVuSans-118"/>
      <use x="751.404297" xlink:href="#DejaVuSans-97"/>
      <use x="812.683594" xlink:href="#DejaVuSans-108"/>
      <use x="840.466797" xlink:href="#DejaVuSans-117"/>
      <use x="903.845703" xlink:href="#DejaVuSans-97"/>
      <use x="965.125" xlink:href="#DejaVuSans-116"/>
      <use x="1004.333984" xlink:href="#DejaVuSans-105"/>
      <use x="1032.117188" xlink:href="#DejaVuSans-111"/>
      <use x="1093.298828" xlink:href="#DejaVuSans-110"/>
     </g>
    </g>
   </g>
   <g id="line2d_32">
    <path clip-path="url(#p370485fa03)" d="M 73.832727 295.488 
L 77.079273 273.319161 
L 80.325818 212.410682 
L 83.572364 153.969556 
L 86.818909 118.895406 
L 90.065455 88.695004 
L 93.312 73.928555 
L 96.558545 67.038657 
L 99.805091 62.649675 
L 103.051636 60.59637 
L 106.298182 58.645909 
L 109.544727 57.610311 
L 112.791273 57.070045 
L 116.037818 56.683866 
L 119.284364 56.683866 
L 122.530909 56.605129 
L 125.777455 56.511094 
L 129.024 56.511094 
L 132.270545 56.511094 
L 135.517091 56.167145 
L 138.763636 55.90826 
L 142.010182 55.556524 
L 145.256727 55.389193 
L 148.503273 55.389193 
L 151.749818 55.389193 
L 154.996364 55.389193 
L 158.242909 55.389193 
L 161.489455 55.186548 
L 164.736 55.186548 
L 167.982545 55.186548 
L 171.229091 55.005953 
L 174.475636 55.005953 
L 177.722182 55.005953 
L 180.968727 55.005953 
L 184.215273 55.005953 
L 187.461818 54.938668 
L 190.708364 54.938668 
L 193.954909 54.815049 
L 197.201455 54.815049 
L 200.448 54.815049 
L 203.694545 54.815049 
L 206.941091 54.62336 
L 210.187636 54.62336 
L 213.434182 54.5368 
L 216.680727 54.5368 
L 219.927273 54.5368 
L 223.173818 54.462035 
L 226.420364 54.462035 
L 229.666909 54.462035 
L 232.913455 54.462035 
L 236.16 54.462035 
L 239.406545 54.27782 
L 242.653091 54.27782 
L 245.899636 54.27782 
L 249.146182 54.27782 
L 252.392727 54.222416 
L 255.639273 54.222416 
L 258.885818 54.222416 
L 262.132364 54.222416 
L 265.378909 54.222416 
L 268.625455 54.222416 
L 271.872 54.222416 
L 275.118545 54.135856 
L 278.365091 54.135856 
L 281.611636 54.135856 
L 284.858182 54.135856 
L 288.104727 54.135856 
L 291.351273 54.135856 
L 294.597818 54.135856 
L 297.844364 54.135856 
L 301.090909 54.135856 
L 304.337455 54.135856 
L 307.584 54.007976 
L 310.830545 53.880095 
L 314.077091 53.880095 
L 317.323636 53.880095 
L 320.570182 53.880095 
L 323.816727 53.880095 
L 327.063273 53.880095 
L 330.309818 53.880095 
L 333.556364 53.880095 
L 336.802909 53.880095 
L 340.049455 53.880095 
L 343.296 53.880095 
L 346.542545 53.880095 
L 349.789091 53.880095 
L 353.035636 53.880095 
L 356.282182 53.880095 
L 359.528727 53.880095 
L 362.775273 53.880095 
L 366.021818 53.880095 
L 369.268364 53.880095 
L 372.514909 53.880095 
L 375.761455 53.628596 
L 379.008 53.628596 
L 382.254545 53.628596 
L 385.501091 53.628596 
L 388.747636 53.628596 
L 391.994182 53.568 
L 395.240727 53.568 
L 398.487273 53.568 
" style="fill:none;stroke:#1f77b4;stroke-dasharray:5.55,2.4;stroke-dashoffset:0;stroke-width:1.5;"/>
   </g>
   <g id="patch_11">
    <path d="M 57.6 307.584 
L 57.6 41.472 
" style="fill:none;stroke:#000000;stroke-linecap:square;stroke-linejoin:miter;stroke-width:0.8;"/>
   </g>
   <g id="patch_12">
    <path d="M 414.72 307.584 
L 414.72 41.472 
" style="fill:none;stroke:#000000;stroke-linecap:square;stroke-linejoin:miter;stroke-width:0.8;"/>
   </g>
   <g id="patch_13">
    <path d="M 57.6 307.584 
L 414.72 307.584 
" style="fill:none;stroke:#000000;stroke-linecap:square;stroke-linejoin:miter;stroke-width:0.8;"/>
   </g>
   <g id="patch_14">
    <path d="M 57.6 41.472 
L 414.72 41.472 
" style="fill:none;stroke:#000000;stroke-linecap:square;stroke-linejoin:miter;stroke-width:0.8;"/>
   </g>
   <g id="legend_1">
    <g id="patch_15">
     <path d="M 366.579375 302.584 
L 407.72 302.584 
Q 409.72 302.584 409.72 300.584 
L 409.72 257.549625 
Q 409.72 255.549625 407.72 255.549625 
L 366.579375 255.549625 
Q 364.579375 255.549625 364.579375 257.549625 
L 364.579375 300.584 
Q 364.579375 302.584 366.579375 302.584 
z
" style="fill:#ffffff;opacity:0.8;stroke:#cccccc;stroke-linejoin:miter;"/>
    </g>
    <g id="line2d_33">
     <path d="M 368.579375 263.648062 
L 388.579375 263.648062 
" style="fill:none;stroke:#1f77b4;stroke-linecap:square;stroke-width:1.5;"/>
    </g>
    <g id="line2d_34"/>
    <g id="text_33">
     <!-- l1 -->
     <g transform="translate(396.579375 267.148062)scale(0.1 -0.1)">
      <use xlink:href="#DejaVuSans-108"/>
      <use x="27.783203" xlink:href="#DejaVuSans-49"/>
     </g>
    </g>
    <g id="line2d_35">
     <path d="M 368.579375 278.326188 
L 388.579375 278.326188 
" style="fill:none;stroke:#ff0000;stroke-linecap:square;stroke-width:1.5;"/>
    </g>
    <g id="line2d_36"/>
    <g id="text_34">
     <!-- l2 -->
     <g transform="translate(396.579375 281.826188)scale(0.1 -0.1)">
      <use xlink:href="#DejaVuSans-108"/>
      <use x="27.783203" xlink:href="#DejaVuSans-50"/>
     </g>
    </g>
    <g id="line2d_37">
     <path d="M 368.579375 293.004312 
L 388.579375 293.004312 
" style="fill:none;stroke:#800080;stroke-dasharray:5.55,2.4;stroke-dashoffset:0;stroke-width:1.5;"/>
    </g>
    <g id="line2d_38">
     <g>
      <use style="fill:#800080;stroke:#800080;stroke-linejoin:miter;" x="378.579375" xlink:href="#m77d5444c0d" y="293.004312"/>
     </g>
    </g>
    <g id="text_35">
     <!-- l3 -->
     <g transform="translate(396.579375 296.504312)scale(0.1 -0.1)">
      <use xlink:href="#DejaVuSans-108"/>
      <use x="27.783203" xlink:href="#DejaVuSans-51"/>
     </g>
    </g>
   </g>
  </g>
 </g>
 <defs>
  <clipPath id="p370485fa03">
   <rect height="266.112" width="357.12" x="57.6" y="41.472"/>
  </clipPath>
 </defs>
</svg>
