<?xml version="1.0" encoding="utf-8" standalone="no"?>
<!DOCTYPE svg PUBLIC "-//W3C//DTD SVG 1.1//EN"
  "http://www.w3.org/Graphics/SVG/1.1/DTD/svg11.dtd">
<!-- Created with matplotlib (https://matplotlib.org/) -->
<svg height="345.6pt" version="1.1" viewBox="0 0 460.8 345.6" width="460.8pt" xmlns="http://www.w3.org/2000/svg" xmlns:xlink="http://www.w3.org/1999/xlink">
 <defs>
  <style type="text/css">
*{stroke-linecap:butt;stroke-linejoin:round;}
  </style>
 </defs>
 <g id="figure_1">
  <g id="patch_1">
   <path d="M 0 345.6 
L 460.8 345.6 
L 460.8 0 
L 0 0 
z
" style="fill:#ffffff;"/>
  </g>
  <g id="axes_1">
   <g id="patch_2">
    <path d="M 57.6 307.584 
L 414.72 307.584 
L 414.72 41.472 
L 57.6 41.472 
z
" style="fill:#ffffff;"/>
   </g>
   <g id="matplotlib.axis_1">
    <g id="xtick_1">
     <g id="line2d_1">
      <defs>
       <path d="M 0 0 
L 0 3.5 
" id="m6c2a2b0dbe" style="stroke:#000000;stroke-width:0.8;"/>
      </defs>
      <g>
       <use style="stroke:#000000;stroke-width:0.8;" x="73.832727" xlink:href="#m6c2a2b0dbe" y="307.584"/>
      </g>
     </g>
     <g id="text_1">
      <!-- 0 -->
      <defs>
       <path d="M 31.78125 66.40625 
Q 24.171875 66.40625 20.328125 58.90625 
Q 16.5 51.421875 16.5 36.375 
Q 16.5 21.390625 20.328125 13.890625 
Q 24.171875 6.390625 31.78125 6.390625 
Q 39.453125 6.390625 43.28125 13.890625 
Q 47.125 21.390625 47.125 36.375 
Q 47.125 51.421875 43.28125 58.90625 
Q 39.453125 66.40625 31.78125 66.40625 
z
M 31.78125 74.21875 
Q 44.046875 74.21875 50.515625 64.515625 
Q 56.984375 54.828125 56.984375 36.375 
Q 56.984375 17.96875 50.515625 8.265625 
Q 44.046875 -1.421875 31.78125 -1.421875 
Q 19.53125 -1.421875 13.0625 8.265625 
Q 6.59375 17.96875 6.59375 36.375 
Q 6.59375 54.828125 13.0625 64.515625 
Q 19.53125 74.21875 31.78125 74.21875 
z
" id="DejaVuSans-48"/>
      </defs>
      <g transform="translate(70.651477 322.182437)scale(0.1 -0.1)">
       <use xlink:href="#DejaVuSans-48"/>
      </g>
     </g>
    </g>
    <g id="xtick_2">
     <g id="line2d_2">
      <g>
       <use style="stroke:#000000;stroke-width:0.8;" x="114.414545" xlink:href="#m6c2a2b0dbe" y="307.584"/>
      </g>
     </g>
     <g id="text_2">
      <!-- 50 -->
      <defs>
       <path d="M 10.796875 72.90625 
L 49.515625 72.90625 
L 49.515625 64.59375 
L 19.828125 64.59375 
L 19.828125 46.734375 
Q 21.96875 47.46875 24.109375 47.828125 
Q 26.265625 48.1875 28.421875 48.1875 
Q 40.625 48.1875 47.75 41.5 
Q 54.890625 34.8125 54.890625 23.390625 
Q 54.890625 11.625 47.5625 5.09375 
Q 40.234375 -1.421875 26.90625 -1.421875 
Q 22.3125 -1.421875 17.546875 -0.640625 
Q 12.796875 0.140625 7.71875 1.703125 
L 7.71875 11.625 
Q 12.109375 9.234375 16.796875 8.0625 
Q 21.484375 6.890625 26.703125 6.890625 
Q 35.15625 6.890625 40.078125 11.328125 
Q 45.015625 15.765625 45.015625 23.390625 
Q 45.015625 31 40.078125 35.4375 
Q 35.15625 39.890625 26.703125 39.890625 
Q 22.75 39.890625 18.8125 39.015625 
Q 14.890625 38.140625 10.796875 36.28125 
z
" id="DejaVuSans-53"/>
      </defs>
      <g transform="translate(108.052045 322.182437)scale(0.1 -0.1)">
       <use xlink:href="#DejaVuSans-53"/>
       <use x="63.623047" xlink:href="#DejaVuSans-48"/>
      </g>
     </g>
    </g>
    <g id="xtick_3">
     <g id="line2d_3">
      <g>
       <use style="stroke:#000000;stroke-width:0.8;" x="154.996364" xlink:href="#m6c2a2b0dbe" y="307.584"/>
      </g>
     </g>
     <g id="text_3">
      <!-- 100 -->
      <defs>
       <path d="M 12.40625 8.296875 
L 28.515625 8.296875 
L 28.515625 63.921875 
L 10.984375 60.40625 
L 10.984375 69.390625 
L 28.421875 72.90625 
L 38.28125 72.90625 
L 38.28125 8.296875 
L 54.390625 8.296875 
L 54.390625 0 
L 12.40625 0 
z
" id="DejaVuSans-49"/>
      </defs>
      <g transform="translate(145.452614 322.182437)scale(0.1 -0.1)">
       <use xlink:href="#DejaVuSans-49"/>
       <use x="63.623047" xlink:href="#DejaVuSans-48"/>
       <use x="127.246094" xlink:href="#DejaVuSans-48"/>
      </g>
     </g>
    </g>
    <g id="xtick_4">
     <g id="line2d_4">
      <g>
       <use style="stroke:#000000;stroke-width:0.8;" x="195.578182" xlink:href="#m6c2a2b0dbe" y="307.584"/>
      </g>
     </g>
     <g id="text_4">
      <!-- 150 -->
      <g transform="translate(186.034432 322.182437)scale(0.1 -0.1)">
       <use xlink:href="#DejaVuSans-49"/>
       <use x="63.623047" xlink:href="#DejaVuSans-53"/>
       <use x="127.246094" xlink:href="#DejaVuSans-48"/>
      </g>
     </g>
    </g>
    <g id="xtick_5">
     <g id="line2d_5">
      <g>
       <use style="stroke:#000000;stroke-width:0.8;" x="236.16" xlink:href="#m6c2a2b0dbe" y="307.584"/>
      </g>
     </g>
     <g id="text_5">
      <!-- 200 -->
      <defs>
       <path d="M 19.1875 8.296875 
L 53.609375 8.296875 
L 53.609375 0 
L 7.328125 0 
L 7.328125 8.296875 
Q 12.9375 14.109375 22.625 23.890625 
Q 32.328125 33.6875 34.8125 36.53125 
Q 39.546875 41.84375 41.421875 45.53125 
Q 43.3125 49.21875 43.3125 52.78125 
Q 43.3125 58.59375 39.234375 62.25 
Q 35.15625 65.921875 28.609375 65.921875 
Q 23.96875 65.921875 18.8125 64.3125 
Q 13.671875 62.703125 7.8125 59.421875 
L 7.8125 69.390625 
Q 13.765625 71.78125 18.9375 73 
Q 24.125 74.21875 28.421875 74.21875 
Q 39.75 74.21875 46.484375 68.546875 
Q 53.21875 62.890625 53.21875 53.421875 
Q 53.21875 48.921875 51.53125 44.890625 
Q 49.859375 40.875 45.40625 35.40625 
Q 44.1875 33.984375 37.640625 27.21875 
Q 31.109375 20.453125 19.1875 8.296875 
z
" id="DejaVuSans-50"/>
      </defs>
      <g transform="translate(226.61625 322.182437)scale(0.1 -0.1)">
       <use xlink:href="#DejaVuSans-50"/>
       <use x="63.623047" xlink:href="#DejaVuSans-48"/>
       <use x="127.246094" xlink:href="#DejaVuSans-48"/>
      </g>
     </g>
    </g>
    <g id="xtick_6">
     <g id="line2d_6">
      <g>
       <use style="stroke:#000000;stroke-width:0.8;" x="276.741818" xlink:href="#m6c2a2b0dbe" y="307.584"/>
      </g>
     </g>
     <g id="text_6">
      <!-- 250 -->
      <g transform="translate(267.198068 322.182437)scale(0.1 -0.1)">
       <use xlink:href="#DejaVuSans-50"/>
       <use x="63.623047" xlink:href="#DejaVuSans-53"/>
       <use x="127.246094" xlink:href="#DejaVuSans-48"/>
      </g>
     </g>
    </g>
    <g id="xtick_7">
     <g id="line2d_7">
      <g>
       <use style="stroke:#000000;stroke-width:0.8;" x="317.323636" xlink:href="#m6c2a2b0dbe" y="307.584"/>
      </g>
     </g>
     <g id="text_7">
      <!-- 300 -->
      <defs>
       <path d="M 40.578125 39.3125 
Q 47.65625 37.796875 51.625 33 
Q 55.609375 28.21875 55.609375 21.1875 
Q 55.609375 10.40625 48.1875 4.484375 
Q 40.765625 -1.421875 27.09375 -1.421875 
Q 22.515625 -1.421875 17.65625 -0.515625 
Q 12.796875 0.390625 7.625 2.203125 
L 7.625 11.71875 
Q 11.71875 9.328125 16.59375 8.109375 
Q 21.484375 6.890625 26.8125 6.890625 
Q 36.078125 6.890625 40.9375 10.546875 
Q 45.796875 14.203125 45.796875 21.1875 
Q 45.796875 27.640625 41.28125 31.265625 
Q 36.765625 34.90625 28.71875 34.90625 
L 20.21875 34.90625 
L 20.21875 43.015625 
L 29.109375 43.015625 
Q 36.375 43.015625 40.234375 45.921875 
Q 44.09375 48.828125 44.09375 54.296875 
Q 44.09375 59.90625 40.109375 62.90625 
Q 36.140625 65.921875 28.71875 65.921875 
Q 24.65625 65.921875 20.015625 65.03125 
Q 15.375 64.15625 9.8125 62.3125 
L 9.8125 71.09375 
Q 15.4375 72.65625 20.34375 73.4375 
Q 25.25 74.21875 29.59375 74.21875 
Q 40.828125 74.21875 47.359375 69.109375 
Q 53.90625 64.015625 53.90625 55.328125 
Q 53.90625 49.265625 50.4375 45.09375 
Q 46.96875 40.921875 40.578125 39.3125 
z
" id="DejaVuSans-51"/>
      </defs>
      <g transform="translate(307.779886 322.182437)scale(0.1 -0.1)">
       <use xlink:href="#DejaVuSans-51"/>
       <use x="63.623047" xlink:href="#DejaVuSans-48"/>
       <use x="127.246094" xlink:href="#DejaVuSans-48"/>
      </g>
     </g>
    </g>
    <g id="xtick_8">
     <g id="line2d_8">
      <g>
       <use style="stroke:#000000;stroke-width:0.8;" x="357.905455" xlink:href="#m6c2a2b0dbe" y="307.584"/>
      </g>
     </g>
     <g id="text_8">
      <!-- 350 -->
      <g transform="translate(348.361705 322.182437)scale(0.1 -0.1)">
       <use xlink:href="#DejaVuSans-51"/>
       <use x="63.623047" xlink:href="#DejaVuSans-53"/>
       <use x="127.246094" xlink:href="#DejaVuSans-48"/>
      </g>
     </g>
    </g>
    <g id="xtick_9">
     <g id="line2d_9">
      <g>
       <use style="stroke:#000000;stroke-width:0.8;" x="398.487273" xlink:href="#m6c2a2b0dbe" y="307.584"/>
      </g>
     </g>
     <g id="text_9">
      <!-- 400 -->
      <defs>
       <path d="M 37.796875 64.3125 
L 12.890625 25.390625 
L 37.796875 25.390625 
z
M 35.203125 72.90625 
L 47.609375 72.90625 
L 47.609375 25.390625 
L 58.015625 25.390625 
L 58.015625 17.1875 
L 47.609375 17.1875 
L 47.609375 0 
L 37.796875 0 
L 37.796875 17.1875 
L 4.890625 17.1875 
L 4.890625 26.703125 
z
" id="DejaVuSans-52"/>
      </defs>
      <g transform="translate(388.943523 322.182437)scale(0.1 -0.1)">
       <use xlink:href="#DejaVuSans-52"/>
       <use x="63.623047" xlink:href="#DejaVuSans-48"/>
       <use x="127.246094" xlink:href="#DejaVuSans-48"/>
      </g>
     </g>
    </g>
    <g id="text_10">
     <!-- # of Generation -->
     <defs>
      <path d="M 51.125 44 
L 36.921875 44 
L 32.8125 27.6875 
L 47.125 27.6875 
z
M 43.796875 71.78125 
L 38.71875 51.515625 
L 52.984375 51.515625 
L 58.109375 71.78125 
L 65.921875 71.78125 
L 60.890625 51.515625 
L 76.125 51.515625 
L 76.125 44 
L 58.984375 44 
L 54.984375 27.6875 
L 70.515625 27.6875 
L 70.515625 20.21875 
L 53.078125 20.21875 
L 48 0 
L 40.1875 0 
L 45.21875 20.21875 
L 30.90625 20.21875 
L 25.875 0 
L 18.015625 0 
L 23.09375 20.21875 
L 7.71875 20.21875 
L 7.71875 27.6875 
L 24.90625 27.6875 
L 29 44 
L 13.28125 44 
L 13.28125 51.515625 
L 30.90625 51.515625 
L 35.890625 71.78125 
z
" id="DejaVuSans-35"/>
      <path id="DejaVuSans-32"/>
      <path d="M 30.609375 48.390625 
Q 23.390625 48.390625 19.1875 42.75 
Q 14.984375 37.109375 14.984375 27.296875 
Q 14.984375 17.484375 19.15625 11.84375 
Q 23.34375 6.203125 30.609375 6.203125 
Q 37.796875 6.203125 41.984375 11.859375 
Q 46.1875 17.53125 46.1875 27.296875 
Q 46.1875 37.015625 41.984375 42.703125 
Q 37.796875 48.390625 30.609375 48.390625 
z
M 30.609375 56 
Q 42.328125 56 49.015625 48.375 
Q 55.71875 40.765625 55.71875 27.296875 
Q 55.71875 13.875 49.015625 6.21875 
Q 42.328125 -1.421875 30.609375 -1.421875 
Q 18.84375 -1.421875 12.171875 6.21875 
Q 5.515625 13.875 5.515625 27.296875 
Q 5.515625 40.765625 12.171875 48.375 
Q 18.84375 56 30.609375 56 
z
" id="DejaVuSans-111"/>
      <path d="M 37.109375 75.984375 
L 37.109375 68.5 
L 28.515625 68.5 
Q 23.6875 68.5 21.796875 66.546875 
Q 19.921875 64.59375 19.921875 59.515625 
L 19.921875 54.6875 
L 34.71875 54.6875 
L 34.71875 47.703125 
L 19.921875 47.703125 
L 19.921875 0 
L 10.890625 0 
L 10.890625 47.703125 
L 2.296875 47.703125 
L 2.296875 54.6875 
L 10.890625 54.6875 
L 10.890625 58.5 
Q 10.890625 67.625 15.140625 71.796875 
Q 19.390625 75.984375 28.609375 75.984375 
z
" id="DejaVuSans-102"/>
      <path d="M 59.515625 10.40625 
L 59.515625 29.984375 
L 43.40625 29.984375 
L 43.40625 38.09375 
L 69.28125 38.09375 
L 69.28125 6.78125 
Q 63.578125 2.734375 56.6875 0.65625 
Q 49.8125 -1.421875 42 -1.421875 
Q 24.90625 -1.421875 15.25 8.5625 
Q 5.609375 18.5625 5.609375 36.375 
Q 5.609375 54.25 15.25 64.234375 
Q 24.90625 74.21875 42 74.21875 
Q 49.125 74.21875 55.546875 72.453125 
Q 61.96875 70.703125 67.390625 67.28125 
L 67.390625 56.78125 
Q 61.921875 61.421875 55.765625 63.765625 
Q 49.609375 66.109375 42.828125 66.109375 
Q 29.4375 66.109375 22.71875 58.640625 
Q 16.015625 51.171875 16.015625 36.375 
Q 16.015625 21.625 22.71875 14.15625 
Q 29.4375 6.6875 42.828125 6.6875 
Q 48.046875 6.6875 52.140625 7.59375 
Q 56.25 8.5 59.515625 10.40625 
z
" id="DejaVuSans-71"/>
      <path d="M 56.203125 29.59375 
L 56.203125 25.203125 
L 14.890625 25.203125 
Q 15.484375 15.921875 20.484375 11.0625 
Q 25.484375 6.203125 34.421875 6.203125 
Q 39.59375 6.203125 44.453125 7.46875 
Q 49.3125 8.734375 54.109375 11.28125 
L 54.109375 2.78125 
Q 49.265625 0.734375 44.1875 -0.34375 
Q 39.109375 -1.421875 33.890625 -1.421875 
Q 20.796875 -1.421875 13.15625 6.1875 
Q 5.515625 13.8125 5.515625 26.8125 
Q 5.515625 40.234375 12.765625 48.109375 
Q 20.015625 56 32.328125 56 
Q 43.359375 56 49.78125 48.890625 
Q 56.203125 41.796875 56.203125 29.59375 
z
M 47.21875 32.234375 
Q 47.125 39.59375 43.09375 43.984375 
Q 39.0625 48.390625 32.421875 48.390625 
Q 24.90625 48.390625 20.390625 44.140625 
Q 15.875 39.890625 15.1875 32.171875 
z
" id="DejaVuSans-101"/>
      <path d="M 54.890625 33.015625 
L 54.890625 0 
L 45.90625 0 
L 45.90625 32.71875 
Q 45.90625 40.484375 42.875 44.328125 
Q 39.84375 48.1875 33.796875 48.1875 
Q 26.515625 48.1875 22.3125 43.546875 
Q 18.109375 38.921875 18.109375 30.90625 
L 18.109375 0 
L 9.078125 0 
L 9.078125 54.6875 
L 18.109375 54.6875 
L 18.109375 46.1875 
Q 21.34375 51.125 25.703125 53.5625 
Q 30.078125 56 35.796875 56 
Q 45.21875 56 50.046875 50.171875 
Q 54.890625 44.34375 54.890625 33.015625 
z
" id="DejaVuSans-110"/>
      <path d="M 41.109375 46.296875 
Q 39.59375 47.171875 37.8125 47.578125 
Q 36.03125 48 33.890625 48 
Q 26.265625 48 22.1875 43.046875 
Q 18.109375 38.09375 18.109375 28.8125 
L 18.109375 0 
L 9.078125 0 
L 9.078125 54.6875 
L 18.109375 54.6875 
L 18.109375 46.1875 
Q 20.953125 51.171875 25.484375 53.578125 
Q 30.03125 56 36.53125 56 
Q 37.453125 56 38.578125 55.875 
Q 39.703125 55.765625 41.0625 55.515625 
z
" id="DejaVuSans-114"/>
      <path d="M 34.28125 27.484375 
Q 23.390625 27.484375 19.1875 25 
Q 14.984375 22.515625 14.984375 16.5 
Q 14.984375 11.71875 18.140625 8.90625 
Q 21.296875 6.109375 26.703125 6.109375 
Q 34.1875 6.109375 38.703125 11.40625 
Q 43.21875 16.703125 43.21875 25.484375 
L 43.21875 27.484375 
z
M 52.203125 31.203125 
L 52.203125 0 
L 43.21875 0 
L 43.21875 8.296875 
Q 40.140625 3.328125 35.546875 0.953125 
Q 30.953125 -1.421875 24.3125 -1.421875 
Q 15.921875 -1.421875 10.953125 3.296875 
Q 6 8.015625 6 15.921875 
Q 6 25.140625 12.171875 29.828125 
Q 18.359375 34.515625 30.609375 34.515625 
L 43.21875 34.515625 
L 43.21875 35.40625 
Q 43.21875 41.609375 39.140625 45 
Q 35.0625 48.390625 27.6875 48.390625 
Q 23 48.390625 18.546875 47.265625 
Q 14.109375 46.140625 10.015625 43.890625 
L 10.015625 52.203125 
Q 14.9375 54.109375 19.578125 55.046875 
Q 24.21875 56 28.609375 56 
Q 40.484375 56 46.34375 49.84375 
Q 52.203125 43.703125 52.203125 31.203125 
z
" id="DejaVuSans-97"/>
      <path d="M 18.3125 70.21875 
L 18.3125 54.6875 
L 36.8125 54.6875 
L 36.8125 47.703125 
L 18.3125 47.703125 
L 18.3125 18.015625 
Q 18.3125 11.328125 20.140625 9.421875 
Q 21.96875 7.515625 27.59375 7.515625 
L 36.8125 7.515625 
L 36.8125 0 
L 27.59375 0 
Q 17.1875 0 13.234375 3.875 
Q 9.28125 7.765625 9.28125 18.015625 
L 9.28125 47.703125 
L 2.6875 47.703125 
L 2.6875 54.6875 
L 9.28125 54.6875 
L 9.28125 70.21875 
z
" id="DejaVuSans-116"/>
      <path d="M 9.421875 54.6875 
L 18.40625 54.6875 
L 18.40625 0 
L 9.421875 0 
z
M 9.421875 75.984375 
L 18.40625 75.984375 
L 18.40625 64.59375 
L 9.421875 64.59375 
z
" id="DejaVuSans-105"/>
     </defs>
     <g transform="translate(196.079531 335.860562)scale(0.1 -0.1)">
      <use xlink:href="#DejaVuSans-35"/>
      <use x="83.789062" xlink:href="#DejaVuSans-32"/>
      <use x="115.576172" xlink:href="#DejaVuSans-111"/>
      <use x="176.757812" xlink:href="#DejaVuSans-102"/>
      <use x="211.962891" xlink:href="#DejaVuSans-32"/>
      <use x="243.75" xlink:href="#DejaVuSans-71"/>
      <use x="321.240234" xlink:href="#DejaVuSans-101"/>
      <use x="382.763672" xlink:href="#DejaVuSans-110"/>
      <use x="446.142578" xlink:href="#DejaVuSans-101"/>
      <use x="507.666016" xlink:href="#DejaVuSans-114"/>
      <use x="548.779297" xlink:href="#DejaVuSans-97"/>
      <use x="610.058594" xlink:href="#DejaVuSans-116"/>
      <use x="649.267578" xlink:href="#DejaVuSans-105"/>
      <use x="677.050781" xlink:href="#DejaVuSans-111"/>
      <use x="738.232422" xlink:href="#DejaVuSans-110"/>
     </g>
    </g>
   </g>
   <g id="matplotlib.axis_2">
    <g id="ytick_1">
     <g id="line2d_10">
      <defs>
       <path d="M 0 0 
L -3.5 0 
" id="m9ad13f016b" style="stroke:#000000;stroke-width:0.8;"/>
      </defs>
      <g>
       <use style="stroke:#000000;stroke-width:0.8;" x="57.6" xlink:href="#m9ad13f016b" y="270.407873"/>
      </g>
     </g>
     <g id="text_11">
      <!-- 0.03 -->
      <defs>
       <path d="M 10.6875 12.40625 
L 21 12.40625 
L 21 0 
L 10.6875 0 
z
" id="DejaVuSans-46"/>
      </defs>
      <g transform="translate(28.334375 274.207092)scale(0.1 -0.1)">
       <use xlink:href="#DejaVuSans-48"/>
       <use x="63.623047" xlink:href="#DejaVuSans-46"/>
       <use x="95.410156" xlink:href="#DejaVuSans-48"/>
       <use x="159.033203" xlink:href="#DejaVuSans-51"/>
      </g>
     </g>
    </g>
    <g id="ytick_2">
     <g id="line2d_11">
      <g>
       <use style="stroke:#000000;stroke-width:0.8;" x="57.6" xlink:href="#m9ad13f016b" y="225.322306"/>
      </g>
     </g>
     <g id="text_12">
      <!-- 0.04 -->
      <g transform="translate(28.334375 229.121525)scale(0.1 -0.1)">
       <use xlink:href="#DejaVuSans-48"/>
       <use x="63.623047" xlink:href="#DejaVuSans-46"/>
       <use x="95.410156" xlink:href="#DejaVuSans-48"/>
       <use x="159.033203" xlink:href="#DejaVuSans-52"/>
      </g>
     </g>
    </g>
    <g id="ytick_3">
     <g id="line2d_12">
      <g>
       <use style="stroke:#000000;stroke-width:0.8;" x="57.6" xlink:href="#m9ad13f016b" y="180.23674"/>
      </g>
     </g>
     <g id="text_13">
      <!-- 0.05 -->
      <g transform="translate(28.334375 184.035958)scale(0.1 -0.1)">
       <use xlink:href="#DejaVuSans-48"/>
       <use x="63.623047" xlink:href="#DejaVuSans-46"/>
       <use x="95.410156" xlink:href="#DejaVuSans-48"/>
       <use x="159.033203" xlink:href="#DejaVuSans-53"/>
      </g>
     </g>
    </g>
    <g id="ytick_4">
     <g id="line2d_13">
      <g>
       <use style="stroke:#000000;stroke-width:0.8;" x="57.6" xlink:href="#m9ad13f016b" y="135.151173"/>
      </g>
     </g>
     <g id="text_14">
      <!-- 0.06 -->
      <defs>
       <path d="M 33.015625 40.375 
Q 26.375 40.375 22.484375 35.828125 
Q 18.609375 31.296875 18.609375 23.390625 
Q 18.609375 15.53125 22.484375 10.953125 
Q 26.375 6.390625 33.015625 6.390625 
Q 39.65625 6.390625 43.53125 10.953125 
Q 47.40625 15.53125 47.40625 23.390625 
Q 47.40625 31.296875 43.53125 35.828125 
Q 39.65625 40.375 33.015625 40.375 
z
M 52.59375 71.296875 
L 52.59375 62.3125 
Q 48.875 64.0625 45.09375 64.984375 
Q 41.3125 65.921875 37.59375 65.921875 
Q 27.828125 65.921875 22.671875 59.328125 
Q 17.53125 52.734375 16.796875 39.40625 
Q 19.671875 43.65625 24.015625 45.921875 
Q 28.375 48.1875 33.59375 48.1875 
Q 44.578125 48.1875 50.953125 41.515625 
Q 57.328125 34.859375 57.328125 23.390625 
Q 57.328125 12.15625 50.6875 5.359375 
Q 44.046875 -1.421875 33.015625 -1.421875 
Q 20.359375 -1.421875 13.671875 8.265625 
Q 6.984375 17.96875 6.984375 36.375 
Q 6.984375 53.65625 15.1875 63.9375 
Q 23.390625 74.21875 37.203125 74.21875 
Q 40.921875 74.21875 44.703125 73.484375 
Q 48.484375 72.75 52.59375 71.296875 
z
" id="DejaVuSans-54"/>
      </defs>
      <g transform="translate(28.334375 138.950392)scale(0.1 -0.1)">
       <use xlink:href="#DejaVuSans-48"/>
       <use x="63.623047" xlink:href="#DejaVuSans-46"/>
       <use x="95.410156" xlink:href="#DejaVuSans-48"/>
       <use x="159.033203" xlink:href="#DejaVuSans-54"/>
      </g>
     </g>
    </g>
    <g id="ytick_5">
     <g id="line2d_14">
      <g>
       <use style="stroke:#000000;stroke-width:0.8;" x="57.6" xlink:href="#m9ad13f016b" y="90.065607"/>
      </g>
     </g>
     <g id="text_15">
      <!-- 0.07 -->
      <defs>
       <path d="M 8.203125 72.90625 
L 55.078125 72.90625 
L 55.078125 68.703125 
L 28.609375 0 
L 18.3125 0 
L 43.21875 64.59375 
L 8.203125 64.59375 
z
" id="DejaVuSans-55"/>
      </defs>
      <g transform="translate(28.334375 93.864825)scale(0.1 -0.1)">
       <use xlink:href="#DejaVuSans-48"/>
       <use x="63.623047" xlink:href="#DejaVuSans-46"/>
       <use x="95.410156" xlink:href="#DejaVuSans-48"/>
       <use x="159.033203" xlink:href="#DejaVuSans-55"/>
      </g>
     </g>
    </g>
    <g id="ytick_6">
     <g id="line2d_15">
      <g>
       <use style="stroke:#000000;stroke-width:0.8;" x="57.6" xlink:href="#m9ad13f016b" y="44.98004"/>
      </g>
     </g>
     <g id="text_16">
      <!-- 0.08 -->
      <defs>
       <path d="M 31.78125 34.625 
Q 24.75 34.625 20.71875 30.859375 
Q 16.703125 27.09375 16.703125 20.515625 
Q 16.703125 13.921875 20.71875 10.15625 
Q 24.75 6.390625 31.78125 6.390625 
Q 38.8125 6.390625 42.859375 10.171875 
Q 46.921875 13.96875 46.921875 20.515625 
Q 46.921875 27.09375 42.890625 30.859375 
Q 38.875 34.625 31.78125 34.625 
z
M 21.921875 38.8125 
Q 15.578125 40.375 12.03125 44.71875 
Q 8.5 49.078125 8.5 55.328125 
Q 8.5 64.0625 14.71875 69.140625 
Q 20.953125 74.21875 31.78125 74.21875 
Q 42.671875 74.21875 48.875 69.140625 
Q 55.078125 64.0625 55.078125 55.328125 
Q 55.078125 49.078125 51.53125 44.71875 
Q 48 40.375 41.703125 38.8125 
Q 48.828125 37.15625 52.796875 32.3125 
Q 56.78125 27.484375 56.78125 20.515625 
Q 56.78125 9.90625 50.3125 4.234375 
Q 43.84375 -1.421875 31.78125 -1.421875 
Q 19.734375 -1.421875 13.25 4.234375 
Q 6.78125 9.90625 6.78125 20.515625 
Q 6.78125 27.484375 10.78125 32.3125 
Q 14.796875 37.15625 21.921875 38.8125 
z
M 18.3125 54.390625 
Q 18.3125 48.734375 21.84375 45.5625 
Q 25.390625 42.390625 31.78125 42.390625 
Q 38.140625 42.390625 41.71875 45.5625 
Q 45.3125 48.734375 45.3125 54.390625 
Q 45.3125 60.0625 41.71875 63.234375 
Q 38.140625 66.40625 31.78125 66.40625 
Q 25.390625 66.40625 21.84375 63.234375 
Q 18.3125 60.0625 18.3125 54.390625 
z
" id="DejaVuSans-56"/>
      </defs>
      <g transform="translate(28.334375 48.779259)scale(0.1 -0.1)">
       <use xlink:href="#DejaVuSans-48"/>
       <use x="63.623047" xlink:href="#DejaVuSans-46"/>
       <use x="95.410156" xlink:href="#DejaVuSans-48"/>
       <use x="159.033203" xlink:href="#DejaVuSans-56"/>
      </g>
     </g>
    </g>
    <g id="text_17">
     <!-- Fitness Of Best Individual (× 1e-3) -->
     <defs>
      <path d="M 9.8125 72.90625 
L 51.703125 72.90625 
L 51.703125 64.59375 
L 19.671875 64.59375 
L 19.671875 43.109375 
L 48.578125 43.109375 
L 48.578125 34.8125 
L 19.671875 34.8125 
L 19.671875 0 
L 9.8125 0 
z
" id="DejaVuSans-70"/>
      <path d="M 44.28125 53.078125 
L 44.28125 44.578125 
Q 40.484375 46.53125 36.375 47.5 
Q 32.28125 48.484375 27.875 48.484375 
Q 21.1875 48.484375 17.84375 46.4375 
Q 14.5 44.390625 14.5 40.28125 
Q 14.5 37.15625 16.890625 35.375 
Q 19.28125 33.59375 26.515625 31.984375 
L 29.59375 31.296875 
Q 39.15625 29.25 43.1875 25.515625 
Q 47.21875 21.78125 47.21875 15.09375 
Q 47.21875 7.46875 41.1875 3.015625 
Q 35.15625 -1.421875 24.609375 -1.421875 
Q 20.21875 -1.421875 15.453125 -0.5625 
Q 10.6875 0.296875 5.421875 2 
L 5.421875 11.28125 
Q 10.40625 8.6875 15.234375 7.390625 
Q 20.0625 6.109375 24.8125 6.109375 
Q 31.15625 6.109375 34.5625 8.28125 
Q 37.984375 10.453125 37.984375 14.40625 
Q 37.984375 18.0625 35.515625 20.015625 
Q 33.0625 21.96875 24.703125 23.78125 
L 21.578125 24.515625 
Q 13.234375 26.265625 9.515625 29.90625 
Q 5.8125 33.546875 5.8125 39.890625 
Q 5.8125 47.609375 11.28125 51.796875 
Q 16.75 56 26.8125 56 
Q 31.78125 56 36.171875 55.265625 
Q 40.578125 54.546875 44.28125 53.078125 
z
" id="DejaVuSans-115"/>
      <path d="M 39.40625 66.21875 
Q 28.65625 66.21875 22.328125 58.203125 
Q 16.015625 50.203125 16.015625 36.375 
Q 16.015625 22.609375 22.328125 14.59375 
Q 28.65625 6.59375 39.40625 6.59375 
Q 50.140625 6.59375 56.421875 14.59375 
Q 62.703125 22.609375 62.703125 36.375 
Q 62.703125 50.203125 56.421875 58.203125 
Q 50.140625 66.21875 39.40625 66.21875 
z
M 39.40625 74.21875 
Q 54.734375 74.21875 63.90625 63.9375 
Q 73.09375 53.65625 73.09375 36.375 
Q 73.09375 19.140625 63.90625 8.859375 
Q 54.734375 -1.421875 39.40625 -1.421875 
Q 24.03125 -1.421875 14.8125 8.828125 
Q 5.609375 19.09375 5.609375 36.375 
Q 5.609375 53.65625 14.8125 63.9375 
Q 24.03125 74.21875 39.40625 74.21875 
z
" id="DejaVuSans-79"/>
      <path d="M 19.671875 34.8125 
L 19.671875 8.109375 
L 35.5 8.109375 
Q 43.453125 8.109375 47.28125 11.40625 
Q 51.125 14.703125 51.125 21.484375 
Q 51.125 28.328125 47.28125 31.5625 
Q 43.453125 34.8125 35.5 34.8125 
z
M 19.671875 64.796875 
L 19.671875 42.828125 
L 34.28125 42.828125 
Q 41.5 42.828125 45.03125 45.53125 
Q 48.578125 48.25 48.578125 53.8125 
Q 48.578125 59.328125 45.03125 62.0625 
Q 41.5 64.796875 34.28125 64.796875 
z
M 9.8125 72.90625 
L 35.015625 72.90625 
Q 46.296875 72.90625 52.390625 68.21875 
Q 58.5 63.53125 58.5 54.890625 
Q 58.5 48.1875 55.375 44.234375 
Q 52.25 40.28125 46.1875 39.3125 
Q 53.46875 37.75 57.5 32.78125 
Q 61.53125 27.828125 61.53125 20.40625 
Q 61.53125 10.640625 54.890625 5.3125 
Q 48.25 0 35.984375 0 
L 9.8125 0 
z
" id="DejaVuSans-66"/>
      <path d="M 9.8125 72.90625 
L 19.671875 72.90625 
L 19.671875 0 
L 9.8125 0 
z
" id="DejaVuSans-73"/>
      <path d="M 45.40625 46.390625 
L 45.40625 75.984375 
L 54.390625 75.984375 
L 54.390625 0 
L 45.40625 0 
L 45.40625 8.203125 
Q 42.578125 3.328125 38.25 0.953125 
Q 33.9375 -1.421875 27.875 -1.421875 
Q 17.96875 -1.421875 11.734375 6.484375 
Q 5.515625 14.40625 5.515625 27.296875 
Q 5.515625 40.1875 11.734375 48.09375 
Q 17.96875 56 27.875 56 
Q 33.9375 56 38.25 53.625 
Q 42.578125 51.265625 45.40625 46.390625 
z
M 14.796875 27.296875 
Q 14.796875 17.390625 18.875 11.75 
Q 22.953125 6.109375 30.078125 6.109375 
Q 37.203125 6.109375 41.296875 11.75 
Q 45.40625 17.390625 45.40625 27.296875 
Q 45.40625 37.203125 41.296875 42.84375 
Q 37.203125 48.484375 30.078125 48.484375 
Q 22.953125 48.484375 18.875 42.84375 
Q 14.796875 37.203125 14.796875 27.296875 
z
" id="DejaVuSans-100"/>
      <path d="M 2.984375 54.6875 
L 12.5 54.6875 
L 29.59375 8.796875 
L 46.6875 54.6875 
L 56.203125 54.6875 
L 35.6875 0 
L 23.484375 0 
z
" id="DejaVuSans-118"/>
      <path d="M 8.5 21.578125 
L 8.5 54.6875 
L 17.484375 54.6875 
L 17.484375 21.921875 
Q 17.484375 14.15625 20.5 10.265625 
Q 23.53125 6.390625 29.59375 6.390625 
Q 36.859375 6.390625 41.078125 11.03125 
Q 45.3125 15.671875 45.3125 23.6875 
L 45.3125 54.6875 
L 54.296875 54.6875 
L 54.296875 0 
L 45.3125 0 
L 45.3125 8.40625 
Q 42.046875 3.421875 37.71875 1 
Q 33.40625 -1.421875 27.6875 -1.421875 
Q 18.265625 -1.421875 13.375 4.4375 
Q 8.5 10.296875 8.5 21.578125 
z
M 31.109375 56 
z
" id="DejaVuSans-117"/>
      <path d="M 9.421875 75.984375 
L 18.40625 75.984375 
L 18.40625 0 
L 9.421875 0 
z
" id="DejaVuSans-108"/>
      <path d="M 31 75.875 
Q 24.46875 64.65625 21.28125 53.65625 
Q 18.109375 42.671875 18.109375 31.390625 
Q 18.109375 20.125 21.3125 9.0625 
Q 24.515625 -2 31 -13.1875 
L 23.1875 -13.1875 
Q 15.875 -1.703125 12.234375 9.375 
Q 8.59375 20.453125 8.59375 31.390625 
Q 8.59375 42.28125 12.203125 53.3125 
Q 15.828125 64.359375 23.1875 75.875 
z
" id="DejaVuSans-40"/>
      <path d="M 70.125 53.71875 
L 47.796875 31.296875 
L 70.125 8.984375 
L 64.3125 3.078125 
L 41.890625 25.484375 
L 19.484375 3.078125 
L 13.71875 8.984375 
L 35.984375 31.296875 
L 13.71875 53.71875 
L 19.484375 59.625 
L 41.890625 37.203125 
L 64.3125 59.625 
z
" id="DejaVuSans-215"/>
      <path d="M 4.890625 31.390625 
L 31.203125 31.390625 
L 31.203125 23.390625 
L 4.890625 23.390625 
z
" id="DejaVuSans-45"/>
      <path d="M 8.015625 75.875 
L 15.828125 75.875 
Q 23.140625 64.359375 26.78125 53.3125 
Q 30.421875 42.28125 30.421875 31.390625 
Q 30.421875 20.453125 26.78125 9.375 
Q 23.140625 -1.703125 15.828125 -13.1875 
L 8.015625 -13.1875 
Q 14.5 -2 17.703125 9.0625 
Q 20.90625 20.125 20.90625 31.390625 
Q 20.90625 42.671875 17.703125 53.65625 
Q 14.5 64.65625 8.015625 75.875 
z
" id="DejaVuSans-41"/>
     </defs>
     <g transform="translate(22.254687 260.601437)rotate(-90)scale(0.1 -0.1)">
      <use xlink:href="#DejaVuSans-70"/>
      <use x="57.410156" xlink:href="#DejaVuSans-105"/>
      <use x="85.193359" xlink:href="#DejaVuSans-116"/>
      <use x="124.402344" xlink:href="#DejaVuSans-110"/>
      <use x="187.78125" xlink:href="#DejaVuSans-101"/>
      <use x="249.304688" xlink:href="#DejaVuSans-115"/>
      <use x="301.404297" xlink:href="#DejaVuSans-115"/>
      <use x="353.503906" xlink:href="#DejaVuSans-32"/>
      <use x="385.291016" xlink:href="#DejaVuSans-79"/>
      <use x="464.001953" xlink:href="#DejaVuSans-102"/>
      <use x="499.207031" xlink:href="#DejaVuSans-32"/>
      <use x="530.994141" xlink:href="#DejaVuSans-66"/>
      <use x="599.597656" xlink:href="#DejaVuSans-101"/>
      <use x="661.121094" xlink:href="#DejaVuSans-115"/>
      <use x="713.220703" xlink:href="#DejaVuSans-116"/>
      <use x="752.429688" xlink:href="#DejaVuSans-32"/>
      <use x="784.216797" xlink:href="#DejaVuSans-73"/>
      <use x="813.708984" xlink:href="#DejaVuSans-110"/>
      <use x="877.087891" xlink:href="#DejaVuSans-100"/>
      <use x="940.564453" xlink:href="#DejaVuSans-105"/>
      <use x="968.347656" xlink:href="#DejaVuSans-118"/>
      <use x="1027.527344" xlink:href="#DejaVuSans-105"/>
      <use x="1055.310547" xlink:href="#DejaVuSans-100"/>
      <use x="1118.787109" xlink:href="#DejaVuSans-117"/>
      <use x="1182.166016" xlink:href="#DejaVuSans-97"/>
      <use x="1243.445312" xlink:href="#DejaVuSans-108"/>
      <use x="1271.228516" xlink:href="#DejaVuSans-32"/>
      <use x="1303.015625" xlink:href="#DejaVuSans-40"/>
      <use x="1342.029297" xlink:href="#DejaVuSans-215"/>
      <use x="1425.818359" xlink:href="#DejaVuSans-32"/>
      <use x="1457.605469" xlink:href="#DejaVuSans-49"/>
      <use x="1521.228516" xlink:href="#DejaVuSans-101"/>
      <use x="1582.751953" xlink:href="#DejaVuSans-45"/>
      <use x="1618.835938" xlink:href="#DejaVuSans-51"/>
      <use x="1682.458984" xlink:href="#DejaVuSans-41"/>
     </g>
    </g>
   </g>
   <g id="line2d_16">
    <path clip-path="url(#p491b2568d3)" d="M 73.832727 288.199274 
L 74.644364 282.693167 
L 75.456 275.428695 
L 77.890909 258.474194 
L 78.702545 251.297111 
L 79.514182 241.360228 
L 80.325818 237.015693 
L 81.137455 234.925089 
L 81.949091 230.945115 
L 82.760727 228.452566 
L 83.572364 221.918832 
L 84.384 216.692863 
L 85.195636 214.982129 
L 86.818909 210.492248 
L 88.442182 202.369883 
L 89.253818 195.9775 
L 90.065455 193.736857 
L 90.877091 189.826189 
L 92.500364 188.723479 
L 93.312 185.851004 
L 94.123636 180.617109 
L 94.935273 180.617109 
L 95.746909 178.208746 
L 96.558545 174.905603 
L 97.370182 174.905603 
L 98.993455 174.479262 
L 99.805091 170.858189 
L 100.616727 164.983542 
L 101.428364 163.007629 
L 102.24 160.015478 
L 103.863273 158.349111 
L 104.674909 158.349111 
L 105.486545 155.334884 
L 106.298182 155.029554 
L 107.109818 155.029554 
L 107.921455 152.681075 
L 109.544727 152.592669 
L 110.356364 147.730906 
L 111.168 144.958894 
L 111.979636 144.958894 
L 112.791273 141.943931 
L 114.414545 141.943931 
L 115.226182 139.190888 
L 117.661091 139.135683 
L 119.284364 136.236643 
L 120.096 134.804111 
L 120.907636 132.787598 
L 121.719273 132.787598 
L 122.530909 132.253438 
L 124.154182 132.253438 
L 124.965818 131.994471 
L 127.400727 130.628744 
L 128.212364 129.297895 
L 129.835636 129.297895 
L 130.647273 126.688279 
L 132.270545 126.588466 
L 133.082182 123.947671 
L 134.705455 123.947671 
L 135.517091 123.482415 
L 136.328727 123.482415 
L 137.140364 120.757925 
L 137.952 120.757925 
L 138.763636 120.380512 
L 139.575273 120.380512 
L 140.386909 119.079853 
L 141.198545 119.079853 
L 142.010182 118.689809 
L 142.821818 118.689809 
L 143.633455 117.098828 
L 144.445091 117.098828 
L 145.256727 116.567026 
L 146.068364 115.809178 
L 148.503273 115.740385 
L 149.314909 115.517248 
L 150.938182 112.129697 
L 151.749818 112.129697 
L 152.561455 111.130886 
L 153.373091 109.249032 
L 154.184727 108.406478 
L 155.808 108.406478 
L 156.619636 108.073291 
L 158.242909 108.073291 
L 159.866182 107.751093 
L 161.489455 106.364985 
L 167.170909 106.364985 
L 167.982545 104.320059 
L 168.794182 101.793998 
L 172.852364 101.793998 
L 173.664 101.674715 
L 174.475636 101.674715 
L 175.287273 99.526714 
L 176.910545 99.526714 
L 177.722182 99.045823 
L 180.968727 99.045823 
L 181.780364 98.237549 
L 183.403636 98.237549 
L 184.215273 97.42906 
L 185.838545 97.42906 
L 186.650182 94.93395 
L 187.461818 94.93395 
L 188.273455 94.256025 
L 189.085091 91.229067 
L 189.896727 91.229067 
L 190.708364 88.210786 
L 193.143273 88.210786 
L 193.954909 86.348326 
L 195.578182 86.348326 
L 196.389818 84.885155 
L 202.882909 84.885155 
L 203.694545 84.330643 
L 204.506182 84.330643 
L 205.317818 83.93526 
L 208.564364 83.93526 
L 209.376 80.604492 
L 210.187636 79.676891 
L 214.245818 79.676891 
L 215.057455 78.350629 
L 215.869091 78.350629 
L 216.680727 77.795209 
L 220.738909 77.795209 
L 221.550545 75.805244 
L 223.173818 75.805244 
L 223.985455 75.439797 
L 236.971636 75.439797 
L 237.783273 74.483285 
L 243.464727 74.483285 
L 245.088 73.845006 
L 261.320727 73.845006 
L 262.132364 73.609296 
L 264.567273 73.609296 
L 265.378909 73.073945 
L 266.190545 72.823418 
L 268.625455 72.823418 
L 269.437091 72.330445 
L 287.293091 72.243935 
L 289.728 72.206666 
L 294.597818 72.206666 
L 295.409455 70.16997 
L 296.221091 69.052449 
L 297.032727 68.682546 
L 307.584 68.682546 
L 308.395636 67.932997 
L 309.207273 64.650225 
L 328.686545 64.650225 
L 329.498182 63.874724 
L 335.991273 63.874724 
L 336.802909 59.420504 
L 356.282182 59.379864 
L 357.093818 59.259587 
L 361.152 59.183241 
L 361.963636 58.816623 
L 373.326545 58.816623 
L 374.138182 58.247772 
L 381.442909 58.247772 
L 382.254545 58.074026 
L 391.182545 58.074026 
L 391.994182 57.123857 
L 397.675636 57.078258 
L 398.487273 56.752561 
L 398.487273 56.752561 
" style="fill:none;stroke:#1f77b4;stroke-linecap:square;stroke-width:1.5;"/>
   </g>
   <g id="line2d_17">
    <path clip-path="url(#p491b2568d3)" d="M 73.832727 290.627442 
L 74.644364 288.118844 
L 75.456 277.174536 
L 76.267636 275.113435 
L 78.702545 257.433264 
L 79.514182 253.255005 
L 80.325818 247.906257 
L 81.137455 241.584339 
L 82.760727 231.340747 
L 84.384 226.910758 
L 86.818909 212.942907 
L 87.630545 206.208025 
L 88.442182 205.434548 
L 89.253818 200.530058 
L 90.065455 199.892608 
L 90.877091 197.193379 
L 91.688727 194.953693 
L 92.500364 194.54392 
L 94.123636 189.422526 
L 94.935273 183.558646 
L 95.746909 179.878981 
L 96.558545 178.328813 
L 98.181818 173.568645 
L 98.993455 165.536662 
L 99.805091 164.879295 
L 100.616727 163.909403 
L 101.428364 163.421834 
L 102.24 158.202667 
L 103.051636 158.202667 
L 103.863273 157.983917 
L 104.674909 157.423442 
L 106.298182 157.423442 
L 107.109818 155.344773 
L 107.921455 151.497856 
L 108.733091 151.497856 
L 109.544727 150.457855 
L 110.356364 150.457855 
L 111.168 147.70227 
L 111.979636 147.70227 
L 112.791273 145.564332 
L 113.602909 145.427069 
L 114.414545 142.887581 
L 115.226182 142.567896 
L 116.037818 142.567896 
L 116.849455 138.607264 
L 118.472727 138.521438 
L 119.284364 138.521438 
L 120.096 132.947656 
L 121.719273 132.912613 
L 122.530909 132.215694 
L 123.342545 130.72654 
L 124.965818 130.540204 
L 125.777455 128.285059 
L 126.589091 127.567068 
L 128.212364 127.262082 
L 129.024 127.262082 
L 129.835636 127.00519 
L 130.647273 126.094783 
L 131.458909 123.913919 
L 132.270545 121.319376 
L 133.082182 119.440413 
L 133.893818 119.440413 
L 135.517091 119.146333 
L 136.328727 116.953267 
L 137.140364 116.953267 
L 137.952 116.367865 
L 138.763636 115.927124 
L 139.575273 115.927124 
L 140.386909 115.472542 
L 141.198545 113.685418 
L 142.010182 108.964085 
L 142.821818 108.964085 
L 143.633455 108.644403 
L 146.88 108.644403 
L 147.691636 108.084416 
L 150.938182 108.084416 
L 151.749818 106.443536 
L 152.561455 106.443536 
L 153.373091 106.052428 
L 154.996364 106.052428 
L 155.808 105.26343 
L 156.619636 105.26343 
L 157.431273 104.042577 
L 158.242909 103.275385 
L 161.489455 103.275385 
L 162.301091 102.264846 
L 163.112727 102.264846 
L 163.924364 99.279052 
L 165.547636 99.279052 
L 166.359273 95.223205 
L 167.170909 95.152424 
L 167.982545 94.597351 
L 177.722182 94.597351 
L 178.533818 94.395869 
L 179.345455 94.395869 
L 181.780364 94.078207 
L 183.403636 94.078207 
L 185.026909 89.353402 
L 185.838545 89.353402 
L 186.650182 88.460829 
L 191.52 88.460829 
L 192.331636 88.325728 
L 206.129455 88.325728 
L 206.941091 88.126049 
L 207.752727 87.18592 
L 209.376 87.18592 
L 210.187636 85.755379 
L 210.999273 85.265252 
L 230.478545 85.160458 
L 231.290182 83.168591 
L 232.101818 83.168591 
L 232.913455 82.27594 
L 233.725091 82.016438 
L 238.594909 82.016438 
L 239.406545 81.378303 
L 240.218182 79.979047 
L 257.262545 79.979047 
L 258.074182 79.556618 
L 259.697455 79.556618 
L 260.509091 79.2908 
L 271.872 79.286202 
L 272.683636 78.436082 
L 273.495273 78.121671 
L 278.365091 78.121671 
L 279.176727 74.558291 
L 282.423273 74.464302 
L 283.234909 73.177623 
L 284.046545 73.177623 
L 284.858182 71.074429 
L 285.669818 69.877847 
L 311.642182 69.877847 
L 312.453818 69.758772 
L 329.498182 69.758772 
L 330.309818 69.425069 
L 331.121455 69.425069 
L 331.933091 67.188396 
L 348.977455 67.085986 
L 349.789091 65.79463 
L 375.761455 65.79463 
L 376.573091 65.399291 
L 380.631273 65.37463 
L 387.124364 65.37463 
L 387.936 65.19483 
L 388.747636 64.141107 
L 394.429091 64.141107 
L 395.240727 63.777724 
L 396.864 63.777724 
L 397.675636 60.995348 
L 398.487273 60.636904 
L 398.487273 60.636904 
" style="fill:none;stroke:#ff7f0e;stroke-linecap:square;stroke-width:1.5;"/>
   </g>
   <g id="line2d_18">
    <path clip-path="url(#p491b2568d3)" d="M 73.832727 290.000233 
L 74.644364 285.190907 
L 75.456 278.886089 
L 76.267636 268.647263 
L 77.079273 264.796457 
L 78.702545 248.427044 
L 79.514182 242.778081 
L 80.325818 242.118442 
L 81.137455 238.243955 
L 83.572364 224.816624 
L 84.384 222.3603 
L 85.195636 218.722499 
L 86.007273 216.656826 
L 86.818909 212.48066 
L 87.630545 204.378165 
L 88.442182 199.395624 
L 90.877091 191.862899 
L 91.688727 190.324793 
L 92.500364 188.297248 
L 93.312 188.252998 
L 94.123636 187.827209 
L 94.935273 185.480112 
L 95.746909 182.596386 
L 96.558545 181.070823 
L 97.370182 178.190586 
L 98.181818 176.614132 
L 98.993455 171.801093 
L 99.805091 170.112087 
L 100.616727 168.792767 
L 101.428364 165.824529 
L 102.24 165.276113 
L 103.051636 161.270712 
L 103.863273 159.825775 
L 104.674909 159.825775 
L 105.486545 157.077978 
L 106.298182 156.425746 
L 107.109818 154.375468 
L 107.921455 153.571194 
L 108.733091 151.903864 
L 110.356364 150.472655 
L 111.168 147.93255 
L 111.979636 147.558928 
L 112.791273 147.518555 
L 113.602909 146.574032 
L 114.414545 145.97036 
L 115.226182 142.371962 
L 116.037818 140.506291 
L 116.849455 140.506291 
L 117.661091 137.993795 
L 120.096 137.910178 
L 120.907636 137.117168 
L 122.530909 136.86902 
L 123.342545 136.573286 
L 124.965818 131.977603 
L 125.777455 131.70528 
L 127.400727 131.638456 
L 130.647273 131.638456 
L 131.458909 127.501241 
L 132.270545 127.501241 
L 133.082182 126.498376 
L 134.705455 126.498376 
L 135.517091 125.296427 
L 136.328727 125.296427 
L 137.140364 124.834933 
L 139.575273 124.825524 
L 140.386909 124.026009 
L 141.198545 123.807935 
L 142.821818 123.807935 
L 143.633455 122.922276 
L 144.445091 119.873487 
L 145.256727 119.168312 
L 147.691636 119.168312 
L 148.503273 118.31888 
L 149.314909 116.325112 
L 150.126545 116.325112 
L 150.938182 115.051638 
L 152.561455 115.051638 
L 153.373091 114.671892 
L 154.184727 111.739906 
L 155.808 111.739906 
L 156.619636 111.105913 
L 157.431273 111.00404 
L 159.054545 109.258073 
L 159.866182 109.258073 
L 160.677818 107.27941 
L 161.489455 107.27941 
L 162.301091 105.487247 
L 166.359273 105.487247 
L 167.170909 105.089993 
L 167.982545 102.506029 
L 168.794182 102.506029 
L 169.605818 101.650139 
L 172.852364 101.650139 
L 173.664 101.075221 
L 175.287273 100.831299 
L 176.098909 100.322595 
L 176.910545 99.498883 
L 181.780364 99.498883 
L 182.592 98.924064 
L 183.403636 98.924064 
L 184.215273 98.492082 
L 185.838545 98.110391 
L 186.650182 98.110391 
L 187.461818 97.562064 
L 188.273455 97.20265 
L 189.085091 94.314711 
L 192.331636 94.314711 
L 193.143273 94.165598 
L 194.766545 94.072339 
L 195.578182 93.192455 
L 196.389818 93.192455 
L 197.201455 91.025477 
L 198.013091 91.002767 
L 198.824727 88.274181 
L 199.636364 86.306717 
L 201.259636 86.306717 
L 202.071273 85.195227 
L 202.882909 85.195227 
L 203.694545 84.735596 
L 213.434182 84.735596 
L 214.245818 83.995045 
L 220.738909 83.993941 
L 221.550545 83.240591 
L 227.232 83.240591 
L 228.043636 81.12001 
L 230.478545 81.12001 
L 231.290182 80.855579 
L 234.536727 80.855579 
L 235.348364 80.19174 
L 242.653091 80.19174 
L 243.464727 80.057254 
L 248.334545 80.057254 
L 249.146182 79.83473 
L 262.944 79.772218 
L 263.755636 77.473818 
L 264.567273 77.473818 
L 265.378909 75.531676 
L 271.060364 75.531676 
L 271.872 75.402246 
L 273.495273 75.402246 
L 274.306909 74.499156 
L 277.553455 74.499156 
L 278.365091 73.530577 
L 279.176727 71.386204 
L 282.423273 71.386204 
L 283.234909 71.112803 
L 289.728 71.112803 
L 290.539636 68.764416 
L 293.786182 68.764416 
L 294.597818 68.541372 
L 295.409455 68.541372 
L 296.221091 67.128488 
L 297.032727 66.869852 
L 305.960727 66.814838 
L 306.772364 66.318575 
L 327.063273 66.281206 
L 327.874909 65.632178 
L 328.686545 65.476638 
L 346.542545 65.476638 
L 347.354182 64.774959 
L 353.847273 64.774959 
L 354.658909 63.979867 
L 357.093818 63.979867 
L 357.905455 63.475419 
L 365.210182 63.475419 
L 366.021818 63.313541 
L 377.384727 63.313541 
L 378.196364 62.966635 
L 391.994182 62.966635 
L 392.805818 62.613399 
L 393.617455 61.482995 
L 398.487273 61.482995 
L 398.487273 61.482995 
" style="fill:none;stroke:#2ca02c;stroke-linecap:square;stroke-width:1.5;"/>
   </g>
   <g id="line2d_19">
    <path clip-path="url(#p491b2568d3)" d="M 73.832727 285.05829 
L 74.644364 283.104329 
L 75.456 277.839643 
L 76.267636 270.355219 
L 77.079273 264.501259 
L 77.890909 254.803465 
L 78.702545 247.770071 
L 79.514182 244.973399 
L 80.325818 238.554071 
L 81.137455 235.736293 
L 83.572364 220.081327 
L 84.384 212.884377 
L 85.195636 211.666375 
L 86.818909 203.735981 
L 87.630545 201.635417 
L 88.442182 198.498932 
L 89.253818 196.721875 
L 90.065455 195.450489 
L 90.877091 192.278789 
L 91.688727 192.051649 
L 92.500364 186.823895 
L 93.312 185.619121 
L 94.123636 182.116202 
L 94.935273 179.695596 
L 95.746909 176.616802 
L 96.558545 176.495472 
L 97.370182 174.762335 
L 98.181818 173.559506 
L 98.993455 173.471038 
L 99.805091 168.909665 
L 101.428364 166.781382 
L 102.24 165.890355 
L 103.051636 165.647057 
L 104.674909 162.837704 
L 105.486545 160.797908 
L 106.298182 160.630056 
L 107.109818 160.630056 
L 107.921455 158.015315 
L 109.544727 157.951516 
L 110.356364 152.505877 
L 111.168 150.31235 
L 111.979636 150.31235 
L 112.791273 143.626033 
L 113.602909 143.626033 
L 114.414545 143.223062 
L 115.226182 142.19905 
L 116.849455 138.072397 
L 117.661091 136.729113 
L 118.472727 136.729113 
L 119.284364 133.707142 
L 120.096 132.545442 
L 120.907636 132.545442 
L 121.719273 129.864298 
L 122.530909 128.91937 
L 123.342545 128.91937 
L 124.154182 127.215518 
L 124.965818 127.215518 
L 126.589091 124.956725 
L 127.400727 124.956725 
L 128.212364 124.182463 
L 129.835636 124.182463 
L 130.647273 123.183211 
L 131.458909 122.912232 
L 132.270545 121.983456 
L 133.893818 121.976129 
L 134.705455 121.312443 
L 135.517091 120.421867 
L 136.328727 120.421867 
L 137.140364 120.117087 
L 139.575273 120.117087 
L 140.386909 119.338883 
L 142.821818 119.338883 
L 143.633455 118.944334 
L 144.445091 117.579011 
L 146.88 117.579011 
L 147.691636 116.863038 
L 148.503273 116.309758 
L 149.314909 116.309758 
L 150.126545 116.088602 
L 150.938182 116.088602 
L 151.749818 114.817608 
L 152.561455 113.298225 
L 154.184727 113.298225 
L 154.996364 111.051235 
L 160.677818 111.051235 
L 161.489455 110.762507 
L 162.301091 110.762507 
L 163.112727 109.893695 
L 164.736 109.893695 
L 165.547636 109.435755 
L 166.359273 107.117271 
L 167.170909 106.580025 
L 169.605818 106.47328 
L 170.417455 106.194738 
L 171.229091 104.626017 
L 172.852364 104.565965 
L 182.592 104.565965 
L 183.403636 104.022863 
L 184.215273 102.999705 
L 186.650182 102.949721 
L 187.461818 102.559247 
L 188.273455 100.636228 
L 189.896727 100.636228 
L 190.708364 100.403781 
L 191.52 99.867728 
L 192.331636 99.867728 
L 193.143273 99.143067 
L 193.954909 98.694446 
L 194.766545 97.771532 
L 195.578182 97.771532 
L 196.389818 95.664046 
L 197.201455 95.664046 
L 198.013091 93.749318 
L 199.636364 93.749318 
L 200.448 91.977376 
L 202.071273 91.977376 
L 202.882909 91.831362 
L 204.506182 91.831362 
L 205.317818 91.513273 
L 213.434182 91.40825 
L 214.245818 88.614934 
L 215.057455 88.614934 
L 215.869091 88.498981 
L 216.680727 86.481325 
L 217.492364 86.481325 
L 218.304 83.789964 
L 219.927273 83.789964 
L 220.738909 83.37723 
L 236.971636 83.37723 
L 237.783273 81.520149 
L 245.088 81.414376 
L 245.899636 80.99188 
L 246.711273 80.886613 
L 247.522909 79.637429 
L 248.334545 79.203802 
L 249.957818 79.203802 
L 250.769455 78.250163 
L 263.755636 78.250163 
L 264.567273 78.086893 
L 274.306909 78.086893 
L 275.118545 77.400477 
L 279.176727 77.400477 
L 279.988364 76.567294 
L 280.8 76.567294 
L 281.611636 76.380859 
L 292.974545 76.380859 
L 293.786182 75.659937 
L 308.395636 75.659937 
L 309.207273 75.382256 
L 335.991273 75.341787 
L 337.614545 75.241329 
L 340.861091 75.241329 
L 341.672727 72.931859 
L 343.296 72.931859 
L 344.107636 71.770714 
L 346.542545 71.770714 
L 347.354182 71.152774 
L 361.152 71.152774 
L 361.963636 70.430501 
L 362.775273 68.766787 
L 367.645091 68.766787 
L 368.456727 67.710238 
L 385.501091 67.710238 
L 386.312727 67.477431 
L 398.487273 67.477431 
L 398.487273 67.477431 
" style="fill:none;stroke:#d62728;stroke-linecap:square;stroke-width:1.5;"/>
   </g>
   <g id="line2d_20">
    <path clip-path="url(#p491b2568d3)" d="M 73.832727 295.488 
L 74.644364 290.182321 
L 75.456 283.229733 
L 76.267636 279.079201 
L 77.079273 273.644711 
L 77.890909 266.36293 
L 78.702545 260.237882 
L 79.514182 253.16709 
L 80.325818 247.141936 
L 81.137455 245.279848 
L 81.949091 239.472815 
L 82.760727 235.272203 
L 83.572364 228.782924 
L 84.384 228.051507 
L 85.195636 225.296606 
L 86.007273 225.296606 
L 86.818909 221.291265 
L 87.630545 218.739304 
L 88.442182 213.101682 
L 89.253818 210.044281 
L 90.065455 208.753286 
L 90.877091 205.812132 
L 91.688727 200.990457 
L 92.500364 197.538401 
L 93.312 196.406725 
L 94.123636 195.801818 
L 94.935273 192.651362 
L 95.746909 192.201212 
L 96.558545 191.03682 
L 97.370182 190.450443 
L 98.993455 184.334297 
L 99.805091 182.139587 
L 102.24 178.408505 
L 103.051636 176.021914 
L 103.863273 174.03625 
L 104.674909 174.03625 
L 105.486545 170.855039 
L 107.109818 167.372511 
L 107.921455 167.122044 
L 108.733091 167.122044 
L 110.356364 158.892008 
L 111.168 158.783442 
L 111.979636 157.352523 
L 113.602909 157.352523 
L 114.414545 156.607611 
L 115.226182 156.607611 
L 116.037818 156.302594 
L 117.661091 156.269855 
L 118.472727 153.589829 
L 119.284364 153.321417 
L 120.096 151.142787 
L 120.907636 151.142787 
L 121.719273 148.531103 
L 122.530909 147.84281 
L 124.154182 147.84281 
L 124.965818 147.375334 
L 125.777455 147.375334 
L 126.589091 146.225357 
L 127.400727 143.769528 
L 128.212364 142.756341 
L 129.024 138.226065 
L 129.835636 138.226065 
L 130.647273 135.714533 
L 132.270545 135.714533 
L 133.082182 135.131763 
L 134.705455 135.131763 
L 135.517091 134.480811 
L 137.952 134.480811 
L 139.575273 133.811667 
L 140.386909 133.49138 
L 141.198545 132.8175 
L 142.821818 132.8175 
L 143.633455 131.98168 
L 144.445091 131.98168 
L 145.256727 131.371915 
L 149.314909 131.371915 
L 150.126545 130.77052 
L 150.938182 130.446538 
L 151.749818 130.446538 
L 152.561455 129.468705 
L 153.373091 128.692312 
L 161.489455 128.692312 
L 162.301091 126.952703 
L 163.112727 126.952703 
L 163.924364 126.604137 
L 164.736 124.579008 
L 165.547636 124.579008 
L 166.359273 124.184201 
L 170.417455 124.184201 
L 171.229091 124.018545 
L 175.287273 124.018545 
L 176.098909 123.619394 
L 176.910545 123.619394 
L 177.722182 123.292148 
L 182.592 123.292148 
L 183.403636 122.217596 
L 186.650182 122.217596 
L 187.461818 121.011606 
L 193.143273 121.011606 
L 193.954909 120.29946 
L 196.389818 120.29946 
L 197.201455 120.175903 
L 199.636364 120.175903 
L 200.448 119.847661 
L 201.259636 119.847661 
L 202.071273 119.523222 
L 202.882909 118.915653 
L 203.694545 117.907343 
L 210.187636 117.907343 
L 210.999273 117.256523 
L 213.434182 117.256523 
L 214.245818 114.701926 
L 218.304 114.701926 
L 219.115636 111.973587 
L 219.927273 111.973587 
L 220.738909 109.627546 
L 225.608727 109.627546 
L 226.420364 109.190248 
L 227.232 109.190248 
L 228.043636 108.1107 
L 231.290182 108.1107 
L 232.101818 106.271162 
L 241.029818 106.271162 
L 241.841455 105.094262 
L 246.711273 105.094262 
L 247.522909 104.087763 
L 259.697455 104.087763 
L 260.509091 103.137807 
L 271.060364 103.137807 
L 271.872 102.998372 
L 279.988364 102.921802 
L 281.611636 102.155593 
L 282.423273 102.155593 
L 283.234909 101.892697 
L 284.046545 101.892697 
L 284.858182 101.7545 
L 293.786182 101.7545 
L 294.597818 100.836693 
L 298.656 100.836693 
L 299.467636 100.663146 
L 313.265455 100.663146 
L 314.077091 99.930106 
L 320.570182 99.930106 
L 321.381818 98.054944 
L 328.686545 98.054944 
L 329.498182 97.103326 
L 335.991273 97.103326 
L 336.802909 96.678498 
L 340.049455 96.678498 
L 340.861091 96.136953 
L 347.354182 96.120066 
L 348.165818 95.17345 
L 374.138182 95.163613 
L 374.949818 94.650586 
L 382.254545 94.650586 
L 383.066182 94.51087 
L 393.617455 94.424134 
L 394.429091 93.451062 
L 397.675636 93.451062 
L 398.487273 92.983641 
L 398.487273 92.983641 
" style="fill:none;stroke:#9467bd;stroke-linecap:square;stroke-width:1.5;"/>
   </g>
   <g id="line2d_21">
    <path clip-path="url(#p491b2568d3)" d="M 73.832727 289.960928 
L 74.644364 285.626617 
L 76.267636 271.786761 
L 77.079273 260.785942 
L 77.890909 256.003634 
L 78.702545 249.818368 
L 79.514182 238.577218 
L 81.949091 225.255389 
L 82.760727 221.287912 
L 83.572364 215.518724 
L 84.384 213.409367 
L 85.195636 208.773455 
L 86.818909 202.166238 
L 87.630545 194.460337 
L 88.442182 193.2592 
L 89.253818 191.272662 
L 90.065455 189.639903 
L 90.877091 187.144349 
L 91.688727 186.239457 
L 92.500364 184.672692 
L 93.312 182.239024 
L 94.123636 179.200452 
L 94.935273 179.200452 
L 95.746909 178.462041 
L 96.558545 174.922999 
L 98.181818 169.512643 
L 98.993455 168.303527 
L 99.805091 168.093134 
L 101.428364 165.360448 
L 102.24 165.012102 
L 103.051636 159.825486 
L 103.863273 159.607139 
L 104.674909 157.847114 
L 105.486545 156.80429 
L 106.298182 153.659662 
L 107.109818 153.659662 
L 107.921455 152.518516 
L 108.733091 150.169766 
L 109.544727 148.177764 
L 110.356364 147.508776 
L 111.979636 147.508776 
L 112.791273 146.240864 
L 113.602909 141.663898 
L 114.414545 141.663898 
L 115.226182 141.372566 
L 117.661091 135.273436 
L 118.472727 134.964925 
L 119.284364 134.109281 
L 120.096 132.614089 
L 123.342545 132.614089 
L 124.154182 132.100283 
L 124.965818 132.100283 
L 125.777455 129.271268 
L 127.400727 128.686724 
L 129.024 128.686724 
L 129.835636 128.461714 
L 130.647273 127.828733 
L 131.458909 125.960563 
L 132.270545 125.400445 
L 133.082182 123.825187 
L 133.893818 123.014159 
L 137.140364 123.014159 
L 137.952 122.435471 
L 138.763636 120.707587 
L 139.575273 119.773128 
L 142.821818 119.753742 
L 143.633455 116.509672 
L 144.445091 114.622787 
L 146.88 114.622787 
L 147.691636 113.816636 
L 150.938182 113.816636 
L 151.749818 113.554243 
L 154.184727 113.545642 
L 154.996364 111.863592 
L 156.619636 111.863592 
L 158.242909 108.342649 
L 159.054545 105.679373 
L 162.301091 105.586941 
L 163.112727 104.941079 
L 165.547636 104.941079 
L 166.359273 103.408113 
L 169.605818 103.408113 
L 170.417455 101.604214 
L 171.229091 101.331401 
L 172.040727 101.322222 
L 172.852364 98.087692 
L 190.708364 98.087692 
L 191.52 97.387452 
L 192.331636 97.387452 
L 193.143273 96.504623 
L 197.201455 96.504623 
L 198.013091 96.376544 
L 202.071273 96.376544 
L 202.882909 95.624136 
L 206.941091 95.624136 
L 207.752727 92.618021 
L 209.376 92.618021 
L 210.187636 92.258912 
L 210.999273 92.258912 
L 211.810909 91.567756 
L 222.362182 91.567756 
L 223.173818 88.396323 
L 228.043636 88.396323 
L 228.855273 88.048069 
L 230.478545 88.048069 
L 231.290182 87.24004 
L 232.913455 87.206133 
L 233.725091 86.898843 
L 236.16 86.898843 
L 236.971636 84.720942 
L 250.769455 84.63301 
L 252.392727 84.55784 
L 253.204364 83.870525 
L 257.262545 83.870525 
L 258.074182 82.902026 
L 258.885818 82.902026 
L 259.697455 82.406543 
L 265.378909 82.406543 
L 266.190545 81.966783 
L 283.234909 81.966783 
L 284.046545 81.480462 
L 290.539636 81.480462 
L 291.351273 80.933282 
L 296.221091 80.838827 
L 297.032727 79.951776 
L 298.656 79.887934 
L 300.279273 79.887934 
L 301.090909 79.61719 
L 301.902545 78.400521 
L 303.525818 78.400521 
L 304.337455 76.634341 
L 305.149091 76.634341 
L 305.960727 76.348727 
L 324.628364 76.348727 
L 325.44 73.151406 
L 328.686545 73.151406 
L 329.498182 72.527198 
L 340.049455 72.527198 
L 340.861091 71.754135 
L 341.672727 71.754135 
L 342.484364 71.611637 
L 346.542545 71.611637 
L 347.354182 70.785017 
L 355.470545 70.785017 
L 356.282182 69.773174 
L 368.456727 69.773174 
L 369.268364 69.43035 
L 371.703273 69.43035 
L 372.514909 68.288356 
L 380.631273 68.288356 
L 381.442909 67.705063 
L 398.487273 67.705063 
L 398.487273 67.705063 
" style="fill:none;stroke:#8c564b;stroke-linecap:square;stroke-width:1.5;"/>
   </g>
   <g id="line2d_22">
    <path clip-path="url(#p491b2568d3)" d="M 73.832727 289.081784 
L 74.644364 281.42397 
L 75.456 275.632632 
L 76.267636 271.631617 
L 77.079273 261.34142 
L 77.890909 254.123537 
L 78.702545 248.230839 
L 80.325818 234.499923 
L 81.137455 231.917944 
L 81.949091 225.007237 
L 82.760727 224.362373 
L 83.572364 214.906827 
L 85.195636 210.003068 
L 86.007273 206.254163 
L 86.818909 203.373918 
L 88.442182 199.906882 
L 89.253818 196.270175 
L 90.065455 190.733214 
L 90.877091 186.828304 
L 91.688727 184.830204 
L 92.500364 183.720336 
L 93.312 178.310723 
L 94.123636 165.167 
L 95.746909 160.592088 
L 96.558545 160.592088 
L 97.370182 158.088035 
L 98.181818 157.582625 
L 98.993455 154.672167 
L 99.805091 154.672167 
L 100.616727 152.632184 
L 101.428364 152.632184 
L 102.24 151.814977 
L 103.863273 151.814977 
L 104.674909 150.831847 
L 105.486545 149.339208 
L 106.298182 148.556425 
L 107.109818 147.359172 
L 107.921455 143.896492 
L 108.733091 142.948944 
L 109.544727 142.475021 
L 110.356364 142.475021 
L 111.168 139.889645 
L 111.979636 138.198801 
L 112.791273 138.198801 
L 113.602909 137.365931 
L 114.414545 137.365931 
L 115.226182 135.886266 
L 116.037818 133.211049 
L 117.661091 133.211049 
L 118.472727 132.540089 
L 120.096 132.540089 
L 120.907636 131.915093 
L 121.719273 131.651996 
L 122.530909 129.205183 
L 123.342545 126.195815 
L 124.154182 125.501421 
L 124.965818 124.643315 
L 126.589091 124.643315 
L 127.400727 122.317733 
L 128.212364 119.06739 
L 129.024 119.06739 
L 129.835636 118.425285 
L 130.647273 118.425285 
L 131.458909 117.180122 
L 132.270545 117.180122 
L 133.082182 115.872994 
L 133.893818 115.245003 
L 135.517091 115.221571 
L 136.328727 114.595489 
L 137.140364 114.595489 
L 137.952 112.007055 
L 138.763636 111.727886 
L 139.575273 111.302375 
L 140.386909 110.748509 
L 146.068364 110.748509 
L 146.88 108.903189 
L 147.691636 107.662984 
L 149.314909 104.217378 
L 150.126545 103.296849 
L 155.808 103.239373 
L 156.619636 102.720534 
L 158.242909 102.720534 
L 159.054545 101.805082 
L 159.866182 98.559944 
L 160.677818 97.850263 
L 165.547636 97.850263 
L 166.359273 96.811672 
L 173.664 96.811672 
L 174.475636 96.321292 
L 178.533818 96.321292 
L 179.345455 92.97537 
L 180.157091 92.321977 
L 180.968727 92.321977 
L 182.592 91.000688 
L 184.215273 91.000688 
L 185.026909 90.669885 
L 190.708364 90.60981 
L 191.52 85.929408 
L 193.954909 85.929408 
L 194.766545 84.695053 
L 195.578182 84.46519 
L 202.882909 84.46519 
L 203.694545 83.941147 
L 206.941091 83.941147 
L 207.752727 82.141571 
L 208.564364 82.141571 
L 209.376 79.736778 
L 210.999273 79.736778 
L 211.810909 77.53097 
L 215.057455 77.53097 
L 215.869091 77.397143 
L 216.680727 75.982768 
L 230.478545 75.875261 
L 231.290182 75.461769 
L 232.101818 73.926859 
L 233.725091 73.926859 
L 234.536727 72.429574 
L 248.334545 72.34491 
L 249.146182 72.095795 
L 257.262545 72.095795 
L 258.074182 71.765584 
L 260.509091 71.765584 
L 261.320727 71.578652 
L 262.944 71.578652 
L 263.755636 68.10609 
L 267.002182 68.10609 
L 267.813818 67.771866 
L 271.872 67.771866 
L 272.683636 67.166108 
L 275.118545 67.166108 
L 275.930182 65.8765 
L 279.988364 65.828491 
L 280.8 65.638679 
L 281.611636 65.159231 
L 282.423273 65.159231 
L 283.234909 64.321147 
L 284.046545 64.321147 
L 284.858182 63.98894 
L 285.669818 63.98894 
L 286.481455 62.855404 
L 292.162909 62.855404 
L 292.974545 62.658306 
L 298.656 62.658306 
L 299.467636 62.359782 
L 311.642182 62.359782 
L 312.453818 58.982672 
L 315.700364 58.982672 
L 316.512 58.527448 
L 330.309818 58.527448 
L 331.121455 58.393268 
L 335.179636 58.393268 
L 335.991273 57.592057 
L 354.658909 57.592057 
L 355.470545 56.117346 
L 369.268364 56.117346 
L 370.08 55.886434 
L 374.138182 55.886434 
L 374.949818 55.282898 
L 383.877818 55.206311 
L 385.501091 55.101458 
L 387.936 55.101458 
L 388.747636 54.299352 
L 390.370909 54.299352 
L 391.182545 53.568 
L 398.487273 53.568 
L 398.487273 53.568 
" style="fill:none;stroke:#e377c2;stroke-linecap:square;stroke-width:1.5;"/>
   </g>
   <g id="line2d_23">
    <path clip-path="url(#p491b2568d3)" d="M 73.832727 294.081936 
L 74.644364 291.691002 
L 76.267636 274.740787 
L 77.890909 263.477995 
L 78.702545 254.673648 
L 79.514182 251.755892 
L 80.325818 247.016179 
L 81.137455 243.58992 
L 81.949091 240.741746 
L 82.760727 230.767171 
L 83.572364 223.084195 
L 84.384 221.188913 
L 85.195636 218.201696 
L 86.007273 215.690269 
L 86.818909 210.783284 
L 87.630545 209.448078 
L 88.442182 205.68121 
L 89.253818 204.126369 
L 90.065455 203.106973 
L 91.688727 199.924962 
L 92.500364 193.998608 
L 93.312 193.998608 
L 94.123636 192.631447 
L 94.935273 192.631447 
L 95.746909 185.452281 
L 96.558545 184.298451 
L 97.370182 175.262209 
L 98.181818 174.055853 
L 98.993455 174.055853 
L 99.805091 173.040122 
L 100.616727 172.910533 
L 101.428364 167.681278 
L 102.24 165.836599 
L 103.051636 165.836599 
L 103.863273 163.306256 
L 104.674909 163.306256 
L 105.486545 163.148882 
L 106.298182 161.040054 
L 107.109818 155.783489 
L 107.921455 155.63959 
L 108.733091 153.12201 
L 109.544727 151.085392 
L 110.356364 151.085392 
L 111.168 149.637374 
L 112.791273 149.637374 
L 113.602909 146.289249 
L 116.037818 146.289249 
L 116.849455 144.934833 
L 117.661091 142.99179 
L 118.472727 141.433777 
L 119.284364 141.433777 
L 120.096 139.807626 
L 124.154182 139.807626 
L 124.965818 138.962188 
L 125.777455 136.839183 
L 126.589091 135.727616 
L 128.212364 135.727616 
L 129.024 134.748773 
L 132.270545 134.748773 
L 133.082182 134.374587 
L 133.893818 132.930028 
L 134.705455 132.930028 
L 135.517091 132.55295 
L 136.328727 132.55295 
L 137.140364 132.333278 
L 138.763636 132.262854 
L 139.575273 132.262854 
L 140.386909 131.943778 
L 141.198545 129.820359 
L 142.010182 129.820359 
L 142.821818 129.151468 
L 144.445091 129.151468 
L 145.256727 128.990137 
L 146.068364 125.935423 
L 148.503273 125.935423 
L 149.314909 125.663141 
L 150.126545 125.663141 
L 151.749818 122.715042 
L 152.561455 122.715042 
L 153.373091 121.821021 
L 155.808 121.821021 
L 156.619636 121.139287 
L 157.431273 120.838419 
L 159.866182 120.838419 
L 160.677818 119.554181 
L 161.489455 117.472629 
L 162.301091 117.472629 
L 163.112727 116.109825 
L 167.982545 116.109825 
L 168.794182 115.525067 
L 172.040727 115.525067 
L 172.852364 114.624221 
L 175.287273 114.624221 
L 176.098909 114.427615 
L 176.910545 114.427615 
L 177.722182 113.571742 
L 187.461818 113.571742 
L 188.273455 111.06769 
L 190.708364 109.878758 
L 194.766545 109.878758 
L 195.578182 108.990074 
L 197.201455 108.990074 
L 198.013091 108.863153 
L 204.506182 108.863153 
L 205.317818 108.122881 
L 206.129455 108.122881 
L 206.941091 106.239051 
L 211.810909 106.239051 
L 212.622545 104.00863 
L 214.245818 104.00863 
L 215.057455 103.319061 
L 216.680727 103.319061 
L 217.492364 103.007161 
L 218.304 103.007161 
L 219.115636 102.211394 
L 219.927273 101.836244 
L 220.738909 100.110016 
L 224.797091 100.042725 
L 225.608727 99.881659 
L 226.420364 99.134299 
L 228.855273 99.134299 
L 229.666909 98.694271 
L 230.478545 97.714254 
L 231.290182 97.573297 
L 233.725091 97.573297 
L 234.536727 96.887918 
L 236.971636 96.887918 
L 237.783273 95.954176 
L 239.406545 95.954176 
L 240.218182 94.951383 
L 241.029818 94.951383 
L 242.653091 93.815306 
L 250.769455 93.815306 
L 251.581091 93.688403 
L 258.885818 93.688403 
L 259.697455 93.185222 
L 262.132364 93.185222 
L 262.944 92.712113 
L 263.755636 92.712113 
L 264.567273 91.845646 
L 265.378909 91.845646 
L 266.190545 91.444637 
L 267.813818 91.444637 
L 268.625455 90.146472 
L 280.8 90.051926 
L 282.423273 89.977089 
L 286.481455 89.977089 
L 287.293091 89.128395 
L 288.104727 89.128395 
L 288.916364 88.663595 
L 290.539636 88.568227 
L 292.162909 88.568227 
L 292.974545 87.809068 
L 298.656 87.809068 
L 299.467636 87.506962 
L 300.279273 87.506962 
L 301.090909 86.961585 
L 301.902545 86.76403 
L 302.714182 86.76403 
L 303.525818 86.37367 
L 310.018909 86.37367 
L 310.830545 84.801385 
L 315.700364 84.801385 
L 316.512 84.200494 
L 319.758545 84.200494 
L 320.570182 82.98046 
L 330.309818 82.98046 
L 331.121455 82.355413 
L 353.035636 82.355413 
L 353.847273 82.073605 
L 363.586909 82.009044 
L 364.398545 80.286161 
L 369.268364 80.286161 
L 370.08 79.875282 
L 382.254545 79.797546 
L 383.066182 79.665411 
L 383.877818 79.665411 
L 384.689455 78.058233 
L 386.312727 78.058233 
L 387.124364 77.057597 
L 389.559273 77.057597 
L 390.370909 76.838296 
L 398.487273 76.838296 
L 398.487273 76.838296 
" style="fill:none;stroke:#7f7f7f;stroke-linecap:square;stroke-width:1.5;"/>
   </g>
   <g id="patch_3">
    <path d="M 57.6 307.584 
L 57.6 41.472 
" style="fill:none;stroke:#000000;stroke-linecap:square;stroke-linejoin:miter;stroke-width:0.8;"/>
   </g>
   <g id="patch_4">
    <path d="M 414.72 307.584 
L 414.72 41.472 
" style="fill:none;stroke:#000000;stroke-linecap:square;stroke-linejoin:miter;stroke-width:0.8;"/>
   </g>
   <g id="patch_5">
    <path d="M 57.6 307.584 
L 414.72 307.584 
" style="fill:none;stroke:#000000;stroke-linecap:square;stroke-linejoin:miter;stroke-width:0.8;"/>
   </g>
   <g id="patch_6">
    <path d="M 57.6 41.472 
L 414.72 41.472 
" style="fill:none;stroke:#000000;stroke-linecap:square;stroke-linejoin:miter;stroke-width:0.8;"/>
   </g>
   <g id="text_18">
    <!-- Fitness Value Curves (100-node, m=2) -->
    <defs>
     <path d="M 28.609375 0 
L 0.78125 72.90625 
L 11.078125 72.90625 
L 34.1875 11.53125 
L 57.328125 72.90625 
L 67.578125 72.90625 
L 39.796875 0 
z
" id="DejaVuSans-86"/>
     <path d="M 64.40625 67.28125 
L 64.40625 56.890625 
Q 59.421875 61.53125 53.78125 63.8125 
Q 48.140625 66.109375 41.796875 66.109375 
Q 29.296875 66.109375 22.65625 58.46875 
Q 16.015625 50.828125 16.015625 36.375 
Q 16.015625 21.96875 22.65625 14.328125 
Q 29.296875 6.6875 41.796875 6.6875 
Q 48.140625 6.6875 53.78125 8.984375 
Q 59.421875 11.28125 64.40625 15.921875 
L 64.40625 5.609375 
Q 59.234375 2.09375 53.4375 0.328125 
Q 47.65625 -1.421875 41.21875 -1.421875 
Q 24.65625 -1.421875 15.125 8.703125 
Q 5.609375 18.84375 5.609375 36.375 
Q 5.609375 53.953125 15.125 64.078125 
Q 24.65625 74.21875 41.21875 74.21875 
Q 47.75 74.21875 53.53125 72.484375 
Q 59.328125 70.75 64.40625 67.28125 
z
" id="DejaVuSans-67"/>
     <path d="M 11.71875 12.40625 
L 22.015625 12.40625 
L 22.015625 4 
L 14.015625 -11.625 
L 7.71875 -11.625 
L 11.71875 4 
z
" id="DejaVuSans-44"/>
     <path d="M 52 44.1875 
Q 55.375 50.25 60.0625 53.125 
Q 64.75 56 71.09375 56 
Q 79.640625 56 84.28125 50.015625 
Q 88.921875 44.046875 88.921875 33.015625 
L 88.921875 0 
L 79.890625 0 
L 79.890625 32.71875 
Q 79.890625 40.578125 77.09375 44.375 
Q 74.3125 48.1875 68.609375 48.1875 
Q 61.625 48.1875 57.5625 43.546875 
Q 53.515625 38.921875 53.515625 30.90625 
L 53.515625 0 
L 44.484375 0 
L 44.484375 32.71875 
Q 44.484375 40.625 41.703125 44.40625 
Q 38.921875 48.1875 33.109375 48.1875 
Q 26.21875 48.1875 22.15625 43.53125 
Q 18.109375 38.875 18.109375 30.90625 
L 18.109375 0 
L 9.078125 0 
L 9.078125 54.6875 
L 18.109375 54.6875 
L 18.109375 46.1875 
Q 21.1875 51.21875 25.484375 53.609375 
Q 29.78125 56 35.6875 56 
Q 41.65625 56 45.828125 52.96875 
Q 50 49.953125 52 44.1875 
z
" id="DejaVuSans-109"/>
     <path d="M 10.59375 45.40625 
L 73.1875 45.40625 
L 73.1875 37.203125 
L 10.59375 37.203125 
z
M 10.59375 25.484375 
L 73.1875 25.484375 
L 73.1875 17.1875 
L 10.59375 17.1875 
z
" id="DejaVuSans-61"/>
    </defs>
    <g transform="translate(119.689688 35.472)scale(0.12 -0.12)">
     <use xlink:href="#DejaVuSans-70"/>
     <use x="57.410156" xlink:href="#DejaVuSans-105"/>
     <use x="85.193359" xlink:href="#DejaVuSans-116"/>
     <use x="124.402344" xlink:href="#DejaVuSans-110"/>
     <use x="187.78125" xlink:href="#DejaVuSans-101"/>
     <use x="249.304688" xlink:href="#DejaVuSans-115"/>
     <use x="301.404297" xlink:href="#DejaVuSans-115"/>
     <use x="353.503906" xlink:href="#DejaVuSans-32"/>
     <use x="385.291016" xlink:href="#DejaVuSans-86"/>
     <use x="453.589844" xlink:href="#DejaVuSans-97"/>
     <use x="514.869141" xlink:href="#DejaVuSans-108"/>
     <use x="542.652344" xlink:href="#DejaVuSans-117"/>
     <use x="606.03125" xlink:href="#DejaVuSans-101"/>
     <use x="667.554688" xlink:href="#DejaVuSans-32"/>
     <use x="699.341797" xlink:href="#DejaVuSans-67"/>
     <use x="769.166016" xlink:href="#DejaVuSans-117"/>
     <use x="832.544922" xlink:href="#DejaVuSans-114"/>
     <use x="873.658203" xlink:href="#DejaVuSans-118"/>
     <use x="932.837891" xlink:href="#DejaVuSans-101"/>
     <use x="994.361328" xlink:href="#DejaVuSans-115"/>
     <use x="1046.460938" xlink:href="#DejaVuSans-32"/>
     <use x="1078.248047" xlink:href="#DejaVuSans-40"/>
     <use x="1117.261719" xlink:href="#DejaVuSans-49"/>
     <use x="1180.884766" xlink:href="#DejaVuSans-48"/>
     <use x="1244.507812" xlink:href="#DejaVuSans-48"/>
     <use x="1308.130859" xlink:href="#DejaVuSans-45"/>
     <use x="1344.214844" xlink:href="#DejaVuSans-110"/>
     <use x="1407.59375" xlink:href="#DejaVuSans-111"/>
     <use x="1468.775391" xlink:href="#DejaVuSans-100"/>
     <use x="1532.251953" xlink:href="#DejaVuSans-101"/>
     <use x="1593.775391" xlink:href="#DejaVuSans-44"/>
     <use x="1625.5625" xlink:href="#DejaVuSans-32"/>
     <use x="1657.349609" xlink:href="#DejaVuSans-109"/>
     <use x="1754.761719" xlink:href="#DejaVuSans-61"/>
     <use x="1838.550781" xlink:href="#DejaVuSans-50"/>
     <use x="1902.173828" xlink:href="#DejaVuSans-41"/>
    </g>
   </g>
  </g>
 </g>
 <defs>
  <clipPath id="p491b2568d3">
   <rect height="266.112" width="357.12" x="57.6" y="41.472"/>
  </clipPath>
 </defs>
</svg>
