<?xml version="1.0" encoding="utf-8" standalone="no"?>
<!DOCTYPE svg PUBLIC "-//W3C//DTD SVG 1.1//EN"
  "http://www.w3.org/Graphics/SVG/1.1/DTD/svg11.dtd">
<!-- Created with matplotlib (https://matplotlib.org/) -->
<svg height="345.6pt" version="1.1" viewBox="0 0 460.8 345.6" width="460.8pt" xmlns="http://www.w3.org/2000/svg" xmlns:xlink="http://www.w3.org/1999/xlink">
 <defs>
  <style type="text/css">
*{stroke-linecap:butt;stroke-linejoin:round;}
  </style>
 </defs>
 <g id="figure_1">
  <g id="patch_1">
   <path d="M 0 345.6 
L 460.8 345.6 
L 460.8 0 
L 0 0 
z
" style="fill:#ffffff;"/>
  </g>
  <g id="axes_1">
   <g id="patch_2">
    <path d="M 57.6 307.584 
L 414.72 307.584 
L 414.72 41.472 
L 57.6 41.472 
z
" style="fill:#ffffff;"/>
   </g>
   <g id="matplotlib.axis_1">
    <g id="xtick_1">
     <g id="line2d_1">
      <defs>
       <path d="M 0 0 
L 0 3.5 
" id="m616c22a21f" style="stroke:#000000;stroke-width:0.8;"/>
      </defs>
      <g>
       <use style="stroke:#000000;stroke-width:0.8;" x="73.832727" xlink:href="#m616c22a21f" y="307.584"/>
      </g>
     </g>
     <g id="text_1">
      <!-- 0 -->
      <defs>
       <path d="M 31.78125 66.40625 
Q 24.171875 66.40625 20.328125 58.90625 
Q 16.5 51.421875 16.5 36.375 
Q 16.5 21.390625 20.328125 13.890625 
Q 24.171875 6.390625 31.78125 6.390625 
Q 39.453125 6.390625 43.28125 13.890625 
Q 47.125 21.390625 47.125 36.375 
Q 47.125 51.421875 43.28125 58.90625 
Q 39.453125 66.40625 31.78125 66.40625 
z
M 31.78125 74.21875 
Q 44.046875 74.21875 50.515625 64.515625 
Q 56.984375 54.828125 56.984375 36.375 
Q 56.984375 17.96875 50.515625 8.265625 
Q 44.046875 -1.421875 31.78125 -1.421875 
Q 19.53125 -1.421875 13.0625 8.265625 
Q 6.59375 17.96875 6.59375 36.375 
Q 6.59375 54.828125 13.0625 64.515625 
Q 19.53125 74.21875 31.78125 74.21875 
z
" id="DejaVuSans-48"/>
      </defs>
      <g transform="translate(70.651477 322.182437)scale(0.1 -0.1)">
       <use xlink:href="#DejaVuSans-48"/>
      </g>
     </g>
    </g>
    <g id="xtick_2">
     <g id="line2d_2">
      <g>
       <use style="stroke:#000000;stroke-width:0.8;" x="138.763636" xlink:href="#m616c22a21f" y="307.584"/>
      </g>
     </g>
     <g id="text_2">
      <!-- 20 -->
      <defs>
       <path d="M 19.1875 8.296875 
L 53.609375 8.296875 
L 53.609375 0 
L 7.328125 0 
L 7.328125 8.296875 
Q 12.9375 14.109375 22.625 23.890625 
Q 32.328125 33.6875 34.8125 36.53125 
Q 39.546875 41.84375 41.421875 45.53125 
Q 43.3125 49.21875 43.3125 52.78125 
Q 43.3125 58.59375 39.234375 62.25 
Q 35.15625 65.921875 28.609375 65.921875 
Q 23.96875 65.921875 18.8125 64.3125 
Q 13.671875 62.703125 7.8125 59.421875 
L 7.8125 69.390625 
Q 13.765625 71.78125 18.9375 73 
Q 24.125 74.21875 28.421875 74.21875 
Q 39.75 74.21875 46.484375 68.546875 
Q 53.21875 62.890625 53.21875 53.421875 
Q 53.21875 48.921875 51.53125 44.890625 
Q 49.859375 40.875 45.40625 35.40625 
Q 44.1875 33.984375 37.640625 27.21875 
Q 31.109375 20.453125 19.1875 8.296875 
z
" id="DejaVuSans-50"/>
      </defs>
      <g transform="translate(132.401136 322.182437)scale(0.1 -0.1)">
       <use xlink:href="#DejaVuSans-50"/>
       <use x="63.623047" xlink:href="#DejaVuSans-48"/>
      </g>
     </g>
    </g>
    <g id="xtick_3">
     <g id="line2d_3">
      <g>
       <use style="stroke:#000000;stroke-width:0.8;" x="203.694545" xlink:href="#m616c22a21f" y="307.584"/>
      </g>
     </g>
     <g id="text_3">
      <!-- 40 -->
      <defs>
       <path d="M 37.796875 64.3125 
L 12.890625 25.390625 
L 37.796875 25.390625 
z
M 35.203125 72.90625 
L 47.609375 72.90625 
L 47.609375 25.390625 
L 58.015625 25.390625 
L 58.015625 17.1875 
L 47.609375 17.1875 
L 47.609375 0 
L 37.796875 0 
L 37.796875 17.1875 
L 4.890625 17.1875 
L 4.890625 26.703125 
z
" id="DejaVuSans-52"/>
      </defs>
      <g transform="translate(197.332045 322.182437)scale(0.1 -0.1)">
       <use xlink:href="#DejaVuSans-52"/>
       <use x="63.623047" xlink:href="#DejaVuSans-48"/>
      </g>
     </g>
    </g>
    <g id="xtick_4">
     <g id="line2d_4">
      <g>
       <use style="stroke:#000000;stroke-width:0.8;" x="268.625455" xlink:href="#m616c22a21f" y="307.584"/>
      </g>
     </g>
     <g id="text_4">
      <!-- 60 -->
      <defs>
       <path d="M 33.015625 40.375 
Q 26.375 40.375 22.484375 35.828125 
Q 18.609375 31.296875 18.609375 23.390625 
Q 18.609375 15.53125 22.484375 10.953125 
Q 26.375 6.390625 33.015625 6.390625 
Q 39.65625 6.390625 43.53125 10.953125 
Q 47.40625 15.53125 47.40625 23.390625 
Q 47.40625 31.296875 43.53125 35.828125 
Q 39.65625 40.375 33.015625 40.375 
z
M 52.59375 71.296875 
L 52.59375 62.3125 
Q 48.875 64.0625 45.09375 64.984375 
Q 41.3125 65.921875 37.59375 65.921875 
Q 27.828125 65.921875 22.671875 59.328125 
Q 17.53125 52.734375 16.796875 39.40625 
Q 19.671875 43.65625 24.015625 45.921875 
Q 28.375 48.1875 33.59375 48.1875 
Q 44.578125 48.1875 50.953125 41.515625 
Q 57.328125 34.859375 57.328125 23.390625 
Q 57.328125 12.15625 50.6875 5.359375 
Q 44.046875 -1.421875 33.015625 -1.421875 
Q 20.359375 -1.421875 13.671875 8.265625 
Q 6.984375 17.96875 6.984375 36.375 
Q 6.984375 53.65625 15.1875 63.9375 
Q 23.390625 74.21875 37.203125 74.21875 
Q 40.921875 74.21875 44.703125 73.484375 
Q 48.484375 72.75 52.59375 71.296875 
z
" id="DejaVuSans-54"/>
      </defs>
      <g transform="translate(262.262955 322.182437)scale(0.1 -0.1)">
       <use xlink:href="#DejaVuSans-54"/>
       <use x="63.623047" xlink:href="#DejaVuSans-48"/>
      </g>
     </g>
    </g>
    <g id="xtick_5">
     <g id="line2d_5">
      <g>
       <use style="stroke:#000000;stroke-width:0.8;" x="333.556364" xlink:href="#m616c22a21f" y="307.584"/>
      </g>
     </g>
     <g id="text_5">
      <!-- 80 -->
      <defs>
       <path d="M 31.78125 34.625 
Q 24.75 34.625 20.71875 30.859375 
Q 16.703125 27.09375 16.703125 20.515625 
Q 16.703125 13.921875 20.71875 10.15625 
Q 24.75 6.390625 31.78125 6.390625 
Q 38.8125 6.390625 42.859375 10.171875 
Q 46.921875 13.96875 46.921875 20.515625 
Q 46.921875 27.09375 42.890625 30.859375 
Q 38.875 34.625 31.78125 34.625 
z
M 21.921875 38.8125 
Q 15.578125 40.375 12.03125 44.71875 
Q 8.5 49.078125 8.5 55.328125 
Q 8.5 64.0625 14.71875 69.140625 
Q 20.953125 74.21875 31.78125 74.21875 
Q 42.671875 74.21875 48.875 69.140625 
Q 55.078125 64.0625 55.078125 55.328125 
Q 55.078125 49.078125 51.53125 44.71875 
Q 48 40.375 41.703125 38.8125 
Q 48.828125 37.15625 52.796875 32.3125 
Q 56.78125 27.484375 56.78125 20.515625 
Q 56.78125 9.90625 50.3125 4.234375 
Q 43.84375 -1.421875 31.78125 -1.421875 
Q 19.734375 -1.421875 13.25 4.234375 
Q 6.78125 9.90625 6.78125 20.515625 
Q 6.78125 27.484375 10.78125 32.3125 
Q 14.796875 37.15625 21.921875 38.8125 
z
M 18.3125 54.390625 
Q 18.3125 48.734375 21.84375 45.5625 
Q 25.390625 42.390625 31.78125 42.390625 
Q 38.140625 42.390625 41.71875 45.5625 
Q 45.3125 48.734375 45.3125 54.390625 
Q 45.3125 60.0625 41.71875 63.234375 
Q 38.140625 66.40625 31.78125 66.40625 
Q 25.390625 66.40625 21.84375 63.234375 
Q 18.3125 60.0625 18.3125 54.390625 
z
" id="DejaVuSans-56"/>
      </defs>
      <g transform="translate(327.193864 322.182437)scale(0.1 -0.1)">
       <use xlink:href="#DejaVuSans-56"/>
       <use x="63.623047" xlink:href="#DejaVuSans-48"/>
      </g>
     </g>
    </g>
    <g id="xtick_6">
     <g id="line2d_6">
      <g>
       <use style="stroke:#000000;stroke-width:0.8;" x="398.487273" xlink:href="#m616c22a21f" y="307.584"/>
      </g>
     </g>
     <g id="text_6">
      <!-- 100 -->
      <defs>
       <path d="M 12.40625 8.296875 
L 28.515625 8.296875 
L 28.515625 63.921875 
L 10.984375 60.40625 
L 10.984375 69.390625 
L 28.421875 72.90625 
L 38.28125 72.90625 
L 38.28125 8.296875 
L 54.390625 8.296875 
L 54.390625 0 
L 12.40625 0 
z
" id="DejaVuSans-49"/>
      </defs>
      <g transform="translate(388.943523 322.182437)scale(0.1 -0.1)">
       <use xlink:href="#DejaVuSans-49"/>
       <use x="63.623047" xlink:href="#DejaVuSans-48"/>
       <use x="127.246094" xlink:href="#DejaVuSans-48"/>
      </g>
     </g>
    </g>
    <g id="text_7">
     <!-- # of Generation -->
     <defs>
      <path d="M 51.125 44 
L 36.921875 44 
L 32.8125 27.6875 
L 47.125 27.6875 
z
M 43.796875 71.78125 
L 38.71875 51.515625 
L 52.984375 51.515625 
L 58.109375 71.78125 
L 65.921875 71.78125 
L 60.890625 51.515625 
L 76.125 51.515625 
L 76.125 44 
L 58.984375 44 
L 54.984375 27.6875 
L 70.515625 27.6875 
L 70.515625 20.21875 
L 53.078125 20.21875 
L 48 0 
L 40.1875 0 
L 45.21875 20.21875 
L 30.90625 20.21875 
L 25.875 0 
L 18.015625 0 
L 23.09375 20.21875 
L 7.71875 20.21875 
L 7.71875 27.6875 
L 24.90625 27.6875 
L 29 44 
L 13.28125 44 
L 13.28125 51.515625 
L 30.90625 51.515625 
L 35.890625 71.78125 
z
" id="DejaVuSans-35"/>
      <path id="DejaVuSans-32"/>
      <path d="M 30.609375 48.390625 
Q 23.390625 48.390625 19.1875 42.75 
Q 14.984375 37.109375 14.984375 27.296875 
Q 14.984375 17.484375 19.15625 11.84375 
Q 23.34375 6.203125 30.609375 6.203125 
Q 37.796875 6.203125 41.984375 11.859375 
Q 46.1875 17.53125 46.1875 27.296875 
Q 46.1875 37.015625 41.984375 42.703125 
Q 37.796875 48.390625 30.609375 48.390625 
z
M 30.609375 56 
Q 42.328125 56 49.015625 48.375 
Q 55.71875 40.765625 55.71875 27.296875 
Q 55.71875 13.875 49.015625 6.21875 
Q 42.328125 -1.421875 30.609375 -1.421875 
Q 18.84375 -1.421875 12.171875 6.21875 
Q 5.515625 13.875 5.515625 27.296875 
Q 5.515625 40.765625 12.171875 48.375 
Q 18.84375 56 30.609375 56 
z
" id="DejaVuSans-111"/>
      <path d="M 37.109375 75.984375 
L 37.109375 68.5 
L 28.515625 68.5 
Q 23.6875 68.5 21.796875 66.546875 
Q 19.921875 64.59375 19.921875 59.515625 
L 19.921875 54.6875 
L 34.71875 54.6875 
L 34.71875 47.703125 
L 19.921875 47.703125 
L 19.921875 0 
L 10.890625 0 
L 10.890625 47.703125 
L 2.296875 47.703125 
L 2.296875 54.6875 
L 10.890625 54.6875 
L 10.890625 58.5 
Q 10.890625 67.625 15.140625 71.796875 
Q 19.390625 75.984375 28.609375 75.984375 
z
" id="DejaVuSans-102"/>
      <path d="M 59.515625 10.40625 
L 59.515625 29.984375 
L 43.40625 29.984375 
L 43.40625 38.09375 
L 69.28125 38.09375 
L 69.28125 6.78125 
Q 63.578125 2.734375 56.6875 0.65625 
Q 49.8125 -1.421875 42 -1.421875 
Q 24.90625 -1.421875 15.25 8.5625 
Q 5.609375 18.5625 5.609375 36.375 
Q 5.609375 54.25 15.25 64.234375 
Q 24.90625 74.21875 42 74.21875 
Q 49.125 74.21875 55.546875 72.453125 
Q 61.96875 70.703125 67.390625 67.28125 
L 67.390625 56.78125 
Q 61.921875 61.421875 55.765625 63.765625 
Q 49.609375 66.109375 42.828125 66.109375 
Q 29.4375 66.109375 22.71875 58.640625 
Q 16.015625 51.171875 16.015625 36.375 
Q 16.015625 21.625 22.71875 14.15625 
Q 29.4375 6.6875 42.828125 6.6875 
Q 48.046875 6.6875 52.140625 7.59375 
Q 56.25 8.5 59.515625 10.40625 
z
" id="DejaVuSans-71"/>
      <path d="M 56.203125 29.59375 
L 56.203125 25.203125 
L 14.890625 25.203125 
Q 15.484375 15.921875 20.484375 11.0625 
Q 25.484375 6.203125 34.421875 6.203125 
Q 39.59375 6.203125 44.453125 7.46875 
Q 49.3125 8.734375 54.109375 11.28125 
L 54.109375 2.78125 
Q 49.265625 0.734375 44.1875 -0.34375 
Q 39.109375 -1.421875 33.890625 -1.421875 
Q 20.796875 -1.421875 13.15625 6.1875 
Q 5.515625 13.8125 5.515625 26.8125 
Q 5.515625 40.234375 12.765625 48.109375 
Q 20.015625 56 32.328125 56 
Q 43.359375 56 49.78125 48.890625 
Q 56.203125 41.796875 56.203125 29.59375 
z
M 47.21875 32.234375 
Q 47.125 39.59375 43.09375 43.984375 
Q 39.0625 48.390625 32.421875 48.390625 
Q 24.90625 48.390625 20.390625 44.140625 
Q 15.875 39.890625 15.1875 32.171875 
z
" id="DejaVuSans-101"/>
      <path d="M 54.890625 33.015625 
L 54.890625 0 
L 45.90625 0 
L 45.90625 32.71875 
Q 45.90625 40.484375 42.875 44.328125 
Q 39.84375 48.1875 33.796875 48.1875 
Q 26.515625 48.1875 22.3125 43.546875 
Q 18.109375 38.921875 18.109375 30.90625 
L 18.109375 0 
L 9.078125 0 
L 9.078125 54.6875 
L 18.109375 54.6875 
L 18.109375 46.1875 
Q 21.34375 51.125 25.703125 53.5625 
Q 30.078125 56 35.796875 56 
Q 45.21875 56 50.046875 50.171875 
Q 54.890625 44.34375 54.890625 33.015625 
z
" id="DejaVuSans-110"/>
      <path d="M 41.109375 46.296875 
Q 39.59375 47.171875 37.8125 47.578125 
Q 36.03125 48 33.890625 48 
Q 26.265625 48 22.1875 43.046875 
Q 18.109375 38.09375 18.109375 28.8125 
L 18.109375 0 
L 9.078125 0 
L 9.078125 54.6875 
L 18.109375 54.6875 
L 18.109375 46.1875 
Q 20.953125 51.171875 25.484375 53.578125 
Q 30.03125 56 36.53125 56 
Q 37.453125 56 38.578125 55.875 
Q 39.703125 55.765625 41.0625 55.515625 
z
" id="DejaVuSans-114"/>
      <path d="M 34.28125 27.484375 
Q 23.390625 27.484375 19.1875 25 
Q 14.984375 22.515625 14.984375 16.5 
Q 14.984375 11.71875 18.140625 8.90625 
Q 21.296875 6.109375 26.703125 6.109375 
Q 34.1875 6.109375 38.703125 11.40625 
Q 43.21875 16.703125 43.21875 25.484375 
L 43.21875 27.484375 
z
M 52.203125 31.203125 
L 52.203125 0 
L 43.21875 0 
L 43.21875 8.296875 
Q 40.140625 3.328125 35.546875 0.953125 
Q 30.953125 -1.421875 24.3125 -1.421875 
Q 15.921875 -1.421875 10.953125 3.296875 
Q 6 8.015625 6 15.921875 
Q 6 25.140625 12.171875 29.828125 
Q 18.359375 34.515625 30.609375 34.515625 
L 43.21875 34.515625 
L 43.21875 35.40625 
Q 43.21875 41.609375 39.140625 45 
Q 35.0625 48.390625 27.6875 48.390625 
Q 23 48.390625 18.546875 47.265625 
Q 14.109375 46.140625 10.015625 43.890625 
L 10.015625 52.203125 
Q 14.9375 54.109375 19.578125 55.046875 
Q 24.21875 56 28.609375 56 
Q 40.484375 56 46.34375 49.84375 
Q 52.203125 43.703125 52.203125 31.203125 
z
" id="DejaVuSans-97"/>
      <path d="M 18.3125 70.21875 
L 18.3125 54.6875 
L 36.8125 54.6875 
L 36.8125 47.703125 
L 18.3125 47.703125 
L 18.3125 18.015625 
Q 18.3125 11.328125 20.140625 9.421875 
Q 21.96875 7.515625 27.59375 7.515625 
L 36.8125 7.515625 
L 36.8125 0 
L 27.59375 0 
Q 17.1875 0 13.234375 3.875 
Q 9.28125 7.765625 9.28125 18.015625 
L 9.28125 47.703125 
L 2.6875 47.703125 
L 2.6875 54.6875 
L 9.28125 54.6875 
L 9.28125 70.21875 
z
" id="DejaVuSans-116"/>
      <path d="M 9.421875 54.6875 
L 18.40625 54.6875 
L 18.40625 0 
L 9.421875 0 
z
M 9.421875 75.984375 
L 18.40625 75.984375 
L 18.40625 64.59375 
L 9.421875 64.59375 
z
" id="DejaVuSans-105"/>
     </defs>
     <g transform="translate(196.079531 335.860562)scale(0.1 -0.1)">
      <use xlink:href="#DejaVuSans-35"/>
      <use x="83.789062" xlink:href="#DejaVuSans-32"/>
      <use x="115.576172" xlink:href="#DejaVuSans-111"/>
      <use x="176.757812" xlink:href="#DejaVuSans-102"/>
      <use x="211.962891" xlink:href="#DejaVuSans-32"/>
      <use x="243.75" xlink:href="#DejaVuSans-71"/>
      <use x="321.240234" xlink:href="#DejaVuSans-101"/>
      <use x="382.763672" xlink:href="#DejaVuSans-110"/>
      <use x="446.142578" xlink:href="#DejaVuSans-101"/>
      <use x="507.666016" xlink:href="#DejaVuSans-114"/>
      <use x="548.779297" xlink:href="#DejaVuSans-97"/>
      <use x="610.058594" xlink:href="#DejaVuSans-116"/>
      <use x="649.267578" xlink:href="#DejaVuSans-105"/>
      <use x="677.050781" xlink:href="#DejaVuSans-111"/>
      <use x="738.232422" xlink:href="#DejaVuSans-110"/>
     </g>
    </g>
   </g>
   <g id="matplotlib.axis_2">
    <g id="ytick_1">
     <g id="line2d_7">
      <defs>
       <path d="M 0 0 
L -3.5 0 
" id="md9b2b62dfc" style="stroke:#000000;stroke-width:0.8;"/>
      </defs>
      <g>
       <use style="stroke:#000000;stroke-width:0.8;" x="57.6" xlink:href="#md9b2b62dfc" y="304.728425"/>
      </g>
     </g>
     <g id="text_8">
      <!-- 0.075 -->
      <defs>
       <path d="M 10.6875 12.40625 
L 21 12.40625 
L 21 0 
L 10.6875 0 
z
" id="DejaVuSans-46"/>
       <path d="M 8.203125 72.90625 
L 55.078125 72.90625 
L 55.078125 68.703125 
L 28.609375 0 
L 18.3125 0 
L 43.21875 64.59375 
L 8.203125 64.59375 
z
" id="DejaVuSans-55"/>
       <path d="M 10.796875 72.90625 
L 49.515625 72.90625 
L 49.515625 64.59375 
L 19.828125 64.59375 
L 19.828125 46.734375 
Q 21.96875 47.46875 24.109375 47.828125 
Q 26.265625 48.1875 28.421875 48.1875 
Q 40.625 48.1875 47.75 41.5 
Q 54.890625 34.8125 54.890625 23.390625 
Q 54.890625 11.625 47.5625 5.09375 
Q 40.234375 -1.421875 26.90625 -1.421875 
Q 22.3125 -1.421875 17.546875 -0.640625 
Q 12.796875 0.140625 7.71875 1.703125 
L 7.71875 11.625 
Q 12.109375 9.234375 16.796875 8.0625 
Q 21.484375 6.890625 26.703125 6.890625 
Q 35.15625 6.890625 40.078125 11.328125 
Q 45.015625 15.765625 45.015625 23.390625 
Q 45.015625 31 40.078125 35.4375 
Q 35.15625 39.890625 26.703125 39.890625 
Q 22.75 39.890625 18.8125 39.015625 
Q 14.890625 38.140625 10.796875 36.28125 
z
" id="DejaVuSans-53"/>
      </defs>
      <g transform="translate(21.971875 308.527644)scale(0.1 -0.1)">
       <use xlink:href="#DejaVuSans-48"/>
       <use x="63.623047" xlink:href="#DejaVuSans-46"/>
       <use x="95.410156" xlink:href="#DejaVuSans-48"/>
       <use x="159.033203" xlink:href="#DejaVuSans-55"/>
       <use x="222.65625" xlink:href="#DejaVuSans-53"/>
      </g>
     </g>
    </g>
    <g id="ytick_2">
     <g id="line2d_8">
      <g>
       <use style="stroke:#000000;stroke-width:0.8;" x="57.6" xlink:href="#md9b2b62dfc" y="270.345761"/>
      </g>
     </g>
     <g id="text_9">
      <!-- 0.100 -->
      <g transform="translate(21.971875 274.144979)scale(0.1 -0.1)">
       <use xlink:href="#DejaVuSans-48"/>
       <use x="63.623047" xlink:href="#DejaVuSans-46"/>
       <use x="95.410156" xlink:href="#DejaVuSans-49"/>
       <use x="159.033203" xlink:href="#DejaVuSans-48"/>
       <use x="222.65625" xlink:href="#DejaVuSans-48"/>
      </g>
     </g>
    </g>
    <g id="ytick_3">
     <g id="line2d_9">
      <g>
       <use style="stroke:#000000;stroke-width:0.8;" x="57.6" xlink:href="#md9b2b62dfc" y="235.963096"/>
      </g>
     </g>
     <g id="text_10">
      <!-- 0.125 -->
      <g transform="translate(21.971875 239.762315)scale(0.1 -0.1)">
       <use xlink:href="#DejaVuSans-48"/>
       <use x="63.623047" xlink:href="#DejaVuSans-46"/>
       <use x="95.410156" xlink:href="#DejaVuSans-49"/>
       <use x="159.033203" xlink:href="#DejaVuSans-50"/>
       <use x="222.65625" xlink:href="#DejaVuSans-53"/>
      </g>
     </g>
    </g>
    <g id="ytick_4">
     <g id="line2d_10">
      <g>
       <use style="stroke:#000000;stroke-width:0.8;" x="57.6" xlink:href="#md9b2b62dfc" y="201.580431"/>
      </g>
     </g>
     <g id="text_11">
      <!-- 0.150 -->
      <g transform="translate(21.971875 205.37965)scale(0.1 -0.1)">
       <use xlink:href="#DejaVuSans-48"/>
       <use x="63.623047" xlink:href="#DejaVuSans-46"/>
       <use x="95.410156" xlink:href="#DejaVuSans-49"/>
       <use x="159.033203" xlink:href="#DejaVuSans-53"/>
       <use x="222.65625" xlink:href="#DejaVuSans-48"/>
      </g>
     </g>
    </g>
    <g id="ytick_5">
     <g id="line2d_11">
      <g>
       <use style="stroke:#000000;stroke-width:0.8;" x="57.6" xlink:href="#md9b2b62dfc" y="167.197767"/>
      </g>
     </g>
     <g id="text_12">
      <!-- 0.175 -->
      <g transform="translate(21.971875 170.996986)scale(0.1 -0.1)">
       <use xlink:href="#DejaVuSans-48"/>
       <use x="63.623047" xlink:href="#DejaVuSans-46"/>
       <use x="95.410156" xlink:href="#DejaVuSans-49"/>
       <use x="159.033203" xlink:href="#DejaVuSans-55"/>
       <use x="222.65625" xlink:href="#DejaVuSans-53"/>
      </g>
     </g>
    </g>
    <g id="ytick_6">
     <g id="line2d_12">
      <g>
       <use style="stroke:#000000;stroke-width:0.8;" x="57.6" xlink:href="#md9b2b62dfc" y="132.815102"/>
      </g>
     </g>
     <g id="text_13">
      <!-- 0.200 -->
      <g transform="translate(21.971875 136.614321)scale(0.1 -0.1)">
       <use xlink:href="#DejaVuSans-48"/>
       <use x="63.623047" xlink:href="#DejaVuSans-46"/>
       <use x="95.410156" xlink:href="#DejaVuSans-50"/>
       <use x="159.033203" xlink:href="#DejaVuSans-48"/>
       <use x="222.65625" xlink:href="#DejaVuSans-48"/>
      </g>
     </g>
    </g>
    <g id="ytick_7">
     <g id="line2d_13">
      <g>
       <use style="stroke:#000000;stroke-width:0.8;" x="57.6" xlink:href="#md9b2b62dfc" y="98.432438"/>
      </g>
     </g>
     <g id="text_14">
      <!-- 0.225 -->
      <g transform="translate(21.971875 102.231656)scale(0.1 -0.1)">
       <use xlink:href="#DejaVuSans-48"/>
       <use x="63.623047" xlink:href="#DejaVuSans-46"/>
       <use x="95.410156" xlink:href="#DejaVuSans-50"/>
       <use x="159.033203" xlink:href="#DejaVuSans-50"/>
       <use x="222.65625" xlink:href="#DejaVuSans-53"/>
      </g>
     </g>
    </g>
    <g id="ytick_8">
     <g id="line2d_14">
      <g>
       <use style="stroke:#000000;stroke-width:0.8;" x="57.6" xlink:href="#md9b2b62dfc" y="64.049773"/>
      </g>
     </g>
     <g id="text_15">
      <!-- 0.250 -->
      <g transform="translate(21.971875 67.848992)scale(0.1 -0.1)">
       <use xlink:href="#DejaVuSans-48"/>
       <use x="63.623047" xlink:href="#DejaVuSans-46"/>
       <use x="95.410156" xlink:href="#DejaVuSans-50"/>
       <use x="159.033203" xlink:href="#DejaVuSans-53"/>
       <use x="222.65625" xlink:href="#DejaVuSans-48"/>
      </g>
     </g>
    </g>
    <g id="text_16">
     <!-- Fitness Of Best Individual (× 1e-3) -->
     <defs>
      <path d="M 9.8125 72.90625 
L 51.703125 72.90625 
L 51.703125 64.59375 
L 19.671875 64.59375 
L 19.671875 43.109375 
L 48.578125 43.109375 
L 48.578125 34.8125 
L 19.671875 34.8125 
L 19.671875 0 
L 9.8125 0 
z
" id="DejaVuSans-70"/>
      <path d="M 44.28125 53.078125 
L 44.28125 44.578125 
Q 40.484375 46.53125 36.375 47.5 
Q 32.28125 48.484375 27.875 48.484375 
Q 21.1875 48.484375 17.84375 46.4375 
Q 14.5 44.390625 14.5 40.28125 
Q 14.5 37.15625 16.890625 35.375 
Q 19.28125 33.59375 26.515625 31.984375 
L 29.59375 31.296875 
Q 39.15625 29.25 43.1875 25.515625 
Q 47.21875 21.78125 47.21875 15.09375 
Q 47.21875 7.46875 41.1875 3.015625 
Q 35.15625 -1.421875 24.609375 -1.421875 
Q 20.21875 -1.421875 15.453125 -0.5625 
Q 10.6875 0.296875 5.421875 2 
L 5.421875 11.28125 
Q 10.40625 8.6875 15.234375 7.390625 
Q 20.0625 6.109375 24.8125 6.109375 
Q 31.15625 6.109375 34.5625 8.28125 
Q 37.984375 10.453125 37.984375 14.40625 
Q 37.984375 18.0625 35.515625 20.015625 
Q 33.0625 21.96875 24.703125 23.78125 
L 21.578125 24.515625 
Q 13.234375 26.265625 9.515625 29.90625 
Q 5.8125 33.546875 5.8125 39.890625 
Q 5.8125 47.609375 11.28125 51.796875 
Q 16.75 56 26.8125 56 
Q 31.78125 56 36.171875 55.265625 
Q 40.578125 54.546875 44.28125 53.078125 
z
" id="DejaVuSans-115"/>
      <path d="M 39.40625 66.21875 
Q 28.65625 66.21875 22.328125 58.203125 
Q 16.015625 50.203125 16.015625 36.375 
Q 16.015625 22.609375 22.328125 14.59375 
Q 28.65625 6.59375 39.40625 6.59375 
Q 50.140625 6.59375 56.421875 14.59375 
Q 62.703125 22.609375 62.703125 36.375 
Q 62.703125 50.203125 56.421875 58.203125 
Q 50.140625 66.21875 39.40625 66.21875 
z
M 39.40625 74.21875 
Q 54.734375 74.21875 63.90625 63.9375 
Q 73.09375 53.65625 73.09375 36.375 
Q 73.09375 19.140625 63.90625 8.859375 
Q 54.734375 -1.421875 39.40625 -1.421875 
Q 24.03125 -1.421875 14.8125 8.828125 
Q 5.609375 19.09375 5.609375 36.375 
Q 5.609375 53.65625 14.8125 63.9375 
Q 24.03125 74.21875 39.40625 74.21875 
z
" id="DejaVuSans-79"/>
      <path d="M 19.671875 34.8125 
L 19.671875 8.109375 
L 35.5 8.109375 
Q 43.453125 8.109375 47.28125 11.40625 
Q 51.125 14.703125 51.125 21.484375 
Q 51.125 28.328125 47.28125 31.5625 
Q 43.453125 34.8125 35.5 34.8125 
z
M 19.671875 64.796875 
L 19.671875 42.828125 
L 34.28125 42.828125 
Q 41.5 42.828125 45.03125 45.53125 
Q 48.578125 48.25 48.578125 53.8125 
Q 48.578125 59.328125 45.03125 62.0625 
Q 41.5 64.796875 34.28125 64.796875 
z
M 9.8125 72.90625 
L 35.015625 72.90625 
Q 46.296875 72.90625 52.390625 68.21875 
Q 58.5 63.53125 58.5 54.890625 
Q 58.5 48.1875 55.375 44.234375 
Q 52.25 40.28125 46.1875 39.3125 
Q 53.46875 37.75 57.5 32.78125 
Q 61.53125 27.828125 61.53125 20.40625 
Q 61.53125 10.640625 54.890625 5.3125 
Q 48.25 0 35.984375 0 
L 9.8125 0 
z
" id="DejaVuSans-66"/>
      <path d="M 9.8125 72.90625 
L 19.671875 72.90625 
L 19.671875 0 
L 9.8125 0 
z
" id="DejaVuSans-73"/>
      <path d="M 45.40625 46.390625 
L 45.40625 75.984375 
L 54.390625 75.984375 
L 54.390625 0 
L 45.40625 0 
L 45.40625 8.203125 
Q 42.578125 3.328125 38.25 0.953125 
Q 33.9375 -1.421875 27.875 -1.421875 
Q 17.96875 -1.421875 11.734375 6.484375 
Q 5.515625 14.40625 5.515625 27.296875 
Q 5.515625 40.1875 11.734375 48.09375 
Q 17.96875 56 27.875 56 
Q 33.9375 56 38.25 53.625 
Q 42.578125 51.265625 45.40625 46.390625 
z
M 14.796875 27.296875 
Q 14.796875 17.390625 18.875 11.75 
Q 22.953125 6.109375 30.078125 6.109375 
Q 37.203125 6.109375 41.296875 11.75 
Q 45.40625 17.390625 45.40625 27.296875 
Q 45.40625 37.203125 41.296875 42.84375 
Q 37.203125 48.484375 30.078125 48.484375 
Q 22.953125 48.484375 18.875 42.84375 
Q 14.796875 37.203125 14.796875 27.296875 
z
" id="DejaVuSans-100"/>
      <path d="M 2.984375 54.6875 
L 12.5 54.6875 
L 29.59375 8.796875 
L 46.6875 54.6875 
L 56.203125 54.6875 
L 35.6875 0 
L 23.484375 0 
z
" id="DejaVuSans-118"/>
      <path d="M 8.5 21.578125 
L 8.5 54.6875 
L 17.484375 54.6875 
L 17.484375 21.921875 
Q 17.484375 14.15625 20.5 10.265625 
Q 23.53125 6.390625 29.59375 6.390625 
Q 36.859375 6.390625 41.078125 11.03125 
Q 45.3125 15.671875 45.3125 23.6875 
L 45.3125 54.6875 
L 54.296875 54.6875 
L 54.296875 0 
L 45.3125 0 
L 45.3125 8.40625 
Q 42.046875 3.421875 37.71875 1 
Q 33.40625 -1.421875 27.6875 -1.421875 
Q 18.265625 -1.421875 13.375 4.4375 
Q 8.5 10.296875 8.5 21.578125 
z
M 31.109375 56 
z
" id="DejaVuSans-117"/>
      <path d="M 9.421875 75.984375 
L 18.40625 75.984375 
L 18.40625 0 
L 9.421875 0 
z
" id="DejaVuSans-108"/>
      <path d="M 31 75.875 
Q 24.46875 64.65625 21.28125 53.65625 
Q 18.109375 42.671875 18.109375 31.390625 
Q 18.109375 20.125 21.3125 9.0625 
Q 24.515625 -2 31 -13.1875 
L 23.1875 -13.1875 
Q 15.875 -1.703125 12.234375 9.375 
Q 8.59375 20.453125 8.59375 31.390625 
Q 8.59375 42.28125 12.203125 53.3125 
Q 15.828125 64.359375 23.1875 75.875 
z
" id="DejaVuSans-40"/>
      <path d="M 70.125 53.71875 
L 47.796875 31.296875 
L 70.125 8.984375 
L 64.3125 3.078125 
L 41.890625 25.484375 
L 19.484375 3.078125 
L 13.71875 8.984375 
L 35.984375 31.296875 
L 13.71875 53.71875 
L 19.484375 59.625 
L 41.890625 37.203125 
L 64.3125 59.625 
z
" id="DejaVuSans-215"/>
      <path d="M 4.890625 31.390625 
L 31.203125 31.390625 
L 31.203125 23.390625 
L 4.890625 23.390625 
z
" id="DejaVuSans-45"/>
      <path d="M 40.578125 39.3125 
Q 47.65625 37.796875 51.625 33 
Q 55.609375 28.21875 55.609375 21.1875 
Q 55.609375 10.40625 48.1875 4.484375 
Q 40.765625 -1.421875 27.09375 -1.421875 
Q 22.515625 -1.421875 17.65625 -0.515625 
Q 12.796875 0.390625 7.625 2.203125 
L 7.625 11.71875 
Q 11.71875 9.328125 16.59375 8.109375 
Q 21.484375 6.890625 26.8125 6.890625 
Q 36.078125 6.890625 40.9375 10.546875 
Q 45.796875 14.203125 45.796875 21.1875 
Q 45.796875 27.640625 41.28125 31.265625 
Q 36.765625 34.90625 28.71875 34.90625 
L 20.21875 34.90625 
L 20.21875 43.015625 
L 29.109375 43.015625 
Q 36.375 43.015625 40.234375 45.921875 
Q 44.09375 48.828125 44.09375 54.296875 
Q 44.09375 59.90625 40.109375 62.90625 
Q 36.140625 65.921875 28.71875 65.921875 
Q 24.65625 65.921875 20.015625 65.03125 
Q 15.375 64.15625 9.8125 62.3125 
L 9.8125 71.09375 
Q 15.4375 72.65625 20.34375 73.4375 
Q 25.25 74.21875 29.59375 74.21875 
Q 40.828125 74.21875 47.359375 69.109375 
Q 53.90625 64.015625 53.90625 55.328125 
Q 53.90625 49.265625 50.4375 45.09375 
Q 46.96875 40.921875 40.578125 39.3125 
z
" id="DejaVuSans-51"/>
      <path d="M 8.015625 75.875 
L 15.828125 75.875 
Q 23.140625 64.359375 26.78125 53.3125 
Q 30.421875 42.28125 30.421875 31.390625 
Q 30.421875 20.453125 26.78125 9.375 
Q 23.140625 -1.703125 15.828125 -13.1875 
L 8.015625 -13.1875 
Q 14.5 -2 17.703125 9.0625 
Q 20.90625 20.125 20.90625 31.390625 
Q 20.90625 42.671875 17.703125 53.65625 
Q 14.5 64.65625 8.015625 75.875 
z
" id="DejaVuSans-41"/>
     </defs>
     <g transform="translate(15.892187 260.601437)rotate(-90)scale(0.1 -0.1)">
      <use xlink:href="#DejaVuSans-70"/>
      <use x="57.410156" xlink:href="#DejaVuSans-105"/>
      <use x="85.193359" xlink:href="#DejaVuSans-116"/>
      <use x="124.402344" xlink:href="#DejaVuSans-110"/>
      <use x="187.78125" xlink:href="#DejaVuSans-101"/>
      <use x="249.304688" xlink:href="#DejaVuSans-115"/>
      <use x="301.404297" xlink:href="#DejaVuSans-115"/>
      <use x="353.503906" xlink:href="#DejaVuSans-32"/>
      <use x="385.291016" xlink:href="#DejaVuSans-79"/>
      <use x="464.001953" xlink:href="#DejaVuSans-102"/>
      <use x="499.207031" xlink:href="#DejaVuSans-32"/>
      <use x="530.994141" xlink:href="#DejaVuSans-66"/>
      <use x="599.597656" xlink:href="#DejaVuSans-101"/>
      <use x="661.121094" xlink:href="#DejaVuSans-115"/>
      <use x="713.220703" xlink:href="#DejaVuSans-116"/>
      <use x="752.429688" xlink:href="#DejaVuSans-32"/>
      <use x="784.216797" xlink:href="#DejaVuSans-73"/>
      <use x="813.708984" xlink:href="#DejaVuSans-110"/>
      <use x="877.087891" xlink:href="#DejaVuSans-100"/>
      <use x="940.564453" xlink:href="#DejaVuSans-105"/>
      <use x="968.347656" xlink:href="#DejaVuSans-118"/>
      <use x="1027.527344" xlink:href="#DejaVuSans-105"/>
      <use x="1055.310547" xlink:href="#DejaVuSans-100"/>
      <use x="1118.787109" xlink:href="#DejaVuSans-117"/>
      <use x="1182.166016" xlink:href="#DejaVuSans-97"/>
      <use x="1243.445312" xlink:href="#DejaVuSans-108"/>
      <use x="1271.228516" xlink:href="#DejaVuSans-32"/>
      <use x="1303.015625" xlink:href="#DejaVuSans-40"/>
      <use x="1342.029297" xlink:href="#DejaVuSans-215"/>
      <use x="1425.818359" xlink:href="#DejaVuSans-32"/>
      <use x="1457.605469" xlink:href="#DejaVuSans-49"/>
      <use x="1521.228516" xlink:href="#DejaVuSans-101"/>
      <use x="1582.751953" xlink:href="#DejaVuSans-45"/>
      <use x="1618.835938" xlink:href="#DejaVuSans-51"/>
      <use x="1682.458984" xlink:href="#DejaVuSans-41"/>
     </g>
    </g>
   </g>
   <g id="line2d_15">
    <path clip-path="url(#p5610cd3e47)" d="M 73.832727 262.931819 
L 77.079273 262.931819 
L 80.325818 262.931819 
L 83.572364 242.20442 
L 86.818909 225.725551 
L 90.065455 220.371389 
L 93.312 204.424633 
L 96.558545 183.336553 
L 99.805091 183.336553 
L 103.051636 181.377788 
L 106.298182 181.377788 
L 109.544727 181.377788 
L 112.791273 180.568957 
L 116.037818 180.568957 
L 119.284364 171.646404 
L 122.530909 171.646404 
L 125.777455 171.646404 
L 129.024 167.986864 
L 132.270545 167.986864 
L 135.517091 164.603033 
L 138.763636 164.603033 
L 142.010182 164.603033 
L 145.256727 164.603033 
L 148.503273 164.603033 
L 151.749818 164.603033 
L 154.996364 164.603033 
L 158.242909 164.603033 
L 161.489455 160.875446 
L 164.736 160.875446 
L 167.982545 149.141114 
L 171.229091 149.141114 
L 174.475636 149.141114 
L 177.722182 149.141114 
L 180.968727 149.141114 
L 184.215273 149.141114 
L 187.461818 149.141114 
L 190.708364 149.141114 
L 193.954909 149.141114 
L 197.201455 149.141114 
L 200.448 149.141114 
L 203.694545 149.141114 
L 206.941091 149.141114 
L 210.187636 149.141114 
L 213.434182 149.141114 
L 216.680727 149.141114 
L 219.927273 149.141114 
L 223.173818 149.141114 
L 226.420364 149.141114 
L 229.666909 149.141114 
L 232.913455 149.141114 
L 236.16 149.141114 
L 239.406545 149.141114 
L 242.653091 149.141114 
L 245.899636 149.141114 
L 249.146182 149.141114 
L 252.392727 149.141114 
L 255.639273 149.141114 
L 258.885818 149.141114 
L 262.132364 149.141114 
L 265.378909 149.141114 
L 268.625455 149.141114 
L 271.872 149.141114 
L 275.118545 149.141114 
L 278.365091 149.141114 
L 281.611636 149.141114 
L 284.858182 149.141114 
L 288.104727 149.141114 
L 291.351273 149.141114 
L 294.597818 149.141114 
L 297.844364 149.141114 
L 301.090909 149.141114 
L 304.337455 149.141114 
L 307.584 149.141114 
L 310.830545 149.141114 
L 314.077091 149.141114 
L 317.323636 149.141114 
L 320.570182 149.141114 
L 323.816727 149.141114 
L 327.063273 149.141114 
L 330.309818 149.141114 
L 333.556364 149.141114 
L 336.802909 149.141114 
L 340.049455 149.141114 
L 343.296 149.141114 
L 346.542545 149.141114 
L 349.789091 149.141114 
L 353.035636 149.141114 
L 356.282182 149.141114 
L 359.528727 149.141114 
L 362.775273 149.141114 
L 366.021818 149.141114 
L 369.268364 149.141114 
L 372.514909 149.141114 
L 375.761455 149.141114 
L 379.008 149.141114 
L 382.254545 149.141114 
L 385.501091 149.141114 
L 388.747636 149.141114 
L 391.994182 149.141114 
L 395.240727 149.141114 
L 398.487273 149.141114 
" style="fill:none;stroke:#1f77b4;stroke-linecap:square;stroke-width:1.5;"/>
   </g>
   <g id="line2d_16">
    <path clip-path="url(#p5610cd3e47)" d="M 73.832727 247.700339 
L 77.079273 247.700339 
L 80.325818 220.658128 
L 83.572364 220.658128 
L 86.818909 220.658128 
L 90.065455 208.15931 
L 93.312 208.15931 
L 96.558545 186.067687 
L 99.805091 186.067687 
L 103.051636 169.87984 
L 106.298182 169.87984 
L 109.544727 164.603519 
L 112.791273 164.603519 
L 116.037818 164.603519 
L 119.284364 164.603519 
L 122.530909 164.603519 
L 125.777455 164.603519 
L 129.024 164.603519 
L 132.270545 161.564447 
L 135.517091 161.564447 
L 138.763636 161.564447 
L 142.010182 161.564447 
L 145.256727 161.564447 
L 148.503273 161.564447 
L 151.749818 161.564447 
L 154.996364 161.564447 
L 158.242909 161.564447 
L 161.489455 161.564447 
L 164.736 161.564447 
L 167.982545 160.839515 
L 171.229091 160.839515 
L 174.475636 156.747985 
L 177.722182 156.747985 
L 180.968727 156.747985 
L 184.215273 156.747985 
L 187.461818 156.747985 
L 190.708364 156.747985 
L 193.954909 156.747985 
L 197.201455 156.747985 
L 200.448 156.747985 
L 203.694545 156.747985 
L 206.941091 156.747985 
L 210.187636 156.747985 
L 213.434182 156.747985 
L 216.680727 156.747985 
L 219.927273 156.747985 
L 223.173818 156.747985 
L 226.420364 156.747985 
L 229.666909 156.747985 
L 232.913455 156.747985 
L 236.16 156.747985 
L 239.406545 156.747985 
L 242.653091 156.747985 
L 245.899636 156.747985 
L 249.146182 156.747985 
L 252.392727 156.747985 
L 255.639273 156.747985 
L 258.885818 156.747985 
L 262.132364 156.747985 
L 265.378909 156.747985 
L 268.625455 156.747985 
L 271.872 156.747985 
L 275.118545 156.747985 
L 278.365091 156.747985 
L 281.611636 156.747985 
L 284.858182 156.747985 
L 288.104727 156.747985 
L 291.351273 156.747985 
L 294.597818 156.747985 
L 297.844364 156.747985 
L 301.090909 155.106163 
L 304.337455 155.106163 
L 307.584 155.106163 
L 310.830545 155.106163 
L 314.077091 155.106163 
L 317.323636 155.106163 
L 320.570182 155.106163 
L 323.816727 155.106163 
L 327.063273 155.106163 
L 330.309818 155.106163 
L 333.556364 155.106163 
L 336.802909 155.106163 
L 340.049455 155.106163 
L 343.296 155.106163 
L 346.542545 155.106163 
L 349.789091 155.106163 
L 353.035636 155.106163 
L 356.282182 155.106163 
L 359.528727 155.106163 
L 362.775273 155.106163 
L 366.021818 155.106163 
L 369.268364 155.106163 
L 372.514909 155.106163 
L 375.761455 155.106163 
L 379.008 155.106163 
L 382.254545 155.106163 
L 385.501091 155.106163 
L 388.747636 155.106163 
L 391.994182 155.106163 
L 395.240727 155.106163 
L 398.487273 155.106163 
" style="fill:none;stroke:#ff7f0e;stroke-linecap:square;stroke-width:1.5;"/>
   </g>
   <g id="line2d_17">
    <path clip-path="url(#p5610cd3e47)" d="M 73.832727 248.30128 
L 77.079273 248.30128 
L 80.325818 248.30128 
L 83.572364 248.30128 
L 86.818909 218.18235 
L 90.065455 218.18235 
L 93.312 145.197725 
L 96.558545 145.197725 
L 99.805091 145.197725 
L 103.051636 145.197725 
L 106.298182 145.197725 
L 109.544727 145.197725 
L 112.791273 145.197725 
L 116.037818 145.197725 
L 119.284364 145.197725 
L 122.530909 145.197725 
L 125.777455 145.197725 
L 129.024 145.197725 
L 132.270545 138.721956 
L 135.517091 138.721956 
L 138.763636 136.022241 
L 142.010182 136.022241 
L 145.256727 136.022241 
L 148.503273 121.088612 
L 151.749818 121.088612 
L 154.996364 121.088612 
L 158.242909 121.088612 
L 161.489455 121.088612 
L 164.736 121.088612 
L 167.982545 121.088612 
L 171.229091 121.088612 
L 174.475636 121.088612 
L 177.722182 121.088612 
L 180.968727 121.088612 
L 184.215273 121.088612 
L 187.461818 121.088612 
L 190.708364 121.088612 
L 193.954909 121.088612 
L 197.201455 121.088612 
L 200.448 121.088612 
L 203.694545 121.088612 
L 206.941091 121.088612 
L 210.187636 121.088612 
L 213.434182 121.088612 
L 216.680727 121.088612 
L 219.927273 121.088612 
L 223.173818 121.088612 
L 226.420364 121.088612 
L 229.666909 121.088612 
L 232.913455 121.088612 
L 236.16 121.088612 
L 239.406545 121.088612 
L 242.653091 121.088612 
L 245.899636 121.088612 
L 249.146182 121.088612 
L 252.392727 121.088612 
L 255.639273 121.088612 
L 258.885818 121.088612 
L 262.132364 121.088612 
L 265.378909 121.088612 
L 268.625455 121.088612 
L 271.872 121.088612 
L 275.118545 121.088612 
L 278.365091 121.088612 
L 281.611636 121.088612 
L 284.858182 121.088612 
L 288.104727 121.088612 
L 291.351273 121.088612 
L 294.597818 121.088612 
L 297.844364 121.088612 
L 301.090909 121.088612 
L 304.337455 121.088612 
L 307.584 121.088612 
L 310.830545 121.088612 
L 314.077091 121.088612 
L 317.323636 121.088612 
L 320.570182 121.088612 
L 323.816727 121.088612 
L 327.063273 121.088612 
L 330.309818 121.088612 
L 333.556364 121.088612 
L 336.802909 121.088612 
L 340.049455 121.088612 
L 343.296 121.088612 
L 346.542545 121.088612 
L 349.789091 121.088612 
L 353.035636 121.088612 
L 356.282182 121.088612 
L 359.528727 121.088612 
L 362.775273 121.088612 
L 366.021818 121.088612 
L 369.268364 121.088612 
L 372.514909 121.088612 
L 375.761455 121.088612 
L 379.008 121.088612 
L 382.254545 121.088612 
L 385.501091 121.088612 
L 388.747636 121.088612 
L 391.994182 121.088612 
L 395.240727 121.088612 
L 398.487273 121.088612 
" style="fill:none;stroke:#2ca02c;stroke-linecap:square;stroke-width:1.5;"/>
   </g>
   <g id="line2d_18">
    <path clip-path="url(#p5610cd3e47)" d="M 73.832727 265.09761 
L 77.079273 265.09761 
L 80.325818 265.09761 
L 83.572364 259.574366 
L 86.818909 245.427805 
L 90.065455 241.753316 
L 93.312 166.935359 
L 96.558545 166.935359 
L 99.805091 166.935359 
L 103.051636 166.935359 
L 106.298182 166.935359 
L 109.544727 166.935359 
L 112.791273 166.935359 
L 116.037818 166.935359 
L 119.284364 157.973124 
L 122.530909 157.973124 
L 125.777455 157.973124 
L 129.024 157.973124 
L 132.270545 157.973124 
L 135.517091 157.973124 
L 138.763636 157.973124 
L 142.010182 157.973124 
L 145.256727 157.973124 
L 148.503273 157.973124 
L 151.749818 157.973124 
L 154.996364 157.973124 
L 158.242909 157.973124 
L 161.489455 157.973124 
L 164.736 157.973124 
L 167.982545 157.973124 
L 171.229091 157.973124 
L 174.475636 157.973124 
L 177.722182 157.973124 
L 180.968727 157.973124 
L 184.215273 157.973124 
L 187.461818 157.973124 
L 190.708364 157.973124 
L 193.954909 157.973124 
L 197.201455 157.973124 
L 200.448 157.973124 
L 203.694545 157.973124 
L 206.941091 157.973124 
L 210.187636 157.973124 
L 213.434182 155.061665 
L 216.680727 155.061665 
L 219.927273 155.061665 
L 223.173818 155.061665 
L 226.420364 155.061665 
L 229.666909 155.061665 
L 232.913455 155.061665 
L 236.16 155.061665 
L 239.406545 155.061665 
L 242.653091 155.061665 
L 245.899636 155.061665 
L 249.146182 155.061665 
L 252.392727 155.061665 
L 255.639273 155.061665 
L 258.885818 143.830032 
L 262.132364 143.830032 
L 265.378909 143.830032 
L 268.625455 143.830032 
L 271.872 143.830032 
L 275.118545 143.830032 
L 278.365091 143.830032 
L 281.611636 143.830032 
L 284.858182 143.830032 
L 288.104727 143.830032 
L 291.351273 143.830032 
L 294.597818 143.830032 
L 297.844364 143.830032 
L 301.090909 143.830032 
L 304.337455 143.830032 
L 307.584 143.830032 
L 310.830545 143.830032 
L 314.077091 143.830032 
L 317.323636 143.830032 
L 320.570182 143.830032 
L 323.816727 143.830032 
L 327.063273 143.830032 
L 330.309818 143.830032 
L 333.556364 143.830032 
L 336.802909 143.830032 
L 340.049455 143.830032 
L 343.296 143.830032 
L 346.542545 143.830032 
L 349.789091 143.830032 
L 353.035636 143.830032 
L 356.282182 143.830032 
L 359.528727 143.830032 
L 362.775273 143.830032 
L 366.021818 143.830032 
L 369.268364 143.830032 
L 372.514909 143.830032 
L 375.761455 143.830032 
L 379.008 143.830032 
L 382.254545 143.830032 
L 385.501091 143.830032 
L 388.747636 143.830032 
L 391.994182 143.830032 
L 395.240727 143.830032 
L 398.487273 143.830032 
" style="fill:none;stroke:#d62728;stroke-linecap:square;stroke-width:1.5;"/>
   </g>
   <g id="line2d_19">
    <path clip-path="url(#p5610cd3e47)" d="M 73.832727 295.488 
L 77.079273 287.979965 
L 80.325818 274.788099 
L 83.572364 263.537846 
L 86.818909 230.14027 
L 90.065455 230.14027 
L 93.312 228.961655 
L 96.558545 220.125022 
L 99.805091 219.341936 
L 103.051636 211.750794 
L 106.298182 183.434724 
L 109.544727 183.434724 
L 112.791273 166.378809 
L 116.037818 166.378809 
L 119.284364 166.378809 
L 122.530909 166.378809 
L 125.777455 166.378809 
L 129.024 166.378809 
L 132.270545 163.745875 
L 135.517091 162.2351 
L 138.763636 152.344413 
L 142.010182 152.344413 
L 145.256727 152.344413 
L 148.503273 152.344413 
L 151.749818 152.344413 
L 154.996364 152.344413 
L 158.242909 152.344413 
L 161.489455 152.344413 
L 164.736 152.344413 
L 167.982545 152.344413 
L 171.229091 152.344413 
L 174.475636 152.344413 
L 177.722182 152.344413 
L 180.968727 150.680068 
L 184.215273 150.680068 
L 187.461818 150.680068 
L 190.708364 150.680068 
L 193.954909 150.680068 
L 197.201455 150.680068 
L 200.448 150.680068 
L 203.694545 150.236756 
L 206.941091 150.236756 
L 210.187636 150.236756 
L 213.434182 150.236756 
L 216.680727 150.236756 
L 219.927273 150.236756 
L 223.173818 150.236756 
L 226.420364 150.236756 
L 229.666909 150.236756 
L 232.913455 150.236756 
L 236.16 150.236756 
L 239.406545 150.236756 
L 242.653091 150.236756 
L 245.899636 150.236756 
L 249.146182 150.236756 
L 252.392727 150.236756 
L 255.639273 150.236756 
L 258.885818 150.236756 
L 262.132364 150.236756 
L 265.378909 150.236756 
L 268.625455 150.236756 
L 271.872 150.236756 
L 275.118545 150.236756 
L 278.365091 150.236756 
L 281.611636 150.236756 
L 284.858182 150.236756 
L 288.104727 150.236756 
L 291.351273 150.236756 
L 294.597818 150.236756 
L 297.844364 150.236756 
L 301.090909 150.236756 
L 304.337455 150.236756 
L 307.584 150.236756 
L 310.830545 150.236756 
L 314.077091 150.236756 
L 317.323636 150.236756 
L 320.570182 150.236756 
L 323.816727 150.236756 
L 327.063273 150.236756 
L 330.309818 150.236756 
L 333.556364 150.236756 
L 336.802909 150.236756 
L 340.049455 150.236756 
L 343.296 150.236756 
L 346.542545 150.236756 
L 349.789091 150.236756 
L 353.035636 150.236756 
L 356.282182 150.236756 
L 359.528727 150.236756 
L 362.775273 150.236756 
L 366.021818 150.236756 
L 369.268364 150.236756 
L 372.514909 150.236756 
L 375.761455 150.236756 
L 379.008 150.236756 
L 382.254545 150.236756 
L 385.501091 150.236756 
L 388.747636 150.236756 
L 391.994182 150.236756 
L 395.240727 150.236756 
L 398.487273 150.236756 
" style="fill:none;stroke:#9467bd;stroke-linecap:square;stroke-width:1.5;"/>
   </g>
   <g id="line2d_20">
    <path clip-path="url(#p5610cd3e47)" d="M 73.832727 263.717533 
L 77.079273 262.210287 
L 80.325818 260.39881 
L 83.572364 244.709895 
L 86.818909 232.514861 
L 90.065455 187.239962 
L 93.312 187.239962 
L 96.558545 187.239962 
L 99.805091 133.103402 
L 103.051636 133.103402 
L 106.298182 133.103402 
L 109.544727 133.103402 
L 112.791273 133.103402 
L 116.037818 133.103402 
L 119.284364 129.411122 
L 122.530909 115.131906 
L 125.777455 111.943361 
L 129.024 111.943361 
L 132.270545 106.173444 
L 135.517091 106.173444 
L 138.763636 106.173444 
L 142.010182 106.173444 
L 145.256727 106.173444 
L 148.503273 106.173444 
L 151.749818 106.173444 
L 154.996364 106.173444 
L 158.242909 106.173444 
L 161.489455 106.173444 
L 164.736 106.173444 
L 167.982545 106.173444 
L 171.229091 106.173444 
L 174.475636 106.173444 
L 177.722182 105.059957 
L 180.968727 105.059957 
L 184.215273 105.059957 
L 187.461818 105.059957 
L 190.708364 105.059957 
L 193.954909 105.059957 
L 197.201455 105.059957 
L 200.448 105.059957 
L 203.694545 105.059957 
L 206.941091 105.059957 
L 210.187636 105.059957 
L 213.434182 105.059957 
L 216.680727 105.059957 
L 219.927273 105.059957 
L 223.173818 105.059957 
L 226.420364 105.059957 
L 229.666909 105.059957 
L 232.913455 105.059957 
L 236.16 105.059957 
L 239.406545 105.059957 
L 242.653091 105.059957 
L 245.899636 105.059957 
L 249.146182 105.059957 
L 252.392727 105.059957 
L 255.639273 105.059957 
L 258.885818 105.059957 
L 262.132364 105.059957 
L 265.378909 105.059957 
L 268.625455 105.059957 
L 271.872 105.059957 
L 275.118545 105.059957 
L 278.365091 105.059957 
L 281.611636 105.059957 
L 284.858182 105.059957 
L 288.104727 105.059957 
L 291.351273 105.059957 
L 294.597818 102.674289 
L 297.844364 102.674289 
L 301.090909 102.674289 
L 304.337455 102.674289 
L 307.584 102.674289 
L 310.830545 102.674289 
L 314.077091 102.674289 
L 317.323636 102.674289 
L 320.570182 102.674289 
L 323.816727 102.674289 
L 327.063273 102.674289 
L 330.309818 102.674289 
L 333.556364 102.674289 
L 336.802909 102.674289 
L 340.049455 102.674289 
L 343.296 102.674289 
L 346.542545 102.674289 
L 349.789091 102.674289 
L 353.035636 102.674289 
L 356.282182 102.674289 
L 359.528727 102.674289 
L 362.775273 102.674289 
L 366.021818 102.674289 
L 369.268364 102.674289 
L 372.514909 102.674289 
L 375.761455 102.674289 
L 379.008 102.674289 
L 382.254545 102.674289 
L 385.501091 102.674289 
L 388.747636 102.674289 
L 391.994182 102.674289 
L 395.240727 102.674289 
L 398.487273 102.674289 
" style="fill:none;stroke:#8c564b;stroke-linecap:square;stroke-width:1.5;"/>
   </g>
   <g id="line2d_21">
    <path clip-path="url(#p5610cd3e47)" d="M 73.832727 281.826427 
L 77.079273 281.275405 
L 80.325818 263.670308 
L 83.572364 244.015957 
L 86.818909 208.85966 
L 90.065455 208.85966 
L 93.312 197.624707 
L 96.558545 197.624707 
L 99.805091 197.624707 
L 103.051636 197.624707 
L 106.298182 183.345981 
L 109.544727 170.086271 
L 112.791273 170.086271 
L 116.037818 170.086271 
L 119.284364 170.086271 
L 122.530909 170.086271 
L 125.777455 159.40204 
L 129.024 159.40204 
L 132.270545 159.40204 
L 135.517091 159.40204 
L 138.763636 133.885825 
L 142.010182 133.885825 
L 145.256727 133.885825 
L 148.503273 133.885825 
L 151.749818 133.885825 
L 154.996364 133.885825 
L 158.242909 133.885825 
L 161.489455 133.885825 
L 164.736 133.885825 
L 167.982545 133.885825 
L 171.229091 133.885825 
L 174.475636 133.885825 
L 177.722182 133.885825 
L 180.968727 133.885825 
L 184.215273 133.885825 
L 187.461818 133.885825 
L 190.708364 133.885825 
L 193.954909 133.885825 
L 197.201455 133.885825 
L 200.448 133.885825 
L 203.694545 133.885825 
L 206.941091 133.885825 
L 210.187636 133.885825 
L 213.434182 133.885825 
L 216.680727 133.885825 
L 219.927273 133.885825 
L 223.173818 133.885825 
L 226.420364 133.885825 
L 229.666909 133.885825 
L 232.913455 133.885825 
L 236.16 133.885825 
L 239.406545 133.885825 
L 242.653091 133.885825 
L 245.899636 133.885825 
L 249.146182 133.885825 
L 252.392727 133.885825 
L 255.639273 133.885825 
L 258.885818 133.885825 
L 262.132364 133.885825 
L 265.378909 133.885825 
L 268.625455 133.885825 
L 271.872 133.885825 
L 275.118545 133.885825 
L 278.365091 133.885825 
L 281.611636 133.885825 
L 284.858182 133.885825 
L 288.104727 133.885825 
L 291.351273 133.885825 
L 294.597818 133.885825 
L 297.844364 133.885825 
L 301.090909 133.885825 
L 304.337455 133.885825 
L 307.584 133.885825 
L 310.830545 133.885825 
L 314.077091 133.885825 
L 317.323636 133.885825 
L 320.570182 133.885825 
L 323.816727 133.885825 
L 327.063273 133.885825 
L 330.309818 133.885825 
L 333.556364 133.885825 
L 336.802909 133.885825 
L 340.049455 133.885825 
L 343.296 133.885825 
L 346.542545 133.885825 
L 349.789091 133.885825 
L 353.035636 133.885825 
L 356.282182 133.885825 
L 359.528727 133.885825 
L 362.775273 133.885825 
L 366.021818 133.885825 
L 369.268364 133.885825 
L 372.514909 133.885825 
L 375.761455 133.885825 
L 379.008 133.885825 
L 382.254545 133.885825 
L 385.501091 133.885825 
L 388.747636 133.885825 
L 391.994182 133.885825 
L 395.240727 133.885825 
L 398.487273 133.885825 
" style="fill:none;stroke:#e377c2;stroke-linecap:square;stroke-width:1.5;"/>
   </g>
   <g id="line2d_22">
    <path clip-path="url(#p5610cd3e47)" d="M 73.832727 276.59191 
L 77.079273 234.071501 
L 80.325818 225.487424 
L 83.572364 225.487424 
L 86.818909 213.770946 
L 90.065455 172.02192 
L 93.312 161.758819 
L 96.558545 161.758819 
L 99.805091 156.266055 
L 103.051636 156.266055 
L 106.298182 154.2419 
L 109.544727 145.503289 
L 112.791273 104.016009 
L 116.037818 104.016009 
L 119.284364 96.237862 
L 122.530909 96.237862 
L 125.777455 96.237862 
L 129.024 96.237862 
L 132.270545 96.237862 
L 135.517091 96.237862 
L 138.763636 86.287413 
L 142.010182 86.287413 
L 145.256727 86.287413 
L 148.503273 72.060798 
L 151.749818 72.060798 
L 154.996364 72.060798 
L 158.242909 72.060798 
L 161.489455 72.060798 
L 164.736 72.060798 
L 167.982545 72.060798 
L 171.229091 72.060798 
L 174.475636 57.451528 
L 177.722182 57.451528 
L 180.968727 57.451528 
L 184.215273 57.451528 
L 187.461818 57.451528 
L 190.708364 57.451528 
L 193.954909 57.451528 
L 197.201455 57.451528 
L 200.448 57.451528 
L 203.694545 57.451528 
L 206.941091 57.451528 
L 210.187636 57.451528 
L 213.434182 57.451528 
L 216.680727 57.451528 
L 219.927273 57.451528 
L 223.173818 57.451528 
L 226.420364 57.451528 
L 229.666909 57.451528 
L 232.913455 57.451528 
L 236.16 57.451528 
L 239.406545 57.451528 
L 242.653091 57.451528 
L 245.899636 57.451528 
L 249.146182 57.451528 
L 252.392727 57.451528 
L 255.639273 57.451528 
L 258.885818 57.451528 
L 262.132364 57.451528 
L 265.378909 57.451528 
L 268.625455 57.451528 
L 271.872 57.451528 
L 275.118545 57.451528 
L 278.365091 57.451528 
L 281.611636 57.451528 
L 284.858182 53.568 
L 288.104727 53.568 
L 291.351273 53.568 
L 294.597818 53.568 
L 297.844364 53.568 
L 301.090909 53.568 
L 304.337455 53.568 
L 307.584 53.568 
L 310.830545 53.568 
L 314.077091 53.568 
L 317.323636 53.568 
L 320.570182 53.568 
L 323.816727 53.568 
L 327.063273 53.568 
L 330.309818 53.568 
L 333.556364 53.568 
L 336.802909 53.568 
L 340.049455 53.568 
L 343.296 53.568 
L 346.542545 53.568 
L 349.789091 53.568 
L 353.035636 53.568 
L 356.282182 53.568 
L 359.528727 53.568 
L 362.775273 53.568 
L 366.021818 53.568 
L 369.268364 53.568 
L 372.514909 53.568 
L 375.761455 53.568 
L 379.008 53.568 
L 382.254545 53.568 
L 385.501091 53.568 
L 388.747636 53.568 
L 391.994182 53.568 
L 395.240727 53.568 
L 398.487273 53.568 
" style="fill:none;stroke:#7f7f7f;stroke-linecap:square;stroke-width:1.5;"/>
   </g>
   <g id="patch_3">
    <path d="M 57.6 307.584 
L 57.6 41.472 
" style="fill:none;stroke:#000000;stroke-linecap:square;stroke-linejoin:miter;stroke-width:0.8;"/>
   </g>
   <g id="patch_4">
    <path d="M 414.72 307.584 
L 414.72 41.472 
" style="fill:none;stroke:#000000;stroke-linecap:square;stroke-linejoin:miter;stroke-width:0.8;"/>
   </g>
   <g id="patch_5">
    <path d="M 57.6 307.584 
L 414.72 307.584 
" style="fill:none;stroke:#000000;stroke-linecap:square;stroke-linejoin:miter;stroke-width:0.8;"/>
   </g>
   <g id="patch_6">
    <path d="M 57.6 41.472 
L 414.72 41.472 
" style="fill:none;stroke:#000000;stroke-linecap:square;stroke-linejoin:miter;stroke-width:0.8;"/>
   </g>
   <g id="text_17">
    <!-- Fitness Value Curves (30-node, m=2) -->
    <defs>
     <path d="M 28.609375 0 
L 0.78125 72.90625 
L 11.078125 72.90625 
L 34.1875 11.53125 
L 57.328125 72.90625 
L 67.578125 72.90625 
L 39.796875 0 
z
" id="DejaVuSans-86"/>
     <path d="M 64.40625 67.28125 
L 64.40625 56.890625 
Q 59.421875 61.53125 53.78125 63.8125 
Q 48.140625 66.109375 41.796875 66.109375 
Q 29.296875 66.109375 22.65625 58.46875 
Q 16.015625 50.828125 16.015625 36.375 
Q 16.015625 21.96875 22.65625 14.328125 
Q 29.296875 6.6875 41.796875 6.6875 
Q 48.140625 6.6875 53.78125 8.984375 
Q 59.421875 11.28125 64.40625 15.921875 
L 64.40625 5.609375 
Q 59.234375 2.09375 53.4375 0.328125 
Q 47.65625 -1.421875 41.21875 -1.421875 
Q 24.65625 -1.421875 15.125 8.703125 
Q 5.609375 18.84375 5.609375 36.375 
Q 5.609375 53.953125 15.125 64.078125 
Q 24.65625 74.21875 41.21875 74.21875 
Q 47.75 74.21875 53.53125 72.484375 
Q 59.328125 70.75 64.40625 67.28125 
z
" id="DejaVuSans-67"/>
     <path d="M 11.71875 12.40625 
L 22.015625 12.40625 
L 22.015625 4 
L 14.015625 -11.625 
L 7.71875 -11.625 
L 11.71875 4 
z
" id="DejaVuSans-44"/>
     <path d="M 52 44.1875 
Q 55.375 50.25 60.0625 53.125 
Q 64.75 56 71.09375 56 
Q 79.640625 56 84.28125 50.015625 
Q 88.921875 44.046875 88.921875 33.015625 
L 88.921875 0 
L 79.890625 0 
L 79.890625 32.71875 
Q 79.890625 40.578125 77.09375 44.375 
Q 74.3125 48.1875 68.609375 48.1875 
Q 61.625 48.1875 57.5625 43.546875 
Q 53.515625 38.921875 53.515625 30.90625 
L 53.515625 0 
L 44.484375 0 
L 44.484375 32.71875 
Q 44.484375 40.625 41.703125 44.40625 
Q 38.921875 48.1875 33.109375 48.1875 
Q 26.21875 48.1875 22.15625 43.53125 
Q 18.109375 38.875 18.109375 30.90625 
L 18.109375 0 
L 9.078125 0 
L 9.078125 54.6875 
L 18.109375 54.6875 
L 18.109375 46.1875 
Q 21.1875 51.21875 25.484375 53.609375 
Q 29.78125 56 35.6875 56 
Q 41.65625 56 45.828125 52.96875 
Q 50 49.953125 52 44.1875 
z
" id="DejaVuSans-109"/>
     <path d="M 10.59375 45.40625 
L 73.1875 45.40625 
L 73.1875 37.203125 
L 10.59375 37.203125 
z
M 10.59375 25.484375 
L 73.1875 25.484375 
L 73.1875 17.1875 
L 10.59375 17.1875 
z
" id="DejaVuSans-61"/>
    </defs>
    <g transform="translate(123.507188 35.472)scale(0.12 -0.12)">
     <use xlink:href="#DejaVuSans-70"/>
     <use x="57.410156" xlink:href="#DejaVuSans-105"/>
     <use x="85.193359" xlink:href="#DejaVuSans-116"/>
     <use x="124.402344" xlink:href="#DejaVuSans-110"/>
     <use x="187.78125" xlink:href="#DejaVuSans-101"/>
     <use x="249.304688" xlink:href="#DejaVuSans-115"/>
     <use x="301.404297" xlink:href="#DejaVuSans-115"/>
     <use x="353.503906" xlink:href="#DejaVuSans-32"/>
     <use x="385.291016" xlink:href="#DejaVuSans-86"/>
     <use x="453.589844" xlink:href="#DejaVuSans-97"/>
     <use x="514.869141" xlink:href="#DejaVuSans-108"/>
     <use x="542.652344" xlink:href="#DejaVuSans-117"/>
     <use x="606.03125" xlink:href="#DejaVuSans-101"/>
     <use x="667.554688" xlink:href="#DejaVuSans-32"/>
     <use x="699.341797" xlink:href="#DejaVuSans-67"/>
     <use x="769.166016" xlink:href="#DejaVuSans-117"/>
     <use x="832.544922" xlink:href="#DejaVuSans-114"/>
     <use x="873.658203" xlink:href="#DejaVuSans-118"/>
     <use x="932.837891" xlink:href="#DejaVuSans-101"/>
     <use x="994.361328" xlink:href="#DejaVuSans-115"/>
     <use x="1046.460938" xlink:href="#DejaVuSans-32"/>
     <use x="1078.248047" xlink:href="#DejaVuSans-40"/>
     <use x="1117.261719" xlink:href="#DejaVuSans-51"/>
     <use x="1180.884766" xlink:href="#DejaVuSans-48"/>
     <use x="1244.507812" xlink:href="#DejaVuSans-45"/>
     <use x="1280.591797" xlink:href="#DejaVuSans-110"/>
     <use x="1343.970703" xlink:href="#DejaVuSans-111"/>
     <use x="1405.152344" xlink:href="#DejaVuSans-100"/>
     <use x="1468.628906" xlink:href="#DejaVuSans-101"/>
     <use x="1530.152344" xlink:href="#DejaVuSans-44"/>
     <use x="1561.939453" xlink:href="#DejaVuSans-32"/>
     <use x="1593.726562" xlink:href="#DejaVuSans-109"/>
     <use x="1691.138672" xlink:href="#DejaVuSans-61"/>
     <use x="1774.927734" xlink:href="#DejaVuSans-50"/>
     <use x="1838.550781" xlink:href="#DejaVuSans-41"/>
    </g>
   </g>
  </g>
 </g>
 <defs>
  <clipPath id="p5610cd3e47">
   <rect height="266.112" width="357.12" x="57.6" y="41.472"/>
  </clipPath>
 </defs>
</svg>
