<?xml version="1.0" encoding="utf-8" standalone="no"?>
<!DOCTYPE svg PUBLIC "-//W3C//DTD SVG 1.1//EN"
  "http://www.w3.org/Graphics/SVG/1.1/DTD/svg11.dtd">
<!-- Created with matplotlib (https://matplotlib.org/) -->
<svg height="345.6pt" version="1.1" viewBox="0 0 460.8 345.6" width="460.8pt" xmlns="http://www.w3.org/2000/svg" xmlns:xlink="http://www.w3.org/1999/xlink">
 <defs>
  <style type="text/css">
*{stroke-linecap:butt;stroke-linejoin:round;}
  </style>
 </defs>
 <g id="figure_1">
  <g id="patch_1">
   <path d="M 0 345.6 
L 460.8 345.6 
L 460.8 0 
L 0 0 
z
" style="fill:#ffffff;"/>
  </g>
  <g id="axes_1">
   <g id="patch_2">
    <path d="M 57.6 307.584 
L 414.72 307.584 
L 414.72 41.472 
L 57.6 41.472 
z
" style="fill:#ffffff;"/>
   </g>
   <g id="matplotlib.axis_1">
    <g id="xtick_1">
     <g id="line2d_1">
      <defs>
       <path d="M 0 0 
L 0 3.5 
" id="mb83e11e27e" style="stroke:#000000;stroke-width:0.8;"/>
      </defs>
      <g>
       <use style="stroke:#000000;stroke-width:0.8;" x="73.832727" xlink:href="#mb83e11e27e" y="307.584"/>
      </g>
     </g>
     <g id="text_1">
      <!-- 0 -->
      <defs>
       <path d="M 31.78125 66.40625 
Q 24.171875 66.40625 20.328125 58.90625 
Q 16.5 51.421875 16.5 36.375 
Q 16.5 21.390625 20.328125 13.890625 
Q 24.171875 6.390625 31.78125 6.390625 
Q 39.453125 6.390625 43.28125 13.890625 
Q 47.125 21.390625 47.125 36.375 
Q 47.125 51.421875 43.28125 58.90625 
Q 39.453125 66.40625 31.78125 66.40625 
z
M 31.78125 74.21875 
Q 44.046875 74.21875 50.515625 64.515625 
Q 56.984375 54.828125 56.984375 36.375 
Q 56.984375 17.96875 50.515625 8.265625 
Q 44.046875 -1.421875 31.78125 -1.421875 
Q 19.53125 -1.421875 13.0625 8.265625 
Q 6.59375 17.96875 6.59375 36.375 
Q 6.59375 54.828125 13.0625 64.515625 
Q 19.53125 74.21875 31.78125 74.21875 
z
" id="DejaVuSans-48"/>
      </defs>
      <g transform="translate(70.651477 322.182437)scale(0.1 -0.1)">
       <use xlink:href="#DejaVuSans-48"/>
      </g>
     </g>
    </g>
    <g id="xtick_2">
     <g id="line2d_2">
      <g>
       <use style="stroke:#000000;stroke-width:0.8;" x="114.414545" xlink:href="#mb83e11e27e" y="307.584"/>
      </g>
     </g>
     <g id="text_2">
      <!-- 50 -->
      <defs>
       <path d="M 10.796875 72.90625 
L 49.515625 72.90625 
L 49.515625 64.59375 
L 19.828125 64.59375 
L 19.828125 46.734375 
Q 21.96875 47.46875 24.109375 47.828125 
Q 26.265625 48.1875 28.421875 48.1875 
Q 40.625 48.1875 47.75 41.5 
Q 54.890625 34.8125 54.890625 23.390625 
Q 54.890625 11.625 47.5625 5.09375 
Q 40.234375 -1.421875 26.90625 -1.421875 
Q 22.3125 -1.421875 17.546875 -0.640625 
Q 12.796875 0.140625 7.71875 1.703125 
L 7.71875 11.625 
Q 12.109375 9.234375 16.796875 8.0625 
Q 21.484375 6.890625 26.703125 6.890625 
Q 35.15625 6.890625 40.078125 11.328125 
Q 45.015625 15.765625 45.015625 23.390625 
Q 45.015625 31 40.078125 35.4375 
Q 35.15625 39.890625 26.703125 39.890625 
Q 22.75 39.890625 18.8125 39.015625 
Q 14.890625 38.140625 10.796875 36.28125 
z
" id="DejaVuSans-53"/>
      </defs>
      <g transform="translate(108.052045 322.182437)scale(0.1 -0.1)">
       <use xlink:href="#DejaVuSans-53"/>
       <use x="63.623047" xlink:href="#DejaVuSans-48"/>
      </g>
     </g>
    </g>
    <g id="xtick_3">
     <g id="line2d_3">
      <g>
       <use style="stroke:#000000;stroke-width:0.8;" x="154.996364" xlink:href="#mb83e11e27e" y="307.584"/>
      </g>
     </g>
     <g id="text_3">
      <!-- 100 -->
      <defs>
       <path d="M 12.40625 8.296875 
L 28.515625 8.296875 
L 28.515625 63.921875 
L 10.984375 60.40625 
L 10.984375 69.390625 
L 28.421875 72.90625 
L 38.28125 72.90625 
L 38.28125 8.296875 
L 54.390625 8.296875 
L 54.390625 0 
L 12.40625 0 
z
" id="DejaVuSans-49"/>
      </defs>
      <g transform="translate(145.452614 322.182437)scale(0.1 -0.1)">
       <use xlink:href="#DejaVuSans-49"/>
       <use x="63.623047" xlink:href="#DejaVuSans-48"/>
       <use x="127.246094" xlink:href="#DejaVuSans-48"/>
      </g>
     </g>
    </g>
    <g id="xtick_4">
     <g id="line2d_4">
      <g>
       <use style="stroke:#000000;stroke-width:0.8;" x="195.578182" xlink:href="#mb83e11e27e" y="307.584"/>
      </g>
     </g>
     <g id="text_4">
      <!-- 150 -->
      <g transform="translate(186.034432 322.182437)scale(0.1 -0.1)">
       <use xlink:href="#DejaVuSans-49"/>
       <use x="63.623047" xlink:href="#DejaVuSans-53"/>
       <use x="127.246094" xlink:href="#DejaVuSans-48"/>
      </g>
     </g>
    </g>
    <g id="xtick_5">
     <g id="line2d_5">
      <g>
       <use style="stroke:#000000;stroke-width:0.8;" x="236.16" xlink:href="#mb83e11e27e" y="307.584"/>
      </g>
     </g>
     <g id="text_5">
      <!-- 200 -->
      <defs>
       <path d="M 19.1875 8.296875 
L 53.609375 8.296875 
L 53.609375 0 
L 7.328125 0 
L 7.328125 8.296875 
Q 12.9375 14.109375 22.625 23.890625 
Q 32.328125 33.6875 34.8125 36.53125 
Q 39.546875 41.84375 41.421875 45.53125 
Q 43.3125 49.21875 43.3125 52.78125 
Q 43.3125 58.59375 39.234375 62.25 
Q 35.15625 65.921875 28.609375 65.921875 
Q 23.96875 65.921875 18.8125 64.3125 
Q 13.671875 62.703125 7.8125 59.421875 
L 7.8125 69.390625 
Q 13.765625 71.78125 18.9375 73 
Q 24.125 74.21875 28.421875 74.21875 
Q 39.75 74.21875 46.484375 68.546875 
Q 53.21875 62.890625 53.21875 53.421875 
Q 53.21875 48.921875 51.53125 44.890625 
Q 49.859375 40.875 45.40625 35.40625 
Q 44.1875 33.984375 37.640625 27.21875 
Q 31.109375 20.453125 19.1875 8.296875 
z
" id="DejaVuSans-50"/>
      </defs>
      <g transform="translate(226.61625 322.182437)scale(0.1 -0.1)">
       <use xlink:href="#DejaVuSans-50"/>
       <use x="63.623047" xlink:href="#DejaVuSans-48"/>
       <use x="127.246094" xlink:href="#DejaVuSans-48"/>
      </g>
     </g>
    </g>
    <g id="xtick_6">
     <g id="line2d_6">
      <g>
       <use style="stroke:#000000;stroke-width:0.8;" x="276.741818" xlink:href="#mb83e11e27e" y="307.584"/>
      </g>
     </g>
     <g id="text_6">
      <!-- 250 -->
      <g transform="translate(267.198068 322.182437)scale(0.1 -0.1)">
       <use xlink:href="#DejaVuSans-50"/>
       <use x="63.623047" xlink:href="#DejaVuSans-53"/>
       <use x="127.246094" xlink:href="#DejaVuSans-48"/>
      </g>
     </g>
    </g>
    <g id="xtick_7">
     <g id="line2d_7">
      <g>
       <use style="stroke:#000000;stroke-width:0.8;" x="317.323636" xlink:href="#mb83e11e27e" y="307.584"/>
      </g>
     </g>
     <g id="text_7">
      <!-- 300 -->
      <defs>
       <path d="M 40.578125 39.3125 
Q 47.65625 37.796875 51.625 33 
Q 55.609375 28.21875 55.609375 21.1875 
Q 55.609375 10.40625 48.1875 4.484375 
Q 40.765625 -1.421875 27.09375 -1.421875 
Q 22.515625 -1.421875 17.65625 -0.515625 
Q 12.796875 0.390625 7.625 2.203125 
L 7.625 11.71875 
Q 11.71875 9.328125 16.59375 8.109375 
Q 21.484375 6.890625 26.8125 6.890625 
Q 36.078125 6.890625 40.9375 10.546875 
Q 45.796875 14.203125 45.796875 21.1875 
Q 45.796875 27.640625 41.28125 31.265625 
Q 36.765625 34.90625 28.71875 34.90625 
L 20.21875 34.90625 
L 20.21875 43.015625 
L 29.109375 43.015625 
Q 36.375 43.015625 40.234375 45.921875 
Q 44.09375 48.828125 44.09375 54.296875 
Q 44.09375 59.90625 40.109375 62.90625 
Q 36.140625 65.921875 28.71875 65.921875 
Q 24.65625 65.921875 20.015625 65.03125 
Q 15.375 64.15625 9.8125 62.3125 
L 9.8125 71.09375 
Q 15.4375 72.65625 20.34375 73.4375 
Q 25.25 74.21875 29.59375 74.21875 
Q 40.828125 74.21875 47.359375 69.109375 
Q 53.90625 64.015625 53.90625 55.328125 
Q 53.90625 49.265625 50.4375 45.09375 
Q 46.96875 40.921875 40.578125 39.3125 
z
" id="DejaVuSans-51"/>
      </defs>
      <g transform="translate(307.779886 322.182437)scale(0.1 -0.1)">
       <use xlink:href="#DejaVuSans-51"/>
       <use x="63.623047" xlink:href="#DejaVuSans-48"/>
       <use x="127.246094" xlink:href="#DejaVuSans-48"/>
      </g>
     </g>
    </g>
    <g id="xtick_8">
     <g id="line2d_8">
      <g>
       <use style="stroke:#000000;stroke-width:0.8;" x="357.905455" xlink:href="#mb83e11e27e" y="307.584"/>
      </g>
     </g>
     <g id="text_8">
      <!-- 350 -->
      <g transform="translate(348.361705 322.182437)scale(0.1 -0.1)">
       <use xlink:href="#DejaVuSans-51"/>
       <use x="63.623047" xlink:href="#DejaVuSans-53"/>
       <use x="127.246094" xlink:href="#DejaVuSans-48"/>
      </g>
     </g>
    </g>
    <g id="xtick_9">
     <g id="line2d_9">
      <g>
       <use style="stroke:#000000;stroke-width:0.8;" x="398.487273" xlink:href="#mb83e11e27e" y="307.584"/>
      </g>
     </g>
     <g id="text_9">
      <!-- 400 -->
      <defs>
       <path d="M 37.796875 64.3125 
L 12.890625 25.390625 
L 37.796875 25.390625 
z
M 35.203125 72.90625 
L 47.609375 72.90625 
L 47.609375 25.390625 
L 58.015625 25.390625 
L 58.015625 17.1875 
L 47.609375 17.1875 
L 47.609375 0 
L 37.796875 0 
L 37.796875 17.1875 
L 4.890625 17.1875 
L 4.890625 26.703125 
z
" id="DejaVuSans-52"/>
      </defs>
      <g transform="translate(388.943523 322.182437)scale(0.1 -0.1)">
       <use xlink:href="#DejaVuSans-52"/>
       <use x="63.623047" xlink:href="#DejaVuSans-48"/>
       <use x="127.246094" xlink:href="#DejaVuSans-48"/>
      </g>
     </g>
    </g>
    <g id="text_10">
     <!-- # of Generation -->
     <defs>
      <path d="M 51.125 44 
L 36.921875 44 
L 32.8125 27.6875 
L 47.125 27.6875 
z
M 43.796875 71.78125 
L 38.71875 51.515625 
L 52.984375 51.515625 
L 58.109375 71.78125 
L 65.921875 71.78125 
L 60.890625 51.515625 
L 76.125 51.515625 
L 76.125 44 
L 58.984375 44 
L 54.984375 27.6875 
L 70.515625 27.6875 
L 70.515625 20.21875 
L 53.078125 20.21875 
L 48 0 
L 40.1875 0 
L 45.21875 20.21875 
L 30.90625 20.21875 
L 25.875 0 
L 18.015625 0 
L 23.09375 20.21875 
L 7.71875 20.21875 
L 7.71875 27.6875 
L 24.90625 27.6875 
L 29 44 
L 13.28125 44 
L 13.28125 51.515625 
L 30.90625 51.515625 
L 35.890625 71.78125 
z
" id="DejaVuSans-35"/>
      <path id="DejaVuSans-32"/>
      <path d="M 30.609375 48.390625 
Q 23.390625 48.390625 19.1875 42.75 
Q 14.984375 37.109375 14.984375 27.296875 
Q 14.984375 17.484375 19.15625 11.84375 
Q 23.34375 6.203125 30.609375 6.203125 
Q 37.796875 6.203125 41.984375 11.859375 
Q 46.1875 17.53125 46.1875 27.296875 
Q 46.1875 37.015625 41.984375 42.703125 
Q 37.796875 48.390625 30.609375 48.390625 
z
M 30.609375 56 
Q 42.328125 56 49.015625 48.375 
Q 55.71875 40.765625 55.71875 27.296875 
Q 55.71875 13.875 49.015625 6.21875 
Q 42.328125 -1.421875 30.609375 -1.421875 
Q 18.84375 -1.421875 12.171875 6.21875 
Q 5.515625 13.875 5.515625 27.296875 
Q 5.515625 40.765625 12.171875 48.375 
Q 18.84375 56 30.609375 56 
z
" id="DejaVuSans-111"/>
      <path d="M 37.109375 75.984375 
L 37.109375 68.5 
L 28.515625 68.5 
Q 23.6875 68.5 21.796875 66.546875 
Q 19.921875 64.59375 19.921875 59.515625 
L 19.921875 54.6875 
L 34.71875 54.6875 
L 34.71875 47.703125 
L 19.921875 47.703125 
L 19.921875 0 
L 10.890625 0 
L 10.890625 47.703125 
L 2.296875 47.703125 
L 2.296875 54.6875 
L 10.890625 54.6875 
L 10.890625 58.5 
Q 10.890625 67.625 15.140625 71.796875 
Q 19.390625 75.984375 28.609375 75.984375 
z
" id="DejaVuSans-102"/>
      <path d="M 59.515625 10.40625 
L 59.515625 29.984375 
L 43.40625 29.984375 
L 43.40625 38.09375 
L 69.28125 38.09375 
L 69.28125 6.78125 
Q 63.578125 2.734375 56.6875 0.65625 
Q 49.8125 -1.421875 42 -1.421875 
Q 24.90625 -1.421875 15.25 8.5625 
Q 5.609375 18.5625 5.609375 36.375 
Q 5.609375 54.25 15.25 64.234375 
Q 24.90625 74.21875 42 74.21875 
Q 49.125 74.21875 55.546875 72.453125 
Q 61.96875 70.703125 67.390625 67.28125 
L 67.390625 56.78125 
Q 61.921875 61.421875 55.765625 63.765625 
Q 49.609375 66.109375 42.828125 66.109375 
Q 29.4375 66.109375 22.71875 58.640625 
Q 16.015625 51.171875 16.015625 36.375 
Q 16.015625 21.625 22.71875 14.15625 
Q 29.4375 6.6875 42.828125 6.6875 
Q 48.046875 6.6875 52.140625 7.59375 
Q 56.25 8.5 59.515625 10.40625 
z
" id="DejaVuSans-71"/>
      <path d="M 56.203125 29.59375 
L 56.203125 25.203125 
L 14.890625 25.203125 
Q 15.484375 15.921875 20.484375 11.0625 
Q 25.484375 6.203125 34.421875 6.203125 
Q 39.59375 6.203125 44.453125 7.46875 
Q 49.3125 8.734375 54.109375 11.28125 
L 54.109375 2.78125 
Q 49.265625 0.734375 44.1875 -0.34375 
Q 39.109375 -1.421875 33.890625 -1.421875 
Q 20.796875 -1.421875 13.15625 6.1875 
Q 5.515625 13.8125 5.515625 26.8125 
Q 5.515625 40.234375 12.765625 48.109375 
Q 20.015625 56 32.328125 56 
Q 43.359375 56 49.78125 48.890625 
Q 56.203125 41.796875 56.203125 29.59375 
z
M 47.21875 32.234375 
Q 47.125 39.59375 43.09375 43.984375 
Q 39.0625 48.390625 32.421875 48.390625 
Q 24.90625 48.390625 20.390625 44.140625 
Q 15.875 39.890625 15.1875 32.171875 
z
" id="DejaVuSans-101"/>
      <path d="M 54.890625 33.015625 
L 54.890625 0 
L 45.90625 0 
L 45.90625 32.71875 
Q 45.90625 40.484375 42.875 44.328125 
Q 39.84375 48.1875 33.796875 48.1875 
Q 26.515625 48.1875 22.3125 43.546875 
Q 18.109375 38.921875 18.109375 30.90625 
L 18.109375 0 
L 9.078125 0 
L 9.078125 54.6875 
L 18.109375 54.6875 
L 18.109375 46.1875 
Q 21.34375 51.125 25.703125 53.5625 
Q 30.078125 56 35.796875 56 
Q 45.21875 56 50.046875 50.171875 
Q 54.890625 44.34375 54.890625 33.015625 
z
" id="DejaVuSans-110"/>
      <path d="M 41.109375 46.296875 
Q 39.59375 47.171875 37.8125 47.578125 
Q 36.03125 48 33.890625 48 
Q 26.265625 48 22.1875 43.046875 
Q 18.109375 38.09375 18.109375 28.8125 
L 18.109375 0 
L 9.078125 0 
L 9.078125 54.6875 
L 18.109375 54.6875 
L 18.109375 46.1875 
Q 20.953125 51.171875 25.484375 53.578125 
Q 30.03125 56 36.53125 56 
Q 37.453125 56 38.578125 55.875 
Q 39.703125 55.765625 41.0625 55.515625 
z
" id="DejaVuSans-114"/>
      <path d="M 34.28125 27.484375 
Q 23.390625 27.484375 19.1875 25 
Q 14.984375 22.515625 14.984375 16.5 
Q 14.984375 11.71875 18.140625 8.90625 
Q 21.296875 6.109375 26.703125 6.109375 
Q 34.1875 6.109375 38.703125 11.40625 
Q 43.21875 16.703125 43.21875 25.484375 
L 43.21875 27.484375 
z
M 52.203125 31.203125 
L 52.203125 0 
L 43.21875 0 
L 43.21875 8.296875 
Q 40.140625 3.328125 35.546875 0.953125 
Q 30.953125 -1.421875 24.3125 -1.421875 
Q 15.921875 -1.421875 10.953125 3.296875 
Q 6 8.015625 6 15.921875 
Q 6 25.140625 12.171875 29.828125 
Q 18.359375 34.515625 30.609375 34.515625 
L 43.21875 34.515625 
L 43.21875 35.40625 
Q 43.21875 41.609375 39.140625 45 
Q 35.0625 48.390625 27.6875 48.390625 
Q 23 48.390625 18.546875 47.265625 
Q 14.109375 46.140625 10.015625 43.890625 
L 10.015625 52.203125 
Q 14.9375 54.109375 19.578125 55.046875 
Q 24.21875 56 28.609375 56 
Q 40.484375 56 46.34375 49.84375 
Q 52.203125 43.703125 52.203125 31.203125 
z
" id="DejaVuSans-97"/>
      <path d="M 18.3125 70.21875 
L 18.3125 54.6875 
L 36.8125 54.6875 
L 36.8125 47.703125 
L 18.3125 47.703125 
L 18.3125 18.015625 
Q 18.3125 11.328125 20.140625 9.421875 
Q 21.96875 7.515625 27.59375 7.515625 
L 36.8125 7.515625 
L 36.8125 0 
L 27.59375 0 
Q 17.1875 0 13.234375 3.875 
Q 9.28125 7.765625 9.28125 18.015625 
L 9.28125 47.703125 
L 2.6875 47.703125 
L 2.6875 54.6875 
L 9.28125 54.6875 
L 9.28125 70.21875 
z
" id="DejaVuSans-116"/>
      <path d="M 9.421875 54.6875 
L 18.40625 54.6875 
L 18.40625 0 
L 9.421875 0 
z
M 9.421875 75.984375 
L 18.40625 75.984375 
L 18.40625 64.59375 
L 9.421875 64.59375 
z
" id="DejaVuSans-105"/>
     </defs>
     <g transform="translate(196.079531 335.860562)scale(0.1 -0.1)">
      <use xlink:href="#DejaVuSans-35"/>
      <use x="83.789062" xlink:href="#DejaVuSans-32"/>
      <use x="115.576172" xlink:href="#DejaVuSans-111"/>
      <use x="176.757812" xlink:href="#DejaVuSans-102"/>
      <use x="211.962891" xlink:href="#DejaVuSans-32"/>
      <use x="243.75" xlink:href="#DejaVuSans-71"/>
      <use x="321.240234" xlink:href="#DejaVuSans-101"/>
      <use x="382.763672" xlink:href="#DejaVuSans-110"/>
      <use x="446.142578" xlink:href="#DejaVuSans-101"/>
      <use x="507.666016" xlink:href="#DejaVuSans-114"/>
      <use x="548.779297" xlink:href="#DejaVuSans-97"/>
      <use x="610.058594" xlink:href="#DejaVuSans-116"/>
      <use x="649.267578" xlink:href="#DejaVuSans-105"/>
      <use x="677.050781" xlink:href="#DejaVuSans-111"/>
      <use x="738.232422" xlink:href="#DejaVuSans-110"/>
     </g>
    </g>
   </g>
   <g id="matplotlib.axis_2">
    <g id="ytick_1">
     <g id="line2d_10">
      <defs>
       <path d="M 0 0 
L -3.5 0 
" id="mde03f81df1" style="stroke:#000000;stroke-width:0.8;"/>
      </defs>
      <g>
       <use style="stroke:#000000;stroke-width:0.8;" x="57.6" xlink:href="#mde03f81df1" y="279.133831"/>
      </g>
     </g>
     <g id="text_11">
      <!-- 0.03 -->
      <defs>
       <path d="M 10.6875 12.40625 
L 21 12.40625 
L 21 0 
L 10.6875 0 
z
" id="DejaVuSans-46"/>
      </defs>
      <g transform="translate(28.334375 282.933049)scale(0.1 -0.1)">
       <use xlink:href="#DejaVuSans-48"/>
       <use x="63.623047" xlink:href="#DejaVuSans-46"/>
       <use x="95.410156" xlink:href="#DejaVuSans-48"/>
       <use x="159.033203" xlink:href="#DejaVuSans-51"/>
      </g>
     </g>
    </g>
    <g id="ytick_2">
     <g id="line2d_11">
      <g>
       <use style="stroke:#000000;stroke-width:0.8;" x="57.6" xlink:href="#mde03f81df1" y="237.455063"/>
      </g>
     </g>
     <g id="text_12">
      <!-- 0.04 -->
      <g transform="translate(28.334375 241.254282)scale(0.1 -0.1)">
       <use xlink:href="#DejaVuSans-48"/>
       <use x="63.623047" xlink:href="#DejaVuSans-46"/>
       <use x="95.410156" xlink:href="#DejaVuSans-48"/>
       <use x="159.033203" xlink:href="#DejaVuSans-52"/>
      </g>
     </g>
    </g>
    <g id="ytick_3">
     <g id="line2d_12">
      <g>
       <use style="stroke:#000000;stroke-width:0.8;" x="57.6" xlink:href="#mde03f81df1" y="195.776296"/>
      </g>
     </g>
     <g id="text_13">
      <!-- 0.05 -->
      <g transform="translate(28.334375 199.575515)scale(0.1 -0.1)">
       <use xlink:href="#DejaVuSans-48"/>
       <use x="63.623047" xlink:href="#DejaVuSans-46"/>
       <use x="95.410156" xlink:href="#DejaVuSans-48"/>
       <use x="159.033203" xlink:href="#DejaVuSans-53"/>
      </g>
     </g>
    </g>
    <g id="ytick_4">
     <g id="line2d_13">
      <g>
       <use style="stroke:#000000;stroke-width:0.8;" x="57.6" xlink:href="#mde03f81df1" y="154.097529"/>
      </g>
     </g>
     <g id="text_14">
      <!-- 0.06 -->
      <defs>
       <path d="M 33.015625 40.375 
Q 26.375 40.375 22.484375 35.828125 
Q 18.609375 31.296875 18.609375 23.390625 
Q 18.609375 15.53125 22.484375 10.953125 
Q 26.375 6.390625 33.015625 6.390625 
Q 39.65625 6.390625 43.53125 10.953125 
Q 47.40625 15.53125 47.40625 23.390625 
Q 47.40625 31.296875 43.53125 35.828125 
Q 39.65625 40.375 33.015625 40.375 
z
M 52.59375 71.296875 
L 52.59375 62.3125 
Q 48.875 64.0625 45.09375 64.984375 
Q 41.3125 65.921875 37.59375 65.921875 
Q 27.828125 65.921875 22.671875 59.328125 
Q 17.53125 52.734375 16.796875 39.40625 
Q 19.671875 43.65625 24.015625 45.921875 
Q 28.375 48.1875 33.59375 48.1875 
Q 44.578125 48.1875 50.953125 41.515625 
Q 57.328125 34.859375 57.328125 23.390625 
Q 57.328125 12.15625 50.6875 5.359375 
Q 44.046875 -1.421875 33.015625 -1.421875 
Q 20.359375 -1.421875 13.671875 8.265625 
Q 6.984375 17.96875 6.984375 36.375 
Q 6.984375 53.65625 15.1875 63.9375 
Q 23.390625 74.21875 37.203125 74.21875 
Q 40.921875 74.21875 44.703125 73.484375 
Q 48.484375 72.75 52.59375 71.296875 
z
" id="DejaVuSans-54"/>
      </defs>
      <g transform="translate(28.334375 157.896748)scale(0.1 -0.1)">
       <use xlink:href="#DejaVuSans-48"/>
       <use x="63.623047" xlink:href="#DejaVuSans-46"/>
       <use x="95.410156" xlink:href="#DejaVuSans-48"/>
       <use x="159.033203" xlink:href="#DejaVuSans-54"/>
      </g>
     </g>
    </g>
    <g id="ytick_5">
     <g id="line2d_14">
      <g>
       <use style="stroke:#000000;stroke-width:0.8;" x="57.6" xlink:href="#mde03f81df1" y="112.418761"/>
      </g>
     </g>
     <g id="text_15">
      <!-- 0.07 -->
      <defs>
       <path d="M 8.203125 72.90625 
L 55.078125 72.90625 
L 55.078125 68.703125 
L 28.609375 0 
L 18.3125 0 
L 43.21875 64.59375 
L 8.203125 64.59375 
z
" id="DejaVuSans-55"/>
      </defs>
      <g transform="translate(28.334375 116.21798)scale(0.1 -0.1)">
       <use xlink:href="#DejaVuSans-48"/>
       <use x="63.623047" xlink:href="#DejaVuSans-46"/>
       <use x="95.410156" xlink:href="#DejaVuSans-48"/>
       <use x="159.033203" xlink:href="#DejaVuSans-55"/>
      </g>
     </g>
    </g>
    <g id="ytick_6">
     <g id="line2d_15">
      <g>
       <use style="stroke:#000000;stroke-width:0.8;" x="57.6" xlink:href="#mde03f81df1" y="70.739994"/>
      </g>
     </g>
     <g id="text_16">
      <!-- 0.08 -->
      <defs>
       <path d="M 31.78125 34.625 
Q 24.75 34.625 20.71875 30.859375 
Q 16.703125 27.09375 16.703125 20.515625 
Q 16.703125 13.921875 20.71875 10.15625 
Q 24.75 6.390625 31.78125 6.390625 
Q 38.8125 6.390625 42.859375 10.171875 
Q 46.921875 13.96875 46.921875 20.515625 
Q 46.921875 27.09375 42.890625 30.859375 
Q 38.875 34.625 31.78125 34.625 
z
M 21.921875 38.8125 
Q 15.578125 40.375 12.03125 44.71875 
Q 8.5 49.078125 8.5 55.328125 
Q 8.5 64.0625 14.71875 69.140625 
Q 20.953125 74.21875 31.78125 74.21875 
Q 42.671875 74.21875 48.875 69.140625 
Q 55.078125 64.0625 55.078125 55.328125 
Q 55.078125 49.078125 51.53125 44.71875 
Q 48 40.375 41.703125 38.8125 
Q 48.828125 37.15625 52.796875 32.3125 
Q 56.78125 27.484375 56.78125 20.515625 
Q 56.78125 9.90625 50.3125 4.234375 
Q 43.84375 -1.421875 31.78125 -1.421875 
Q 19.734375 -1.421875 13.25 4.234375 
Q 6.78125 9.90625 6.78125 20.515625 
Q 6.78125 27.484375 10.78125 32.3125 
Q 14.796875 37.15625 21.921875 38.8125 
z
M 18.3125 54.390625 
Q 18.3125 48.734375 21.84375 45.5625 
Q 25.390625 42.390625 31.78125 42.390625 
Q 38.140625 42.390625 41.71875 45.5625 
Q 45.3125 48.734375 45.3125 54.390625 
Q 45.3125 60.0625 41.71875 63.234375 
Q 38.140625 66.40625 31.78125 66.40625 
Q 25.390625 66.40625 21.84375 63.234375 
Q 18.3125 60.0625 18.3125 54.390625 
z
" id="DejaVuSans-56"/>
      </defs>
      <g transform="translate(28.334375 74.539213)scale(0.1 -0.1)">
       <use xlink:href="#DejaVuSans-48"/>
       <use x="63.623047" xlink:href="#DejaVuSans-46"/>
       <use x="95.410156" xlink:href="#DejaVuSans-48"/>
       <use x="159.033203" xlink:href="#DejaVuSans-56"/>
      </g>
     </g>
    </g>
    <g id="text_17">
     <!-- Fitness Of Best Individual (× 1e-3) -->
     <defs>
      <path d="M 9.8125 72.90625 
L 51.703125 72.90625 
L 51.703125 64.59375 
L 19.671875 64.59375 
L 19.671875 43.109375 
L 48.578125 43.109375 
L 48.578125 34.8125 
L 19.671875 34.8125 
L 19.671875 0 
L 9.8125 0 
z
" id="DejaVuSans-70"/>
      <path d="M 44.28125 53.078125 
L 44.28125 44.578125 
Q 40.484375 46.53125 36.375 47.5 
Q 32.28125 48.484375 27.875 48.484375 
Q 21.1875 48.484375 17.84375 46.4375 
Q 14.5 44.390625 14.5 40.28125 
Q 14.5 37.15625 16.890625 35.375 
Q 19.28125 33.59375 26.515625 31.984375 
L 29.59375 31.296875 
Q 39.15625 29.25 43.1875 25.515625 
Q 47.21875 21.78125 47.21875 15.09375 
Q 47.21875 7.46875 41.1875 3.015625 
Q 35.15625 -1.421875 24.609375 -1.421875 
Q 20.21875 -1.421875 15.453125 -0.5625 
Q 10.6875 0.296875 5.421875 2 
L 5.421875 11.28125 
Q 10.40625 8.6875 15.234375 7.390625 
Q 20.0625 6.109375 24.8125 6.109375 
Q 31.15625 6.109375 34.5625 8.28125 
Q 37.984375 10.453125 37.984375 14.40625 
Q 37.984375 18.0625 35.515625 20.015625 
Q 33.0625 21.96875 24.703125 23.78125 
L 21.578125 24.515625 
Q 13.234375 26.265625 9.515625 29.90625 
Q 5.8125 33.546875 5.8125 39.890625 
Q 5.8125 47.609375 11.28125 51.796875 
Q 16.75 56 26.8125 56 
Q 31.78125 56 36.171875 55.265625 
Q 40.578125 54.546875 44.28125 53.078125 
z
" id="DejaVuSans-115"/>
      <path d="M 39.40625 66.21875 
Q 28.65625 66.21875 22.328125 58.203125 
Q 16.015625 50.203125 16.015625 36.375 
Q 16.015625 22.609375 22.328125 14.59375 
Q 28.65625 6.59375 39.40625 6.59375 
Q 50.140625 6.59375 56.421875 14.59375 
Q 62.703125 22.609375 62.703125 36.375 
Q 62.703125 50.203125 56.421875 58.203125 
Q 50.140625 66.21875 39.40625 66.21875 
z
M 39.40625 74.21875 
Q 54.734375 74.21875 63.90625 63.9375 
Q 73.09375 53.65625 73.09375 36.375 
Q 73.09375 19.140625 63.90625 8.859375 
Q 54.734375 -1.421875 39.40625 -1.421875 
Q 24.03125 -1.421875 14.8125 8.828125 
Q 5.609375 19.09375 5.609375 36.375 
Q 5.609375 53.65625 14.8125 63.9375 
Q 24.03125 74.21875 39.40625 74.21875 
z
" id="DejaVuSans-79"/>
      <path d="M 19.671875 34.8125 
L 19.671875 8.109375 
L 35.5 8.109375 
Q 43.453125 8.109375 47.28125 11.40625 
Q 51.125 14.703125 51.125 21.484375 
Q 51.125 28.328125 47.28125 31.5625 
Q 43.453125 34.8125 35.5 34.8125 
z
M 19.671875 64.796875 
L 19.671875 42.828125 
L 34.28125 42.828125 
Q 41.5 42.828125 45.03125 45.53125 
Q 48.578125 48.25 48.578125 53.8125 
Q 48.578125 59.328125 45.03125 62.0625 
Q 41.5 64.796875 34.28125 64.796875 
z
M 9.8125 72.90625 
L 35.015625 72.90625 
Q 46.296875 72.90625 52.390625 68.21875 
Q 58.5 63.53125 58.5 54.890625 
Q 58.5 48.1875 55.375 44.234375 
Q 52.25 40.28125 46.1875 39.3125 
Q 53.46875 37.75 57.5 32.78125 
Q 61.53125 27.828125 61.53125 20.40625 
Q 61.53125 10.640625 54.890625 5.3125 
Q 48.25 0 35.984375 0 
L 9.8125 0 
z
" id="DejaVuSans-66"/>
      <path d="M 9.8125 72.90625 
L 19.671875 72.90625 
L 19.671875 0 
L 9.8125 0 
z
" id="DejaVuSans-73"/>
      <path d="M 45.40625 46.390625 
L 45.40625 75.984375 
L 54.390625 75.984375 
L 54.390625 0 
L 45.40625 0 
L 45.40625 8.203125 
Q 42.578125 3.328125 38.25 0.953125 
Q 33.9375 -1.421875 27.875 -1.421875 
Q 17.96875 -1.421875 11.734375 6.484375 
Q 5.515625 14.40625 5.515625 27.296875 
Q 5.515625 40.1875 11.734375 48.09375 
Q 17.96875 56 27.875 56 
Q 33.9375 56 38.25 53.625 
Q 42.578125 51.265625 45.40625 46.390625 
z
M 14.796875 27.296875 
Q 14.796875 17.390625 18.875 11.75 
Q 22.953125 6.109375 30.078125 6.109375 
Q 37.203125 6.109375 41.296875 11.75 
Q 45.40625 17.390625 45.40625 27.296875 
Q 45.40625 37.203125 41.296875 42.84375 
Q 37.203125 48.484375 30.078125 48.484375 
Q 22.953125 48.484375 18.875 42.84375 
Q 14.796875 37.203125 14.796875 27.296875 
z
" id="DejaVuSans-100"/>
      <path d="M 2.984375 54.6875 
L 12.5 54.6875 
L 29.59375 8.796875 
L 46.6875 54.6875 
L 56.203125 54.6875 
L 35.6875 0 
L 23.484375 0 
z
" id="DejaVuSans-118"/>
      <path d="M 8.5 21.578125 
L 8.5 54.6875 
L 17.484375 54.6875 
L 17.484375 21.921875 
Q 17.484375 14.15625 20.5 10.265625 
Q 23.53125 6.390625 29.59375 6.390625 
Q 36.859375 6.390625 41.078125 11.03125 
Q 45.3125 15.671875 45.3125 23.6875 
L 45.3125 54.6875 
L 54.296875 54.6875 
L 54.296875 0 
L 45.3125 0 
L 45.3125 8.40625 
Q 42.046875 3.421875 37.71875 1 
Q 33.40625 -1.421875 27.6875 -1.421875 
Q 18.265625 -1.421875 13.375 4.4375 
Q 8.5 10.296875 8.5 21.578125 
z
M 31.109375 56 
z
" id="DejaVuSans-117"/>
      <path d="M 9.421875 75.984375 
L 18.40625 75.984375 
L 18.40625 0 
L 9.421875 0 
z
" id="DejaVuSans-108"/>
      <path d="M 31 75.875 
Q 24.46875 64.65625 21.28125 53.65625 
Q 18.109375 42.671875 18.109375 31.390625 
Q 18.109375 20.125 21.3125 9.0625 
Q 24.515625 -2 31 -13.1875 
L 23.1875 -13.1875 
Q 15.875 -1.703125 12.234375 9.375 
Q 8.59375 20.453125 8.59375 31.390625 
Q 8.59375 42.28125 12.203125 53.3125 
Q 15.828125 64.359375 23.1875 75.875 
z
" id="DejaVuSans-40"/>
      <path d="M 70.125 53.71875 
L 47.796875 31.296875 
L 70.125 8.984375 
L 64.3125 3.078125 
L 41.890625 25.484375 
L 19.484375 3.078125 
L 13.71875 8.984375 
L 35.984375 31.296875 
L 13.71875 53.71875 
L 19.484375 59.625 
L 41.890625 37.203125 
L 64.3125 59.625 
z
" id="DejaVuSans-215"/>
      <path d="M 4.890625 31.390625 
L 31.203125 31.390625 
L 31.203125 23.390625 
L 4.890625 23.390625 
z
" id="DejaVuSans-45"/>
      <path d="M 8.015625 75.875 
L 15.828125 75.875 
Q 23.140625 64.359375 26.78125 53.3125 
Q 30.421875 42.28125 30.421875 31.390625 
Q 30.421875 20.453125 26.78125 9.375 
Q 23.140625 -1.703125 15.828125 -13.1875 
L 8.015625 -13.1875 
Q 14.5 -2 17.703125 9.0625 
Q 20.90625 20.125 20.90625 31.390625 
Q 20.90625 42.671875 17.703125 53.65625 
Q 14.5 64.65625 8.015625 75.875 
z
" id="DejaVuSans-41"/>
     </defs>
     <g transform="translate(22.254687 260.601437)rotate(-90)scale(0.1 -0.1)">
      <use xlink:href="#DejaVuSans-70"/>
      <use x="57.410156" xlink:href="#DejaVuSans-105"/>
      <use x="85.193359" xlink:href="#DejaVuSans-116"/>
      <use x="124.402344" xlink:href="#DejaVuSans-110"/>
      <use x="187.78125" xlink:href="#DejaVuSans-101"/>
      <use x="249.304688" xlink:href="#DejaVuSans-115"/>
      <use x="301.404297" xlink:href="#DejaVuSans-115"/>
      <use x="353.503906" xlink:href="#DejaVuSans-32"/>
      <use x="385.291016" xlink:href="#DejaVuSans-79"/>
      <use x="464.001953" xlink:href="#DejaVuSans-102"/>
      <use x="499.207031" xlink:href="#DejaVuSans-32"/>
      <use x="530.994141" xlink:href="#DejaVuSans-66"/>
      <use x="599.597656" xlink:href="#DejaVuSans-101"/>
      <use x="661.121094" xlink:href="#DejaVuSans-115"/>
      <use x="713.220703" xlink:href="#DejaVuSans-116"/>
      <use x="752.429688" xlink:href="#DejaVuSans-32"/>
      <use x="784.216797" xlink:href="#DejaVuSans-73"/>
      <use x="813.708984" xlink:href="#DejaVuSans-110"/>
      <use x="877.087891" xlink:href="#DejaVuSans-100"/>
      <use x="940.564453" xlink:href="#DejaVuSans-105"/>
      <use x="968.347656" xlink:href="#DejaVuSans-118"/>
      <use x="1027.527344" xlink:href="#DejaVuSans-105"/>
      <use x="1055.310547" xlink:href="#DejaVuSans-100"/>
      <use x="1118.787109" xlink:href="#DejaVuSans-117"/>
      <use x="1182.166016" xlink:href="#DejaVuSans-97"/>
      <use x="1243.445312" xlink:href="#DejaVuSans-108"/>
      <use x="1271.228516" xlink:href="#DejaVuSans-32"/>
      <use x="1303.015625" xlink:href="#DejaVuSans-40"/>
      <use x="1342.029297" xlink:href="#DejaVuSans-215"/>
      <use x="1425.818359" xlink:href="#DejaVuSans-32"/>
      <use x="1457.605469" xlink:href="#DejaVuSans-49"/>
      <use x="1521.228516" xlink:href="#DejaVuSans-101"/>
      <use x="1582.751953" xlink:href="#DejaVuSans-45"/>
      <use x="1618.835938" xlink:href="#DejaVuSans-51"/>
      <use x="1682.458984" xlink:href="#DejaVuSans-41"/>
     </g>
    </g>
   </g>
   <g id="line2d_16">
    <path clip-path="url(#padbc62f27c)" d="M 73.832727 295.488 
L 74.644364 288.260301 
L 76.267636 234.689394 
L 77.079273 218.698054 
L 78.702545 174.498777 
L 79.514182 160.823066 
L 80.325818 151.179174 
L 81.137455 145.879397 
L 81.949091 145.879397 
L 82.760727 140.870718 
L 83.572364 139.736739 
L 84.384 137.825739 
L 85.195636 136.878822 
L 86.007273 130.509869 
L 86.818909 126.125494 
L 87.630545 124.267695 
L 89.253818 124.267695 
L 90.065455 123.262699 
L 90.877091 119.440293 
L 91.688727 118.322248 
L 92.500364 116.10508 
L 93.312 115.008603 
L 94.123636 111.229677 
L 94.935273 109.270046 
L 95.746909 108.105359 
L 96.558545 105.633634 
L 97.370182 103.845207 
L 98.181818 103.710298 
L 98.993455 102.703248 
L 102.24 102.703248 
L 103.051636 102.021066 
L 103.863273 99.742426 
L 105.486545 99.64496 
L 107.109818 99.64496 
L 107.921455 98.826335 
L 108.733091 95.476236 
L 110.356364 95.476236 
L 111.168 90.590899 
L 111.979636 88.927813 
L 112.791273 86.461995 
L 113.602909 86.461995 
L 114.414545 86.174986 
L 115.226182 84.370752 
L 116.037818 84.370752 
L 116.849455 83.294521 
L 119.284364 83.294521 
L 120.096 82.33734 
L 120.907636 79.238117 
L 122.530909 79.238117 
L 124.154182 78.476684 
L 124.965818 78.435021 
L 125.777455 78.186355 
L 131.458909 78.186355 
L 132.270545 77.513875 
L 133.082182 75.9511 
L 140.386909 75.9511 
L 141.198545 74.259848 
L 142.010182 74.259848 
L 142.821818 72.797589 
L 146.88 72.797589 
L 147.691636 71.616141 
L 148.503273 71.616141 
L 149.314909 70.248922 
L 150.126545 69.847531 
L 153.373091 69.847531 
L 154.184727 67.858296 
L 161.489455 67.858296 
L 162.301091 67.379481 
L 163.112727 66.723166 
L 165.547636 66.723166 
L 166.359273 65.536787 
L 180.157091 65.536787 
L 180.968727 64.247589 
L 205.317818 64.247589 
L 206.129455 62.227815 
L 213.434182 62.227815 
L 214.245818 60.86949 
L 232.913455 60.86949 
L 233.725091 59.596854 
L 251.581091 59.596854 
L 252.392727 58.816789 
L 254.016 58.816789 
L 254.827636 58.207089 
L 257.262545 58.207089 
L 258.074182 57.85813 
L 263.755636 57.85813 
L 264.567273 57.395301 
L 270.248727 57.395301 
L 271.060364 55.11473 
L 368.456727 55.11473 
L 369.268364 54.193108 
L 396.864 54.193108 
L 397.675636 53.58004 
L 398.487273 53.568 
L 398.487273 53.568 
" style="fill:none;stroke:#1f77b4;stroke-linecap:square;stroke-width:1.5;"/>
   </g>
   <g id="patch_3">
    <path d="M 57.6 307.584 
L 57.6 41.472 
" style="fill:none;stroke:#000000;stroke-linecap:square;stroke-linejoin:miter;stroke-width:0.8;"/>
   </g>
   <g id="patch_4">
    <path d="M 414.72 307.584 
L 414.72 41.472 
" style="fill:none;stroke:#000000;stroke-linecap:square;stroke-linejoin:miter;stroke-width:0.8;"/>
   </g>
   <g id="patch_5">
    <path d="M 57.6 307.584 
L 414.72 307.584 
" style="fill:none;stroke:#000000;stroke-linecap:square;stroke-linejoin:miter;stroke-width:0.8;"/>
   </g>
   <g id="patch_6">
    <path d="M 57.6 41.472 
L 414.72 41.472 
" style="fill:none;stroke:#000000;stroke-linecap:square;stroke-linejoin:miter;stroke-width:0.8;"/>
   </g>
  </g>
  <g id="axes_2">
   <g id="matplotlib.axis_3">
    <g id="ytick_7">
     <g id="line2d_17">
      <defs>
       <path d="M 0 0 
L 3.5 0 
" id="m1d0a8508fd" style="stroke:#000000;stroke-width:0.8;"/>
      </defs>
      <g>
       <use style="stroke:#000000;stroke-width:0.8;" x="414.72" xlink:href="#m1d0a8508fd" y="287.145931"/>
      </g>
     </g>
     <g id="text_18">
      <!-- 0.86 -->
      <g transform="translate(421.72 290.94515)scale(0.1 -0.1)">
       <use xlink:href="#DejaVuSans-48"/>
       <use x="63.623047" xlink:href="#DejaVuSans-46"/>
       <use x="95.410156" xlink:href="#DejaVuSans-56"/>
       <use x="159.033203" xlink:href="#DejaVuSans-54"/>
      </g>
     </g>
    </g>
    <g id="ytick_8">
     <g id="line2d_18">
      <g>
       <use style="stroke:#000000;stroke-width:0.8;" x="414.72" xlink:href="#m1d0a8508fd" y="253.777655"/>
      </g>
     </g>
     <g id="text_19">
      <!-- 0.88 -->
      <g transform="translate(421.72 257.576874)scale(0.1 -0.1)">
       <use xlink:href="#DejaVuSans-48"/>
       <use x="63.623047" xlink:href="#DejaVuSans-46"/>
       <use x="95.410156" xlink:href="#DejaVuSans-56"/>
       <use x="159.033203" xlink:href="#DejaVuSans-56"/>
      </g>
     </g>
    </g>
    <g id="ytick_9">
     <g id="line2d_19">
      <g>
       <use style="stroke:#000000;stroke-width:0.8;" x="414.72" xlink:href="#m1d0a8508fd" y="220.409379"/>
      </g>
     </g>
     <g id="text_20">
      <!-- 0.90 -->
      <defs>
       <path d="M 10.984375 1.515625 
L 10.984375 10.5 
Q 14.703125 8.734375 18.5 7.8125 
Q 22.3125 6.890625 25.984375 6.890625 
Q 35.75 6.890625 40.890625 13.453125 
Q 46.046875 20.015625 46.78125 33.40625 
Q 43.953125 29.203125 39.59375 26.953125 
Q 35.25 24.703125 29.984375 24.703125 
Q 19.046875 24.703125 12.671875 31.3125 
Q 6.296875 37.9375 6.296875 49.421875 
Q 6.296875 60.640625 12.9375 67.421875 
Q 19.578125 74.21875 30.609375 74.21875 
Q 43.265625 74.21875 49.921875 64.515625 
Q 56.59375 54.828125 56.59375 36.375 
Q 56.59375 19.140625 48.40625 8.859375 
Q 40.234375 -1.421875 26.421875 -1.421875 
Q 22.703125 -1.421875 18.890625 -0.6875 
Q 15.09375 0.046875 10.984375 1.515625 
z
M 30.609375 32.421875 
Q 37.25 32.421875 41.125 36.953125 
Q 45.015625 41.5 45.015625 49.421875 
Q 45.015625 57.28125 41.125 61.84375 
Q 37.25 66.40625 30.609375 66.40625 
Q 23.96875 66.40625 20.09375 61.84375 
Q 16.21875 57.28125 16.21875 49.421875 
Q 16.21875 41.5 20.09375 36.953125 
Q 23.96875 32.421875 30.609375 32.421875 
z
" id="DejaVuSans-57"/>
      </defs>
      <g transform="translate(421.72 224.208598)scale(0.1 -0.1)">
       <use xlink:href="#DejaVuSans-48"/>
       <use x="63.623047" xlink:href="#DejaVuSans-46"/>
       <use x="95.410156" xlink:href="#DejaVuSans-57"/>
       <use x="159.033203" xlink:href="#DejaVuSans-48"/>
      </g>
     </g>
    </g>
    <g id="ytick_10">
     <g id="line2d_20">
      <g>
       <use style="stroke:#000000;stroke-width:0.8;" x="414.72" xlink:href="#m1d0a8508fd" y="187.041103"/>
      </g>
     </g>
     <g id="text_21">
      <!-- 0.92 -->
      <g transform="translate(421.72 190.840322)scale(0.1 -0.1)">
       <use xlink:href="#DejaVuSans-48"/>
       <use x="63.623047" xlink:href="#DejaVuSans-46"/>
       <use x="95.410156" xlink:href="#DejaVuSans-57"/>
       <use x="159.033203" xlink:href="#DejaVuSans-50"/>
      </g>
     </g>
    </g>
    <g id="ytick_11">
     <g id="line2d_21">
      <g>
       <use style="stroke:#000000;stroke-width:0.8;" x="414.72" xlink:href="#m1d0a8508fd" y="153.672828"/>
      </g>
     </g>
     <g id="text_22">
      <!-- 0.94 -->
      <g transform="translate(421.72 157.472046)scale(0.1 -0.1)">
       <use xlink:href="#DejaVuSans-48"/>
       <use x="63.623047" xlink:href="#DejaVuSans-46"/>
       <use x="95.410156" xlink:href="#DejaVuSans-57"/>
       <use x="159.033203" xlink:href="#DejaVuSans-52"/>
      </g>
     </g>
    </g>
    <g id="ytick_12">
     <g id="line2d_22">
      <g>
       <use style="stroke:#000000;stroke-width:0.8;" x="414.72" xlink:href="#m1d0a8508fd" y="120.304552"/>
      </g>
     </g>
     <g id="text_23">
      <!-- 0.96 -->
      <g transform="translate(421.72 124.10377)scale(0.1 -0.1)">
       <use xlink:href="#DejaVuSans-48"/>
       <use x="63.623047" xlink:href="#DejaVuSans-46"/>
       <use x="95.410156" xlink:href="#DejaVuSans-57"/>
       <use x="159.033203" xlink:href="#DejaVuSans-54"/>
      </g>
     </g>
    </g>
    <g id="ytick_13">
     <g id="line2d_23">
      <g>
       <use style="stroke:#000000;stroke-width:0.8;" x="414.72" xlink:href="#m1d0a8508fd" y="86.936276"/>
      </g>
     </g>
     <g id="text_24">
      <!-- 0.98 -->
      <g transform="translate(421.72 90.735495)scale(0.1 -0.1)">
       <use xlink:href="#DejaVuSans-48"/>
       <use x="63.623047" xlink:href="#DejaVuSans-46"/>
       <use x="95.410156" xlink:href="#DejaVuSans-57"/>
       <use x="159.033203" xlink:href="#DejaVuSans-56"/>
      </g>
     </g>
    </g>
    <g id="ytick_14">
     <g id="line2d_24">
      <g>
       <use style="stroke:#000000;stroke-width:0.8;" x="414.72" xlink:href="#m1d0a8508fd" y="53.568"/>
      </g>
     </g>
     <g id="text_25">
      <!-- 1.00 -->
      <g transform="translate(421.72 57.367219)scale(0.1 -0.1)">
       <use xlink:href="#DejaVuSans-49"/>
       <use x="63.623047" xlink:href="#DejaVuSans-46"/>
       <use x="95.410156" xlink:href="#DejaVuSans-48"/>
       <use x="159.033203" xlink:href="#DejaVuSans-48"/>
      </g>
     </g>
    </g>
    <g id="text_26">
     <!-- Diversity Metric -->
     <defs>
      <path d="M 19.671875 64.796875 
L 19.671875 8.109375 
L 31.59375 8.109375 
Q 46.6875 8.109375 53.6875 14.9375 
Q 60.6875 21.78125 60.6875 36.53125 
Q 60.6875 51.171875 53.6875 57.984375 
Q 46.6875 64.796875 31.59375 64.796875 
z
M 9.8125 72.90625 
L 30.078125 72.90625 
Q 51.265625 72.90625 61.171875 64.09375 
Q 71.09375 55.28125 71.09375 36.53125 
Q 71.09375 17.671875 61.125 8.828125 
Q 51.171875 0 30.078125 0 
L 9.8125 0 
z
" id="DejaVuSans-68"/>
      <path d="M 32.171875 -5.078125 
Q 28.375 -14.84375 24.75 -17.8125 
Q 21.140625 -20.796875 15.09375 -20.796875 
L 7.90625 -20.796875 
L 7.90625 -13.28125 
L 13.1875 -13.28125 
Q 16.890625 -13.28125 18.9375 -11.515625 
Q 21 -9.765625 23.484375 -3.21875 
L 25.09375 0.875 
L 2.984375 54.6875 
L 12.5 54.6875 
L 29.59375 11.921875 
L 46.6875 54.6875 
L 56.203125 54.6875 
z
" id="DejaVuSans-121"/>
      <path d="M 9.8125 72.90625 
L 24.515625 72.90625 
L 43.109375 23.296875 
L 61.8125 72.90625 
L 76.515625 72.90625 
L 76.515625 0 
L 66.890625 0 
L 66.890625 64.015625 
L 48.09375 14.015625 
L 38.1875 14.015625 
L 19.390625 64.015625 
L 19.390625 0 
L 9.8125 0 
z
" id="DejaVuSans-77"/>
      <path d="M 48.78125 52.59375 
L 48.78125 44.1875 
Q 44.96875 46.296875 41.140625 47.34375 
Q 37.3125 48.390625 33.40625 48.390625 
Q 24.65625 48.390625 19.8125 42.84375 
Q 14.984375 37.3125 14.984375 27.296875 
Q 14.984375 17.28125 19.8125 11.734375 
Q 24.65625 6.203125 33.40625 6.203125 
Q 37.3125 6.203125 41.140625 7.25 
Q 44.96875 8.296875 48.78125 10.40625 
L 48.78125 2.09375 
Q 45.015625 0.34375 40.984375 -0.53125 
Q 36.96875 -1.421875 32.421875 -1.421875 
Q 20.0625 -1.421875 12.78125 6.34375 
Q 5.515625 14.109375 5.515625 27.296875 
Q 5.515625 40.671875 12.859375 48.328125 
Q 20.21875 56 33.015625 56 
Q 37.15625 56 41.109375 55.140625 
Q 45.0625 54.296875 48.78125 52.59375 
z
" id="DejaVuSans-99"/>
     </defs>
     <g transform="translate(455.584063 213.905344)rotate(-90)scale(0.1 -0.1)">
      <use xlink:href="#DejaVuSans-68"/>
      <use x="77.001953" xlink:href="#DejaVuSans-105"/>
      <use x="104.785156" xlink:href="#DejaVuSans-118"/>
      <use x="163.964844" xlink:href="#DejaVuSans-101"/>
      <use x="225.488281" xlink:href="#DejaVuSans-114"/>
      <use x="266.601562" xlink:href="#DejaVuSans-115"/>
      <use x="318.701172" xlink:href="#DejaVuSans-105"/>
      <use x="346.484375" xlink:href="#DejaVuSans-116"/>
      <use x="385.693359" xlink:href="#DejaVuSans-121"/>
      <use x="444.873047" xlink:href="#DejaVuSans-32"/>
      <use x="476.660156" xlink:href="#DejaVuSans-77"/>
      <use x="562.939453" xlink:href="#DejaVuSans-101"/>
      <use x="624.462891" xlink:href="#DejaVuSans-116"/>
      <use x="663.671875" xlink:href="#DejaVuSans-114"/>
      <use x="704.785156" xlink:href="#DejaVuSans-105"/>
      <use x="732.568359" xlink:href="#DejaVuSans-99"/>
     </g>
    </g>
   </g>
   <g id="line2d_25">
    <path clip-path="url(#padbc62f27c)" d="M 73.832727 53.568 
L 79.514182 53.568 
L 80.325818 54.402207 
L 81.137455 53.568 
L 83.572364 53.568 
L 84.384 54.402207 
L 94.123636 54.402207 
L 94.935273 55.236414 
L 101.428364 55.236414 
L 102.24 56.070621 
L 103.051636 56.070621 
L 103.863273 56.904828 
L 104.674909 56.904828 
L 105.486545 57.739034 
L 107.109818 57.739034 
L 107.921455 59.407448 
L 109.544727 59.407448 
L 110.356364 60.241655 
L 111.168 61.910069 
L 111.979636 61.075862 
L 112.791273 61.910069 
L 113.602909 61.910069 
L 114.414545 62.744276 
L 115.226182 61.910069 
L 116.037818 61.910069 
L 116.849455 61.075862 
L 124.154182 61.075862 
L 124.965818 60.241655 
L 125.777455 61.910069 
L 126.589091 61.910069 
L 127.400727 62.744276 
L 128.212364 62.744276 
L 129.024 63.578483 
L 140.386909 63.578483 
L 141.198545 62.744276 
L 148.503273 62.744276 
L 149.314909 61.910069 
L 156.619636 61.910069 
L 157.431273 62.744276 
L 158.242909 62.744276 
L 159.054545 64.41269 
L 165.547636 64.41269 
L 166.359273 67.749517 
L 180.157091 67.749517 
L 180.968727 68.583724 
L 182.592 68.583724 
L 183.403636 70.252138 
L 185.838545 70.252138 
L 186.650182 68.583724 
L 188.273455 68.583724 
L 189.085091 67.749517 
L 189.896727 67.749517 
L 191.52 69.417931 
L 197.201455 69.417931 
L 198.013091 70.252138 
L 200.448 70.252138 
L 201.259636 71.086345 
L 205.317818 71.086345 
L 206.129455 69.417931 
L 211.810909 69.417931 
L 212.622545 70.252138 
L 213.434182 70.252138 
L 214.245818 73.588966 
L 220.738909 73.588966 
L 221.550545 74.423172 
L 222.362182 74.423172 
L 223.173818 75.257379 
L 223.985455 75.257379 
L 224.797091 74.423172 
L 225.608727 75.257379 
L 232.913455 75.257379 
L 233.725091 74.423172 
L 234.536727 75.257379 
L 238.594909 75.257379 
L 240.218182 76.925793 
L 241.841455 76.925793 
L 242.653091 77.76 
L 243.464727 77.76 
L 244.276364 78.594207 
L 248.334545 78.594207 
L 249.146182 79.428414 
L 253.204364 79.428414 
L 254.827636 77.76 
L 255.639273 78.594207 
L 257.262545 78.594207 
L 258.074182 77.76 
L 260.509091 77.76 
L 261.320727 76.925793 
L 271.060364 76.925793 
L 271.872 76.091586 
L 286.481455 76.091586 
L 287.293091 75.257379 
L 288.916364 75.257379 
L 289.728 76.091586 
L 313.265455 76.091586 
L 314.077091 76.925793 
L 326.251636 76.925793 
L 327.063273 77.76 
L 333.556364 77.76 
L 334.368 78.594207 
L 335.179636 78.594207 
L 335.991273 77.76 
L 340.049455 77.76 
L 340.861091 78.594207 
L 342.484364 78.594207 
L 343.296 79.428414 
L 347.354182 79.428414 
L 348.165818 80.262621 
L 354.658909 80.262621 
L 355.470545 82.765241 
L 365.210182 82.765241 
L 366.021818 81.931034 
L 366.833455 81.931034 
L 367.645091 82.765241 
L 372.514909 82.765241 
L 373.326545 81.931034 
L 374.138182 81.931034 
L 374.949818 82.765241 
L 385.501091 82.765241 
L 387.124364 84.433655 
L 388.747636 84.433655 
L 389.559273 85.267862 
L 394.429091 85.267862 
L 395.240727 86.102069 
L 396.864 86.102069 
L 397.675636 85.267862 
L 398.487273 85.267862 
L 398.487273 85.267862 
" style="fill:none;stroke:#ff0000;stroke-linecap:square;stroke-width:1.5;"/>
   </g>
   <g id="line2d_26">
    <path clip-path="url(#padbc62f27c)" d="M 73.832727 53.568 
L 74.644364 70.252138 
L 75.456 68.583724 
L 76.267636 75.257379 
L 77.079273 80.262621 
L 77.890909 82.765241 
L 78.702545 76.925793 
L 79.514182 76.925793 
L 80.325818 78.594207 
L 81.137455 76.091586 
L 81.949091 75.257379 
L 83.572364 71.920552 
L 84.384 72.754759 
L 85.195636 74.423172 
L 86.007273 75.257379 
L 87.630545 75.257379 
L 89.253818 76.925793 
L 90.065455 76.925793 
L 90.877091 77.76 
L 91.688727 77.76 
L 92.500364 78.594207 
L 93.312 78.594207 
L 94.123636 76.925793 
L 94.935273 78.594207 
L 95.746909 79.428414 
L 96.558545 79.428414 
L 97.370182 78.594207 
L 98.181818 76.925793 
L 98.993455 77.76 
L 100.616727 77.76 
L 101.428364 78.594207 
L 102.24 77.76 
L 103.051636 81.931034 
L 103.863273 84.433655 
L 104.674909 84.433655 
L 107.921455 87.770483 
L 108.733091 89.438897 
L 109.544727 89.438897 
L 110.356364 91.10731 
L 111.168 94.444138 
L 111.979636 92.775724 
L 112.791273 93.609931 
L 113.602909 92.775724 
L 114.414545 94.444138 
L 116.037818 96.112552 
L 116.849455 95.278345 
L 117.661091 96.112552 
L 119.284364 96.112552 
L 120.907636 97.780966 
L 121.719273 99.449379 
L 122.530909 99.449379 
L 123.342545 101.952 
L 124.965818 101.952 
L 125.777455 102.786207 
L 126.589091 104.454621 
L 127.400727 105.288828 
L 128.212364 105.288828 
L 129.024 106.123034 
L 129.835636 105.288828 
L 130.647273 105.288828 
L 132.270545 106.957241 
L 133.082182 105.288828 
L 133.893818 105.288828 
L 134.705455 104.454621 
L 137.140364 104.454621 
L 137.952 106.123034 
L 138.763636 106.123034 
L 139.575273 106.957241 
L 140.386909 106.123034 
L 141.198545 187.041103 
L 142.010182 188.709517 
L 142.821818 189.543724 
L 143.633455 189.543724 
L 144.445091 191.212138 
L 146.88 191.212138 
L 147.691636 190.377931 
L 148.503273 190.377931 
L 149.314909 191.212138 
L 150.126545 189.543724 
L 150.938182 190.377931 
L 152.561455 190.377931 
L 153.373091 191.212138 
L 154.184727 191.212138 
L 154.996364 192.046345 
L 156.619636 192.046345 
L 157.431273 193.714759 
L 158.242909 193.714759 
L 159.866182 195.383172 
L 161.489455 195.383172 
L 162.301091 196.217379 
L 163.112727 194.548966 
L 164.736 194.548966 
L 165.547636 195.383172 
L 166.359273 197.885793 
L 171.229091 197.885793 
L 172.852364 201.222621 
L 173.664 201.222621 
L 175.287273 202.891034 
L 176.098909 202.891034 
L 176.910545 202.056828 
L 177.722182 202.056828 
L 178.533818 202.891034 
L 181.780364 202.891034 
L 182.592 203.725241 
L 183.403636 205.393655 
L 185.838545 207.896276 
L 189.085091 207.896276 
L 191.52 210.398897 
L 192.331636 210.398897 
L 193.143273 212.06731 
L 196.389818 212.06731 
L 197.201455 212.901517 
L 198.013091 215.404138 
L 200.448 215.404138 
L 201.259636 216.238345 
L 202.071273 216.238345 
L 203.694545 217.906759 
L 204.506182 217.906759 
L 205.317818 218.740966 
L 206.129455 211.233103 
L 211.810909 211.233103 
L 213.434182 212.901517 
L 214.245818 217.072552 
L 215.057455 218.740966 
L 216.680727 218.740966 
L 217.492364 219.575172 
L 219.115636 219.575172 
L 219.927273 220.409379 
L 220.738909 220.409379 
L 221.550545 221.243586 
L 222.362182 220.409379 
L 223.173818 221.243586 
L 223.985455 221.243586 
L 224.797091 220.409379 
L 225.608727 221.243586 
L 226.420364 221.243586 
L 227.232 222.077793 
L 229.666909 222.077793 
L 230.478545 223.746207 
L 232.913455 223.746207 
L 233.725091 221.243586 
L 234.536727 222.077793 
L 237.783273 222.077793 
L 240.218182 224.580414 
L 242.653091 224.580414 
L 243.464727 225.414621 
L 244.276364 227.083034 
L 245.088 227.917241 
L 245.899636 227.917241 
L 246.711273 228.751448 
L 247.522909 228.751448 
L 249.146182 230.419862 
L 249.957818 229.585655 
L 251.581091 229.585655 
L 252.392727 230.419862 
L 253.204364 230.419862 
L 254.016 229.585655 
L 254.827636 226.248828 
L 255.639273 223.746207 
L 257.262545 225.414621 
L 259.697455 225.414621 
L 260.509091 226.248828 
L 261.320727 226.248828 
L 262.132364 227.083034 
L 262.944 227.083034 
L 263.755636 227.917241 
L 264.567273 227.083034 
L 266.190545 227.083034 
L 267.002182 226.248828 
L 267.813818 227.083034 
L 270.248727 227.083034 
L 271.872 225.414621 
L 272.683636 225.414621 
L 273.495273 226.248828 
L 274.306909 225.414621 
L 276.741818 225.414621 
L 277.553455 223.746207 
L 279.176727 223.746207 
L 279.988364 222.912 
L 286.481455 222.912 
L 287.293091 222.077793 
L 288.916364 222.077793 
L 289.728 222.912 
L 291.351273 222.912 
L 292.162909 223.746207 
L 293.786182 223.746207 
L 294.597818 222.912 
L 299.467636 227.917241 
L 304.337455 227.917241 
L 305.149091 227.083034 
L 305.960727 227.083034 
L 306.772364 226.248828 
L 308.395636 226.248828 
L 309.207273 273.798621 
L 310.018909 273.798621 
L 310.830545 274.632828 
L 311.642182 274.632828 
L 312.453818 275.467034 
L 313.265455 274.632828 
L 314.888727 276.301241 
L 315.700364 276.301241 
L 316.512 277.135448 
L 318.135273 277.135448 
L 319.758545 275.467034 
L 321.381818 275.467034 
L 323.005091 277.135448 
L 325.44 277.135448 
L 326.251636 276.301241 
L 327.063273 277.135448 
L 328.686545 277.135448 
L 329.498182 279.638069 
L 331.121455 279.638069 
L 331.933091 278.803862 
L 332.744727 278.803862 
L 333.556364 277.969655 
L 335.179636 279.638069 
L 335.991273 278.803862 
L 340.861091 278.803862 
L 341.672727 279.638069 
L 342.484364 279.638069 
L 343.296 281.306483 
L 347.354182 281.306483 
L 348.165818 282.14069 
L 351.412364 282.14069 
L 352.224 282.974897 
L 353.035636 282.14069 
L 354.658909 282.14069 
L 355.470545 281.306483 
L 365.210182 281.306483 
L 366.021818 280.472276 
L 366.833455 280.472276 
L 367.645091 281.306483 
L 368.456727 281.306483 
L 369.268364 280.472276 
L 370.08 281.306483 
L 370.891636 280.472276 
L 371.703273 280.472276 
L 372.514909 281.306483 
L 373.326545 278.803862 
L 374.138182 280.472276 
L 374.949818 281.306483 
L 378.196364 281.306483 
L 379.008 282.14069 
L 380.631273 282.14069 
L 381.442909 283.809103 
L 382.254545 283.809103 
L 383.066182 284.64331 
L 385.501091 284.64331 
L 386.312727 287.980138 
L 387.124364 288.814345 
L 388.747636 288.814345 
L 389.559273 290.482759 
L 390.370909 290.482759 
L 391.182545 291.316966 
L 392.805818 291.316966 
L 395.240727 293.819586 
L 396.864 293.819586 
L 397.675636 295.488 
L 398.487273 292.151172 
L 398.487273 292.151172 
" style="fill:none;stroke:#800080;stroke-dasharray:5.55,2.4;stroke-dashoffset:0;stroke-width:1.5;"/>
   </g>
   <g id="patch_7">
    <path d="M 57.6 307.584 
L 57.6 41.472 
" style="fill:none;stroke:#000000;stroke-linecap:square;stroke-linejoin:miter;stroke-width:0.8;"/>
   </g>
   <g id="patch_8">
    <path d="M 414.72 307.584 
L 414.72 41.472 
" style="fill:none;stroke:#000000;stroke-linecap:square;stroke-linejoin:miter;stroke-width:0.8;"/>
   </g>
   <g id="patch_9">
    <path d="M 57.6 307.584 
L 414.72 307.584 
" style="fill:none;stroke:#000000;stroke-linecap:square;stroke-linejoin:miter;stroke-width:0.8;"/>
   </g>
   <g id="patch_10">
    <path d="M 57.6 41.472 
L 414.72 41.472 
" style="fill:none;stroke:#000000;stroke-linecap:square;stroke-linejoin:miter;stroke-width:0.8;"/>
   </g>
  </g>
  <g id="axes_3">
   <g id="matplotlib.axis_4">
    <g id="xtick_10">
     <g id="line2d_27">
      <defs>
       <path d="M 0 0 
L 0 -3.5 
" id="mb914f4a74d" style="stroke:#000000;stroke-width:0.8;"/>
      </defs>
      <g>
       <use style="stroke:#000000;stroke-width:0.8;" x="73.832727" xlink:href="#mb914f4a74d" y="41.472"/>
      </g>
     </g>
     <g id="text_27">
      <!-- 200 -->
      <g transform="translate(68.480968 33.243145)rotate(-10)scale(0.06 -0.06)">
       <use xlink:href="#DejaVuSans-50"/>
       <use x="63.623047" xlink:href="#DejaVuSans-48"/>
       <use x="127.246094" xlink:href="#DejaVuSans-48"/>
      </g>
     </g>
    </g>
    <g id="xtick_11">
     <g id="line2d_28">
      <g>
       <use style="stroke:#000000;stroke-width:0.8;" x="106.298182" xlink:href="#mb914f4a74d" y="41.472"/>
      </g>
     </g>
     <g id="text_28">
      <!-- 19012 -->
      <g transform="translate(97.186919 33.243145)rotate(-10)scale(0.06 -0.06)">
       <use xlink:href="#DejaVuSans-49"/>
       <use x="63.623047" xlink:href="#DejaVuSans-57"/>
       <use x="127.246094" xlink:href="#DejaVuSans-48"/>
       <use x="190.869141" xlink:href="#DejaVuSans-49"/>
       <use x="254.492188" xlink:href="#DejaVuSans-50"/>
      </g>
     </g>
    </g>
    <g id="xtick_12">
     <g id="line2d_29">
      <g>
       <use style="stroke:#000000;stroke-width:0.8;" x="138.763636" xlink:href="#mb914f4a74d" y="41.472"/>
      </g>
     </g>
     <g id="text_29">
      <!-- 33625 -->
      <g transform="translate(129.652374 33.243145)rotate(-10)scale(0.06 -0.06)">
       <use xlink:href="#DejaVuSans-51"/>
       <use x="63.623047" xlink:href="#DejaVuSans-51"/>
       <use x="127.246094" xlink:href="#DejaVuSans-54"/>
       <use x="190.869141" xlink:href="#DejaVuSans-50"/>
       <use x="254.492188" xlink:href="#DejaVuSans-53"/>
      </g>
     </g>
    </g>
    <g id="xtick_13">
     <g id="line2d_30">
      <g>
       <use style="stroke:#000000;stroke-width:0.8;" x="171.229091" xlink:href="#mb914f4a74d" y="41.472"/>
      </g>
     </g>
     <g id="text_30">
      <!-- 48151 -->
      <g transform="translate(162.117828 33.243145)rotate(-10)scale(0.06 -0.06)">
       <use xlink:href="#DejaVuSans-52"/>
       <use x="63.623047" xlink:href="#DejaVuSans-56"/>
       <use x="127.246094" xlink:href="#DejaVuSans-49"/>
       <use x="190.869141" xlink:href="#DejaVuSans-53"/>
       <use x="254.492188" xlink:href="#DejaVuSans-49"/>
      </g>
     </g>
    </g>
    <g id="xtick_14">
     <g id="line2d_31">
      <g>
       <use style="stroke:#000000;stroke-width:0.8;" x="203.694545" xlink:href="#mb914f4a74d" y="41.472"/>
      </g>
     </g>
     <g id="text_31">
      <!-- 62584 -->
      <g transform="translate(194.583283 33.243145)rotate(-10)scale(0.06 -0.06)">
       <use xlink:href="#DejaVuSans-54"/>
       <use x="63.623047" xlink:href="#DejaVuSans-50"/>
       <use x="127.246094" xlink:href="#DejaVuSans-53"/>
       <use x="190.869141" xlink:href="#DejaVuSans-56"/>
       <use x="254.492188" xlink:href="#DejaVuSans-52"/>
      </g>
     </g>
    </g>
    <g id="xtick_15">
     <g id="line2d_32">
      <g>
       <use style="stroke:#000000;stroke-width:0.8;" x="236.16" xlink:href="#mb914f4a74d" y="41.472"/>
      </g>
     </g>
     <g id="text_32">
      <!-- 76999 -->
      <g transform="translate(227.048737 33.243145)rotate(-10)scale(0.06 -0.06)">
       <use xlink:href="#DejaVuSans-55"/>
       <use x="63.623047" xlink:href="#DejaVuSans-54"/>
       <use x="127.246094" xlink:href="#DejaVuSans-57"/>
       <use x="190.869141" xlink:href="#DejaVuSans-57"/>
       <use x="254.492188" xlink:href="#DejaVuSans-57"/>
      </g>
     </g>
    </g>
    <g id="xtick_16">
     <g id="line2d_33">
      <g>
       <use style="stroke:#000000;stroke-width:0.8;" x="268.625455" xlink:href="#mb914f4a74d" y="41.472"/>
      </g>
     </g>
     <g id="text_33">
      <!-- 91485 -->
      <g transform="translate(259.514192 33.243145)rotate(-10)scale(0.06 -0.06)">
       <use xlink:href="#DejaVuSans-57"/>
       <use x="63.623047" xlink:href="#DejaVuSans-49"/>
       <use x="127.246094" xlink:href="#DejaVuSans-52"/>
       <use x="190.869141" xlink:href="#DejaVuSans-56"/>
       <use x="254.492188" xlink:href="#DejaVuSans-53"/>
      </g>
     </g>
    </g>
    <g id="xtick_17">
     <g id="line2d_34">
      <g>
       <use style="stroke:#000000;stroke-width:0.8;" x="301.090909" xlink:href="#mb914f4a74d" y="41.472"/>
      </g>
     </g>
     <g id="text_34">
      <!-- 105874 -->
      <g transform="translate(290.099895 33.243145)rotate(-10)scale(0.06 -0.06)">
       <use xlink:href="#DejaVuSans-49"/>
       <use x="63.623047" xlink:href="#DejaVuSans-48"/>
       <use x="127.246094" xlink:href="#DejaVuSans-53"/>
       <use x="190.869141" xlink:href="#DejaVuSans-56"/>
       <use x="254.492188" xlink:href="#DejaVuSans-55"/>
       <use x="318.115234" xlink:href="#DejaVuSans-52"/>
      </g>
     </g>
    </g>
    <g id="xtick_18">
     <g id="line2d_35">
      <g>
       <use style="stroke:#000000;stroke-width:0.8;" x="333.556364" xlink:href="#mb914f4a74d" y="41.472"/>
      </g>
     </g>
     <g id="text_35">
      <!-- 120271 -->
      <g transform="translate(322.565349 33.243145)rotate(-10)scale(0.06 -0.06)">
       <use xlink:href="#DejaVuSans-49"/>
       <use x="63.623047" xlink:href="#DejaVuSans-50"/>
       <use x="127.246094" xlink:href="#DejaVuSans-48"/>
       <use x="190.869141" xlink:href="#DejaVuSans-50"/>
       <use x="254.492188" xlink:href="#DejaVuSans-55"/>
       <use x="318.115234" xlink:href="#DejaVuSans-49"/>
      </g>
     </g>
    </g>
    <g id="xtick_19">
     <g id="line2d_36">
      <g>
       <use style="stroke:#000000;stroke-width:0.8;" x="366.021818" xlink:href="#mb914f4a74d" y="41.472"/>
      </g>
     </g>
     <g id="text_36">
      <!-- 134703 -->
      <g transform="translate(355.030804 33.243145)rotate(-10)scale(0.06 -0.06)">
       <use xlink:href="#DejaVuSans-49"/>
       <use x="63.623047" xlink:href="#DejaVuSans-51"/>
       <use x="127.246094" xlink:href="#DejaVuSans-52"/>
       <use x="190.869141" xlink:href="#DejaVuSans-55"/>
       <use x="254.492188" xlink:href="#DejaVuSans-48"/>
       <use x="318.115234" xlink:href="#DejaVuSans-51"/>
      </g>
     </g>
    </g>
    <g id="xtick_20">
     <g id="line2d_37">
      <g>
       <use style="stroke:#000000;stroke-width:0.8;" x="398.487273" xlink:href="#mb914f4a74d" y="41.472"/>
      </g>
     </g>
     <g id="text_37">
      <!-- 149166 -->
      <g transform="translate(387.496258 33.243145)rotate(-10)scale(0.06 -0.06)">
       <use xlink:href="#DejaVuSans-49"/>
       <use x="63.623047" xlink:href="#DejaVuSans-52"/>
       <use x="127.246094" xlink:href="#DejaVuSans-57"/>
       <use x="190.869141" xlink:href="#DejaVuSans-49"/>
       <use x="254.492188" xlink:href="#DejaVuSans-54"/>
       <use x="318.115234" xlink:href="#DejaVuSans-54"/>
      </g>
     </g>
    </g>
    <g id="text_38">
     <!-- # of Fitness Evaluation -->
     <defs>
      <path d="M 9.8125 72.90625 
L 55.90625 72.90625 
L 55.90625 64.59375 
L 19.671875 64.59375 
L 19.671875 43.015625 
L 54.390625 43.015625 
L 54.390625 34.71875 
L 19.671875 34.71875 
L 19.671875 8.296875 
L 56.78125 8.296875 
L 56.78125 0 
L 9.8125 0 
z
" id="DejaVuSans-69"/>
     </defs>
     <g transform="translate(178.327187 20.775933)scale(0.1 -0.1)">
      <use xlink:href="#DejaVuSans-35"/>
      <use x="83.789062" xlink:href="#DejaVuSans-32"/>
      <use x="115.576172" xlink:href="#DejaVuSans-111"/>
      <use x="176.757812" xlink:href="#DejaVuSans-102"/>
      <use x="211.962891" xlink:href="#DejaVuSans-32"/>
      <use x="243.75" xlink:href="#DejaVuSans-70"/>
      <use x="301.160156" xlink:href="#DejaVuSans-105"/>
      <use x="328.943359" xlink:href="#DejaVuSans-116"/>
      <use x="368.152344" xlink:href="#DejaVuSans-110"/>
      <use x="431.53125" xlink:href="#DejaVuSans-101"/>
      <use x="493.054688" xlink:href="#DejaVuSans-115"/>
      <use x="545.154297" xlink:href="#DejaVuSans-115"/>
      <use x="597.253906" xlink:href="#DejaVuSans-32"/>
      <use x="629.041016" xlink:href="#DejaVuSans-69"/>
      <use x="692.224609" xlink:href="#DejaVuSans-118"/>
      <use x="751.404297" xlink:href="#DejaVuSans-97"/>
      <use x="812.683594" xlink:href="#DejaVuSans-108"/>
      <use x="840.466797" xlink:href="#DejaVuSans-117"/>
      <use x="903.845703" xlink:href="#DejaVuSans-97"/>
      <use x="965.125" xlink:href="#DejaVuSans-116"/>
      <use x="1004.333984" xlink:href="#DejaVuSans-105"/>
      <use x="1032.117188" xlink:href="#DejaVuSans-111"/>
      <use x="1093.298828" xlink:href="#DejaVuSans-110"/>
     </g>
    </g>
   </g>
   <g id="line2d_38">
    <path clip-path="url(#padbc62f27c)" d="M 73.832727 295.488 
L 74.644364 288.260301 
L 76.267636 234.689394 
L 77.079273 218.698054 
L 78.702545 174.498777 
L 79.514182 160.823066 
L 80.325818 151.179174 
L 81.137455 145.879397 
L 81.949091 145.879397 
L 82.760727 140.870718 
L 83.572364 139.736739 
L 84.384 137.825739 
L 85.195636 136.878822 
L 86.007273 130.509869 
L 86.818909 126.125494 
L 87.630545 124.267695 
L 89.253818 124.267695 
L 90.065455 123.262699 
L 90.877091 119.440293 
L 91.688727 118.322248 
L 92.500364 116.10508 
L 93.312 115.008603 
L 94.123636 111.229677 
L 94.935273 109.270046 
L 95.746909 108.105359 
L 96.558545 105.633634 
L 97.370182 103.845207 
L 98.181818 103.710298 
L 98.993455 102.703248 
L 102.24 102.703248 
L 103.051636 102.021066 
L 103.863273 99.742426 
L 105.486545 99.64496 
L 107.109818 99.64496 
L 107.921455 98.826335 
L 108.733091 95.476236 
L 110.356364 95.476236 
L 111.168 90.590899 
L 111.979636 88.927813 
L 112.791273 86.461995 
L 113.602909 86.461995 
L 114.414545 86.174986 
L 115.226182 84.370752 
L 116.037818 84.370752 
L 116.849455 83.294521 
L 119.284364 83.294521 
L 120.096 82.33734 
L 120.907636 79.238117 
L 122.530909 79.238117 
L 124.154182 78.476684 
L 124.965818 78.435021 
L 125.777455 78.186355 
L 131.458909 78.186355 
L 132.270545 77.513875 
L 133.082182 75.9511 
L 140.386909 75.9511 
L 141.198545 74.259848 
L 142.010182 74.259848 
L 142.821818 72.797589 
L 146.88 72.797589 
L 147.691636 71.616141 
L 148.503273 71.616141 
L 149.314909 70.248922 
L 150.126545 69.847531 
L 153.373091 69.847531 
L 154.184727 67.858296 
L 161.489455 67.858296 
L 162.301091 67.379481 
L 163.112727 66.723166 
L 165.547636 66.723166 
L 166.359273 65.536787 
L 180.157091 65.536787 
L 180.968727 64.247589 
L 205.317818 64.247589 
L 206.129455 62.227815 
L 213.434182 62.227815 
L 214.245818 60.86949 
L 232.913455 60.86949 
L 233.725091 59.596854 
L 251.581091 59.596854 
L 252.392727 58.816789 
L 254.016 58.816789 
L 254.827636 58.207089 
L 257.262545 58.207089 
L 258.074182 57.85813 
L 263.755636 57.85813 
L 264.567273 57.395301 
L 270.248727 57.395301 
L 271.060364 55.11473 
L 368.456727 55.11473 
L 369.268364 54.193108 
L 396.864 54.193108 
L 397.675636 53.58004 
L 398.487273 53.568 
L 398.487273 53.568 
" style="fill:none;stroke:#1f77b4;stroke-linecap:square;stroke-width:1.5;"/>
   </g>
   <g id="patch_11">
    <path d="M 57.6 307.584 
L 57.6 41.472 
" style="fill:none;stroke:#000000;stroke-linecap:square;stroke-linejoin:miter;stroke-width:0.8;"/>
   </g>
   <g id="patch_12">
    <path d="M 414.72 307.584 
L 414.72 41.472 
" style="fill:none;stroke:#000000;stroke-linecap:square;stroke-linejoin:miter;stroke-width:0.8;"/>
   </g>
   <g id="patch_13">
    <path d="M 57.6 307.584 
L 414.72 307.584 
" style="fill:none;stroke:#000000;stroke-linecap:square;stroke-linejoin:miter;stroke-width:0.8;"/>
   </g>
   <g id="patch_14">
    <path d="M 57.6 41.472 
L 414.72 41.472 
" style="fill:none;stroke:#000000;stroke-linecap:square;stroke-linejoin:miter;stroke-width:0.8;"/>
   </g>
   <g id="legend_1">
    <g id="patch_15">
     <path d="M 309.174688 302.584 
L 407.72 302.584 
Q 409.72 302.584 409.72 300.584 
L 409.72 257.549625 
Q 409.72 255.549625 407.72 255.549625 
L 309.174688 255.549625 
Q 307.174688 255.549625 307.174688 257.549625 
L 307.174688 300.584 
Q 307.174688 302.584 309.174688 302.584 
z
" style="fill:#ffffff;opacity:0.8;stroke:#cccccc;stroke-linejoin:miter;"/>
    </g>
    <g id="line2d_39">
     <path d="M 311.174688 263.648062 
L 331.174688 263.648062 
" style="fill:none;stroke:#1f77b4;stroke-linecap:square;stroke-width:1.5;"/>
    </g>
    <g id="line2d_40"/>
    <g id="text_39">
     <!-- Fitness curve -->
     <g transform="translate(339.174688 267.148062)scale(0.1 -0.1)">
      <use xlink:href="#DejaVuSans-70"/>
      <use x="57.410156" xlink:href="#DejaVuSans-105"/>
      <use x="85.193359" xlink:href="#DejaVuSans-116"/>
      <use x="124.402344" xlink:href="#DejaVuSans-110"/>
      <use x="187.78125" xlink:href="#DejaVuSans-101"/>
      <use x="249.304688" xlink:href="#DejaVuSans-115"/>
      <use x="301.404297" xlink:href="#DejaVuSans-115"/>
      <use x="353.503906" xlink:href="#DejaVuSans-32"/>
      <use x="385.291016" xlink:href="#DejaVuSans-99"/>
      <use x="440.271484" xlink:href="#DejaVuSans-117"/>
      <use x="503.650391" xlink:href="#DejaVuSans-114"/>
      <use x="544.763672" xlink:href="#DejaVuSans-118"/>
      <use x="603.943359" xlink:href="#DejaVuSans-101"/>
     </g>
    </g>
    <g id="line2d_41">
     <path d="M 311.174688 278.326188 
L 331.174688 278.326188 
" style="fill:none;stroke:#ff0000;stroke-linecap:square;stroke-width:1.5;"/>
    </g>
    <g id="line2d_42"/>
    <g id="text_40">
     <!-- 0-HDR -->
     <defs>
      <path d="M 9.8125 72.90625 
L 19.671875 72.90625 
L 19.671875 43.015625 
L 55.515625 43.015625 
L 55.515625 72.90625 
L 65.375 72.90625 
L 65.375 0 
L 55.515625 0 
L 55.515625 34.71875 
L 19.671875 34.71875 
L 19.671875 0 
L 9.8125 0 
z
" id="DejaVuSans-72"/>
      <path d="M 44.390625 34.1875 
Q 47.5625 33.109375 50.5625 29.59375 
Q 53.5625 26.078125 56.59375 19.921875 
L 66.609375 0 
L 56 0 
L 46.6875 18.703125 
Q 43.0625 26.03125 39.671875 28.421875 
Q 36.28125 30.8125 30.421875 30.8125 
L 19.671875 30.8125 
L 19.671875 0 
L 9.8125 0 
L 9.8125 72.90625 
L 32.078125 72.90625 
Q 44.578125 72.90625 50.734375 67.671875 
Q 56.890625 62.453125 56.890625 51.90625 
Q 56.890625 45.015625 53.6875 40.46875 
Q 50.484375 35.9375 44.390625 34.1875 
z
M 19.671875 64.796875 
L 19.671875 38.921875 
L 32.078125 38.921875 
Q 39.203125 38.921875 42.84375 42.21875 
Q 46.484375 45.515625 46.484375 51.90625 
Q 46.484375 58.296875 42.84375 61.546875 
Q 39.203125 64.796875 32.078125 64.796875 
z
" id="DejaVuSans-82"/>
     </defs>
     <g transform="translate(339.174688 281.826188)scale(0.1 -0.1)">
      <use xlink:href="#DejaVuSans-48"/>
      <use x="63.623047" xlink:href="#DejaVuSans-45"/>
      <use x="99.707031" xlink:href="#DejaVuSans-72"/>
      <use x="174.902344" xlink:href="#DejaVuSans-68"/>
      <use x="251.904297" xlink:href="#DejaVuSans-82"/>
     </g>
    </g>
    <g id="line2d_43">
     <path d="M 311.174688 293.004312 
L 331.174688 293.004312 
" style="fill:none;stroke:#800080;stroke-dasharray:5.55,2.4;stroke-dashoffset:0;stroke-width:1.5;"/>
    </g>
    <g id="line2d_44"/>
    <g id="text_41">
     <!-- 1-HDR -->
     <g transform="translate(339.174688 296.504312)scale(0.1 -0.1)">
      <use xlink:href="#DejaVuSans-49"/>
      <use x="63.623047" xlink:href="#DejaVuSans-45"/>
      <use x="99.707031" xlink:href="#DejaVuSans-72"/>
      <use x="174.902344" xlink:href="#DejaVuSans-68"/>
      <use x="251.904297" xlink:href="#DejaVuSans-82"/>
     </g>
    </g>
   </g>
  </g>
 </g>
 <defs>
  <clipPath id="padbc62f27c">
   <rect height="266.112" width="357.12" x="57.6" y="41.472"/>
  </clipPath>
 </defs>
</svg>
