<?xml version="1.0" encoding="utf-8" standalone="no"?>
<!DOCTYPE svg PUBLIC "-//W3C//DTD SVG 1.1//EN"
  "http://www.w3.org/Graphics/SVG/1.1/DTD/svg11.dtd">
<!-- Created with matplotlib (https://matplotlib.org/) -->
<svg height="345.6pt" version="1.1" viewBox="0 0 460.8 345.6" width="460.8pt" xmlns="http://www.w3.org/2000/svg" xmlns:xlink="http://www.w3.org/1999/xlink">
 <defs>
  <style type="text/css">
*{stroke-linecap:butt;stroke-linejoin:round;white-space:pre;}
  </style>
 </defs>
 <g id="figure_1">
  <g id="patch_1">
   <path d="M 0 345.6 
L 460.8 345.6 
L 460.8 0 
L 0 0 
z
" style="fill:#ffffff;"/>
  </g>
  <g id="axes_1">
   <g id="patch_2">
    <path d="M 57.6 307.584 
L 414.72 307.584 
L 414.72 41.472 
L 57.6 41.472 
z
" style="fill:#ffffff;"/>
   </g>
   <g id="matplotlib.axis_1">
    <g id="xtick_1">
     <g id="line2d_1">
      <defs>
       <path d="M 0 0 
L 0 3.5 
" id="mcd42bde7d9" style="stroke:#000000;stroke-width:0.8;"/>
      </defs>
      <g>
       <use style="stroke:#000000;stroke-width:0.8;" x="73.832727" xlink:href="#mcd42bde7d9" y="307.584"/>
      </g>
     </g>
     <g id="text_1">
      <!-- 0 -->
      <defs>
       <path d="M 31.78125 66.40625 
Q 24.171875 66.40625 20.328125 58.90625 
Q 16.5 51.421875 16.5 36.375 
Q 16.5 21.390625 20.328125 13.890625 
Q 24.171875 6.390625 31.78125 6.390625 
Q 39.453125 6.390625 43.28125 13.890625 
Q 47.125 21.390625 47.125 36.375 
Q 47.125 51.421875 43.28125 58.90625 
Q 39.453125 66.40625 31.78125 66.40625 
z
M 31.78125 74.21875 
Q 44.046875 74.21875 50.515625 64.515625 
Q 56.984375 54.828125 56.984375 36.375 
Q 56.984375 17.96875 50.515625 8.265625 
Q 44.046875 -1.421875 31.78125 -1.421875 
Q 19.53125 -1.421875 13.0625 8.265625 
Q 6.59375 17.96875 6.59375 36.375 
Q 6.59375 54.828125 13.0625 64.515625 
Q 19.53125 74.21875 31.78125 74.21875 
z
" id="DejaVuSans-48"/>
      </defs>
      <g transform="translate(70.651477 322.182437)scale(0.1 -0.1)">
       <use xlink:href="#DejaVuSans-48"/>
      </g>
     </g>
    </g>
    <g id="xtick_2">
     <g id="line2d_2">
      <g>
       <use style="stroke:#000000;stroke-width:0.8;" x="145.978182" xlink:href="#mcd42bde7d9" y="307.584"/>
      </g>
     </g>
     <g id="text_2">
      <!-- 50 -->
      <defs>
       <path d="M 10.796875 72.90625 
L 49.515625 72.90625 
L 49.515625 64.59375 
L 19.828125 64.59375 
L 19.828125 46.734375 
Q 21.96875 47.46875 24.109375 47.828125 
Q 26.265625 48.1875 28.421875 48.1875 
Q 40.625 48.1875 47.75 41.5 
Q 54.890625 34.8125 54.890625 23.390625 
Q 54.890625 11.625 47.5625 5.09375 
Q 40.234375 -1.421875 26.90625 -1.421875 
Q 22.3125 -1.421875 17.546875 -0.640625 
Q 12.796875 0.140625 7.71875 1.703125 
L 7.71875 11.625 
Q 12.109375 9.234375 16.796875 8.0625 
Q 21.484375 6.890625 26.703125 6.890625 
Q 35.15625 6.890625 40.078125 11.328125 
Q 45.015625 15.765625 45.015625 23.390625 
Q 45.015625 31 40.078125 35.4375 
Q 35.15625 39.890625 26.703125 39.890625 
Q 22.75 39.890625 18.8125 39.015625 
Q 14.890625 38.140625 10.796875 36.28125 
z
" id="DejaVuSans-53"/>
      </defs>
      <g transform="translate(139.615682 322.182437)scale(0.1 -0.1)">
       <use xlink:href="#DejaVuSans-53"/>
       <use x="63.623047" xlink:href="#DejaVuSans-48"/>
      </g>
     </g>
    </g>
    <g id="xtick_3">
     <g id="line2d_3">
      <g>
       <use style="stroke:#000000;stroke-width:0.8;" x="218.123636" xlink:href="#mcd42bde7d9" y="307.584"/>
      </g>
     </g>
     <g id="text_3">
      <!-- 100 -->
      <defs>
       <path d="M 12.40625 8.296875 
L 28.515625 8.296875 
L 28.515625 63.921875 
L 10.984375 60.40625 
L 10.984375 69.390625 
L 28.421875 72.90625 
L 38.28125 72.90625 
L 38.28125 8.296875 
L 54.390625 8.296875 
L 54.390625 0 
L 12.40625 0 
z
" id="DejaVuSans-49"/>
      </defs>
      <g transform="translate(208.579886 322.182437)scale(0.1 -0.1)">
       <use xlink:href="#DejaVuSans-49"/>
       <use x="63.623047" xlink:href="#DejaVuSans-48"/>
       <use x="127.246094" xlink:href="#DejaVuSans-48"/>
      </g>
     </g>
    </g>
    <g id="xtick_4">
     <g id="line2d_4">
      <g>
       <use style="stroke:#000000;stroke-width:0.8;" x="290.269091" xlink:href="#mcd42bde7d9" y="307.584"/>
      </g>
     </g>
     <g id="text_4">
      <!-- 150 -->
      <g transform="translate(280.725341 322.182437)scale(0.1 -0.1)">
       <use xlink:href="#DejaVuSans-49"/>
       <use x="63.623047" xlink:href="#DejaVuSans-53"/>
       <use x="127.246094" xlink:href="#DejaVuSans-48"/>
      </g>
     </g>
    </g>
    <g id="xtick_5">
     <g id="line2d_5">
      <g>
       <use style="stroke:#000000;stroke-width:0.8;" x="362.414545" xlink:href="#mcd42bde7d9" y="307.584"/>
      </g>
     </g>
     <g id="text_5">
      <!-- 200 -->
      <defs>
       <path d="M 19.1875 8.296875 
L 53.609375 8.296875 
L 53.609375 0 
L 7.328125 0 
L 7.328125 8.296875 
Q 12.9375 14.109375 22.625 23.890625 
Q 32.328125 33.6875 34.8125 36.53125 
Q 39.546875 41.84375 41.421875 45.53125 
Q 43.3125 49.21875 43.3125 52.78125 
Q 43.3125 58.59375 39.234375 62.25 
Q 35.15625 65.921875 28.609375 65.921875 
Q 23.96875 65.921875 18.8125 64.3125 
Q 13.671875 62.703125 7.8125 59.421875 
L 7.8125 69.390625 
Q 13.765625 71.78125 18.9375 73 
Q 24.125 74.21875 28.421875 74.21875 
Q 39.75 74.21875 46.484375 68.546875 
Q 53.21875 62.890625 53.21875 53.421875 
Q 53.21875 48.921875 51.53125 44.890625 
Q 49.859375 40.875 45.40625 35.40625 
Q 44.1875 33.984375 37.640625 27.21875 
Q 31.109375 20.453125 19.1875 8.296875 
z
" id="DejaVuSans-50"/>
      </defs>
      <g transform="translate(352.870795 322.182437)scale(0.1 -0.1)">
       <use xlink:href="#DejaVuSans-50"/>
       <use x="63.623047" xlink:href="#DejaVuSans-48"/>
       <use x="127.246094" xlink:href="#DejaVuSans-48"/>
      </g>
     </g>
    </g>
    <g id="text_6">
     <!-- # of Generation -->
     <defs>
      <path d="M 51.125 44 
L 36.921875 44 
L 32.8125 27.6875 
L 47.125 27.6875 
z
M 43.796875 71.78125 
L 38.71875 51.515625 
L 52.984375 51.515625 
L 58.109375 71.78125 
L 65.921875 71.78125 
L 60.890625 51.515625 
L 76.125 51.515625 
L 76.125 44 
L 58.984375 44 
L 54.984375 27.6875 
L 70.515625 27.6875 
L 70.515625 20.21875 
L 53.078125 20.21875 
L 48 0 
L 40.1875 0 
L 45.21875 20.21875 
L 30.90625 20.21875 
L 25.875 0 
L 18.015625 0 
L 23.09375 20.21875 
L 7.71875 20.21875 
L 7.71875 27.6875 
L 24.90625 27.6875 
L 29 44 
L 13.28125 44 
L 13.28125 51.515625 
L 30.90625 51.515625 
L 35.890625 71.78125 
z
" id="DejaVuSans-35"/>
      <path id="DejaVuSans-32"/>
      <path d="M 30.609375 48.390625 
Q 23.390625 48.390625 19.1875 42.75 
Q 14.984375 37.109375 14.984375 27.296875 
Q 14.984375 17.484375 19.15625 11.84375 
Q 23.34375 6.203125 30.609375 6.203125 
Q 37.796875 6.203125 41.984375 11.859375 
Q 46.1875 17.53125 46.1875 27.296875 
Q 46.1875 37.015625 41.984375 42.703125 
Q 37.796875 48.390625 30.609375 48.390625 
z
M 30.609375 56 
Q 42.328125 56 49.015625 48.375 
Q 55.71875 40.765625 55.71875 27.296875 
Q 55.71875 13.875 49.015625 6.21875 
Q 42.328125 -1.421875 30.609375 -1.421875 
Q 18.84375 -1.421875 12.171875 6.21875 
Q 5.515625 13.875 5.515625 27.296875 
Q 5.515625 40.765625 12.171875 48.375 
Q 18.84375 56 30.609375 56 
z
" id="DejaVuSans-111"/>
      <path d="M 37.109375 75.984375 
L 37.109375 68.5 
L 28.515625 68.5 
Q 23.6875 68.5 21.796875 66.546875 
Q 19.921875 64.59375 19.921875 59.515625 
L 19.921875 54.6875 
L 34.71875 54.6875 
L 34.71875 47.703125 
L 19.921875 47.703125 
L 19.921875 0 
L 10.890625 0 
L 10.890625 47.703125 
L 2.296875 47.703125 
L 2.296875 54.6875 
L 10.890625 54.6875 
L 10.890625 58.5 
Q 10.890625 67.625 15.140625 71.796875 
Q 19.390625 75.984375 28.609375 75.984375 
z
" id="DejaVuSans-102"/>
      <path d="M 59.515625 10.40625 
L 59.515625 29.984375 
L 43.40625 29.984375 
L 43.40625 38.09375 
L 69.28125 38.09375 
L 69.28125 6.78125 
Q 63.578125 2.734375 56.6875 0.65625 
Q 49.8125 -1.421875 42 -1.421875 
Q 24.90625 -1.421875 15.25 8.5625 
Q 5.609375 18.5625 5.609375 36.375 
Q 5.609375 54.25 15.25 64.234375 
Q 24.90625 74.21875 42 74.21875 
Q 49.125 74.21875 55.546875 72.453125 
Q 61.96875 70.703125 67.390625 67.28125 
L 67.390625 56.78125 
Q 61.921875 61.421875 55.765625 63.765625 
Q 49.609375 66.109375 42.828125 66.109375 
Q 29.4375 66.109375 22.71875 58.640625 
Q 16.015625 51.171875 16.015625 36.375 
Q 16.015625 21.625 22.71875 14.15625 
Q 29.4375 6.6875 42.828125 6.6875 
Q 48.046875 6.6875 52.140625 7.59375 
Q 56.25 8.5 59.515625 10.40625 
z
" id="DejaVuSans-71"/>
      <path d="M 56.203125 29.59375 
L 56.203125 25.203125 
L 14.890625 25.203125 
Q 15.484375 15.921875 20.484375 11.0625 
Q 25.484375 6.203125 34.421875 6.203125 
Q 39.59375 6.203125 44.453125 7.46875 
Q 49.3125 8.734375 54.109375 11.28125 
L 54.109375 2.78125 
Q 49.265625 0.734375 44.1875 -0.34375 
Q 39.109375 -1.421875 33.890625 -1.421875 
Q 20.796875 -1.421875 13.15625 6.1875 
Q 5.515625 13.8125 5.515625 26.8125 
Q 5.515625 40.234375 12.765625 48.109375 
Q 20.015625 56 32.328125 56 
Q 43.359375 56 49.78125 48.890625 
Q 56.203125 41.796875 56.203125 29.59375 
z
M 47.21875 32.234375 
Q 47.125 39.59375 43.09375 43.984375 
Q 39.0625 48.390625 32.421875 48.390625 
Q 24.90625 48.390625 20.390625 44.140625 
Q 15.875 39.890625 15.1875 32.171875 
z
" id="DejaVuSans-101"/>
      <path d="M 54.890625 33.015625 
L 54.890625 0 
L 45.90625 0 
L 45.90625 32.71875 
Q 45.90625 40.484375 42.875 44.328125 
Q 39.84375 48.1875 33.796875 48.1875 
Q 26.515625 48.1875 22.3125 43.546875 
Q 18.109375 38.921875 18.109375 30.90625 
L 18.109375 0 
L 9.078125 0 
L 9.078125 54.6875 
L 18.109375 54.6875 
L 18.109375 46.1875 
Q 21.34375 51.125 25.703125 53.5625 
Q 30.078125 56 35.796875 56 
Q 45.21875 56 50.046875 50.171875 
Q 54.890625 44.34375 54.890625 33.015625 
z
" id="DejaVuSans-110"/>
      <path d="M 41.109375 46.296875 
Q 39.59375 47.171875 37.8125 47.578125 
Q 36.03125 48 33.890625 48 
Q 26.265625 48 22.1875 43.046875 
Q 18.109375 38.09375 18.109375 28.8125 
L 18.109375 0 
L 9.078125 0 
L 9.078125 54.6875 
L 18.109375 54.6875 
L 18.109375 46.1875 
Q 20.953125 51.171875 25.484375 53.578125 
Q 30.03125 56 36.53125 56 
Q 37.453125 56 38.578125 55.875 
Q 39.703125 55.765625 41.0625 55.515625 
z
" id="DejaVuSans-114"/>
      <path d="M 34.28125 27.484375 
Q 23.390625 27.484375 19.1875 25 
Q 14.984375 22.515625 14.984375 16.5 
Q 14.984375 11.71875 18.140625 8.90625 
Q 21.296875 6.109375 26.703125 6.109375 
Q 34.1875 6.109375 38.703125 11.40625 
Q 43.21875 16.703125 43.21875 25.484375 
L 43.21875 27.484375 
z
M 52.203125 31.203125 
L 52.203125 0 
L 43.21875 0 
L 43.21875 8.296875 
Q 40.140625 3.328125 35.546875 0.953125 
Q 30.953125 -1.421875 24.3125 -1.421875 
Q 15.921875 -1.421875 10.953125 3.296875 
Q 6 8.015625 6 15.921875 
Q 6 25.140625 12.171875 29.828125 
Q 18.359375 34.515625 30.609375 34.515625 
L 43.21875 34.515625 
L 43.21875 35.40625 
Q 43.21875 41.609375 39.140625 45 
Q 35.0625 48.390625 27.6875 48.390625 
Q 23 48.390625 18.546875 47.265625 
Q 14.109375 46.140625 10.015625 43.890625 
L 10.015625 52.203125 
Q 14.9375 54.109375 19.578125 55.046875 
Q 24.21875 56 28.609375 56 
Q 40.484375 56 46.34375 49.84375 
Q 52.203125 43.703125 52.203125 31.203125 
z
" id="DejaVuSans-97"/>
      <path d="M 18.3125 70.21875 
L 18.3125 54.6875 
L 36.8125 54.6875 
L 36.8125 47.703125 
L 18.3125 47.703125 
L 18.3125 18.015625 
Q 18.3125 11.328125 20.140625 9.421875 
Q 21.96875 7.515625 27.59375 7.515625 
L 36.8125 7.515625 
L 36.8125 0 
L 27.59375 0 
Q 17.1875 0 13.234375 3.875 
Q 9.28125 7.765625 9.28125 18.015625 
L 9.28125 47.703125 
L 2.6875 47.703125 
L 2.6875 54.6875 
L 9.28125 54.6875 
L 9.28125 70.21875 
z
" id="DejaVuSans-116"/>
      <path d="M 9.421875 54.6875 
L 18.40625 54.6875 
L 18.40625 0 
L 9.421875 0 
z
M 9.421875 75.984375 
L 18.40625 75.984375 
L 18.40625 64.59375 
L 9.421875 64.59375 
z
" id="DejaVuSans-105"/>
     </defs>
     <g transform="translate(196.079531 335.860562)scale(0.1 -0.1)">
      <use xlink:href="#DejaVuSans-35"/>
      <use x="83.789062" xlink:href="#DejaVuSans-32"/>
      <use x="115.576172" xlink:href="#DejaVuSans-111"/>
      <use x="176.757812" xlink:href="#DejaVuSans-102"/>
      <use x="211.962891" xlink:href="#DejaVuSans-32"/>
      <use x="243.75" xlink:href="#DejaVuSans-71"/>
      <use x="321.240234" xlink:href="#DejaVuSans-101"/>
      <use x="382.763672" xlink:href="#DejaVuSans-110"/>
      <use x="446.142578" xlink:href="#DejaVuSans-101"/>
      <use x="507.666016" xlink:href="#DejaVuSans-114"/>
      <use x="548.779297" xlink:href="#DejaVuSans-97"/>
      <use x="610.058594" xlink:href="#DejaVuSans-116"/>
      <use x="649.267578" xlink:href="#DejaVuSans-105"/>
      <use x="677.050781" xlink:href="#DejaVuSans-111"/>
      <use x="738.232422" xlink:href="#DejaVuSans-110"/>
     </g>
    </g>
   </g>
   <g id="matplotlib.axis_2">
    <g id="ytick_1">
     <g id="line2d_6">
      <defs>
       <path d="M 0 0 
L -3.5 0 
" id="mb683678acb" style="stroke:#000000;stroke-width:0.8;"/>
      </defs>
      <g>
       <use style="stroke:#000000;stroke-width:0.8;" x="57.6" xlink:href="#mb683678acb" y="282.047716"/>
      </g>
     </g>
     <g id="text_7">
      <!-- 0.005 -->
      <defs>
       <path d="M 10.6875 12.40625 
L 21 12.40625 
L 21 0 
L 10.6875 0 
z
" id="DejaVuSans-46"/>
      </defs>
      <g transform="translate(21.971875 285.846935)scale(0.1 -0.1)">
       <use xlink:href="#DejaVuSans-48"/>
       <use x="63.623047" xlink:href="#DejaVuSans-46"/>
       <use x="95.410156" xlink:href="#DejaVuSans-48"/>
       <use x="159.033203" xlink:href="#DejaVuSans-48"/>
       <use x="222.65625" xlink:href="#DejaVuSans-53"/>
      </g>
     </g>
    </g>
    <g id="ytick_2">
     <g id="line2d_7">
      <g>
       <use style="stroke:#000000;stroke-width:0.8;" x="57.6" xlink:href="#mb683678acb" y="230.181418"/>
      </g>
     </g>
     <g id="text_8">
      <!-- 0.010 -->
      <g transform="translate(21.971875 233.980637)scale(0.1 -0.1)">
       <use xlink:href="#DejaVuSans-48"/>
       <use x="63.623047" xlink:href="#DejaVuSans-46"/>
       <use x="95.410156" xlink:href="#DejaVuSans-48"/>
       <use x="159.033203" xlink:href="#DejaVuSans-49"/>
       <use x="222.65625" xlink:href="#DejaVuSans-48"/>
      </g>
     </g>
    </g>
    <g id="ytick_3">
     <g id="line2d_8">
      <g>
       <use style="stroke:#000000;stroke-width:0.8;" x="57.6" xlink:href="#mb683678acb" y="178.31512"/>
      </g>
     </g>
     <g id="text_9">
      <!-- 0.015 -->
      <g transform="translate(21.971875 182.114338)scale(0.1 -0.1)">
       <use xlink:href="#DejaVuSans-48"/>
       <use x="63.623047" xlink:href="#DejaVuSans-46"/>
       <use x="95.410156" xlink:href="#DejaVuSans-48"/>
       <use x="159.033203" xlink:href="#DejaVuSans-49"/>
       <use x="222.65625" xlink:href="#DejaVuSans-53"/>
      </g>
     </g>
    </g>
    <g id="ytick_4">
     <g id="line2d_9">
      <g>
       <use style="stroke:#000000;stroke-width:0.8;" x="57.6" xlink:href="#mb683678acb" y="126.448822"/>
      </g>
     </g>
     <g id="text_10">
      <!-- 0.020 -->
      <g transform="translate(21.971875 130.24804)scale(0.1 -0.1)">
       <use xlink:href="#DejaVuSans-48"/>
       <use x="63.623047" xlink:href="#DejaVuSans-46"/>
       <use x="95.410156" xlink:href="#DejaVuSans-48"/>
       <use x="159.033203" xlink:href="#DejaVuSans-50"/>
       <use x="222.65625" xlink:href="#DejaVuSans-48"/>
      </g>
     </g>
    </g>
    <g id="ytick_5">
     <g id="line2d_10">
      <g>
       <use style="stroke:#000000;stroke-width:0.8;" x="57.6" xlink:href="#mb683678acb" y="74.582523"/>
      </g>
     </g>
     <g id="text_11">
      <!-- 0.025 -->
      <g transform="translate(21.971875 78.381742)scale(0.1 -0.1)">
       <use xlink:href="#DejaVuSans-48"/>
       <use x="63.623047" xlink:href="#DejaVuSans-46"/>
       <use x="95.410156" xlink:href="#DejaVuSans-48"/>
       <use x="159.033203" xlink:href="#DejaVuSans-50"/>
       <use x="222.65625" xlink:href="#DejaVuSans-53"/>
      </g>
     </g>
    </g>
    <g id="text_12">
     <!-- Fitness Of Best Individual (× 1e-3) -->
     <defs>
      <path d="M 9.8125 72.90625 
L 51.703125 72.90625 
L 51.703125 64.59375 
L 19.671875 64.59375 
L 19.671875 43.109375 
L 48.578125 43.109375 
L 48.578125 34.8125 
L 19.671875 34.8125 
L 19.671875 0 
L 9.8125 0 
z
" id="DejaVuSans-70"/>
      <path d="M 44.28125 53.078125 
L 44.28125 44.578125 
Q 40.484375 46.53125 36.375 47.5 
Q 32.28125 48.484375 27.875 48.484375 
Q 21.1875 48.484375 17.84375 46.4375 
Q 14.5 44.390625 14.5 40.28125 
Q 14.5 37.15625 16.890625 35.375 
Q 19.28125 33.59375 26.515625 31.984375 
L 29.59375 31.296875 
Q 39.15625 29.25 43.1875 25.515625 
Q 47.21875 21.78125 47.21875 15.09375 
Q 47.21875 7.46875 41.1875 3.015625 
Q 35.15625 -1.421875 24.609375 -1.421875 
Q 20.21875 -1.421875 15.453125 -0.5625 
Q 10.6875 0.296875 5.421875 2 
L 5.421875 11.28125 
Q 10.40625 8.6875 15.234375 7.390625 
Q 20.0625 6.109375 24.8125 6.109375 
Q 31.15625 6.109375 34.5625 8.28125 
Q 37.984375 10.453125 37.984375 14.40625 
Q 37.984375 18.0625 35.515625 20.015625 
Q 33.0625 21.96875 24.703125 23.78125 
L 21.578125 24.515625 
Q 13.234375 26.265625 9.515625 29.90625 
Q 5.8125 33.546875 5.8125 39.890625 
Q 5.8125 47.609375 11.28125 51.796875 
Q 16.75 56 26.8125 56 
Q 31.78125 56 36.171875 55.265625 
Q 40.578125 54.546875 44.28125 53.078125 
z
" id="DejaVuSans-115"/>
      <path d="M 39.40625 66.21875 
Q 28.65625 66.21875 22.328125 58.203125 
Q 16.015625 50.203125 16.015625 36.375 
Q 16.015625 22.609375 22.328125 14.59375 
Q 28.65625 6.59375 39.40625 6.59375 
Q 50.140625 6.59375 56.421875 14.59375 
Q 62.703125 22.609375 62.703125 36.375 
Q 62.703125 50.203125 56.421875 58.203125 
Q 50.140625 66.21875 39.40625 66.21875 
z
M 39.40625 74.21875 
Q 54.734375 74.21875 63.90625 63.9375 
Q 73.09375 53.65625 73.09375 36.375 
Q 73.09375 19.140625 63.90625 8.859375 
Q 54.734375 -1.421875 39.40625 -1.421875 
Q 24.03125 -1.421875 14.8125 8.828125 
Q 5.609375 19.09375 5.609375 36.375 
Q 5.609375 53.65625 14.8125 63.9375 
Q 24.03125 74.21875 39.40625 74.21875 
z
" id="DejaVuSans-79"/>
      <path d="M 19.671875 34.8125 
L 19.671875 8.109375 
L 35.5 8.109375 
Q 43.453125 8.109375 47.28125 11.40625 
Q 51.125 14.703125 51.125 21.484375 
Q 51.125 28.328125 47.28125 31.5625 
Q 43.453125 34.8125 35.5 34.8125 
z
M 19.671875 64.796875 
L 19.671875 42.828125 
L 34.28125 42.828125 
Q 41.5 42.828125 45.03125 45.53125 
Q 48.578125 48.25 48.578125 53.8125 
Q 48.578125 59.328125 45.03125 62.0625 
Q 41.5 64.796875 34.28125 64.796875 
z
M 9.8125 72.90625 
L 35.015625 72.90625 
Q 46.296875 72.90625 52.390625 68.21875 
Q 58.5 63.53125 58.5 54.890625 
Q 58.5 48.1875 55.375 44.234375 
Q 52.25 40.28125 46.1875 39.3125 
Q 53.46875 37.75 57.5 32.78125 
Q 61.53125 27.828125 61.53125 20.40625 
Q 61.53125 10.640625 54.890625 5.3125 
Q 48.25 0 35.984375 0 
L 9.8125 0 
z
" id="DejaVuSans-66"/>
      <path d="M 9.8125 72.90625 
L 19.671875 72.90625 
L 19.671875 0 
L 9.8125 0 
z
" id="DejaVuSans-73"/>
      <path d="M 45.40625 46.390625 
L 45.40625 75.984375 
L 54.390625 75.984375 
L 54.390625 0 
L 45.40625 0 
L 45.40625 8.203125 
Q 42.578125 3.328125 38.25 0.953125 
Q 33.9375 -1.421875 27.875 -1.421875 
Q 17.96875 -1.421875 11.734375 6.484375 
Q 5.515625 14.40625 5.515625 27.296875 
Q 5.515625 40.1875 11.734375 48.09375 
Q 17.96875 56 27.875 56 
Q 33.9375 56 38.25 53.625 
Q 42.578125 51.265625 45.40625 46.390625 
z
M 14.796875 27.296875 
Q 14.796875 17.390625 18.875 11.75 
Q 22.953125 6.109375 30.078125 6.109375 
Q 37.203125 6.109375 41.296875 11.75 
Q 45.40625 17.390625 45.40625 27.296875 
Q 45.40625 37.203125 41.296875 42.84375 
Q 37.203125 48.484375 30.078125 48.484375 
Q 22.953125 48.484375 18.875 42.84375 
Q 14.796875 37.203125 14.796875 27.296875 
z
" id="DejaVuSans-100"/>
      <path d="M 2.984375 54.6875 
L 12.5 54.6875 
L 29.59375 8.796875 
L 46.6875 54.6875 
L 56.203125 54.6875 
L 35.6875 0 
L 23.484375 0 
z
" id="DejaVuSans-118"/>
      <path d="M 8.5 21.578125 
L 8.5 54.6875 
L 17.484375 54.6875 
L 17.484375 21.921875 
Q 17.484375 14.15625 20.5 10.265625 
Q 23.53125 6.390625 29.59375 6.390625 
Q 36.859375 6.390625 41.078125 11.03125 
Q 45.3125 15.671875 45.3125 23.6875 
L 45.3125 54.6875 
L 54.296875 54.6875 
L 54.296875 0 
L 45.3125 0 
L 45.3125 8.40625 
Q 42.046875 3.421875 37.71875 1 
Q 33.40625 -1.421875 27.6875 -1.421875 
Q 18.265625 -1.421875 13.375 4.4375 
Q 8.5 10.296875 8.5 21.578125 
z
M 31.109375 56 
z
" id="DejaVuSans-117"/>
      <path d="M 9.421875 75.984375 
L 18.40625 75.984375 
L 18.40625 0 
L 9.421875 0 
z
" id="DejaVuSans-108"/>
      <path d="M 31 75.875 
Q 24.46875 64.65625 21.28125 53.65625 
Q 18.109375 42.671875 18.109375 31.390625 
Q 18.109375 20.125 21.3125 9.0625 
Q 24.515625 -2 31 -13.1875 
L 23.1875 -13.1875 
Q 15.875 -1.703125 12.234375 9.375 
Q 8.59375 20.453125 8.59375 31.390625 
Q 8.59375 42.28125 12.203125 53.3125 
Q 15.828125 64.359375 23.1875 75.875 
z
" id="DejaVuSans-40"/>
      <path d="M 70.125 53.71875 
L 47.796875 31.296875 
L 70.125 8.984375 
L 64.3125 3.078125 
L 41.890625 25.484375 
L 19.484375 3.078125 
L 13.71875 8.984375 
L 35.984375 31.296875 
L 13.71875 53.71875 
L 19.484375 59.625 
L 41.890625 37.203125 
L 64.3125 59.625 
z
" id="DejaVuSans-215"/>
      <path d="M 4.890625 31.390625 
L 31.203125 31.390625 
L 31.203125 23.390625 
L 4.890625 23.390625 
z
" id="DejaVuSans-45"/>
      <path d="M 40.578125 39.3125 
Q 47.65625 37.796875 51.625 33 
Q 55.609375 28.21875 55.609375 21.1875 
Q 55.609375 10.40625 48.1875 4.484375 
Q 40.765625 -1.421875 27.09375 -1.421875 
Q 22.515625 -1.421875 17.65625 -0.515625 
Q 12.796875 0.390625 7.625 2.203125 
L 7.625 11.71875 
Q 11.71875 9.328125 16.59375 8.109375 
Q 21.484375 6.890625 26.8125 6.890625 
Q 36.078125 6.890625 40.9375 10.546875 
Q 45.796875 14.203125 45.796875 21.1875 
Q 45.796875 27.640625 41.28125 31.265625 
Q 36.765625 34.90625 28.71875 34.90625 
L 20.21875 34.90625 
L 20.21875 43.015625 
L 29.109375 43.015625 
Q 36.375 43.015625 40.234375 45.921875 
Q 44.09375 48.828125 44.09375 54.296875 
Q 44.09375 59.90625 40.109375 62.90625 
Q 36.140625 65.921875 28.71875 65.921875 
Q 24.65625 65.921875 20.015625 65.03125 
Q 15.375 64.15625 9.8125 62.3125 
L 9.8125 71.09375 
Q 15.4375 72.65625 20.34375 73.4375 
Q 25.25 74.21875 29.59375 74.21875 
Q 40.828125 74.21875 47.359375 69.109375 
Q 53.90625 64.015625 53.90625 55.328125 
Q 53.90625 49.265625 50.4375 45.09375 
Q 46.96875 40.921875 40.578125 39.3125 
z
" id="DejaVuSans-51"/>
      <path d="M 8.015625 75.875 
L 15.828125 75.875 
Q 23.140625 64.359375 26.78125 53.3125 
Q 30.421875 42.28125 30.421875 31.390625 
Q 30.421875 20.453125 26.78125 9.375 
Q 23.140625 -1.703125 15.828125 -13.1875 
L 8.015625 -13.1875 
Q 14.5 -2 17.703125 9.0625 
Q 20.90625 20.125 20.90625 31.390625 
Q 20.90625 42.671875 17.703125 53.65625 
Q 14.5 64.65625 8.015625 75.875 
z
" id="DejaVuSans-41"/>
     </defs>
     <g transform="translate(15.892187 260.601437)rotate(-90)scale(0.1 -0.1)">
      <use xlink:href="#DejaVuSans-70"/>
      <use x="57.410156" xlink:href="#DejaVuSans-105"/>
      <use x="85.193359" xlink:href="#DejaVuSans-116"/>
      <use x="124.402344" xlink:href="#DejaVuSans-110"/>
      <use x="187.78125" xlink:href="#DejaVuSans-101"/>
      <use x="249.304688" xlink:href="#DejaVuSans-115"/>
      <use x="301.404297" xlink:href="#DejaVuSans-115"/>
      <use x="353.503906" xlink:href="#DejaVuSans-32"/>
      <use x="385.291016" xlink:href="#DejaVuSans-79"/>
      <use x="464.001953" xlink:href="#DejaVuSans-102"/>
      <use x="499.207031" xlink:href="#DejaVuSans-32"/>
      <use x="530.994141" xlink:href="#DejaVuSans-66"/>
      <use x="599.597656" xlink:href="#DejaVuSans-101"/>
      <use x="661.121094" xlink:href="#DejaVuSans-115"/>
      <use x="713.220703" xlink:href="#DejaVuSans-116"/>
      <use x="752.429688" xlink:href="#DejaVuSans-32"/>
      <use x="784.216797" xlink:href="#DejaVuSans-73"/>
      <use x="813.708984" xlink:href="#DejaVuSans-110"/>
      <use x="877.087891" xlink:href="#DejaVuSans-100"/>
      <use x="940.564453" xlink:href="#DejaVuSans-105"/>
      <use x="968.347656" xlink:href="#DejaVuSans-118"/>
      <use x="1027.527344" xlink:href="#DejaVuSans-105"/>
      <use x="1055.310547" xlink:href="#DejaVuSans-100"/>
      <use x="1118.787109" xlink:href="#DejaVuSans-117"/>
      <use x="1182.166016" xlink:href="#DejaVuSans-97"/>
      <use x="1243.445312" xlink:href="#DejaVuSans-108"/>
      <use x="1271.228516" xlink:href="#DejaVuSans-32"/>
      <use x="1303.015625" xlink:href="#DejaVuSans-40"/>
      <use x="1342.029297" xlink:href="#DejaVuSans-215"/>
      <use x="1425.818359" xlink:href="#DejaVuSans-32"/>
      <use x="1457.605469" xlink:href="#DejaVuSans-49"/>
      <use x="1521.228516" xlink:href="#DejaVuSans-101"/>
      <use x="1582.751953" xlink:href="#DejaVuSans-45"/>
      <use x="1618.835938" xlink:href="#DejaVuSans-51"/>
      <use x="1682.458984" xlink:href="#DejaVuSans-41"/>
     </g>
    </g>
   </g>
   <g id="line2d_11">
    <path clip-path="url(#p77ac8e353e)" d="M 73.832727 295.488 
L 75.275636 294.77587 
L 78.161455 290.595004 
L 81.047273 287.70575 
L 82.490182 286.336012 
L 85.376 284.252295 
L 86.818909 283.462803 
L 89.704727 282.436097 
L 91.147636 281.846704 
L 92.590545 281.032058 
L 101.248 277.760496 
L 107.019636 275.900774 
L 109.905455 274.885712 
L 117.12 272.453676 
L 128.663273 268.372992 
L 137.320727 265.083369 
L 145.978182 261.567511 
L 154.635636 257.815015 
L 163.293091 253.816132 
L 170.507636 250.248932 
L 177.722182 246.427366 
L 184.936727 242.350516 
L 192.151273 237.993532 
L 199.365818 233.351324 
L 206.580364 228.403828 
L 212.352 224.205969 
L 218.123636 219.765401 
L 223.895273 215.079153 
L 229.666909 210.135478 
L 235.438545 204.906088 
L 241.210182 199.358077 
L 246.981818 193.53266 
L 252.753455 187.355523 
L 258.525091 180.839146 
L 264.296727 173.952062 
L 268.625455 168.530881 
L 274.397091 160.923872 
L 278.725818 154.988074 
L 284.497455 146.671101 
L 290.269091 137.918902 
L 296.040727 128.81077 
L 303.255273 116.975437 
L 319.127273 90.466181 
L 323.456 83.727807 
L 326.341818 79.520527 
L 330.670545 73.862751 
L 333.556364 70.605858 
L 337.885091 66.34937 
L 339.328 64.97063 
L 342.213818 62.913289 
L 347.985455 60.030498 
L 349.428364 59.48175 
L 350.871273 58.802902 
L 353.757091 57.953595 
L 355.2 57.66646 
L 359.528727 56.01303 
L 360.971636 55.856602 
L 363.857455 55.247243 
L 366.743273 54.921682 
L 368.186182 54.719401 
L 375.400727 54.377489 
L 378.286545 54.330194 
L 385.501091 53.940549 
L 388.386909 53.863403 
L 391.272727 53.789402 
L 395.601455 53.695772 
L 398.487273 53.568 
L 398.487273 53.568 
" style="fill:none;stroke:#1f77b4;stroke-linecap:square;stroke-width:1.5;"/>
   </g>
   <g id="patch_3">
    <path d="M 57.6 307.584 
L 57.6 41.472 
" style="fill:none;stroke:#000000;stroke-linecap:square;stroke-linejoin:miter;stroke-width:0.8;"/>
   </g>
   <g id="patch_4">
    <path d="M 414.72 307.584 
L 414.72 41.472 
" style="fill:none;stroke:#000000;stroke-linecap:square;stroke-linejoin:miter;stroke-width:0.8;"/>
   </g>
   <g id="patch_5">
    <path d="M 57.6 307.584 
L 414.72 307.584 
" style="fill:none;stroke:#000000;stroke-linecap:square;stroke-linejoin:miter;stroke-width:0.8;"/>
   </g>
   <g id="patch_6">
    <path d="M 57.6 41.472 
L 414.72 41.472 
" style="fill:none;stroke:#000000;stroke-linecap:square;stroke-linejoin:miter;stroke-width:0.8;"/>
   </g>
  </g>
  <g id="axes_2">
   <g id="matplotlib.axis_3">
    <g id="ytick_6">
     <g id="line2d_12">
      <defs>
       <path d="M 0 0 
L 3.5 0 
" id="m593ca0f1ed" style="stroke:#000000;stroke-width:0.8;"/>
      </defs>
      <g>
       <use style="stroke:#000000;stroke-width:0.8;" x="414.72" xlink:href="#m593ca0f1ed" y="295.488"/>
      </g>
     </g>
     <g id="text_13">
      <!-- 0.0 -->
      <g transform="translate(421.72 298.527375)scale(0.08 -0.08)">
       <use xlink:href="#DejaVuSans-48"/>
       <use x="63.623047" xlink:href="#DejaVuSans-46"/>
       <use x="95.410156" xlink:href="#DejaVuSans-48"/>
      </g>
     </g>
    </g>
    <g id="ytick_7">
     <g id="line2d_13">
      <g>
       <use style="stroke:#000000;stroke-width:0.8;" x="414.72" xlink:href="#m593ca0f1ed" y="247.104"/>
      </g>
     </g>
     <g id="text_14">
      <!-- 0.2 -->
      <g transform="translate(421.72 250.143375)scale(0.08 -0.08)">
       <use xlink:href="#DejaVuSans-48"/>
       <use x="63.623047" xlink:href="#DejaVuSans-46"/>
       <use x="95.410156" xlink:href="#DejaVuSans-50"/>
      </g>
     </g>
    </g>
    <g id="ytick_8">
     <g id="line2d_14">
      <g>
       <use style="stroke:#000000;stroke-width:0.8;" x="414.72" xlink:href="#m593ca0f1ed" y="198.72"/>
      </g>
     </g>
     <g id="text_15">
      <!-- 0.4 -->
      <defs>
       <path d="M 37.796875 64.3125 
L 12.890625 25.390625 
L 37.796875 25.390625 
z
M 35.203125 72.90625 
L 47.609375 72.90625 
L 47.609375 25.390625 
L 58.015625 25.390625 
L 58.015625 17.1875 
L 47.609375 17.1875 
L 47.609375 0 
L 37.796875 0 
L 37.796875 17.1875 
L 4.890625 17.1875 
L 4.890625 26.703125 
z
" id="DejaVuSans-52"/>
      </defs>
      <g transform="translate(421.72 201.759375)scale(0.08 -0.08)">
       <use xlink:href="#DejaVuSans-48"/>
       <use x="63.623047" xlink:href="#DejaVuSans-46"/>
       <use x="95.410156" xlink:href="#DejaVuSans-52"/>
      </g>
     </g>
    </g>
    <g id="ytick_9">
     <g id="line2d_15">
      <g>
       <use style="stroke:#000000;stroke-width:0.8;" x="414.72" xlink:href="#m593ca0f1ed" y="150.336"/>
      </g>
     </g>
     <g id="text_16">
      <!-- 0.6 -->
      <defs>
       <path d="M 33.015625 40.375 
Q 26.375 40.375 22.484375 35.828125 
Q 18.609375 31.296875 18.609375 23.390625 
Q 18.609375 15.53125 22.484375 10.953125 
Q 26.375 6.390625 33.015625 6.390625 
Q 39.65625 6.390625 43.53125 10.953125 
Q 47.40625 15.53125 47.40625 23.390625 
Q 47.40625 31.296875 43.53125 35.828125 
Q 39.65625 40.375 33.015625 40.375 
z
M 52.59375 71.296875 
L 52.59375 62.3125 
Q 48.875 64.0625 45.09375 64.984375 
Q 41.3125 65.921875 37.59375 65.921875 
Q 27.828125 65.921875 22.671875 59.328125 
Q 17.53125 52.734375 16.796875 39.40625 
Q 19.671875 43.65625 24.015625 45.921875 
Q 28.375 48.1875 33.59375 48.1875 
Q 44.578125 48.1875 50.953125 41.515625 
Q 57.328125 34.859375 57.328125 23.390625 
Q 57.328125 12.15625 50.6875 5.359375 
Q 44.046875 -1.421875 33.015625 -1.421875 
Q 20.359375 -1.421875 13.671875 8.265625 
Q 6.984375 17.96875 6.984375 36.375 
Q 6.984375 53.65625 15.1875 63.9375 
Q 23.390625 74.21875 37.203125 74.21875 
Q 40.921875 74.21875 44.703125 73.484375 
Q 48.484375 72.75 52.59375 71.296875 
z
" id="DejaVuSans-54"/>
      </defs>
      <g transform="translate(421.72 153.375375)scale(0.08 -0.08)">
       <use xlink:href="#DejaVuSans-48"/>
       <use x="63.623047" xlink:href="#DejaVuSans-46"/>
       <use x="95.410156" xlink:href="#DejaVuSans-54"/>
      </g>
     </g>
    </g>
    <g id="ytick_10">
     <g id="line2d_16">
      <g>
       <use style="stroke:#000000;stroke-width:0.8;" x="414.72" xlink:href="#m593ca0f1ed" y="101.952"/>
      </g>
     </g>
     <g id="text_17">
      <!-- 0.8 -->
      <defs>
       <path d="M 31.78125 34.625 
Q 24.75 34.625 20.71875 30.859375 
Q 16.703125 27.09375 16.703125 20.515625 
Q 16.703125 13.921875 20.71875 10.15625 
Q 24.75 6.390625 31.78125 6.390625 
Q 38.8125 6.390625 42.859375 10.171875 
Q 46.921875 13.96875 46.921875 20.515625 
Q 46.921875 27.09375 42.890625 30.859375 
Q 38.875 34.625 31.78125 34.625 
z
M 21.921875 38.8125 
Q 15.578125 40.375 12.03125 44.71875 
Q 8.5 49.078125 8.5 55.328125 
Q 8.5 64.0625 14.71875 69.140625 
Q 20.953125 74.21875 31.78125 74.21875 
Q 42.671875 74.21875 48.875 69.140625 
Q 55.078125 64.0625 55.078125 55.328125 
Q 55.078125 49.078125 51.53125 44.71875 
Q 48 40.375 41.703125 38.8125 
Q 48.828125 37.15625 52.796875 32.3125 
Q 56.78125 27.484375 56.78125 20.515625 
Q 56.78125 9.90625 50.3125 4.234375 
Q 43.84375 -1.421875 31.78125 -1.421875 
Q 19.734375 -1.421875 13.25 4.234375 
Q 6.78125 9.90625 6.78125 20.515625 
Q 6.78125 27.484375 10.78125 32.3125 
Q 14.796875 37.15625 21.921875 38.8125 
z
M 18.3125 54.390625 
Q 18.3125 48.734375 21.84375 45.5625 
Q 25.390625 42.390625 31.78125 42.390625 
Q 38.140625 42.390625 41.71875 45.5625 
Q 45.3125 48.734375 45.3125 54.390625 
Q 45.3125 60.0625 41.71875 63.234375 
Q 38.140625 66.40625 31.78125 66.40625 
Q 25.390625 66.40625 21.84375 63.234375 
Q 18.3125 60.0625 18.3125 54.390625 
z
" id="DejaVuSans-56"/>
      </defs>
      <g transform="translate(421.72 104.991375)scale(0.08 -0.08)">
       <use xlink:href="#DejaVuSans-48"/>
       <use x="63.623047" xlink:href="#DejaVuSans-46"/>
       <use x="95.410156" xlink:href="#DejaVuSans-56"/>
      </g>
     </g>
    </g>
    <g id="ytick_11">
     <g id="line2d_17">
      <g>
       <use style="stroke:#000000;stroke-width:0.8;" x="414.72" xlink:href="#m593ca0f1ed" y="53.568"/>
      </g>
     </g>
     <g id="text_18">
      <!-- 1.0 -->
      <g transform="translate(421.72 56.607375)scale(0.08 -0.08)">
       <use xlink:href="#DejaVuSans-49"/>
       <use x="63.623047" xlink:href="#DejaVuSans-46"/>
       <use x="95.410156" xlink:href="#DejaVuSans-48"/>
      </g>
     </g>
    </g>
    <g id="text_19">
     <!-- Diversity Metric -->
     <defs>
      <path d="M 19.671875 64.796875 
L 19.671875 8.109375 
L 31.59375 8.109375 
Q 46.6875 8.109375 53.6875 14.9375 
Q 60.6875 21.78125 60.6875 36.53125 
Q 60.6875 51.171875 53.6875 57.984375 
Q 46.6875 64.796875 31.59375 64.796875 
z
M 9.8125 72.90625 
L 30.078125 72.90625 
Q 51.265625 72.90625 61.171875 64.09375 
Q 71.09375 55.28125 71.09375 36.53125 
Q 71.09375 17.671875 61.125 8.828125 
Q 51.171875 0 30.078125 0 
L 9.8125 0 
z
" id="DejaVuSans-68"/>
      <path d="M 32.171875 -5.078125 
Q 28.375 -14.84375 24.75 -17.8125 
Q 21.140625 -20.796875 15.09375 -20.796875 
L 7.90625 -20.796875 
L 7.90625 -13.28125 
L 13.1875 -13.28125 
Q 16.890625 -13.28125 18.9375 -11.515625 
Q 21 -9.765625 23.484375 -3.21875 
L 25.09375 0.875 
L 2.984375 54.6875 
L 12.5 54.6875 
L 29.59375 11.921875 
L 46.6875 54.6875 
L 56.203125 54.6875 
z
" id="DejaVuSans-121"/>
      <path d="M 9.8125 72.90625 
L 24.515625 72.90625 
L 43.109375 23.296875 
L 61.8125 72.90625 
L 76.515625 72.90625 
L 76.515625 0 
L 66.890625 0 
L 66.890625 64.015625 
L 48.09375 14.015625 
L 38.1875 14.015625 
L 19.390625 64.015625 
L 19.390625 0 
L 9.8125 0 
z
" id="DejaVuSans-77"/>
      <path d="M 48.78125 52.59375 
L 48.78125 44.1875 
Q 44.96875 46.296875 41.140625 47.34375 
Q 37.3125 48.390625 33.40625 48.390625 
Q 24.65625 48.390625 19.8125 42.84375 
Q 14.984375 37.3125 14.984375 27.296875 
Q 14.984375 17.28125 19.8125 11.734375 
Q 24.65625 6.203125 33.40625 6.203125 
Q 37.3125 6.203125 41.140625 7.25 
Q 44.96875 8.296875 48.78125 10.40625 
L 48.78125 2.09375 
Q 45.015625 0.34375 40.984375 -0.53125 
Q 36.96875 -1.421875 32.421875 -1.421875 
Q 20.0625 -1.421875 12.78125 6.34375 
Q 5.515625 14.109375 5.515625 27.296875 
Q 5.515625 40.671875 12.859375 48.328125 
Q 20.21875 56 33.015625 56 
Q 37.15625 56 41.109375 55.140625 
Q 45.0625 54.296875 48.78125 52.59375 
z
" id="DejaVuSans-99"/>
     </defs>
     <g transform="translate(446.040938 213.905344)rotate(-90)scale(0.1 -0.1)">
      <use xlink:href="#DejaVuSans-68"/>
      <use x="77.001953" xlink:href="#DejaVuSans-105"/>
      <use x="104.785156" xlink:href="#DejaVuSans-118"/>
      <use x="163.964844" xlink:href="#DejaVuSans-101"/>
      <use x="225.488281" xlink:href="#DejaVuSans-114"/>
      <use x="266.601562" xlink:href="#DejaVuSans-115"/>
      <use x="318.701172" xlink:href="#DejaVuSans-105"/>
      <use x="346.484375" xlink:href="#DejaVuSans-116"/>
      <use x="385.693359" xlink:href="#DejaVuSans-121"/>
      <use x="444.873047" xlink:href="#DejaVuSans-32"/>
      <use x="476.660156" xlink:href="#DejaVuSans-77"/>
      <use x="562.939453" xlink:href="#DejaVuSans-101"/>
      <use x="624.462891" xlink:href="#DejaVuSans-116"/>
      <use x="663.671875" xlink:href="#DejaVuSans-114"/>
      <use x="704.785156" xlink:href="#DejaVuSans-105"/>
      <use x="732.568359" xlink:href="#DejaVuSans-99"/>
     </g>
    </g>
   </g>
   <g id="line2d_18">
    <path clip-path="url(#p77ac8e353e)" d="M 73.832727 53.568 
L 82.490182 53.568 
L 83.933091 69.8976 
L 85.376 63.8496 
L 86.818909 79.69536 
L 88.261818 83.2032 
L 89.704727 87.79968 
L 91.147636 80.784 
L 92.590545 64.69632 
L 94.033455 86.95296 
L 95.476364 82.71936 
L 96.919273 84.17088 
L 98.362182 80.54208 
L 99.805091 84.4128 
L 101.248 84.4128 
L 102.690909 84.53376 
L 104.133818 82.35648 
L 105.576727 79.45344 
L 107.019636 77.51808 
L 108.462545 79.69536 
L 109.905455 84.77568 
L 111.348364 81.26784 
L 112.791273 76.06656 
L 114.234182 75.58272 
L 117.12 74.01024 
L 118.562909 82.84032 
L 120.005818 79.45344 
L 121.448727 77.76 
L 122.891636 77.39712 
L 124.334545 74.85696 
L 125.777455 78.48576 
L 127.220364 78.12288 
L 128.663273 79.5744 
L 131.549091 73.04256 
L 132.992 73.16352 
L 134.434909 73.5264 
L 135.877818 76.18752 
L 137.320727 76.42944 
L 138.763636 75.9456 
L 140.206545 75.70368 
L 141.649455 74.736 
L 143.092364 74.61504 
L 144.535273 74.85696 
L 145.978182 75.46176 
L 147.421091 74.01024 
L 148.864 74.37312 
L 150.306909 75.46176 
L 151.749818 74.49408 
L 153.192727 74.61504 
L 154.635636 75.21984 
L 156.078545 76.67136 
L 157.521455 77.63904 
L 158.964364 81.75168 
L 160.407273 78.12288 
L 161.850182 78.12288 
L 163.293091 75.09888 
L 164.736 75.9456 
L 166.178909 78.84864 
L 167.621818 78.9696 
L 169.064727 76.06656 
L 170.507636 75.21984 
L 173.393455 72.43776 
L 174.836364 74.25216 
L 176.279273 74.25216 
L 177.722182 73.88928 
L 179.165091 74.1312 
L 180.608 72.9216 
L 182.050909 75.21984 
L 183.493818 76.5504 
L 184.936727 78.3648 
L 187.822545 74.61504 
L 189.265455 74.61504 
L 190.708364 73.40544 
L 192.151273 73.16352 
L 193.594182 74.736 
L 195.037091 73.88928 
L 196.48 76.5504 
L 197.922909 76.42944 
L 199.365818 73.76832 
L 200.808727 72.67968 
L 202.251636 74.61504 
L 203.694545 74.1312 
L 205.137455 75.21984 
L 206.580364 75.70368 
L 208.023273 79.21152 
L 209.466182 79.21152 
L 210.909091 76.30848 
L 212.352 74.01024 
L 213.794909 73.64736 
L 215.237818 74.25216 
L 216.680727 73.64736 
L 218.123636 74.25216 
L 219.566545 73.64736 
L 221.009455 74.736 
L 222.452364 73.40544 
L 223.895273 74.61504 
L 225.338182 76.18752 
L 226.781091 78.72768 
L 228.224 77.1552 
L 229.666909 76.79232 
L 231.109818 76.91328 
L 232.552727 74.736 
L 233.995636 75.82464 
L 236.881455 73.28448 
L 238.324364 72.07488 
L 239.767273 70.38144 
L 241.210182 71.712 
L 242.653091 74.97792 
L 245.538909 79.45344 
L 246.981818 76.91328 
L 248.424727 73.76832 
L 249.867636 73.16352 
L 251.310545 74.97792 
L 252.753455 75.09888 
L 254.196364 75.58272 
L 255.639273 77.88096 
L 257.082182 75.70368 
L 258.525091 74.736 
L 259.968 73.16352 
L 261.410909 73.04256 
L 262.853818 71.712 
L 264.296727 72.80064 
L 265.739636 75.21984 
L 267.182545 75.9456 
L 268.625455 73.40544 
L 270.068364 72.19584 
L 271.511273 71.22816 
L 272.954182 70.01856 
L 274.397091 71.34912 
L 275.84 74.85696 
L 277.282909 75.09888 
L 278.725818 73.64736 
L 280.168727 72.55872 
L 281.611636 74.01024 
L 283.054545 73.64736 
L 284.497455 72.3168 
L 285.940364 74.97792 
L 287.383273 74.61504 
L 288.826182 74.736 
L 290.269091 73.76832 
L 291.712 73.16352 
L 293.154909 74.85696 
L 294.597818 75.46176 
L 296.040727 72.3168 
L 297.483636 72.80064 
L 298.926545 72.07488 
L 300.369455 73.04256 
L 301.812364 71.1072 
L 303.255273 70.98624 
L 304.698182 68.688 
L 306.141091 68.56704 
L 307.584 69.8976 
L 309.026909 68.80896 
L 310.469818 69.17184 
L 311.912727 69.05088 
L 313.355636 69.8976 
L 314.798545 67.96224 
L 316.241455 67.96224 
L 317.684364 66.75264 
L 319.127273 67.96224 
L 320.570182 67.23648 
L 322.013091 68.32512 
L 323.456 68.80896 
L 324.898909 69.8976 
L 326.341818 72.9216 
L 327.784727 73.64736 
L 329.227636 72.19584 
L 330.670545 73.04256 
L 332.113455 72.55872 
L 333.556364 75.58272 
L 334.999273 74.01024 
L 336.442182 76.42944 
L 337.885091 81.9936 
L 339.328 83.32416 
L 340.770909 82.5984 
L 342.213818 87.4368 
L 343.656727 89.2512 
L 345.099636 93.72672 
L 346.542545 100.01664 
L 347.985455 104.3712 
L 349.428364 103.88736 
L 350.871273 105.82272 
L 352.314182 111.26592 
L 353.757091 111.14496 
L 356.642909 124.9344 
L 358.085818 121.78944 
L 359.528727 120.53952 
L 360.971636 114.33024 
L 362.414545 124.28928 
L 363.857455 124.200576 
L 365.300364 122.47488 
L 366.743273 124.8624 
L 368.186182 129.079296 
L 369.629091 126.588864 
L 371.072 133.748352 
L 372.514909 135.71246 
L 373.957818 138.30048 
L 375.400727 140.649777 
L 376.843636 136.620864 
L 378.286545 141.374863 
L 379.729455 137.165904 
L 381.172364 137.920913 
L 382.615273 133.705658 
L 384.058182 132.096503 
L 385.501091 133.613741 
L 386.944 130.74539 
L 388.386909 130.5491 
L 389.829818 131.873737 
L 391.272727 132.730729 
L 392.715636 131.385068 
L 394.158545 131.984871 
L 395.601455 130.111529 
L 397.044364 130.366041 
L 398.487273 128.658021 
L 398.487273 128.658021 
" style="fill:none;stroke:#ff0000;stroke-linecap:square;stroke-width:1.5;"/>
   </g>
   <g id="line2d_19">
    <path clip-path="url(#p77ac8e353e)" d="M 73.832727 295.488 
L 319.127273 295.488 
L 320.570182 295.36704 
L 322.013091 294.39936 
L 323.456 293.6736 
L 324.898909 290.0448 
L 326.341818 285.8112 
L 327.784727 284.35968 
L 329.227636 281.94048 
L 330.670545 281.09376 
L 332.113455 272.74752 
L 333.556364 261.25632 
L 334.999273 256.176 
L 336.442182 254.3616 
L 337.885091 249.28128 
L 339.328 251.45856 
L 340.770909 249.16032 
L 342.213818 233.55648 
L 343.656727 230.1696 
L 345.099636 212.6304 
L 346.542545 203.5584 
L 347.985455 201.62304 
L 349.428364 197.99424 
L 350.871273 200.89728 
L 352.314182 191.09952 
L 353.757091 197.26848 
L 355.2 174.89088 
L 356.642909 163.15776 
L 358.085818 164.48832 
L 359.528727 175.3344 
L 360.971636 176.10048 
L 362.414545 159.08544 
L 363.857455 143.96544 
L 365.300364 154.60992 
L 366.743273 133.30368 
L 368.186182 129.143808 
L 369.629091 124.041984 
L 371.072 115.41888 
L 372.514909 112.11442 
L 373.957818 99.31104 
L 375.400727 95.604849 
L 376.843636 96.272352 
L 378.286545 82.992847 
L 379.729455 89.05728 
L 381.172364 83.407943 
L 382.615273 90.832451 
L 384.058182 93.297193 
L 385.501091 85.446297 
L 386.944 84.286128 
L 388.386909 79.794176 
L 389.829818 75.668151 
L 391.272727 73.26722 
L 392.715636 76.970741 
L 394.158545 72.640835 
L 395.601455 72.88811 
L 397.044364 71.728931 
L 398.487273 72.364472 
L 398.487273 72.364472 
" style="fill:none;stroke:#800080;stroke-dasharray:5.55,2.4;stroke-dashoffset:0;stroke-width:1.5;"/>
    <defs>
     <path d="M 0 -3 
L -2.85317 -0.927051 
L -1.763356 2.427051 
L 1.763356 2.427051 
L 2.85317 -0.927051 
z
" id="m1a04e99145" style="stroke:#800080;stroke-linejoin:miter;"/>
    </defs>
    <g clip-path="url(#p77ac8e353e)">
     <use style="fill:#800080;stroke:#800080;stroke-linejoin:miter;" x="73.832727" xlink:href="#m1a04e99145" y="295.488"/>
     <use style="fill:#800080;stroke:#800080;stroke-linejoin:miter;" x="75.275636" xlink:href="#m1a04e99145" y="295.488"/>
     <use style="fill:#800080;stroke:#800080;stroke-linejoin:miter;" x="76.718545" xlink:href="#m1a04e99145" y="295.488"/>
     <use style="fill:#800080;stroke:#800080;stroke-linejoin:miter;" x="78.161455" xlink:href="#m1a04e99145" y="295.488"/>
     <use style="fill:#800080;stroke:#800080;stroke-linejoin:miter;" x="79.604364" xlink:href="#m1a04e99145" y="295.488"/>
     <use style="fill:#800080;stroke:#800080;stroke-linejoin:miter;" x="81.047273" xlink:href="#m1a04e99145" y="295.488"/>
     <use style="fill:#800080;stroke:#800080;stroke-linejoin:miter;" x="82.490182" xlink:href="#m1a04e99145" y="295.488"/>
     <use style="fill:#800080;stroke:#800080;stroke-linejoin:miter;" x="83.933091" xlink:href="#m1a04e99145" y="295.488"/>
     <use style="fill:#800080;stroke:#800080;stroke-linejoin:miter;" x="85.376" xlink:href="#m1a04e99145" y="295.488"/>
     <use style="fill:#800080;stroke:#800080;stroke-linejoin:miter;" x="86.818909" xlink:href="#m1a04e99145" y="295.488"/>
     <use style="fill:#800080;stroke:#800080;stroke-linejoin:miter;" x="88.261818" xlink:href="#m1a04e99145" y="295.488"/>
     <use style="fill:#800080;stroke:#800080;stroke-linejoin:miter;" x="89.704727" xlink:href="#m1a04e99145" y="295.488"/>
     <use style="fill:#800080;stroke:#800080;stroke-linejoin:miter;" x="91.147636" xlink:href="#m1a04e99145" y="295.488"/>
     <use style="fill:#800080;stroke:#800080;stroke-linejoin:miter;" x="92.590545" xlink:href="#m1a04e99145" y="295.488"/>
     <use style="fill:#800080;stroke:#800080;stroke-linejoin:miter;" x="94.033455" xlink:href="#m1a04e99145" y="295.488"/>
     <use style="fill:#800080;stroke:#800080;stroke-linejoin:miter;" x="95.476364" xlink:href="#m1a04e99145" y="295.488"/>
     <use style="fill:#800080;stroke:#800080;stroke-linejoin:miter;" x="96.919273" xlink:href="#m1a04e99145" y="295.488"/>
     <use style="fill:#800080;stroke:#800080;stroke-linejoin:miter;" x="98.362182" xlink:href="#m1a04e99145" y="295.488"/>
     <use style="fill:#800080;stroke:#800080;stroke-linejoin:miter;" x="99.805091" xlink:href="#m1a04e99145" y="295.488"/>
     <use style="fill:#800080;stroke:#800080;stroke-linejoin:miter;" x="101.248" xlink:href="#m1a04e99145" y="295.488"/>
     <use style="fill:#800080;stroke:#800080;stroke-linejoin:miter;" x="102.690909" xlink:href="#m1a04e99145" y="295.488"/>
     <use style="fill:#800080;stroke:#800080;stroke-linejoin:miter;" x="104.133818" xlink:href="#m1a04e99145" y="295.488"/>
     <use style="fill:#800080;stroke:#800080;stroke-linejoin:miter;" x="105.576727" xlink:href="#m1a04e99145" y="295.488"/>
     <use style="fill:#800080;stroke:#800080;stroke-linejoin:miter;" x="107.019636" xlink:href="#m1a04e99145" y="295.488"/>
     <use style="fill:#800080;stroke:#800080;stroke-linejoin:miter;" x="108.462545" xlink:href="#m1a04e99145" y="295.488"/>
     <use style="fill:#800080;stroke:#800080;stroke-linejoin:miter;" x="109.905455" xlink:href="#m1a04e99145" y="295.488"/>
     <use style="fill:#800080;stroke:#800080;stroke-linejoin:miter;" x="111.348364" xlink:href="#m1a04e99145" y="295.488"/>
     <use style="fill:#800080;stroke:#800080;stroke-linejoin:miter;" x="112.791273" xlink:href="#m1a04e99145" y="295.488"/>
     <use style="fill:#800080;stroke:#800080;stroke-linejoin:miter;" x="114.234182" xlink:href="#m1a04e99145" y="295.488"/>
     <use style="fill:#800080;stroke:#800080;stroke-linejoin:miter;" x="115.677091" xlink:href="#m1a04e99145" y="295.488"/>
     <use style="fill:#800080;stroke:#800080;stroke-linejoin:miter;" x="117.12" xlink:href="#m1a04e99145" y="295.488"/>
     <use style="fill:#800080;stroke:#800080;stroke-linejoin:miter;" x="118.562909" xlink:href="#m1a04e99145" y="295.488"/>
     <use style="fill:#800080;stroke:#800080;stroke-linejoin:miter;" x="120.005818" xlink:href="#m1a04e99145" y="295.488"/>
     <use style="fill:#800080;stroke:#800080;stroke-linejoin:miter;" x="121.448727" xlink:href="#m1a04e99145" y="295.488"/>
     <use style="fill:#800080;stroke:#800080;stroke-linejoin:miter;" x="122.891636" xlink:href="#m1a04e99145" y="295.488"/>
     <use style="fill:#800080;stroke:#800080;stroke-linejoin:miter;" x="124.334545" xlink:href="#m1a04e99145" y="295.488"/>
     <use style="fill:#800080;stroke:#800080;stroke-linejoin:miter;" x="125.777455" xlink:href="#m1a04e99145" y="295.488"/>
     <use style="fill:#800080;stroke:#800080;stroke-linejoin:miter;" x="127.220364" xlink:href="#m1a04e99145" y="295.488"/>
     <use style="fill:#800080;stroke:#800080;stroke-linejoin:miter;" x="128.663273" xlink:href="#m1a04e99145" y="295.488"/>
     <use style="fill:#800080;stroke:#800080;stroke-linejoin:miter;" x="130.106182" xlink:href="#m1a04e99145" y="295.488"/>
     <use style="fill:#800080;stroke:#800080;stroke-linejoin:miter;" x="131.549091" xlink:href="#m1a04e99145" y="295.488"/>
     <use style="fill:#800080;stroke:#800080;stroke-linejoin:miter;" x="132.992" xlink:href="#m1a04e99145" y="295.488"/>
     <use style="fill:#800080;stroke:#800080;stroke-linejoin:miter;" x="134.434909" xlink:href="#m1a04e99145" y="295.488"/>
     <use style="fill:#800080;stroke:#800080;stroke-linejoin:miter;" x="135.877818" xlink:href="#m1a04e99145" y="295.488"/>
     <use style="fill:#800080;stroke:#800080;stroke-linejoin:miter;" x="137.320727" xlink:href="#m1a04e99145" y="295.488"/>
     <use style="fill:#800080;stroke:#800080;stroke-linejoin:miter;" x="138.763636" xlink:href="#m1a04e99145" y="295.488"/>
     <use style="fill:#800080;stroke:#800080;stroke-linejoin:miter;" x="140.206545" xlink:href="#m1a04e99145" y="295.488"/>
     <use style="fill:#800080;stroke:#800080;stroke-linejoin:miter;" x="141.649455" xlink:href="#m1a04e99145" y="295.488"/>
     <use style="fill:#800080;stroke:#800080;stroke-linejoin:miter;" x="143.092364" xlink:href="#m1a04e99145" y="295.488"/>
     <use style="fill:#800080;stroke:#800080;stroke-linejoin:miter;" x="144.535273" xlink:href="#m1a04e99145" y="295.488"/>
     <use style="fill:#800080;stroke:#800080;stroke-linejoin:miter;" x="145.978182" xlink:href="#m1a04e99145" y="295.488"/>
     <use style="fill:#800080;stroke:#800080;stroke-linejoin:miter;" x="147.421091" xlink:href="#m1a04e99145" y="295.488"/>
     <use style="fill:#800080;stroke:#800080;stroke-linejoin:miter;" x="148.864" xlink:href="#m1a04e99145" y="295.488"/>
     <use style="fill:#800080;stroke:#800080;stroke-linejoin:miter;" x="150.306909" xlink:href="#m1a04e99145" y="295.488"/>
     <use style="fill:#800080;stroke:#800080;stroke-linejoin:miter;" x="151.749818" xlink:href="#m1a04e99145" y="295.488"/>
     <use style="fill:#800080;stroke:#800080;stroke-linejoin:miter;" x="153.192727" xlink:href="#m1a04e99145" y="295.488"/>
     <use style="fill:#800080;stroke:#800080;stroke-linejoin:miter;" x="154.635636" xlink:href="#m1a04e99145" y="295.488"/>
     <use style="fill:#800080;stroke:#800080;stroke-linejoin:miter;" x="156.078545" xlink:href="#m1a04e99145" y="295.488"/>
     <use style="fill:#800080;stroke:#800080;stroke-linejoin:miter;" x="157.521455" xlink:href="#m1a04e99145" y="295.488"/>
     <use style="fill:#800080;stroke:#800080;stroke-linejoin:miter;" x="158.964364" xlink:href="#m1a04e99145" y="295.488"/>
     <use style="fill:#800080;stroke:#800080;stroke-linejoin:miter;" x="160.407273" xlink:href="#m1a04e99145" y="295.488"/>
     <use style="fill:#800080;stroke:#800080;stroke-linejoin:miter;" x="161.850182" xlink:href="#m1a04e99145" y="295.488"/>
     <use style="fill:#800080;stroke:#800080;stroke-linejoin:miter;" x="163.293091" xlink:href="#m1a04e99145" y="295.488"/>
     <use style="fill:#800080;stroke:#800080;stroke-linejoin:miter;" x="164.736" xlink:href="#m1a04e99145" y="295.488"/>
     <use style="fill:#800080;stroke:#800080;stroke-linejoin:miter;" x="166.178909" xlink:href="#m1a04e99145" y="295.488"/>
     <use style="fill:#800080;stroke:#800080;stroke-linejoin:miter;" x="167.621818" xlink:href="#m1a04e99145" y="295.488"/>
     <use style="fill:#800080;stroke:#800080;stroke-linejoin:miter;" x="169.064727" xlink:href="#m1a04e99145" y="295.488"/>
     <use style="fill:#800080;stroke:#800080;stroke-linejoin:miter;" x="170.507636" xlink:href="#m1a04e99145" y="295.488"/>
     <use style="fill:#800080;stroke:#800080;stroke-linejoin:miter;" x="171.950545" xlink:href="#m1a04e99145" y="295.488"/>
     <use style="fill:#800080;stroke:#800080;stroke-linejoin:miter;" x="173.393455" xlink:href="#m1a04e99145" y="295.488"/>
     <use style="fill:#800080;stroke:#800080;stroke-linejoin:miter;" x="174.836364" xlink:href="#m1a04e99145" y="295.488"/>
     <use style="fill:#800080;stroke:#800080;stroke-linejoin:miter;" x="176.279273" xlink:href="#m1a04e99145" y="295.488"/>
     <use style="fill:#800080;stroke:#800080;stroke-linejoin:miter;" x="177.722182" xlink:href="#m1a04e99145" y="295.488"/>
     <use style="fill:#800080;stroke:#800080;stroke-linejoin:miter;" x="179.165091" xlink:href="#m1a04e99145" y="295.488"/>
     <use style="fill:#800080;stroke:#800080;stroke-linejoin:miter;" x="180.608" xlink:href="#m1a04e99145" y="295.488"/>
     <use style="fill:#800080;stroke:#800080;stroke-linejoin:miter;" x="182.050909" xlink:href="#m1a04e99145" y="295.488"/>
     <use style="fill:#800080;stroke:#800080;stroke-linejoin:miter;" x="183.493818" xlink:href="#m1a04e99145" y="295.488"/>
     <use style="fill:#800080;stroke:#800080;stroke-linejoin:miter;" x="184.936727" xlink:href="#m1a04e99145" y="295.488"/>
     <use style="fill:#800080;stroke:#800080;stroke-linejoin:miter;" x="186.379636" xlink:href="#m1a04e99145" y="295.488"/>
     <use style="fill:#800080;stroke:#800080;stroke-linejoin:miter;" x="187.822545" xlink:href="#m1a04e99145" y="295.488"/>
     <use style="fill:#800080;stroke:#800080;stroke-linejoin:miter;" x="189.265455" xlink:href="#m1a04e99145" y="295.488"/>
     <use style="fill:#800080;stroke:#800080;stroke-linejoin:miter;" x="190.708364" xlink:href="#m1a04e99145" y="295.488"/>
     <use style="fill:#800080;stroke:#800080;stroke-linejoin:miter;" x="192.151273" xlink:href="#m1a04e99145" y="295.488"/>
     <use style="fill:#800080;stroke:#800080;stroke-linejoin:miter;" x="193.594182" xlink:href="#m1a04e99145" y="295.488"/>
     <use style="fill:#800080;stroke:#800080;stroke-linejoin:miter;" x="195.037091" xlink:href="#m1a04e99145" y="295.488"/>
     <use style="fill:#800080;stroke:#800080;stroke-linejoin:miter;" x="196.48" xlink:href="#m1a04e99145" y="295.488"/>
     <use style="fill:#800080;stroke:#800080;stroke-linejoin:miter;" x="197.922909" xlink:href="#m1a04e99145" y="295.488"/>
     <use style="fill:#800080;stroke:#800080;stroke-linejoin:miter;" x="199.365818" xlink:href="#m1a04e99145" y="295.488"/>
     <use style="fill:#800080;stroke:#800080;stroke-linejoin:miter;" x="200.808727" xlink:href="#m1a04e99145" y="295.488"/>
     <use style="fill:#800080;stroke:#800080;stroke-linejoin:miter;" x="202.251636" xlink:href="#m1a04e99145" y="295.488"/>
     <use style="fill:#800080;stroke:#800080;stroke-linejoin:miter;" x="203.694545" xlink:href="#m1a04e99145" y="295.488"/>
     <use style="fill:#800080;stroke:#800080;stroke-linejoin:miter;" x="205.137455" xlink:href="#m1a04e99145" y="295.488"/>
     <use style="fill:#800080;stroke:#800080;stroke-linejoin:miter;" x="206.580364" xlink:href="#m1a04e99145" y="295.488"/>
     <use style="fill:#800080;stroke:#800080;stroke-linejoin:miter;" x="208.023273" xlink:href="#m1a04e99145" y="295.488"/>
     <use style="fill:#800080;stroke:#800080;stroke-linejoin:miter;" x="209.466182" xlink:href="#m1a04e99145" y="295.488"/>
     <use style="fill:#800080;stroke:#800080;stroke-linejoin:miter;" x="210.909091" xlink:href="#m1a04e99145" y="295.488"/>
     <use style="fill:#800080;stroke:#800080;stroke-linejoin:miter;" x="212.352" xlink:href="#m1a04e99145" y="295.488"/>
     <use style="fill:#800080;stroke:#800080;stroke-linejoin:miter;" x="213.794909" xlink:href="#m1a04e99145" y="295.488"/>
     <use style="fill:#800080;stroke:#800080;stroke-linejoin:miter;" x="215.237818" xlink:href="#m1a04e99145" y="295.488"/>
     <use style="fill:#800080;stroke:#800080;stroke-linejoin:miter;" x="216.680727" xlink:href="#m1a04e99145" y="295.488"/>
     <use style="fill:#800080;stroke:#800080;stroke-linejoin:miter;" x="218.123636" xlink:href="#m1a04e99145" y="295.488"/>
     <use style="fill:#800080;stroke:#800080;stroke-linejoin:miter;" x="219.566545" xlink:href="#m1a04e99145" y="295.488"/>
     <use style="fill:#800080;stroke:#800080;stroke-linejoin:miter;" x="221.009455" xlink:href="#m1a04e99145" y="295.488"/>
     <use style="fill:#800080;stroke:#800080;stroke-linejoin:miter;" x="222.452364" xlink:href="#m1a04e99145" y="295.488"/>
     <use style="fill:#800080;stroke:#800080;stroke-linejoin:miter;" x="223.895273" xlink:href="#m1a04e99145" y="295.488"/>
     <use style="fill:#800080;stroke:#800080;stroke-linejoin:miter;" x="225.338182" xlink:href="#m1a04e99145" y="295.488"/>
     <use style="fill:#800080;stroke:#800080;stroke-linejoin:miter;" x="226.781091" xlink:href="#m1a04e99145" y="295.488"/>
     <use style="fill:#800080;stroke:#800080;stroke-linejoin:miter;" x="228.224" xlink:href="#m1a04e99145" y="295.488"/>
     <use style="fill:#800080;stroke:#800080;stroke-linejoin:miter;" x="229.666909" xlink:href="#m1a04e99145" y="295.488"/>
     <use style="fill:#800080;stroke:#800080;stroke-linejoin:miter;" x="231.109818" xlink:href="#m1a04e99145" y="295.488"/>
     <use style="fill:#800080;stroke:#800080;stroke-linejoin:miter;" x="232.552727" xlink:href="#m1a04e99145" y="295.488"/>
     <use style="fill:#800080;stroke:#800080;stroke-linejoin:miter;" x="233.995636" xlink:href="#m1a04e99145" y="295.488"/>
     <use style="fill:#800080;stroke:#800080;stroke-linejoin:miter;" x="235.438545" xlink:href="#m1a04e99145" y="295.488"/>
     <use style="fill:#800080;stroke:#800080;stroke-linejoin:miter;" x="236.881455" xlink:href="#m1a04e99145" y="295.488"/>
     <use style="fill:#800080;stroke:#800080;stroke-linejoin:miter;" x="238.324364" xlink:href="#m1a04e99145" y="295.488"/>
     <use style="fill:#800080;stroke:#800080;stroke-linejoin:miter;" x="239.767273" xlink:href="#m1a04e99145" y="295.488"/>
     <use style="fill:#800080;stroke:#800080;stroke-linejoin:miter;" x="241.210182" xlink:href="#m1a04e99145" y="295.488"/>
     <use style="fill:#800080;stroke:#800080;stroke-linejoin:miter;" x="242.653091" xlink:href="#m1a04e99145" y="295.488"/>
     <use style="fill:#800080;stroke:#800080;stroke-linejoin:miter;" x="244.096" xlink:href="#m1a04e99145" y="295.488"/>
     <use style="fill:#800080;stroke:#800080;stroke-linejoin:miter;" x="245.538909" xlink:href="#m1a04e99145" y="295.488"/>
     <use style="fill:#800080;stroke:#800080;stroke-linejoin:miter;" x="246.981818" xlink:href="#m1a04e99145" y="295.488"/>
     <use style="fill:#800080;stroke:#800080;stroke-linejoin:miter;" x="248.424727" xlink:href="#m1a04e99145" y="295.488"/>
     <use style="fill:#800080;stroke:#800080;stroke-linejoin:miter;" x="249.867636" xlink:href="#m1a04e99145" y="295.488"/>
     <use style="fill:#800080;stroke:#800080;stroke-linejoin:miter;" x="251.310545" xlink:href="#m1a04e99145" y="295.488"/>
     <use style="fill:#800080;stroke:#800080;stroke-linejoin:miter;" x="252.753455" xlink:href="#m1a04e99145" y="295.488"/>
     <use style="fill:#800080;stroke:#800080;stroke-linejoin:miter;" x="254.196364" xlink:href="#m1a04e99145" y="295.488"/>
     <use style="fill:#800080;stroke:#800080;stroke-linejoin:miter;" x="255.639273" xlink:href="#m1a04e99145" y="295.488"/>
     <use style="fill:#800080;stroke:#800080;stroke-linejoin:miter;" x="257.082182" xlink:href="#m1a04e99145" y="295.488"/>
     <use style="fill:#800080;stroke:#800080;stroke-linejoin:miter;" x="258.525091" xlink:href="#m1a04e99145" y="295.488"/>
     <use style="fill:#800080;stroke:#800080;stroke-linejoin:miter;" x="259.968" xlink:href="#m1a04e99145" y="295.488"/>
     <use style="fill:#800080;stroke:#800080;stroke-linejoin:miter;" x="261.410909" xlink:href="#m1a04e99145" y="295.488"/>
     <use style="fill:#800080;stroke:#800080;stroke-linejoin:miter;" x="262.853818" xlink:href="#m1a04e99145" y="295.488"/>
     <use style="fill:#800080;stroke:#800080;stroke-linejoin:miter;" x="264.296727" xlink:href="#m1a04e99145" y="295.488"/>
     <use style="fill:#800080;stroke:#800080;stroke-linejoin:miter;" x="265.739636" xlink:href="#m1a04e99145" y="295.488"/>
     <use style="fill:#800080;stroke:#800080;stroke-linejoin:miter;" x="267.182545" xlink:href="#m1a04e99145" y="295.488"/>
     <use style="fill:#800080;stroke:#800080;stroke-linejoin:miter;" x="268.625455" xlink:href="#m1a04e99145" y="295.488"/>
     <use style="fill:#800080;stroke:#800080;stroke-linejoin:miter;" x="270.068364" xlink:href="#m1a04e99145" y="295.488"/>
     <use style="fill:#800080;stroke:#800080;stroke-linejoin:miter;" x="271.511273" xlink:href="#m1a04e99145" y="295.488"/>
     <use style="fill:#800080;stroke:#800080;stroke-linejoin:miter;" x="272.954182" xlink:href="#m1a04e99145" y="295.488"/>
     <use style="fill:#800080;stroke:#800080;stroke-linejoin:miter;" x="274.397091" xlink:href="#m1a04e99145" y="295.488"/>
     <use style="fill:#800080;stroke:#800080;stroke-linejoin:miter;" x="275.84" xlink:href="#m1a04e99145" y="295.488"/>
     <use style="fill:#800080;stroke:#800080;stroke-linejoin:miter;" x="277.282909" xlink:href="#m1a04e99145" y="295.488"/>
     <use style="fill:#800080;stroke:#800080;stroke-linejoin:miter;" x="278.725818" xlink:href="#m1a04e99145" y="295.488"/>
     <use style="fill:#800080;stroke:#800080;stroke-linejoin:miter;" x="280.168727" xlink:href="#m1a04e99145" y="295.488"/>
     <use style="fill:#800080;stroke:#800080;stroke-linejoin:miter;" x="281.611636" xlink:href="#m1a04e99145" y="295.488"/>
     <use style="fill:#800080;stroke:#800080;stroke-linejoin:miter;" x="283.054545" xlink:href="#m1a04e99145" y="295.488"/>
     <use style="fill:#800080;stroke:#800080;stroke-linejoin:miter;" x="284.497455" xlink:href="#m1a04e99145" y="295.488"/>
     <use style="fill:#800080;stroke:#800080;stroke-linejoin:miter;" x="285.940364" xlink:href="#m1a04e99145" y="295.488"/>
     <use style="fill:#800080;stroke:#800080;stroke-linejoin:miter;" x="287.383273" xlink:href="#m1a04e99145" y="295.488"/>
     <use style="fill:#800080;stroke:#800080;stroke-linejoin:miter;" x="288.826182" xlink:href="#m1a04e99145" y="295.488"/>
     <use style="fill:#800080;stroke:#800080;stroke-linejoin:miter;" x="290.269091" xlink:href="#m1a04e99145" y="295.488"/>
     <use style="fill:#800080;stroke:#800080;stroke-linejoin:miter;" x="291.712" xlink:href="#m1a04e99145" y="295.488"/>
     <use style="fill:#800080;stroke:#800080;stroke-linejoin:miter;" x="293.154909" xlink:href="#m1a04e99145" y="295.488"/>
     <use style="fill:#800080;stroke:#800080;stroke-linejoin:miter;" x="294.597818" xlink:href="#m1a04e99145" y="295.488"/>
     <use style="fill:#800080;stroke:#800080;stroke-linejoin:miter;" x="296.040727" xlink:href="#m1a04e99145" y="295.488"/>
     <use style="fill:#800080;stroke:#800080;stroke-linejoin:miter;" x="297.483636" xlink:href="#m1a04e99145" y="295.488"/>
     <use style="fill:#800080;stroke:#800080;stroke-linejoin:miter;" x="298.926545" xlink:href="#m1a04e99145" y="295.488"/>
     <use style="fill:#800080;stroke:#800080;stroke-linejoin:miter;" x="300.369455" xlink:href="#m1a04e99145" y="295.488"/>
     <use style="fill:#800080;stroke:#800080;stroke-linejoin:miter;" x="301.812364" xlink:href="#m1a04e99145" y="295.488"/>
     <use style="fill:#800080;stroke:#800080;stroke-linejoin:miter;" x="303.255273" xlink:href="#m1a04e99145" y="295.488"/>
     <use style="fill:#800080;stroke:#800080;stroke-linejoin:miter;" x="304.698182" xlink:href="#m1a04e99145" y="295.488"/>
     <use style="fill:#800080;stroke:#800080;stroke-linejoin:miter;" x="306.141091" xlink:href="#m1a04e99145" y="295.488"/>
     <use style="fill:#800080;stroke:#800080;stroke-linejoin:miter;" x="307.584" xlink:href="#m1a04e99145" y="295.488"/>
     <use style="fill:#800080;stroke:#800080;stroke-linejoin:miter;" x="309.026909" xlink:href="#m1a04e99145" y="295.488"/>
     <use style="fill:#800080;stroke:#800080;stroke-linejoin:miter;" x="310.469818" xlink:href="#m1a04e99145" y="295.488"/>
     <use style="fill:#800080;stroke:#800080;stroke-linejoin:miter;" x="311.912727" xlink:href="#m1a04e99145" y="295.488"/>
     <use style="fill:#800080;stroke:#800080;stroke-linejoin:miter;" x="313.355636" xlink:href="#m1a04e99145" y="295.488"/>
     <use style="fill:#800080;stroke:#800080;stroke-linejoin:miter;" x="314.798545" xlink:href="#m1a04e99145" y="295.488"/>
     <use style="fill:#800080;stroke:#800080;stroke-linejoin:miter;" x="316.241455" xlink:href="#m1a04e99145" y="295.488"/>
     <use style="fill:#800080;stroke:#800080;stroke-linejoin:miter;" x="317.684364" xlink:href="#m1a04e99145" y="295.488"/>
     <use style="fill:#800080;stroke:#800080;stroke-linejoin:miter;" x="319.127273" xlink:href="#m1a04e99145" y="295.488"/>
     <use style="fill:#800080;stroke:#800080;stroke-linejoin:miter;" x="320.570182" xlink:href="#m1a04e99145" y="295.36704"/>
     <use style="fill:#800080;stroke:#800080;stroke-linejoin:miter;" x="322.013091" xlink:href="#m1a04e99145" y="294.39936"/>
     <use style="fill:#800080;stroke:#800080;stroke-linejoin:miter;" x="323.456" xlink:href="#m1a04e99145" y="293.6736"/>
     <use style="fill:#800080;stroke:#800080;stroke-linejoin:miter;" x="324.898909" xlink:href="#m1a04e99145" y="290.0448"/>
     <use style="fill:#800080;stroke:#800080;stroke-linejoin:miter;" x="326.341818" xlink:href="#m1a04e99145" y="285.8112"/>
     <use style="fill:#800080;stroke:#800080;stroke-linejoin:miter;" x="327.784727" xlink:href="#m1a04e99145" y="284.35968"/>
     <use style="fill:#800080;stroke:#800080;stroke-linejoin:miter;" x="329.227636" xlink:href="#m1a04e99145" y="281.94048"/>
     <use style="fill:#800080;stroke:#800080;stroke-linejoin:miter;" x="330.670545" xlink:href="#m1a04e99145" y="281.09376"/>
     <use style="fill:#800080;stroke:#800080;stroke-linejoin:miter;" x="332.113455" xlink:href="#m1a04e99145" y="272.74752"/>
     <use style="fill:#800080;stroke:#800080;stroke-linejoin:miter;" x="333.556364" xlink:href="#m1a04e99145" y="261.25632"/>
     <use style="fill:#800080;stroke:#800080;stroke-linejoin:miter;" x="334.999273" xlink:href="#m1a04e99145" y="256.176"/>
     <use style="fill:#800080;stroke:#800080;stroke-linejoin:miter;" x="336.442182" xlink:href="#m1a04e99145" y="254.3616"/>
     <use style="fill:#800080;stroke:#800080;stroke-linejoin:miter;" x="337.885091" xlink:href="#m1a04e99145" y="249.28128"/>
     <use style="fill:#800080;stroke:#800080;stroke-linejoin:miter;" x="339.328" xlink:href="#m1a04e99145" y="251.45856"/>
     <use style="fill:#800080;stroke:#800080;stroke-linejoin:miter;" x="340.770909" xlink:href="#m1a04e99145" y="249.16032"/>
     <use style="fill:#800080;stroke:#800080;stroke-linejoin:miter;" x="342.213818" xlink:href="#m1a04e99145" y="233.55648"/>
     <use style="fill:#800080;stroke:#800080;stroke-linejoin:miter;" x="343.656727" xlink:href="#m1a04e99145" y="230.1696"/>
     <use style="fill:#800080;stroke:#800080;stroke-linejoin:miter;" x="345.099636" xlink:href="#m1a04e99145" y="212.6304"/>
     <use style="fill:#800080;stroke:#800080;stroke-linejoin:miter;" x="346.542545" xlink:href="#m1a04e99145" y="203.5584"/>
     <use style="fill:#800080;stroke:#800080;stroke-linejoin:miter;" x="347.985455" xlink:href="#m1a04e99145" y="201.62304"/>
     <use style="fill:#800080;stroke:#800080;stroke-linejoin:miter;" x="349.428364" xlink:href="#m1a04e99145" y="197.99424"/>
     <use style="fill:#800080;stroke:#800080;stroke-linejoin:miter;" x="350.871273" xlink:href="#m1a04e99145" y="200.89728"/>
     <use style="fill:#800080;stroke:#800080;stroke-linejoin:miter;" x="352.314182" xlink:href="#m1a04e99145" y="191.09952"/>
     <use style="fill:#800080;stroke:#800080;stroke-linejoin:miter;" x="353.757091" xlink:href="#m1a04e99145" y="197.26848"/>
     <use style="fill:#800080;stroke:#800080;stroke-linejoin:miter;" x="355.2" xlink:href="#m1a04e99145" y="174.89088"/>
     <use style="fill:#800080;stroke:#800080;stroke-linejoin:miter;" x="356.642909" xlink:href="#m1a04e99145" y="163.15776"/>
     <use style="fill:#800080;stroke:#800080;stroke-linejoin:miter;" x="358.085818" xlink:href="#m1a04e99145" y="164.48832"/>
     <use style="fill:#800080;stroke:#800080;stroke-linejoin:miter;" x="359.528727" xlink:href="#m1a04e99145" y="175.3344"/>
     <use style="fill:#800080;stroke:#800080;stroke-linejoin:miter;" x="360.971636" xlink:href="#m1a04e99145" y="176.10048"/>
     <use style="fill:#800080;stroke:#800080;stroke-linejoin:miter;" x="362.414545" xlink:href="#m1a04e99145" y="159.08544"/>
     <use style="fill:#800080;stroke:#800080;stroke-linejoin:miter;" x="363.857455" xlink:href="#m1a04e99145" y="143.96544"/>
     <use style="fill:#800080;stroke:#800080;stroke-linejoin:miter;" x="365.300364" xlink:href="#m1a04e99145" y="154.60992"/>
     <use style="fill:#800080;stroke:#800080;stroke-linejoin:miter;" x="366.743273" xlink:href="#m1a04e99145" y="133.30368"/>
     <use style="fill:#800080;stroke:#800080;stroke-linejoin:miter;" x="368.186182" xlink:href="#m1a04e99145" y="129.143808"/>
     <use style="fill:#800080;stroke:#800080;stroke-linejoin:miter;" x="369.629091" xlink:href="#m1a04e99145" y="124.041984"/>
     <use style="fill:#800080;stroke:#800080;stroke-linejoin:miter;" x="371.072" xlink:href="#m1a04e99145" y="115.41888"/>
     <use style="fill:#800080;stroke:#800080;stroke-linejoin:miter;" x="372.514909" xlink:href="#m1a04e99145" y="112.11442"/>
     <use style="fill:#800080;stroke:#800080;stroke-linejoin:miter;" x="373.957818" xlink:href="#m1a04e99145" y="99.31104"/>
     <use style="fill:#800080;stroke:#800080;stroke-linejoin:miter;" x="375.400727" xlink:href="#m1a04e99145" y="95.604849"/>
     <use style="fill:#800080;stroke:#800080;stroke-linejoin:miter;" x="376.843636" xlink:href="#m1a04e99145" y="96.272352"/>
     <use style="fill:#800080;stroke:#800080;stroke-linejoin:miter;" x="378.286545" xlink:href="#m1a04e99145" y="82.992847"/>
     <use style="fill:#800080;stroke:#800080;stroke-linejoin:miter;" x="379.729455" xlink:href="#m1a04e99145" y="89.05728"/>
     <use style="fill:#800080;stroke:#800080;stroke-linejoin:miter;" x="381.172364" xlink:href="#m1a04e99145" y="83.407943"/>
     <use style="fill:#800080;stroke:#800080;stroke-linejoin:miter;" x="382.615273" xlink:href="#m1a04e99145" y="90.832451"/>
     <use style="fill:#800080;stroke:#800080;stroke-linejoin:miter;" x="384.058182" xlink:href="#m1a04e99145" y="93.297193"/>
     <use style="fill:#800080;stroke:#800080;stroke-linejoin:miter;" x="385.501091" xlink:href="#m1a04e99145" y="85.446297"/>
     <use style="fill:#800080;stroke:#800080;stroke-linejoin:miter;" x="386.944" xlink:href="#m1a04e99145" y="84.286128"/>
     <use style="fill:#800080;stroke:#800080;stroke-linejoin:miter;" x="388.386909" xlink:href="#m1a04e99145" y="79.794176"/>
     <use style="fill:#800080;stroke:#800080;stroke-linejoin:miter;" x="389.829818" xlink:href="#m1a04e99145" y="75.668151"/>
     <use style="fill:#800080;stroke:#800080;stroke-linejoin:miter;" x="391.272727" xlink:href="#m1a04e99145" y="73.26722"/>
     <use style="fill:#800080;stroke:#800080;stroke-linejoin:miter;" x="392.715636" xlink:href="#m1a04e99145" y="76.970741"/>
     <use style="fill:#800080;stroke:#800080;stroke-linejoin:miter;" x="394.158545" xlink:href="#m1a04e99145" y="72.640835"/>
     <use style="fill:#800080;stroke:#800080;stroke-linejoin:miter;" x="395.601455" xlink:href="#m1a04e99145" y="72.88811"/>
     <use style="fill:#800080;stroke:#800080;stroke-linejoin:miter;" x="397.044364" xlink:href="#m1a04e99145" y="71.728931"/>
     <use style="fill:#800080;stroke:#800080;stroke-linejoin:miter;" x="398.487273" xlink:href="#m1a04e99145" y="72.364472"/>
    </g>
   </g>
   <g id="patch_7">
    <path d="M 57.6 307.584 
L 57.6 41.472 
" style="fill:none;stroke:#000000;stroke-linecap:square;stroke-linejoin:miter;stroke-width:0.8;"/>
   </g>
   <g id="patch_8">
    <path d="M 414.72 307.584 
L 414.72 41.472 
" style="fill:none;stroke:#000000;stroke-linecap:square;stroke-linejoin:miter;stroke-width:0.8;"/>
   </g>
   <g id="patch_9">
    <path d="M 57.6 307.584 
L 414.72 307.584 
" style="fill:none;stroke:#000000;stroke-linecap:square;stroke-linejoin:miter;stroke-width:0.8;"/>
   </g>
   <g id="patch_10">
    <path d="M 57.6 41.472 
L 414.72 41.472 
" style="fill:none;stroke:#000000;stroke-linecap:square;stroke-linejoin:miter;stroke-width:0.8;"/>
   </g>
  </g>
  <g id="axes_3">
   <g id="matplotlib.axis_4">
    <g id="xtick_6">
     <g id="line2d_20">
      <defs>
       <path d="M 0 0 
L 0 -3.5 
" id="mecdb63bc82" style="stroke:#000000;stroke-width:0.8;"/>
      </defs>
      <g>
       <use style="stroke:#000000;stroke-width:0.8;" x="73.832727" xlink:href="#mecdb63bc82" y="41.472"/>
      </g>
     </g>
     <g id="text_20">
      <!-- 200 -->
      <g transform="translate(68.480968 33.243145)rotate(-10)scale(0.06 -0.06)">
       <use xlink:href="#DejaVuSans-50"/>
       <use x="63.623047" xlink:href="#DejaVuSans-48"/>
       <use x="127.246094" xlink:href="#DejaVuSans-48"/>
      </g>
     </g>
    </g>
    <g id="xtick_7">
     <g id="line2d_21">
      <g>
       <use style="stroke:#000000;stroke-width:0.8;" x="106.298182" xlink:href="#mecdb63bc82" y="41.472"/>
      </g>
     </g>
     <g id="text_21">
      <!-- 136600 -->
      <g transform="translate(95.307167 33.243145)rotate(-10)scale(0.06 -0.06)">
       <use xlink:href="#DejaVuSans-49"/>
       <use x="63.623047" xlink:href="#DejaVuSans-51"/>
       <use x="127.246094" xlink:href="#DejaVuSans-54"/>
       <use x="190.869141" xlink:href="#DejaVuSans-54"/>
       <use x="254.492188" xlink:href="#DejaVuSans-48"/>
       <use x="318.115234" xlink:href="#DejaVuSans-48"/>
      </g>
     </g>
    </g>
    <g id="xtick_8">
     <g id="line2d_22">
      <g>
       <use style="stroke:#000000;stroke-width:0.8;" x="138.763636" xlink:href="#mecdb63bc82" y="41.472"/>
      </g>
     </g>
     <g id="text_22">
      <!-- 279200 -->
      <defs>
       <path d="M 8.203125 72.90625 
L 55.078125 72.90625 
L 55.078125 68.703125 
L 28.609375 0 
L 18.3125 0 
L 43.21875 64.59375 
L 8.203125 64.59375 
z
" id="DejaVuSans-55"/>
       <path d="M 10.984375 1.515625 
L 10.984375 10.5 
Q 14.703125 8.734375 18.5 7.8125 
Q 22.3125 6.890625 25.984375 6.890625 
Q 35.75 6.890625 40.890625 13.453125 
Q 46.046875 20.015625 46.78125 33.40625 
Q 43.953125 29.203125 39.59375 26.953125 
Q 35.25 24.703125 29.984375 24.703125 
Q 19.046875 24.703125 12.671875 31.3125 
Q 6.296875 37.9375 6.296875 49.421875 
Q 6.296875 60.640625 12.9375 67.421875 
Q 19.578125 74.21875 30.609375 74.21875 
Q 43.265625 74.21875 49.921875 64.515625 
Q 56.59375 54.828125 56.59375 36.375 
Q 56.59375 19.140625 48.40625 8.859375 
Q 40.234375 -1.421875 26.421875 -1.421875 
Q 22.703125 -1.421875 18.890625 -0.6875 
Q 15.09375 0.046875 10.984375 1.515625 
z
M 30.609375 32.421875 
Q 37.25 32.421875 41.125 36.953125 
Q 45.015625 41.5 45.015625 49.421875 
Q 45.015625 57.28125 41.125 61.84375 
Q 37.25 66.40625 30.609375 66.40625 
Q 23.96875 66.40625 20.09375 61.84375 
Q 16.21875 57.28125 16.21875 49.421875 
Q 16.21875 41.5 20.09375 36.953125 
Q 23.96875 32.421875 30.609375 32.421875 
z
" id="DejaVuSans-57"/>
      </defs>
      <g transform="translate(127.772622 33.243145)rotate(-10)scale(0.06 -0.06)">
       <use xlink:href="#DejaVuSans-50"/>
       <use x="63.623047" xlink:href="#DejaVuSans-55"/>
       <use x="127.246094" xlink:href="#DejaVuSans-57"/>
       <use x="190.869141" xlink:href="#DejaVuSans-50"/>
       <use x="254.492188" xlink:href="#DejaVuSans-48"/>
       <use x="318.115234" xlink:href="#DejaVuSans-48"/>
      </g>
     </g>
    </g>
    <g id="xtick_9">
     <g id="line2d_23">
      <g>
       <use style="stroke:#000000;stroke-width:0.8;" x="171.229091" xlink:href="#mecdb63bc82" y="41.472"/>
      </g>
     </g>
     <g id="text_23">
      <!-- 415600 -->
      <g transform="translate(160.238076 33.243145)rotate(-10)scale(0.06 -0.06)">
       <use xlink:href="#DejaVuSans-52"/>
       <use x="63.623047" xlink:href="#DejaVuSans-49"/>
       <use x="127.246094" xlink:href="#DejaVuSans-53"/>
       <use x="190.869141" xlink:href="#DejaVuSans-54"/>
       <use x="254.492188" xlink:href="#DejaVuSans-48"/>
       <use x="318.115234" xlink:href="#DejaVuSans-48"/>
      </g>
     </g>
    </g>
    <g id="xtick_10">
     <g id="line2d_24">
      <g>
       <use style="stroke:#000000;stroke-width:0.8;" x="203.694545" xlink:href="#mecdb63bc82" y="41.472"/>
      </g>
     </g>
     <g id="text_24">
      <!-- 558200 -->
      <g transform="translate(192.703531 33.243145)rotate(-10)scale(0.06 -0.06)">
       <use xlink:href="#DejaVuSans-53"/>
       <use x="63.623047" xlink:href="#DejaVuSans-53"/>
       <use x="127.246094" xlink:href="#DejaVuSans-56"/>
       <use x="190.869141" xlink:href="#DejaVuSans-50"/>
       <use x="254.492188" xlink:href="#DejaVuSans-48"/>
       <use x="318.115234" xlink:href="#DejaVuSans-48"/>
      </g>
     </g>
    </g>
    <g id="xtick_11">
     <g id="line2d_25">
      <g>
       <use style="stroke:#000000;stroke-width:0.8;" x="236.16" xlink:href="#mecdb63bc82" y="41.472"/>
      </g>
     </g>
     <g id="text_25">
      <!-- 694600 -->
      <g transform="translate(225.168985 33.243145)rotate(-10)scale(0.06 -0.06)">
       <use xlink:href="#DejaVuSans-54"/>
       <use x="63.623047" xlink:href="#DejaVuSans-57"/>
       <use x="127.246094" xlink:href="#DejaVuSans-52"/>
       <use x="190.869141" xlink:href="#DejaVuSans-54"/>
       <use x="254.492188" xlink:href="#DejaVuSans-48"/>
       <use x="318.115234" xlink:href="#DejaVuSans-48"/>
      </g>
     </g>
    </g>
    <g id="xtick_12">
     <g id="line2d_26">
      <g>
       <use style="stroke:#000000;stroke-width:0.8;" x="268.625455" xlink:href="#mecdb63bc82" y="41.472"/>
      </g>
     </g>
     <g id="text_26">
      <!-- 837200 -->
      <g transform="translate(257.63444 33.243145)rotate(-10)scale(0.06 -0.06)">
       <use xlink:href="#DejaVuSans-56"/>
       <use x="63.623047" xlink:href="#DejaVuSans-51"/>
       <use x="127.246094" xlink:href="#DejaVuSans-55"/>
       <use x="190.869141" xlink:href="#DejaVuSans-50"/>
       <use x="254.492188" xlink:href="#DejaVuSans-48"/>
       <use x="318.115234" xlink:href="#DejaVuSans-48"/>
      </g>
     </g>
    </g>
    <g id="xtick_13">
     <g id="line2d_27">
      <g>
       <use style="stroke:#000000;stroke-width:0.8;" x="301.090909" xlink:href="#mecdb63bc82" y="41.472"/>
      </g>
     </g>
     <g id="text_27">
      <!-- 973600 -->
      <g transform="translate(290.099895 33.243145)rotate(-10)scale(0.06 -0.06)">
       <use xlink:href="#DejaVuSans-57"/>
       <use x="63.623047" xlink:href="#DejaVuSans-55"/>
       <use x="127.246094" xlink:href="#DejaVuSans-51"/>
       <use x="190.869141" xlink:href="#DejaVuSans-54"/>
       <use x="254.492188" xlink:href="#DejaVuSans-48"/>
       <use x="318.115234" xlink:href="#DejaVuSans-48"/>
      </g>
     </g>
    </g>
    <g id="xtick_14">
     <g id="line2d_28">
      <g>
       <use style="stroke:#000000;stroke-width:0.8;" x="333.556364" xlink:href="#mecdb63bc82" y="41.472"/>
      </g>
     </g>
     <g id="text_28">
      <!-- 1116200 -->
      <g transform="translate(320.685597 33.243145)rotate(-10)scale(0.06 -0.06)">
       <use xlink:href="#DejaVuSans-49"/>
       <use x="63.623047" xlink:href="#DejaVuSans-49"/>
       <use x="127.246094" xlink:href="#DejaVuSans-49"/>
       <use x="190.869141" xlink:href="#DejaVuSans-54"/>
       <use x="254.492188" xlink:href="#DejaVuSans-50"/>
       <use x="318.115234" xlink:href="#DejaVuSans-48"/>
       <use x="381.738281" xlink:href="#DejaVuSans-48"/>
      </g>
     </g>
    </g>
    <g id="xtick_15">
     <g id="line2d_29">
      <g>
       <use style="stroke:#000000;stroke-width:0.8;" x="366.021818" xlink:href="#mecdb63bc82" y="41.472"/>
      </g>
     </g>
     <g id="text_29">
      <!-- 1252730 -->
      <g transform="translate(353.151052 33.243145)rotate(-10)scale(0.06 -0.06)">
       <use xlink:href="#DejaVuSans-49"/>
       <use x="63.623047" xlink:href="#DejaVuSans-50"/>
       <use x="127.246094" xlink:href="#DejaVuSans-53"/>
       <use x="190.869141" xlink:href="#DejaVuSans-50"/>
       <use x="254.492188" xlink:href="#DejaVuSans-55"/>
       <use x="318.115234" xlink:href="#DejaVuSans-51"/>
       <use x="381.738281" xlink:href="#DejaVuSans-48"/>
      </g>
     </g>
    </g>
    <g id="xtick_16">
     <g id="line2d_30">
      <g>
       <use style="stroke:#000000;stroke-width:0.8;" x="398.487273" xlink:href="#mecdb63bc82" y="41.472"/>
      </g>
     </g>
     <g id="text_30">
      <!-- 1411730 -->
      <g transform="translate(385.616506 33.243145)rotate(-10)scale(0.06 -0.06)">
       <use xlink:href="#DejaVuSans-49"/>
       <use x="63.623047" xlink:href="#DejaVuSans-52"/>
       <use x="127.246094" xlink:href="#DejaVuSans-49"/>
       <use x="190.869141" xlink:href="#DejaVuSans-49"/>
       <use x="254.492188" xlink:href="#DejaVuSans-55"/>
       <use x="318.115234" xlink:href="#DejaVuSans-51"/>
       <use x="381.738281" xlink:href="#DejaVuSans-48"/>
      </g>
     </g>
    </g>
    <g id="text_31">
     <!-- # of Fitness Evaluation -->
     <defs>
      <path d="M 9.8125 72.90625 
L 55.90625 72.90625 
L 55.90625 64.59375 
L 19.671875 64.59375 
L 19.671875 43.015625 
L 54.390625 43.015625 
L 54.390625 34.71875 
L 19.671875 34.71875 
L 19.671875 8.296875 
L 56.78125 8.296875 
L 56.78125 0 
L 9.8125 0 
z
" id="DejaVuSans-69"/>
     </defs>
     <g transform="translate(178.327187 20.113031)scale(0.1 -0.1)">
      <use xlink:href="#DejaVuSans-35"/>
      <use x="83.789062" xlink:href="#DejaVuSans-32"/>
      <use x="115.576172" xlink:href="#DejaVuSans-111"/>
      <use x="176.757812" xlink:href="#DejaVuSans-102"/>
      <use x="211.962891" xlink:href="#DejaVuSans-32"/>
      <use x="243.75" xlink:href="#DejaVuSans-70"/>
      <use x="301.160156" xlink:href="#DejaVuSans-105"/>
      <use x="328.943359" xlink:href="#DejaVuSans-116"/>
      <use x="368.152344" xlink:href="#DejaVuSans-110"/>
      <use x="431.53125" xlink:href="#DejaVuSans-101"/>
      <use x="493.054688" xlink:href="#DejaVuSans-115"/>
      <use x="545.154297" xlink:href="#DejaVuSans-115"/>
      <use x="597.253906" xlink:href="#DejaVuSans-32"/>
      <use x="629.041016" xlink:href="#DejaVuSans-69"/>
      <use x="692.224609" xlink:href="#DejaVuSans-118"/>
      <use x="751.404297" xlink:href="#DejaVuSans-97"/>
      <use x="812.683594" xlink:href="#DejaVuSans-108"/>
      <use x="840.466797" xlink:href="#DejaVuSans-117"/>
      <use x="903.845703" xlink:href="#DejaVuSans-97"/>
      <use x="965.125" xlink:href="#DejaVuSans-116"/>
      <use x="1004.333984" xlink:href="#DejaVuSans-105"/>
      <use x="1032.117188" xlink:href="#DejaVuSans-111"/>
      <use x="1093.298828" xlink:href="#DejaVuSans-110"/>
     </g>
    </g>
   </g>
   <g id="line2d_31">
    <path clip-path="url(#p77ac8e353e)" d="M 73.832727 295.488 
L 75.275636 294.77587 
L 78.161455 290.595004 
L 81.047273 287.70575 
L 82.490182 286.336012 
L 85.376 284.252295 
L 86.818909 283.462803 
L 89.704727 282.436097 
L 91.147636 281.846704 
L 92.590545 281.032058 
L 101.248 277.760496 
L 107.019636 275.900774 
L 109.905455 274.885712 
L 117.12 272.453676 
L 128.663273 268.372992 
L 137.320727 265.083369 
L 145.978182 261.567511 
L 154.635636 257.815015 
L 163.293091 253.816132 
L 170.507636 250.248932 
L 177.722182 246.427366 
L 184.936727 242.350516 
L 192.151273 237.993532 
L 199.365818 233.351324 
L 206.580364 228.403828 
L 212.352 224.205969 
L 218.123636 219.765401 
L 223.895273 215.079153 
L 229.666909 210.135478 
L 235.438545 204.906088 
L 241.210182 199.358077 
L 246.981818 193.53266 
L 252.753455 187.355523 
L 258.525091 180.839146 
L 264.296727 173.952062 
L 268.625455 168.530881 
L 274.397091 160.923872 
L 278.725818 154.988074 
L 284.497455 146.671101 
L 290.269091 137.918902 
L 296.040727 128.81077 
L 303.255273 116.975437 
L 319.127273 90.466181 
L 323.456 83.727807 
L 326.341818 79.520527 
L 330.670545 73.862751 
L 333.556364 70.605858 
L 337.885091 66.34937 
L 339.328 64.97063 
L 342.213818 62.913289 
L 347.985455 60.030498 
L 349.428364 59.48175 
L 350.871273 58.802902 
L 353.757091 57.953595 
L 355.2 57.66646 
L 359.528727 56.01303 
L 360.971636 55.856602 
L 363.857455 55.247243 
L 366.743273 54.921682 
L 368.186182 54.719401 
L 375.400727 54.377489 
L 378.286545 54.330194 
L 385.501091 53.940549 
L 388.386909 53.863403 
L 391.272727 53.789402 
L 395.601455 53.695772 
L 398.487273 53.568 
L 398.487273 53.568 
" style="fill:none;stroke:#1f77b4;stroke-linecap:square;stroke-width:1.5;"/>
   </g>
   <g id="patch_11">
    <path d="M 57.6 307.584 
L 57.6 41.472 
" style="fill:none;stroke:#000000;stroke-linecap:square;stroke-linejoin:miter;stroke-width:0.8;"/>
   </g>
   <g id="patch_12">
    <path d="M 414.72 307.584 
L 414.72 41.472 
" style="fill:none;stroke:#000000;stroke-linecap:square;stroke-linejoin:miter;stroke-width:0.8;"/>
   </g>
   <g id="patch_13">
    <path d="M 57.6 307.584 
L 414.72 307.584 
" style="fill:none;stroke:#000000;stroke-linecap:square;stroke-linejoin:miter;stroke-width:0.8;"/>
   </g>
   <g id="patch_14">
    <path d="M 57.6 41.472 
L 414.72 41.472 
" style="fill:none;stroke:#000000;stroke-linecap:square;stroke-linejoin:miter;stroke-width:0.8;"/>
   </g>
   <g id="legend_1">
    <g id="patch_15">
     <path d="M 64.6 93.506375 
L 105.740625 93.506375 
Q 107.740625 93.506375 107.740625 91.506375 
L 107.740625 48.472 
Q 107.740625 46.472 105.740625 46.472 
L 64.6 46.472 
Q 62.6 46.472 62.6 48.472 
L 62.6 91.506375 
Q 62.6 93.506375 64.6 93.506375 
z
" style="fill:#ffffff;opacity:0.8;stroke:#cccccc;stroke-linejoin:miter;"/>
    </g>
    <g id="line2d_32">
     <path d="M 66.6 54.570438 
L 86.6 54.570438 
" style="fill:none;stroke:#1f77b4;stroke-linecap:square;stroke-width:1.5;"/>
    </g>
    <g id="line2d_33"/>
    <g id="text_32">
     <!-- l1 -->
     <g transform="translate(94.6 58.070438)scale(0.1 -0.1)">
      <use xlink:href="#DejaVuSans-108"/>
      <use x="27.783203" xlink:href="#DejaVuSans-49"/>
     </g>
    </g>
    <g id="line2d_34">
     <path d="M 66.6 69.248563 
L 86.6 69.248563 
" style="fill:none;stroke:#ff0000;stroke-linecap:square;stroke-width:1.5;"/>
    </g>
    <g id="line2d_35"/>
    <g id="text_33">
     <!-- l2 -->
     <g transform="translate(94.6 72.748563)scale(0.1 -0.1)">
      <use xlink:href="#DejaVuSans-108"/>
      <use x="27.783203" xlink:href="#DejaVuSans-50"/>
     </g>
    </g>
    <g id="line2d_36">
     <path d="M 66.6 83.926688 
L 86.6 83.926688 
" style="fill:none;stroke:#800080;stroke-dasharray:5.55,2.4;stroke-dashoffset:0;stroke-width:1.5;"/>
    </g>
    <g id="line2d_37">
     <g>
      <use style="fill:#800080;stroke:#800080;stroke-linejoin:miter;" x="76.6" xlink:href="#m1a04e99145" y="83.926688"/>
     </g>
    </g>
    <g id="text_34">
     <!-- l3 -->
     <g transform="translate(94.6 87.426688)scale(0.1 -0.1)">
      <use xlink:href="#DejaVuSans-108"/>
      <use x="27.783203" xlink:href="#DejaVuSans-51"/>
     </g>
    </g>
   </g>
  </g>
 </g>
 <defs>
  <clipPath id="p77ac8e353e">
   <rect height="266.112" width="357.12" x="57.6" y="41.472"/>
  </clipPath>
 </defs>
</svg>
