<?xml version="1.0" encoding="utf-8" standalone="no"?>
<!DOCTYPE svg PUBLIC "-//W3C//DTD SVG 1.1//EN"
  "http://www.w3.org/Graphics/SVG/1.1/DTD/svg11.dtd">
<!-- Created with matplotlib (https://matplotlib.org/) -->
<svg height="345.6pt" version="1.1" viewBox="0 0 460.8 345.6" width="460.8pt" xmlns="http://www.w3.org/2000/svg" xmlns:xlink="http://www.w3.org/1999/xlink">
 <defs>
  <style type="text/css">
*{stroke-linecap:butt;stroke-linejoin:round;}
  </style>
 </defs>
 <g id="figure_1">
  <g id="patch_1">
   <path d="M 0 345.6 
L 460.8 345.6 
L 460.8 0 
L 0 0 
z
" style="fill:#ffffff;"/>
  </g>
  <g id="axes_1">
   <g id="patch_2">
    <path d="M 57.6 307.584 
L 414.72 307.584 
L 414.72 41.472 
L 57.6 41.472 
z
" style="fill:#ffffff;"/>
   </g>
   <g id="matplotlib.axis_1">
    <g id="xtick_1">
     <g id="line2d_1">
      <defs>
       <path d="M 0 0 
L 0 3.5 
" id="m04c9d63661" style="stroke:#000000;stroke-width:0.8;"/>
      </defs>
      <g>
       <use style="stroke:#000000;stroke-width:0.8;" x="73.832727" xlink:href="#m04c9d63661" y="307.584"/>
      </g>
     </g>
     <g id="text_1">
      <!-- 0 -->
      <defs>
       <path d="M 31.78125 66.40625 
Q 24.171875 66.40625 20.328125 58.90625 
Q 16.5 51.421875 16.5 36.375 
Q 16.5 21.390625 20.328125 13.890625 
Q 24.171875 6.390625 31.78125 6.390625 
Q 39.453125 6.390625 43.28125 13.890625 
Q 47.125 21.390625 47.125 36.375 
Q 47.125 51.421875 43.28125 58.90625 
Q 39.453125 66.40625 31.78125 66.40625 
z
M 31.78125 74.21875 
Q 44.046875 74.21875 50.515625 64.515625 
Q 56.984375 54.828125 56.984375 36.375 
Q 56.984375 17.96875 50.515625 8.265625 
Q 44.046875 -1.421875 31.78125 -1.421875 
Q 19.53125 -1.421875 13.0625 8.265625 
Q 6.59375 17.96875 6.59375 36.375 
Q 6.59375 54.828125 13.0625 64.515625 
Q 19.53125 74.21875 31.78125 74.21875 
z
" id="DejaVuSans-48"/>
      </defs>
      <g transform="translate(70.651477 322.182437)scale(0.1 -0.1)">
       <use xlink:href="#DejaVuSans-48"/>
      </g>
     </g>
    </g>
    <g id="xtick_2">
     <g id="line2d_2">
      <g>
       <use style="stroke:#000000;stroke-width:0.8;" x="114.414545" xlink:href="#m04c9d63661" y="307.584"/>
      </g>
     </g>
     <g id="text_2">
      <!-- 250 -->
      <defs>
       <path d="M 19.1875 8.296875 
L 53.609375 8.296875 
L 53.609375 0 
L 7.328125 0 
L 7.328125 8.296875 
Q 12.9375 14.109375 22.625 23.890625 
Q 32.328125 33.6875 34.8125 36.53125 
Q 39.546875 41.84375 41.421875 45.53125 
Q 43.3125 49.21875 43.3125 52.78125 
Q 43.3125 58.59375 39.234375 62.25 
Q 35.15625 65.921875 28.609375 65.921875 
Q 23.96875 65.921875 18.8125 64.3125 
Q 13.671875 62.703125 7.8125 59.421875 
L 7.8125 69.390625 
Q 13.765625 71.78125 18.9375 73 
Q 24.125 74.21875 28.421875 74.21875 
Q 39.75 74.21875 46.484375 68.546875 
Q 53.21875 62.890625 53.21875 53.421875 
Q 53.21875 48.921875 51.53125 44.890625 
Q 49.859375 40.875 45.40625 35.40625 
Q 44.1875 33.984375 37.640625 27.21875 
Q 31.109375 20.453125 19.1875 8.296875 
z
" id="DejaVuSans-50"/>
       <path d="M 10.796875 72.90625 
L 49.515625 72.90625 
L 49.515625 64.59375 
L 19.828125 64.59375 
L 19.828125 46.734375 
Q 21.96875 47.46875 24.109375 47.828125 
Q 26.265625 48.1875 28.421875 48.1875 
Q 40.625 48.1875 47.75 41.5 
Q 54.890625 34.8125 54.890625 23.390625 
Q 54.890625 11.625 47.5625 5.09375 
Q 40.234375 -1.421875 26.90625 -1.421875 
Q 22.3125 -1.421875 17.546875 -0.640625 
Q 12.796875 0.140625 7.71875 1.703125 
L 7.71875 11.625 
Q 12.109375 9.234375 16.796875 8.0625 
Q 21.484375 6.890625 26.703125 6.890625 
Q 35.15625 6.890625 40.078125 11.328125 
Q 45.015625 15.765625 45.015625 23.390625 
Q 45.015625 31 40.078125 35.4375 
Q 35.15625 39.890625 26.703125 39.890625 
Q 22.75 39.890625 18.8125 39.015625 
Q 14.890625 38.140625 10.796875 36.28125 
z
" id="DejaVuSans-53"/>
      </defs>
      <g transform="translate(104.870795 322.182437)scale(0.1 -0.1)">
       <use xlink:href="#DejaVuSans-50"/>
       <use x="63.623047" xlink:href="#DejaVuSans-53"/>
       <use x="127.246094" xlink:href="#DejaVuSans-48"/>
      </g>
     </g>
    </g>
    <g id="xtick_3">
     <g id="line2d_3">
      <g>
       <use style="stroke:#000000;stroke-width:0.8;" x="154.996364" xlink:href="#m04c9d63661" y="307.584"/>
      </g>
     </g>
     <g id="text_3">
      <!-- 500 -->
      <g transform="translate(145.452614 322.182437)scale(0.1 -0.1)">
       <use xlink:href="#DejaVuSans-53"/>
       <use x="63.623047" xlink:href="#DejaVuSans-48"/>
       <use x="127.246094" xlink:href="#DejaVuSans-48"/>
      </g>
     </g>
    </g>
    <g id="xtick_4">
     <g id="line2d_4">
      <g>
       <use style="stroke:#000000;stroke-width:0.8;" x="195.578182" xlink:href="#m04c9d63661" y="307.584"/>
      </g>
     </g>
     <g id="text_4">
      <!-- 750 -->
      <defs>
       <path d="M 8.203125 72.90625 
L 55.078125 72.90625 
L 55.078125 68.703125 
L 28.609375 0 
L 18.3125 0 
L 43.21875 64.59375 
L 8.203125 64.59375 
z
" id="DejaVuSans-55"/>
      </defs>
      <g transform="translate(186.034432 322.182437)scale(0.1 -0.1)">
       <use xlink:href="#DejaVuSans-55"/>
       <use x="63.623047" xlink:href="#DejaVuSans-53"/>
       <use x="127.246094" xlink:href="#DejaVuSans-48"/>
      </g>
     </g>
    </g>
    <g id="xtick_5">
     <g id="line2d_5">
      <g>
       <use style="stroke:#000000;stroke-width:0.8;" x="236.16" xlink:href="#m04c9d63661" y="307.584"/>
      </g>
     </g>
     <g id="text_5">
      <!-- 1000 -->
      <defs>
       <path d="M 12.40625 8.296875 
L 28.515625 8.296875 
L 28.515625 63.921875 
L 10.984375 60.40625 
L 10.984375 69.390625 
L 28.421875 72.90625 
L 38.28125 72.90625 
L 38.28125 8.296875 
L 54.390625 8.296875 
L 54.390625 0 
L 12.40625 0 
z
" id="DejaVuSans-49"/>
      </defs>
      <g transform="translate(223.435 322.182437)scale(0.1 -0.1)">
       <use xlink:href="#DejaVuSans-49"/>
       <use x="63.623047" xlink:href="#DejaVuSans-48"/>
       <use x="127.246094" xlink:href="#DejaVuSans-48"/>
       <use x="190.869141" xlink:href="#DejaVuSans-48"/>
      </g>
     </g>
    </g>
    <g id="xtick_6">
     <g id="line2d_6">
      <g>
       <use style="stroke:#000000;stroke-width:0.8;" x="276.741818" xlink:href="#m04c9d63661" y="307.584"/>
      </g>
     </g>
     <g id="text_6">
      <!-- 1250 -->
      <g transform="translate(264.016818 322.182437)scale(0.1 -0.1)">
       <use xlink:href="#DejaVuSans-49"/>
       <use x="63.623047" xlink:href="#DejaVuSans-50"/>
       <use x="127.246094" xlink:href="#DejaVuSans-53"/>
       <use x="190.869141" xlink:href="#DejaVuSans-48"/>
      </g>
     </g>
    </g>
    <g id="xtick_7">
     <g id="line2d_7">
      <g>
       <use style="stroke:#000000;stroke-width:0.8;" x="317.323636" xlink:href="#m04c9d63661" y="307.584"/>
      </g>
     </g>
     <g id="text_7">
      <!-- 1500 -->
      <g transform="translate(304.598636 322.182437)scale(0.1 -0.1)">
       <use xlink:href="#DejaVuSans-49"/>
       <use x="63.623047" xlink:href="#DejaVuSans-53"/>
       <use x="127.246094" xlink:href="#DejaVuSans-48"/>
       <use x="190.869141" xlink:href="#DejaVuSans-48"/>
      </g>
     </g>
    </g>
    <g id="xtick_8">
     <g id="line2d_8">
      <g>
       <use style="stroke:#000000;stroke-width:0.8;" x="357.905455" xlink:href="#m04c9d63661" y="307.584"/>
      </g>
     </g>
     <g id="text_8">
      <!-- 1750 -->
      <g transform="translate(345.180455 322.182437)scale(0.1 -0.1)">
       <use xlink:href="#DejaVuSans-49"/>
       <use x="63.623047" xlink:href="#DejaVuSans-55"/>
       <use x="127.246094" xlink:href="#DejaVuSans-53"/>
       <use x="190.869141" xlink:href="#DejaVuSans-48"/>
      </g>
     </g>
    </g>
    <g id="xtick_9">
     <g id="line2d_9">
      <g>
       <use style="stroke:#000000;stroke-width:0.8;" x="398.487273" xlink:href="#m04c9d63661" y="307.584"/>
      </g>
     </g>
     <g id="text_9">
      <!-- 2000 -->
      <g transform="translate(385.762273 322.182437)scale(0.1 -0.1)">
       <use xlink:href="#DejaVuSans-50"/>
       <use x="63.623047" xlink:href="#DejaVuSans-48"/>
       <use x="127.246094" xlink:href="#DejaVuSans-48"/>
       <use x="190.869141" xlink:href="#DejaVuSans-48"/>
      </g>
     </g>
    </g>
    <g id="text_10">
     <!-- # of Generation -->
     <defs>
      <path d="M 51.125 44 
L 36.921875 44 
L 32.8125 27.6875 
L 47.125 27.6875 
z
M 43.796875 71.78125 
L 38.71875 51.515625 
L 52.984375 51.515625 
L 58.109375 71.78125 
L 65.921875 71.78125 
L 60.890625 51.515625 
L 76.125 51.515625 
L 76.125 44 
L 58.984375 44 
L 54.984375 27.6875 
L 70.515625 27.6875 
L 70.515625 20.21875 
L 53.078125 20.21875 
L 48 0 
L 40.1875 0 
L 45.21875 20.21875 
L 30.90625 20.21875 
L 25.875 0 
L 18.015625 0 
L 23.09375 20.21875 
L 7.71875 20.21875 
L 7.71875 27.6875 
L 24.90625 27.6875 
L 29 44 
L 13.28125 44 
L 13.28125 51.515625 
L 30.90625 51.515625 
L 35.890625 71.78125 
z
" id="DejaVuSans-35"/>
      <path id="DejaVuSans-32"/>
      <path d="M 30.609375 48.390625 
Q 23.390625 48.390625 19.1875 42.75 
Q 14.984375 37.109375 14.984375 27.296875 
Q 14.984375 17.484375 19.15625 11.84375 
Q 23.34375 6.203125 30.609375 6.203125 
Q 37.796875 6.203125 41.984375 11.859375 
Q 46.1875 17.53125 46.1875 27.296875 
Q 46.1875 37.015625 41.984375 42.703125 
Q 37.796875 48.390625 30.609375 48.390625 
z
M 30.609375 56 
Q 42.328125 56 49.015625 48.375 
Q 55.71875 40.765625 55.71875 27.296875 
Q 55.71875 13.875 49.015625 6.21875 
Q 42.328125 -1.421875 30.609375 -1.421875 
Q 18.84375 -1.421875 12.171875 6.21875 
Q 5.515625 13.875 5.515625 27.296875 
Q 5.515625 40.765625 12.171875 48.375 
Q 18.84375 56 30.609375 56 
z
" id="DejaVuSans-111"/>
      <path d="M 37.109375 75.984375 
L 37.109375 68.5 
L 28.515625 68.5 
Q 23.6875 68.5 21.796875 66.546875 
Q 19.921875 64.59375 19.921875 59.515625 
L 19.921875 54.6875 
L 34.71875 54.6875 
L 34.71875 47.703125 
L 19.921875 47.703125 
L 19.921875 0 
L 10.890625 0 
L 10.890625 47.703125 
L 2.296875 47.703125 
L 2.296875 54.6875 
L 10.890625 54.6875 
L 10.890625 58.5 
Q 10.890625 67.625 15.140625 71.796875 
Q 19.390625 75.984375 28.609375 75.984375 
z
" id="DejaVuSans-102"/>
      <path d="M 59.515625 10.40625 
L 59.515625 29.984375 
L 43.40625 29.984375 
L 43.40625 38.09375 
L 69.28125 38.09375 
L 69.28125 6.78125 
Q 63.578125 2.734375 56.6875 0.65625 
Q 49.8125 -1.421875 42 -1.421875 
Q 24.90625 -1.421875 15.25 8.5625 
Q 5.609375 18.5625 5.609375 36.375 
Q 5.609375 54.25 15.25 64.234375 
Q 24.90625 74.21875 42 74.21875 
Q 49.125 74.21875 55.546875 72.453125 
Q 61.96875 70.703125 67.390625 67.28125 
L 67.390625 56.78125 
Q 61.921875 61.421875 55.765625 63.765625 
Q 49.609375 66.109375 42.828125 66.109375 
Q 29.4375 66.109375 22.71875 58.640625 
Q 16.015625 51.171875 16.015625 36.375 
Q 16.015625 21.625 22.71875 14.15625 
Q 29.4375 6.6875 42.828125 6.6875 
Q 48.046875 6.6875 52.140625 7.59375 
Q 56.25 8.5 59.515625 10.40625 
z
" id="DejaVuSans-71"/>
      <path d="M 56.203125 29.59375 
L 56.203125 25.203125 
L 14.890625 25.203125 
Q 15.484375 15.921875 20.484375 11.0625 
Q 25.484375 6.203125 34.421875 6.203125 
Q 39.59375 6.203125 44.453125 7.46875 
Q 49.3125 8.734375 54.109375 11.28125 
L 54.109375 2.78125 
Q 49.265625 0.734375 44.1875 -0.34375 
Q 39.109375 -1.421875 33.890625 -1.421875 
Q 20.796875 -1.421875 13.15625 6.1875 
Q 5.515625 13.8125 5.515625 26.8125 
Q 5.515625 40.234375 12.765625 48.109375 
Q 20.015625 56 32.328125 56 
Q 43.359375 56 49.78125 48.890625 
Q 56.203125 41.796875 56.203125 29.59375 
z
M 47.21875 32.234375 
Q 47.125 39.59375 43.09375 43.984375 
Q 39.0625 48.390625 32.421875 48.390625 
Q 24.90625 48.390625 20.390625 44.140625 
Q 15.875 39.890625 15.1875 32.171875 
z
" id="DejaVuSans-101"/>
      <path d="M 54.890625 33.015625 
L 54.890625 0 
L 45.90625 0 
L 45.90625 32.71875 
Q 45.90625 40.484375 42.875 44.328125 
Q 39.84375 48.1875 33.796875 48.1875 
Q 26.515625 48.1875 22.3125 43.546875 
Q 18.109375 38.921875 18.109375 30.90625 
L 18.109375 0 
L 9.078125 0 
L 9.078125 54.6875 
L 18.109375 54.6875 
L 18.109375 46.1875 
Q 21.34375 51.125 25.703125 53.5625 
Q 30.078125 56 35.796875 56 
Q 45.21875 56 50.046875 50.171875 
Q 54.890625 44.34375 54.890625 33.015625 
z
" id="DejaVuSans-110"/>
      <path d="M 41.109375 46.296875 
Q 39.59375 47.171875 37.8125 47.578125 
Q 36.03125 48 33.890625 48 
Q 26.265625 48 22.1875 43.046875 
Q 18.109375 38.09375 18.109375 28.8125 
L 18.109375 0 
L 9.078125 0 
L 9.078125 54.6875 
L 18.109375 54.6875 
L 18.109375 46.1875 
Q 20.953125 51.171875 25.484375 53.578125 
Q 30.03125 56 36.53125 56 
Q 37.453125 56 38.578125 55.875 
Q 39.703125 55.765625 41.0625 55.515625 
z
" id="DejaVuSans-114"/>
      <path d="M 34.28125 27.484375 
Q 23.390625 27.484375 19.1875 25 
Q 14.984375 22.515625 14.984375 16.5 
Q 14.984375 11.71875 18.140625 8.90625 
Q 21.296875 6.109375 26.703125 6.109375 
Q 34.1875 6.109375 38.703125 11.40625 
Q 43.21875 16.703125 43.21875 25.484375 
L 43.21875 27.484375 
z
M 52.203125 31.203125 
L 52.203125 0 
L 43.21875 0 
L 43.21875 8.296875 
Q 40.140625 3.328125 35.546875 0.953125 
Q 30.953125 -1.421875 24.3125 -1.421875 
Q 15.921875 -1.421875 10.953125 3.296875 
Q 6 8.015625 6 15.921875 
Q 6 25.140625 12.171875 29.828125 
Q 18.359375 34.515625 30.609375 34.515625 
L 43.21875 34.515625 
L 43.21875 35.40625 
Q 43.21875 41.609375 39.140625 45 
Q 35.0625 48.390625 27.6875 48.390625 
Q 23 48.390625 18.546875 47.265625 
Q 14.109375 46.140625 10.015625 43.890625 
L 10.015625 52.203125 
Q 14.9375 54.109375 19.578125 55.046875 
Q 24.21875 56 28.609375 56 
Q 40.484375 56 46.34375 49.84375 
Q 52.203125 43.703125 52.203125 31.203125 
z
" id="DejaVuSans-97"/>
      <path d="M 18.3125 70.21875 
L 18.3125 54.6875 
L 36.8125 54.6875 
L 36.8125 47.703125 
L 18.3125 47.703125 
L 18.3125 18.015625 
Q 18.3125 11.328125 20.140625 9.421875 
Q 21.96875 7.515625 27.59375 7.515625 
L 36.8125 7.515625 
L 36.8125 0 
L 27.59375 0 
Q 17.1875 0 13.234375 3.875 
Q 9.28125 7.765625 9.28125 18.015625 
L 9.28125 47.703125 
L 2.6875 47.703125 
L 2.6875 54.6875 
L 9.28125 54.6875 
L 9.28125 70.21875 
z
" id="DejaVuSans-116"/>
      <path d="M 9.421875 54.6875 
L 18.40625 54.6875 
L 18.40625 0 
L 9.421875 0 
z
M 9.421875 75.984375 
L 18.40625 75.984375 
L 18.40625 64.59375 
L 9.421875 64.59375 
z
" id="DejaVuSans-105"/>
     </defs>
     <g transform="translate(196.079531 335.860562)scale(0.1 -0.1)">
      <use xlink:href="#DejaVuSans-35"/>
      <use x="83.789062" xlink:href="#DejaVuSans-32"/>
      <use x="115.576172" xlink:href="#DejaVuSans-111"/>
      <use x="176.757812" xlink:href="#DejaVuSans-102"/>
      <use x="211.962891" xlink:href="#DejaVuSans-32"/>
      <use x="243.75" xlink:href="#DejaVuSans-71"/>
      <use x="321.240234" xlink:href="#DejaVuSans-101"/>
      <use x="382.763672" xlink:href="#DejaVuSans-110"/>
      <use x="446.142578" xlink:href="#DejaVuSans-101"/>
      <use x="507.666016" xlink:href="#DejaVuSans-114"/>
      <use x="548.779297" xlink:href="#DejaVuSans-97"/>
      <use x="610.058594" xlink:href="#DejaVuSans-116"/>
      <use x="649.267578" xlink:href="#DejaVuSans-105"/>
      <use x="677.050781" xlink:href="#DejaVuSans-111"/>
      <use x="738.232422" xlink:href="#DejaVuSans-110"/>
     </g>
    </g>
   </g>
   <g id="matplotlib.axis_2">
    <g id="ytick_1">
     <g id="line2d_10">
      <defs>
       <path d="M 0 0 
L -3.5 0 
" id="m383e387150" style="stroke:#000000;stroke-width:0.8;"/>
      </defs>
      <g>
       <use style="stroke:#000000;stroke-width:0.8;" x="57.6" xlink:href="#m383e387150" y="271.00427"/>
      </g>
     </g>
     <g id="text_11">
      <!-- 0.0040 -->
      <defs>
       <path d="M 10.6875 12.40625 
L 21 12.40625 
L 21 0 
L 10.6875 0 
z
" id="DejaVuSans-46"/>
       <path d="M 37.796875 64.3125 
L 12.890625 25.390625 
L 37.796875 25.390625 
z
M 35.203125 72.90625 
L 47.609375 72.90625 
L 47.609375 25.390625 
L 58.015625 25.390625 
L 58.015625 17.1875 
L 47.609375 17.1875 
L 47.609375 0 
L 37.796875 0 
L 37.796875 17.1875 
L 4.890625 17.1875 
L 4.890625 26.703125 
z
" id="DejaVuSans-52"/>
      </defs>
      <g transform="translate(15.609375 274.803488)scale(0.1 -0.1)">
       <use xlink:href="#DejaVuSans-48"/>
       <use x="63.623047" xlink:href="#DejaVuSans-46"/>
       <use x="95.410156" xlink:href="#DejaVuSans-48"/>
       <use x="159.033203" xlink:href="#DejaVuSans-48"/>
       <use x="222.65625" xlink:href="#DejaVuSans-52"/>
       <use x="286.279297" xlink:href="#DejaVuSans-48"/>
      </g>
     </g>
    </g>
    <g id="ytick_2">
     <g id="line2d_11">
      <g>
       <use style="stroke:#000000;stroke-width:0.8;" x="57.6" xlink:href="#m383e387150" y="229.599954"/>
      </g>
     </g>
     <g id="text_12">
      <!-- 0.0045 -->
      <g transform="translate(15.609375 233.399172)scale(0.1 -0.1)">
       <use xlink:href="#DejaVuSans-48"/>
       <use x="63.623047" xlink:href="#DejaVuSans-46"/>
       <use x="95.410156" xlink:href="#DejaVuSans-48"/>
       <use x="159.033203" xlink:href="#DejaVuSans-48"/>
       <use x="222.65625" xlink:href="#DejaVuSans-52"/>
       <use x="286.279297" xlink:href="#DejaVuSans-53"/>
      </g>
     </g>
    </g>
    <g id="ytick_3">
     <g id="line2d_12">
      <g>
       <use style="stroke:#000000;stroke-width:0.8;" x="57.6" xlink:href="#m383e387150" y="188.195637"/>
      </g>
     </g>
     <g id="text_13">
      <!-- 0.0050 -->
      <g transform="translate(15.609375 191.994856)scale(0.1 -0.1)">
       <use xlink:href="#DejaVuSans-48"/>
       <use x="63.623047" xlink:href="#DejaVuSans-46"/>
       <use x="95.410156" xlink:href="#DejaVuSans-48"/>
       <use x="159.033203" xlink:href="#DejaVuSans-48"/>
       <use x="222.65625" xlink:href="#DejaVuSans-53"/>
       <use x="286.279297" xlink:href="#DejaVuSans-48"/>
      </g>
     </g>
    </g>
    <g id="ytick_4">
     <g id="line2d_13">
      <g>
       <use style="stroke:#000000;stroke-width:0.8;" x="57.6" xlink:href="#m383e387150" y="146.791321"/>
      </g>
     </g>
     <g id="text_14">
      <!-- 0.0055 -->
      <g transform="translate(15.609375 150.59054)scale(0.1 -0.1)">
       <use xlink:href="#DejaVuSans-48"/>
       <use x="63.623047" xlink:href="#DejaVuSans-46"/>
       <use x="95.410156" xlink:href="#DejaVuSans-48"/>
       <use x="159.033203" xlink:href="#DejaVuSans-48"/>
       <use x="222.65625" xlink:href="#DejaVuSans-53"/>
       <use x="286.279297" xlink:href="#DejaVuSans-53"/>
      </g>
     </g>
    </g>
    <g id="ytick_5">
     <g id="line2d_14">
      <g>
       <use style="stroke:#000000;stroke-width:0.8;" x="57.6" xlink:href="#m383e387150" y="105.387005"/>
      </g>
     </g>
     <g id="text_15">
      <!-- 0.0060 -->
      <defs>
       <path d="M 33.015625 40.375 
Q 26.375 40.375 22.484375 35.828125 
Q 18.609375 31.296875 18.609375 23.390625 
Q 18.609375 15.53125 22.484375 10.953125 
Q 26.375 6.390625 33.015625 6.390625 
Q 39.65625 6.390625 43.53125 10.953125 
Q 47.40625 15.53125 47.40625 23.390625 
Q 47.40625 31.296875 43.53125 35.828125 
Q 39.65625 40.375 33.015625 40.375 
z
M 52.59375 71.296875 
L 52.59375 62.3125 
Q 48.875 64.0625 45.09375 64.984375 
Q 41.3125 65.921875 37.59375 65.921875 
Q 27.828125 65.921875 22.671875 59.328125 
Q 17.53125 52.734375 16.796875 39.40625 
Q 19.671875 43.65625 24.015625 45.921875 
Q 28.375 48.1875 33.59375 48.1875 
Q 44.578125 48.1875 50.953125 41.515625 
Q 57.328125 34.859375 57.328125 23.390625 
Q 57.328125 12.15625 50.6875 5.359375 
Q 44.046875 -1.421875 33.015625 -1.421875 
Q 20.359375 -1.421875 13.671875 8.265625 
Q 6.984375 17.96875 6.984375 36.375 
Q 6.984375 53.65625 15.1875 63.9375 
Q 23.390625 74.21875 37.203125 74.21875 
Q 40.921875 74.21875 44.703125 73.484375 
Q 48.484375 72.75 52.59375 71.296875 
z
" id="DejaVuSans-54"/>
      </defs>
      <g transform="translate(15.609375 109.186224)scale(0.1 -0.1)">
       <use xlink:href="#DejaVuSans-48"/>
       <use x="63.623047" xlink:href="#DejaVuSans-46"/>
       <use x="95.410156" xlink:href="#DejaVuSans-48"/>
       <use x="159.033203" xlink:href="#DejaVuSans-48"/>
       <use x="222.65625" xlink:href="#DejaVuSans-54"/>
       <use x="286.279297" xlink:href="#DejaVuSans-48"/>
      </g>
     </g>
    </g>
    <g id="ytick_6">
     <g id="line2d_15">
      <g>
       <use style="stroke:#000000;stroke-width:0.8;" x="57.6" xlink:href="#m383e387150" y="63.982689"/>
      </g>
     </g>
     <g id="text_16">
      <!-- 0.0065 -->
      <g transform="translate(15.609375 67.781908)scale(0.1 -0.1)">
       <use xlink:href="#DejaVuSans-48"/>
       <use x="63.623047" xlink:href="#DejaVuSans-46"/>
       <use x="95.410156" xlink:href="#DejaVuSans-48"/>
       <use x="159.033203" xlink:href="#DejaVuSans-48"/>
       <use x="222.65625" xlink:href="#DejaVuSans-54"/>
       <use x="286.279297" xlink:href="#DejaVuSans-53"/>
      </g>
     </g>
    </g>
    <g id="text_17">
     <!-- Fitness Of Best Individual (× 1e-3) -->
     <defs>
      <path d="M 9.8125 72.90625 
L 51.703125 72.90625 
L 51.703125 64.59375 
L 19.671875 64.59375 
L 19.671875 43.109375 
L 48.578125 43.109375 
L 48.578125 34.8125 
L 19.671875 34.8125 
L 19.671875 0 
L 9.8125 0 
z
" id="DejaVuSans-70"/>
      <path d="M 44.28125 53.078125 
L 44.28125 44.578125 
Q 40.484375 46.53125 36.375 47.5 
Q 32.28125 48.484375 27.875 48.484375 
Q 21.1875 48.484375 17.84375 46.4375 
Q 14.5 44.390625 14.5 40.28125 
Q 14.5 37.15625 16.890625 35.375 
Q 19.28125 33.59375 26.515625 31.984375 
L 29.59375 31.296875 
Q 39.15625 29.25 43.1875 25.515625 
Q 47.21875 21.78125 47.21875 15.09375 
Q 47.21875 7.46875 41.1875 3.015625 
Q 35.15625 -1.421875 24.609375 -1.421875 
Q 20.21875 -1.421875 15.453125 -0.5625 
Q 10.6875 0.296875 5.421875 2 
L 5.421875 11.28125 
Q 10.40625 8.6875 15.234375 7.390625 
Q 20.0625 6.109375 24.8125 6.109375 
Q 31.15625 6.109375 34.5625 8.28125 
Q 37.984375 10.453125 37.984375 14.40625 
Q 37.984375 18.0625 35.515625 20.015625 
Q 33.0625 21.96875 24.703125 23.78125 
L 21.578125 24.515625 
Q 13.234375 26.265625 9.515625 29.90625 
Q 5.8125 33.546875 5.8125 39.890625 
Q 5.8125 47.609375 11.28125 51.796875 
Q 16.75 56 26.8125 56 
Q 31.78125 56 36.171875 55.265625 
Q 40.578125 54.546875 44.28125 53.078125 
z
" id="DejaVuSans-115"/>
      <path d="M 39.40625 66.21875 
Q 28.65625 66.21875 22.328125 58.203125 
Q 16.015625 50.203125 16.015625 36.375 
Q 16.015625 22.609375 22.328125 14.59375 
Q 28.65625 6.59375 39.40625 6.59375 
Q 50.140625 6.59375 56.421875 14.59375 
Q 62.703125 22.609375 62.703125 36.375 
Q 62.703125 50.203125 56.421875 58.203125 
Q 50.140625 66.21875 39.40625 66.21875 
z
M 39.40625 74.21875 
Q 54.734375 74.21875 63.90625 63.9375 
Q 73.09375 53.65625 73.09375 36.375 
Q 73.09375 19.140625 63.90625 8.859375 
Q 54.734375 -1.421875 39.40625 -1.421875 
Q 24.03125 -1.421875 14.8125 8.828125 
Q 5.609375 19.09375 5.609375 36.375 
Q 5.609375 53.65625 14.8125 63.9375 
Q 24.03125 74.21875 39.40625 74.21875 
z
" id="DejaVuSans-79"/>
      <path d="M 19.671875 34.8125 
L 19.671875 8.109375 
L 35.5 8.109375 
Q 43.453125 8.109375 47.28125 11.40625 
Q 51.125 14.703125 51.125 21.484375 
Q 51.125 28.328125 47.28125 31.5625 
Q 43.453125 34.8125 35.5 34.8125 
z
M 19.671875 64.796875 
L 19.671875 42.828125 
L 34.28125 42.828125 
Q 41.5 42.828125 45.03125 45.53125 
Q 48.578125 48.25 48.578125 53.8125 
Q 48.578125 59.328125 45.03125 62.0625 
Q 41.5 64.796875 34.28125 64.796875 
z
M 9.8125 72.90625 
L 35.015625 72.90625 
Q 46.296875 72.90625 52.390625 68.21875 
Q 58.5 63.53125 58.5 54.890625 
Q 58.5 48.1875 55.375 44.234375 
Q 52.25 40.28125 46.1875 39.3125 
Q 53.46875 37.75 57.5 32.78125 
Q 61.53125 27.828125 61.53125 20.40625 
Q 61.53125 10.640625 54.890625 5.3125 
Q 48.25 0 35.984375 0 
L 9.8125 0 
z
" id="DejaVuSans-66"/>
      <path d="M 9.8125 72.90625 
L 19.671875 72.90625 
L 19.671875 0 
L 9.8125 0 
z
" id="DejaVuSans-73"/>
      <path d="M 45.40625 46.390625 
L 45.40625 75.984375 
L 54.390625 75.984375 
L 54.390625 0 
L 45.40625 0 
L 45.40625 8.203125 
Q 42.578125 3.328125 38.25 0.953125 
Q 33.9375 -1.421875 27.875 -1.421875 
Q 17.96875 -1.421875 11.734375 6.484375 
Q 5.515625 14.40625 5.515625 27.296875 
Q 5.515625 40.1875 11.734375 48.09375 
Q 17.96875 56 27.875 56 
Q 33.9375 56 38.25 53.625 
Q 42.578125 51.265625 45.40625 46.390625 
z
M 14.796875 27.296875 
Q 14.796875 17.390625 18.875 11.75 
Q 22.953125 6.109375 30.078125 6.109375 
Q 37.203125 6.109375 41.296875 11.75 
Q 45.40625 17.390625 45.40625 27.296875 
Q 45.40625 37.203125 41.296875 42.84375 
Q 37.203125 48.484375 30.078125 48.484375 
Q 22.953125 48.484375 18.875 42.84375 
Q 14.796875 37.203125 14.796875 27.296875 
z
" id="DejaVuSans-100"/>
      <path d="M 2.984375 54.6875 
L 12.5 54.6875 
L 29.59375 8.796875 
L 46.6875 54.6875 
L 56.203125 54.6875 
L 35.6875 0 
L 23.484375 0 
z
" id="DejaVuSans-118"/>
      <path d="M 8.5 21.578125 
L 8.5 54.6875 
L 17.484375 54.6875 
L 17.484375 21.921875 
Q 17.484375 14.15625 20.5 10.265625 
Q 23.53125 6.390625 29.59375 6.390625 
Q 36.859375 6.390625 41.078125 11.03125 
Q 45.3125 15.671875 45.3125 23.6875 
L 45.3125 54.6875 
L 54.296875 54.6875 
L 54.296875 0 
L 45.3125 0 
L 45.3125 8.40625 
Q 42.046875 3.421875 37.71875 1 
Q 33.40625 -1.421875 27.6875 -1.421875 
Q 18.265625 -1.421875 13.375 4.4375 
Q 8.5 10.296875 8.5 21.578125 
z
M 31.109375 56 
z
" id="DejaVuSans-117"/>
      <path d="M 9.421875 75.984375 
L 18.40625 75.984375 
L 18.40625 0 
L 9.421875 0 
z
" id="DejaVuSans-108"/>
      <path d="M 31 75.875 
Q 24.46875 64.65625 21.28125 53.65625 
Q 18.109375 42.671875 18.109375 31.390625 
Q 18.109375 20.125 21.3125 9.0625 
Q 24.515625 -2 31 -13.1875 
L 23.1875 -13.1875 
Q 15.875 -1.703125 12.234375 9.375 
Q 8.59375 20.453125 8.59375 31.390625 
Q 8.59375 42.28125 12.203125 53.3125 
Q 15.828125 64.359375 23.1875 75.875 
z
" id="DejaVuSans-40"/>
      <path d="M 70.125 53.71875 
L 47.796875 31.296875 
L 70.125 8.984375 
L 64.3125 3.078125 
L 41.890625 25.484375 
L 19.484375 3.078125 
L 13.71875 8.984375 
L 35.984375 31.296875 
L 13.71875 53.71875 
L 19.484375 59.625 
L 41.890625 37.203125 
L 64.3125 59.625 
z
" id="DejaVuSans-215"/>
      <path d="M 4.890625 31.390625 
L 31.203125 31.390625 
L 31.203125 23.390625 
L 4.890625 23.390625 
z
" id="DejaVuSans-45"/>
      <path d="M 40.578125 39.3125 
Q 47.65625 37.796875 51.625 33 
Q 55.609375 28.21875 55.609375 21.1875 
Q 55.609375 10.40625 48.1875 4.484375 
Q 40.765625 -1.421875 27.09375 -1.421875 
Q 22.515625 -1.421875 17.65625 -0.515625 
Q 12.796875 0.390625 7.625 2.203125 
L 7.625 11.71875 
Q 11.71875 9.328125 16.59375 8.109375 
Q 21.484375 6.890625 26.8125 6.890625 
Q 36.078125 6.890625 40.9375 10.546875 
Q 45.796875 14.203125 45.796875 21.1875 
Q 45.796875 27.640625 41.28125 31.265625 
Q 36.765625 34.90625 28.71875 34.90625 
L 20.21875 34.90625 
L 20.21875 43.015625 
L 29.109375 43.015625 
Q 36.375 43.015625 40.234375 45.921875 
Q 44.09375 48.828125 44.09375 54.296875 
Q 44.09375 59.90625 40.109375 62.90625 
Q 36.140625 65.921875 28.71875 65.921875 
Q 24.65625 65.921875 20.015625 65.03125 
Q 15.375 64.15625 9.8125 62.3125 
L 9.8125 71.09375 
Q 15.4375 72.65625 20.34375 73.4375 
Q 25.25 74.21875 29.59375 74.21875 
Q 40.828125 74.21875 47.359375 69.109375 
Q 53.90625 64.015625 53.90625 55.328125 
Q 53.90625 49.265625 50.4375 45.09375 
Q 46.96875 40.921875 40.578125 39.3125 
z
" id="DejaVuSans-51"/>
      <path d="M 8.015625 75.875 
L 15.828125 75.875 
Q 23.140625 64.359375 26.78125 53.3125 
Q 30.421875 42.28125 30.421875 31.390625 
Q 30.421875 20.453125 26.78125 9.375 
Q 23.140625 -1.703125 15.828125 -13.1875 
L 8.015625 -13.1875 
Q 14.5 -2 17.703125 9.0625 
Q 20.90625 20.125 20.90625 31.390625 
Q 20.90625 42.671875 17.703125 53.65625 
Q 14.5 64.65625 8.015625 75.875 
z
" id="DejaVuSans-41"/>
     </defs>
     <g transform="translate(9.529687 260.601437)rotate(-90)scale(0.1 -0.1)">
      <use xlink:href="#DejaVuSans-70"/>
      <use x="57.410156" xlink:href="#DejaVuSans-105"/>
      <use x="85.193359" xlink:href="#DejaVuSans-116"/>
      <use x="124.402344" xlink:href="#DejaVuSans-110"/>
      <use x="187.78125" xlink:href="#DejaVuSans-101"/>
      <use x="249.304688" xlink:href="#DejaVuSans-115"/>
      <use x="301.404297" xlink:href="#DejaVuSans-115"/>
      <use x="353.503906" xlink:href="#DejaVuSans-32"/>
      <use x="385.291016" xlink:href="#DejaVuSans-79"/>
      <use x="464.001953" xlink:href="#DejaVuSans-102"/>
      <use x="499.207031" xlink:href="#DejaVuSans-32"/>
      <use x="530.994141" xlink:href="#DejaVuSans-66"/>
      <use x="599.597656" xlink:href="#DejaVuSans-101"/>
      <use x="661.121094" xlink:href="#DejaVuSans-115"/>
      <use x="713.220703" xlink:href="#DejaVuSans-116"/>
      <use x="752.429688" xlink:href="#DejaVuSans-32"/>
      <use x="784.216797" xlink:href="#DejaVuSans-73"/>
      <use x="813.708984" xlink:href="#DejaVuSans-110"/>
      <use x="877.087891" xlink:href="#DejaVuSans-100"/>
      <use x="940.564453" xlink:href="#DejaVuSans-105"/>
      <use x="968.347656" xlink:href="#DejaVuSans-118"/>
      <use x="1027.527344" xlink:href="#DejaVuSans-105"/>
      <use x="1055.310547" xlink:href="#DejaVuSans-100"/>
      <use x="1118.787109" xlink:href="#DejaVuSans-117"/>
      <use x="1182.166016" xlink:href="#DejaVuSans-97"/>
      <use x="1243.445312" xlink:href="#DejaVuSans-108"/>
      <use x="1271.228516" xlink:href="#DejaVuSans-32"/>
      <use x="1303.015625" xlink:href="#DejaVuSans-40"/>
      <use x="1342.029297" xlink:href="#DejaVuSans-215"/>
      <use x="1425.818359" xlink:href="#DejaVuSans-32"/>
      <use x="1457.605469" xlink:href="#DejaVuSans-49"/>
      <use x="1521.228516" xlink:href="#DejaVuSans-101"/>
      <use x="1582.751953" xlink:href="#DejaVuSans-45"/>
      <use x="1618.835938" xlink:href="#DejaVuSans-51"/>
      <use x="1682.458984" xlink:href="#DejaVuSans-41"/>
     </g>
    </g>
   </g>
   <g id="line2d_16">
    <path clip-path="url(#pbd05366a24)" d="M 73.832727 295.488 
L 74.319709 276.462322 
L 74.644364 268.830892 
L 75.131345 249.724788 
L 75.456 245.253721 
L 76.105309 228.830662 
L 76.592291 223.703556 
L 76.754618 223.503137 
L 77.890909 213.058944 
L 78.215564 207.786912 
L 78.377891 207.737206 
L 78.540218 204.715415 
L 78.702545 204.670593 
L 78.864873 200.925044 
L 79.0272 200.925044 
L 79.189527 198.849159 
L 79.351855 198.786602 
L 79.676509 193.60937 
L 79.838836 191.779872 
L 80.163491 191.779872 
L 80.325818 190.431789 
L 80.488145 190.329221 
L 80.650473 188.7965 
L 81.137455 188.728054 
L 81.299782 188.628021 
L 81.624436 186.753186 
L 81.949091 184.687858 
L 82.273745 184.687858 
L 82.436073 184.072679 
L 82.5984 183.900966 
L 82.760727 183.900966 
L 83.247709 181.077116 
L 83.572364 174.972751 
L 83.734691 174.972751 
L 83.897018 174.097984 
L 84.221673 173.951734 
L 84.384 173.44521 
L 84.546327 173.44521 
L 84.708655 173.182577 
L 84.870982 170.75965 
L 85.033309 170.073392 
L 85.357964 170.073392 
L 85.682618 168.790872 
L 85.844945 168.264638 
L 86.1696 168.264638 
L 86.331927 167.845467 
L 86.494255 167.845467 
L 86.656582 167.186896 
L 86.981236 167.169692 
L 87.143564 166.908863 
L 87.305891 166.908863 
L 87.468218 165.496092 
L 87.630545 165.496092 
L 87.792873 164.90816 
L 87.9552 163.363193 
L 88.117527 163.247374 
L 88.442182 160.087386 
L 88.604509 159.890075 
L 88.766836 159.890075 
L 88.929164 158.027811 
L 89.416145 158.027811 
L 89.7408 157.881123 
L 90.390109 157.881123 
L 90.552436 155.826448 
L 90.714764 155.826448 
L 90.877091 155.485701 
L 91.039418 154.076522 
L 91.5264 154.037089 
L 91.851055 154.037089 
L 92.175709 151.272161 
L 92.500364 151.272161 
L 92.662691 150.884891 
L 92.825018 149.807672 
L 92.987345 149.807672 
L 93.149673 148.846562 
L 93.798982 148.78212 
L 93.961309 148.610812 
L 94.123636 148.610812 
L 94.448291 145.256819 
L 94.610618 145.256819 
L 94.772945 144.639934 
L 95.0976 144.639934 
L 95.259927 143.109708 
L 95.422255 142.965578 
L 95.584582 142.623128 
L 96.233891 142.623128 
L 96.396218 142.50783 
L 96.558545 142.252256 
L 97.370182 142.162276 
L 97.532509 141.239701 
L 97.694836 141.239701 
L 97.857164 140.735157 
L 99.155782 140.735157 
L 99.318109 140.190677 
L 99.805091 140.190677 
L 99.967418 139.224225 
L 101.915345 139.132032 
L 102.077673 138.498897 
L 102.24 138.498897 
L 102.402327 137.505708 
L 102.564655 137.505708 
L 102.726982 136.479285 
L 103.863273 136.423287 
L 104.0256 136.063895 
L 104.187927 136.063895 
L 104.350255 135.357974 
L 104.999564 135.357974 
L 105.161891 134.384129 
L 105.8112 134.384129 
L 105.973527 134.062203 
L 106.135855 134.062203 
L 106.460509 133.850356 
L 107.5968 133.850356 
L 107.759127 133.664069 
L 109.057745 133.664069 
L 109.220073 132.251344 
L 109.544727 132.251344 
L 109.707055 131.076579 
L 110.356364 131.076579 
L 110.518691 130.804146 
L 110.843345 130.792521 
L 111.330327 129.529015 
L 112.304291 129.529015 
L 112.466618 129.258579 
L 112.9536 129.258579 
L 113.115927 127.430109 
L 113.278255 127.210131 
L 113.602909 127.210131 
L 113.765236 126.751071 
L 113.927564 126.751071 
L 114.089891 124.521874 
L 114.252218 124.229334 
L 114.576873 124.229334 
L 114.7392 123.354196 
L 115.875491 123.354196 
L 116.037818 121.176828 
L 117.336436 121.176828 
L 117.498764 120.487503 
L 117.985745 120.447545 
L 119.609018 120.415101 
L 119.933673 120.276535 
L 120.582982 120.276535 
L 120.745309 119.285617 
L 121.394618 119.253591 
L 121.556945 117.841847 
L 121.719273 117.841847 
L 121.8816 115.93826 
L 123.017891 115.93826 
L 123.342545 114.921731 
L 124.154182 114.921731 
L 124.316509 113.663623 
L 125.4528 113.663623 
L 125.615127 113.243048 
L 126.264436 113.243048 
L 126.589091 111.768693 
L 127.076073 111.768693 
L 127.563055 110.809592 
L 130.322618 110.809592 
L 130.484945 110.419519 
L 134.705455 110.352651 
L 134.867782 108.361398 
L 135.030109 107.937299 
L 137.140364 107.937299 
L 137.302691 107.623137 
L 138.114327 107.623137 
L 138.276655 107.206969 
L 142.659491 107.130283 
L 142.821818 106.553968 
L 143.146473 106.553968 
L 143.3088 106.222759 
L 143.471127 105.04903 
L 144.932073 105.04903 
L 145.0944 104.549065 
L 146.068364 104.549065 
L 146.230691 103.793021 
L 149.314909 103.793021 
L 149.477236 102.081192 
L 150.613527 102.081192 
L 150.775855 100.557095 
L 156.781964 100.557095 
L 156.944291 99.379259 
L 158.567564 99.379259 
L 158.729891 98.931076 
L 162.625745 98.850322 
L 162.788073 97.982584 
L 163.112727 97.982584 
L 163.275055 97.635604 
L 167.495564 97.635604 
L 167.657891 97.473672 
L 168.631855 97.473672 
L 168.794182 97.246136 
L 169.768145 97.246136 
L 169.930473 96.250167 
L 170.255127 96.173329 
L 174.475636 96.173329 
L 174.637964 95.150133 
L 175.4496 95.150133 
L 175.611927 94.111879 
L 176.748218 94.111879 
L 176.910545 93.598988 
L 178.858473 93.598988 
L 179.0208 93.37245 
L 179.183127 93.37245 
L 179.345455 92.947537 
L 181.618036 92.947537 
L 181.780364 91.907337 
L 186.325527 91.820965 
L 186.487855 90.760514 
L 193.467927 90.752346 
L 193.792582 89.573362 
L 195.253527 89.573362 
L 195.415855 88.833412 
L 197.363782 88.833412 
L 197.526109 88.134546 
L 202.558255 88.11222 
L 202.882909 85.653182 
L 203.369891 85.578051 
L 203.694545 85.479309 
L 204.181527 85.479309 
L 204.343855 84.675388 
L 208.239709 84.675388 
L 208.402036 84.474194 
L 210.025309 84.474194 
L 210.187636 84.001526 
L 215.219782 83.97444 
L 215.382109 83.60687 
L 215.544436 83.60687 
L 215.706764 82.461589 
L 216.193745 82.461589 
L 216.356073 81.261529 
L 217.330036 81.261529 
L 217.492364 79.417281 
L 218.628655 79.417281 
L 218.790982 78.594383 
L 219.927273 78.594383 
L 220.0896 76.414086 
L 223.011491 76.414086 
L 223.173818 75.714908 
L 227.556655 75.714908 
L 227.718982 75.08341 
L 228.692945 75.08341 
L 228.855273 73.442703 
L 235.186036 73.442703 
L 235.348364 71.643267 
L 236.971636 71.643267 
L 237.133964 71.380383 
L 243.3024 71.380383 
L 243.464727 70.919125 
L 262.619345 70.822534 
L 262.781673 70.594361 
L 266.352873 70.50516 
L 266.677527 70.389217 
L 268.463127 70.389217 
L 268.625455 69.084077 
L 274.469236 69.084077 
L 274.631564 67.516236 
L 275.118545 67.516236 
L 275.280873 67.043775 
L 279.501382 67.041739 
L 279.663709 66.860495 
L 285.182836 66.815337 
L 285.345164 66.335102 
L 295.0848 66.335102 
L 295.247127 65.839776 
L 297.032727 65.839776 
L 297.195055 65.01828 
L 301.415564 65.01828 
L 301.577891 64.812515 
L 302.389527 64.812515 
L 302.551855 62.467366 
L 303.688145 62.467366 
L 303.850473 62.287524 
L 310.343564 62.287524 
L 310.505891 60.978194 
L 314.888727 60.978194 
L 315.051055 60.159185 
L 325.926982 60.159185 
L 326.089309 59.839902 
L 329.0112 59.839902 
L 329.173527 59.234604 
L 335.991273 59.234604 
L 336.1536 58.724179 
L 339.237818 58.724179 
L 339.400145 58.259603 
L 356.282182 58.259603 
L 356.444509 57.526589 
L 366.671127 57.526589 
L 366.833455 57.292596 
L 367.807418 57.292596 
L 368.132073 57.181327 
L 376.897745 57.181327 
L 377.2224 57.06313 
L 379.657309 57.06313 
L 379.819636 56.618446 
L 380.631273 56.618446 
L 380.7936 56.317852 
L 380.955927 56.317852 
L 381.118255 56.136615 
L 383.715491 56.136615 
L 383.877818 55.81409 
L 384.851782 55.81409 
L 385.014109 54.33059 
L 385.176436 54.33059 
L 385.338764 53.812037 
L 387.611345 53.812037 
L 387.773673 53.568 
L 398.487273 53.568 
L 398.487273 53.568 
" style="fill:none;stroke:#1f77b4;stroke-linecap:square;stroke-width:1.5;"/>
   </g>
   <g id="patch_3">
    <path d="M 57.6 307.584 
L 57.6 41.472 
" style="fill:none;stroke:#000000;stroke-linecap:square;stroke-linejoin:miter;stroke-width:0.8;"/>
   </g>
   <g id="patch_4">
    <path d="M 414.72 307.584 
L 414.72 41.472 
" style="fill:none;stroke:#000000;stroke-linecap:square;stroke-linejoin:miter;stroke-width:0.8;"/>
   </g>
   <g id="patch_5">
    <path d="M 57.6 307.584 
L 414.72 307.584 
" style="fill:none;stroke:#000000;stroke-linecap:square;stroke-linejoin:miter;stroke-width:0.8;"/>
   </g>
   <g id="patch_6">
    <path d="M 57.6 41.472 
L 414.72 41.472 
" style="fill:none;stroke:#000000;stroke-linecap:square;stroke-linejoin:miter;stroke-width:0.8;"/>
   </g>
  </g>
  <g id="axes_2">
   <g id="matplotlib.axis_3">
    <g id="ytick_7">
     <g id="line2d_17">
      <defs>
       <path d="M 0 0 
L 3.5 0 
" id="m9b5868de8f" style="stroke:#000000;stroke-width:0.8;"/>
      </defs>
      <g>
       <use style="stroke:#000000;stroke-width:0.8;" x="414.72" xlink:href="#m9b5868de8f" y="271.296"/>
      </g>
     </g>
     <g id="text_18">
      <!-- 0.96 -->
      <defs>
       <path d="M 10.984375 1.515625 
L 10.984375 10.5 
Q 14.703125 8.734375 18.5 7.8125 
Q 22.3125 6.890625 25.984375 6.890625 
Q 35.75 6.890625 40.890625 13.453125 
Q 46.046875 20.015625 46.78125 33.40625 
Q 43.953125 29.203125 39.59375 26.953125 
Q 35.25 24.703125 29.984375 24.703125 
Q 19.046875 24.703125 12.671875 31.3125 
Q 6.296875 37.9375 6.296875 49.421875 
Q 6.296875 60.640625 12.9375 67.421875 
Q 19.578125 74.21875 30.609375 74.21875 
Q 43.265625 74.21875 49.921875 64.515625 
Q 56.59375 54.828125 56.59375 36.375 
Q 56.59375 19.140625 48.40625 8.859375 
Q 40.234375 -1.421875 26.421875 -1.421875 
Q 22.703125 -1.421875 18.890625 -0.6875 
Q 15.09375 0.046875 10.984375 1.515625 
z
M 30.609375 32.421875 
Q 37.25 32.421875 41.125 36.953125 
Q 45.015625 41.5 45.015625 49.421875 
Q 45.015625 57.28125 41.125 61.84375 
Q 37.25 66.40625 30.609375 66.40625 
Q 23.96875 66.40625 20.09375 61.84375 
Q 16.21875 57.28125 16.21875 49.421875 
Q 16.21875 41.5 20.09375 36.953125 
Q 23.96875 32.421875 30.609375 32.421875 
z
" id="DejaVuSans-57"/>
      </defs>
      <g transform="translate(421.72 275.095219)scale(0.1 -0.1)">
       <use xlink:href="#DejaVuSans-48"/>
       <use x="63.623047" xlink:href="#DejaVuSans-46"/>
       <use x="95.410156" xlink:href="#DejaVuSans-57"/>
       <use x="159.033203" xlink:href="#DejaVuSans-54"/>
      </g>
     </g>
    </g>
    <g id="ytick_8">
     <g id="line2d_18">
      <g>
       <use style="stroke:#000000;stroke-width:0.8;" x="414.72" xlink:href="#m9b5868de8f" y="222.912"/>
      </g>
     </g>
     <g id="text_19">
      <!-- 0.98 -->
      <defs>
       <path d="M 31.78125 34.625 
Q 24.75 34.625 20.71875 30.859375 
Q 16.703125 27.09375 16.703125 20.515625 
Q 16.703125 13.921875 20.71875 10.15625 
Q 24.75 6.390625 31.78125 6.390625 
Q 38.8125 6.390625 42.859375 10.171875 
Q 46.921875 13.96875 46.921875 20.515625 
Q 46.921875 27.09375 42.890625 30.859375 
Q 38.875 34.625 31.78125 34.625 
z
M 21.921875 38.8125 
Q 15.578125 40.375 12.03125 44.71875 
Q 8.5 49.078125 8.5 55.328125 
Q 8.5 64.0625 14.71875 69.140625 
Q 20.953125 74.21875 31.78125 74.21875 
Q 42.671875 74.21875 48.875 69.140625 
Q 55.078125 64.0625 55.078125 55.328125 
Q 55.078125 49.078125 51.53125 44.71875 
Q 48 40.375 41.703125 38.8125 
Q 48.828125 37.15625 52.796875 32.3125 
Q 56.78125 27.484375 56.78125 20.515625 
Q 56.78125 9.90625 50.3125 4.234375 
Q 43.84375 -1.421875 31.78125 -1.421875 
Q 19.734375 -1.421875 13.25 4.234375 
Q 6.78125 9.90625 6.78125 20.515625 
Q 6.78125 27.484375 10.78125 32.3125 
Q 14.796875 37.15625 21.921875 38.8125 
z
M 18.3125 54.390625 
Q 18.3125 48.734375 21.84375 45.5625 
Q 25.390625 42.390625 31.78125 42.390625 
Q 38.140625 42.390625 41.71875 45.5625 
Q 45.3125 48.734375 45.3125 54.390625 
Q 45.3125 60.0625 41.71875 63.234375 
Q 38.140625 66.40625 31.78125 66.40625 
Q 25.390625 66.40625 21.84375 63.234375 
Q 18.3125 60.0625 18.3125 54.390625 
z
" id="DejaVuSans-56"/>
      </defs>
      <g transform="translate(421.72 226.711219)scale(0.1 -0.1)">
       <use xlink:href="#DejaVuSans-48"/>
       <use x="63.623047" xlink:href="#DejaVuSans-46"/>
       <use x="95.410156" xlink:href="#DejaVuSans-57"/>
       <use x="159.033203" xlink:href="#DejaVuSans-56"/>
      </g>
     </g>
    </g>
    <g id="ytick_9">
     <g id="line2d_19">
      <g>
       <use style="stroke:#000000;stroke-width:0.8;" x="414.72" xlink:href="#m9b5868de8f" y="174.528"/>
      </g>
     </g>
     <g id="text_20">
      <!-- 1.00 -->
      <g transform="translate(421.72 178.327219)scale(0.1 -0.1)">
       <use xlink:href="#DejaVuSans-49"/>
       <use x="63.623047" xlink:href="#DejaVuSans-46"/>
       <use x="95.410156" xlink:href="#DejaVuSans-48"/>
       <use x="159.033203" xlink:href="#DejaVuSans-48"/>
      </g>
     </g>
    </g>
    <g id="ytick_10">
     <g id="line2d_20">
      <g>
       <use style="stroke:#000000;stroke-width:0.8;" x="414.72" xlink:href="#m9b5868de8f" y="126.144"/>
      </g>
     </g>
     <g id="text_21">
      <!-- 1.02 -->
      <g transform="translate(421.72 129.943219)scale(0.1 -0.1)">
       <use xlink:href="#DejaVuSans-49"/>
       <use x="63.623047" xlink:href="#DejaVuSans-46"/>
       <use x="95.410156" xlink:href="#DejaVuSans-48"/>
       <use x="159.033203" xlink:href="#DejaVuSans-50"/>
      </g>
     </g>
    </g>
    <g id="ytick_11">
     <g id="line2d_21">
      <g>
       <use style="stroke:#000000;stroke-width:0.8;" x="414.72" xlink:href="#m9b5868de8f" y="77.76"/>
      </g>
     </g>
     <g id="text_22">
      <!-- 1.04 -->
      <g transform="translate(421.72 81.559219)scale(0.1 -0.1)">
       <use xlink:href="#DejaVuSans-49"/>
       <use x="63.623047" xlink:href="#DejaVuSans-46"/>
       <use x="95.410156" xlink:href="#DejaVuSans-48"/>
       <use x="159.033203" xlink:href="#DejaVuSans-52"/>
      </g>
     </g>
    </g>
    <g id="text_23">
     <!-- Diversity Metric -->
     <defs>
      <path d="M 19.671875 64.796875 
L 19.671875 8.109375 
L 31.59375 8.109375 
Q 46.6875 8.109375 53.6875 14.9375 
Q 60.6875 21.78125 60.6875 36.53125 
Q 60.6875 51.171875 53.6875 57.984375 
Q 46.6875 64.796875 31.59375 64.796875 
z
M 9.8125 72.90625 
L 30.078125 72.90625 
Q 51.265625 72.90625 61.171875 64.09375 
Q 71.09375 55.28125 71.09375 36.53125 
Q 71.09375 17.671875 61.125 8.828125 
Q 51.171875 0 30.078125 0 
L 9.8125 0 
z
" id="DejaVuSans-68"/>
      <path d="M 32.171875 -5.078125 
Q 28.375 -14.84375 24.75 -17.8125 
Q 21.140625 -20.796875 15.09375 -20.796875 
L 7.90625 -20.796875 
L 7.90625 -13.28125 
L 13.1875 -13.28125 
Q 16.890625 -13.28125 18.9375 -11.515625 
Q 21 -9.765625 23.484375 -3.21875 
L 25.09375 0.875 
L 2.984375 54.6875 
L 12.5 54.6875 
L 29.59375 11.921875 
L 46.6875 54.6875 
L 56.203125 54.6875 
z
" id="DejaVuSans-121"/>
      <path d="M 9.8125 72.90625 
L 24.515625 72.90625 
L 43.109375 23.296875 
L 61.8125 72.90625 
L 76.515625 72.90625 
L 76.515625 0 
L 66.890625 0 
L 66.890625 64.015625 
L 48.09375 14.015625 
L 38.1875 14.015625 
L 19.390625 64.015625 
L 19.390625 0 
L 9.8125 0 
z
" id="DejaVuSans-77"/>
      <path d="M 48.78125 52.59375 
L 48.78125 44.1875 
Q 44.96875 46.296875 41.140625 47.34375 
Q 37.3125 48.390625 33.40625 48.390625 
Q 24.65625 48.390625 19.8125 42.84375 
Q 14.984375 37.3125 14.984375 27.296875 
Q 14.984375 17.28125 19.8125 11.734375 
Q 24.65625 6.203125 33.40625 6.203125 
Q 37.3125 6.203125 41.140625 7.25 
Q 44.96875 8.296875 48.78125 10.40625 
L 48.78125 2.09375 
Q 45.015625 0.34375 40.984375 -0.53125 
Q 36.96875 -1.421875 32.421875 -1.421875 
Q 20.0625 -1.421875 12.78125 6.34375 
Q 5.515625 14.109375 5.515625 27.296875 
Q 5.515625 40.671875 12.859375 48.328125 
Q 20.21875 56 33.015625 56 
Q 37.15625 56 41.109375 55.140625 
Q 45.0625 54.296875 48.78125 52.59375 
z
" id="DejaVuSans-99"/>
     </defs>
     <g transform="translate(455.584063 213.905344)rotate(-90)scale(0.1 -0.1)">
      <use xlink:href="#DejaVuSans-68"/>
      <use x="77.001953" xlink:href="#DejaVuSans-105"/>
      <use x="104.785156" xlink:href="#DejaVuSans-118"/>
      <use x="163.964844" xlink:href="#DejaVuSans-101"/>
      <use x="225.488281" xlink:href="#DejaVuSans-114"/>
      <use x="266.601562" xlink:href="#DejaVuSans-115"/>
      <use x="318.701172" xlink:href="#DejaVuSans-105"/>
      <use x="346.484375" xlink:href="#DejaVuSans-116"/>
      <use x="385.693359" xlink:href="#DejaVuSans-121"/>
      <use x="444.873047" xlink:href="#DejaVuSans-32"/>
      <use x="476.660156" xlink:href="#DejaVuSans-77"/>
      <use x="562.939453" xlink:href="#DejaVuSans-101"/>
      <use x="624.462891" xlink:href="#DejaVuSans-116"/>
      <use x="663.671875" xlink:href="#DejaVuSans-114"/>
      <use x="704.785156" xlink:href="#DejaVuSans-105"/>
      <use x="732.568359" xlink:href="#DejaVuSans-99"/>
     </g>
    </g>
   </g>
   <g id="line2d_22">
    <path clip-path="url(#pbd05366a24)" d="M 73.832727 174.528 
L 398.487273 174.528 
L 398.487273 174.528 
" style="fill:none;stroke:#ff0000;stroke-linecap:square;stroke-width:1.5;"/>
   </g>
   <g id="patch_7">
    <path d="M 57.6 307.584 
L 57.6 41.472 
" style="fill:none;stroke:#000000;stroke-linecap:square;stroke-linejoin:miter;stroke-width:0.8;"/>
   </g>
   <g id="patch_8">
    <path d="M 414.72 307.584 
L 414.72 41.472 
" style="fill:none;stroke:#000000;stroke-linecap:square;stroke-linejoin:miter;stroke-width:0.8;"/>
   </g>
   <g id="patch_9">
    <path d="M 57.6 307.584 
L 414.72 307.584 
" style="fill:none;stroke:#000000;stroke-linecap:square;stroke-linejoin:miter;stroke-width:0.8;"/>
   </g>
   <g id="patch_10">
    <path d="M 57.6 41.472 
L 414.72 41.472 
" style="fill:none;stroke:#000000;stroke-linecap:square;stroke-linejoin:miter;stroke-width:0.8;"/>
   </g>
  </g>
  <g id="axes_3">
   <g id="matplotlib.axis_4">
    <g id="xtick_10">
     <g id="line2d_23">
      <defs>
       <path d="M 0 0 
L 0 -3.5 
" id="mc8e7d1ad80" style="stroke:#000000;stroke-width:0.8;"/>
      </defs>
      <g>
       <use style="stroke:#000000;stroke-width:0.8;" x="73.832727" xlink:href="#mc8e7d1ad80" y="41.472"/>
      </g>
     </g>
     <g id="text_24">
      <!-- 200 -->
      <g transform="translate(66.697048 32.833526)rotate(-10)scale(0.08 -0.08)">
       <use xlink:href="#DejaVuSans-50"/>
       <use x="63.623047" xlink:href="#DejaVuSans-48"/>
       <use x="127.246094" xlink:href="#DejaVuSans-48"/>
      </g>
     </g>
    </g>
    <g id="xtick_11">
     <g id="line2d_24">
      <g>
       <use style="stroke:#000000;stroke-width:0.8;" x="106.298182" xlink:href="#mc8e7d1ad80" y="41.472"/>
      </g>
     </g>
     <g id="text_25">
      <!-- 72188 -->
      <g transform="translate(94.149832 32.833526)rotate(-10)scale(0.08 -0.08)">
       <use xlink:href="#DejaVuSans-55"/>
       <use x="63.623047" xlink:href="#DejaVuSans-50"/>
       <use x="127.246094" xlink:href="#DejaVuSans-49"/>
       <use x="190.869141" xlink:href="#DejaVuSans-56"/>
       <use x="254.492188" xlink:href="#DejaVuSans-56"/>
      </g>
     </g>
    </g>
    <g id="xtick_12">
     <g id="line2d_25">
      <g>
       <use style="stroke:#000000;stroke-width:0.8;" x="138.763636" xlink:href="#mc8e7d1ad80" y="41.472"/>
      </g>
     </g>
     <g id="text_26">
      <!-- 144257 -->
      <g transform="translate(124.10895 32.833526)rotate(-10)scale(0.08 -0.08)">
       <use xlink:href="#DejaVuSans-49"/>
       <use x="63.623047" xlink:href="#DejaVuSans-52"/>
       <use x="127.246094" xlink:href="#DejaVuSans-52"/>
       <use x="190.869141" xlink:href="#DejaVuSans-50"/>
       <use x="254.492188" xlink:href="#DejaVuSans-53"/>
       <use x="318.115234" xlink:href="#DejaVuSans-55"/>
      </g>
     </g>
    </g>
    <g id="xtick_13">
     <g id="line2d_26">
      <g>
       <use style="stroke:#000000;stroke-width:0.8;" x="171.229091" xlink:href="#mc8e7d1ad80" y="41.472"/>
      </g>
     </g>
     <g id="text_27">
      <!-- 216296 -->
      <g transform="translate(156.574405 32.833526)rotate(-10)scale(0.08 -0.08)">
       <use xlink:href="#DejaVuSans-50"/>
       <use x="63.623047" xlink:href="#DejaVuSans-49"/>
       <use x="127.246094" xlink:href="#DejaVuSans-54"/>
       <use x="190.869141" xlink:href="#DejaVuSans-50"/>
       <use x="254.492188" xlink:href="#DejaVuSans-57"/>
       <use x="318.115234" xlink:href="#DejaVuSans-54"/>
      </g>
     </g>
    </g>
    <g id="xtick_14">
     <g id="line2d_27">
      <g>
       <use style="stroke:#000000;stroke-width:0.8;" x="203.694545" xlink:href="#mc8e7d1ad80" y="41.472"/>
      </g>
     </g>
     <g id="text_28">
      <!-- 288326 -->
      <g transform="translate(189.039859 32.833526)rotate(-10)scale(0.08 -0.08)">
       <use xlink:href="#DejaVuSans-50"/>
       <use x="63.623047" xlink:href="#DejaVuSans-56"/>
       <use x="127.246094" xlink:href="#DejaVuSans-56"/>
       <use x="190.869141" xlink:href="#DejaVuSans-51"/>
       <use x="254.492188" xlink:href="#DejaVuSans-50"/>
       <use x="318.115234" xlink:href="#DejaVuSans-54"/>
      </g>
     </g>
    </g>
    <g id="xtick_15">
     <g id="line2d_28">
      <g>
       <use style="stroke:#000000;stroke-width:0.8;" x="236.16" xlink:href="#mc8e7d1ad80" y="41.472"/>
      </g>
     </g>
     <g id="text_29">
      <!-- 360312 -->
      <g transform="translate(221.505314 32.833526)rotate(-10)scale(0.08 -0.08)">
       <use xlink:href="#DejaVuSans-51"/>
       <use x="63.623047" xlink:href="#DejaVuSans-54"/>
       <use x="127.246094" xlink:href="#DejaVuSans-48"/>
       <use x="190.869141" xlink:href="#DejaVuSans-51"/>
       <use x="254.492188" xlink:href="#DejaVuSans-49"/>
       <use x="318.115234" xlink:href="#DejaVuSans-50"/>
      </g>
     </g>
    </g>
    <g id="xtick_16">
     <g id="line2d_29">
      <g>
       <use style="stroke:#000000;stroke-width:0.8;" x="268.625455" xlink:href="#mc8e7d1ad80" y="41.472"/>
      </g>
     </g>
     <g id="text_30">
      <!-- 432306 -->
      <g transform="translate(253.970769 32.833526)rotate(-10)scale(0.08 -0.08)">
       <use xlink:href="#DejaVuSans-52"/>
       <use x="63.623047" xlink:href="#DejaVuSans-51"/>
       <use x="127.246094" xlink:href="#DejaVuSans-50"/>
       <use x="190.869141" xlink:href="#DejaVuSans-51"/>
       <use x="254.492188" xlink:href="#DejaVuSans-48"/>
       <use x="318.115234" xlink:href="#DejaVuSans-54"/>
      </g>
     </g>
    </g>
    <g id="xtick_17">
     <g id="line2d_30">
      <g>
       <use style="stroke:#000000;stroke-width:0.8;" x="301.090909" xlink:href="#mc8e7d1ad80" y="41.472"/>
      </g>
     </g>
     <g id="text_31">
      <!-- 504325 -->
      <g transform="translate(286.436223 32.833526)rotate(-10)scale(0.08 -0.08)">
       <use xlink:href="#DejaVuSans-53"/>
       <use x="63.623047" xlink:href="#DejaVuSans-48"/>
       <use x="127.246094" xlink:href="#DejaVuSans-52"/>
       <use x="190.869141" xlink:href="#DejaVuSans-51"/>
       <use x="254.492188" xlink:href="#DejaVuSans-50"/>
       <use x="318.115234" xlink:href="#DejaVuSans-53"/>
      </g>
     </g>
    </g>
    <g id="xtick_18">
     <g id="line2d_31">
      <g>
       <use style="stroke:#000000;stroke-width:0.8;" x="333.556364" xlink:href="#mc8e7d1ad80" y="41.472"/>
      </g>
     </g>
     <g id="text_32">
      <!-- 576344 -->
      <g transform="translate(318.901678 32.833526)rotate(-10)scale(0.08 -0.08)">
       <use xlink:href="#DejaVuSans-53"/>
       <use x="63.623047" xlink:href="#DejaVuSans-55"/>
       <use x="127.246094" xlink:href="#DejaVuSans-54"/>
       <use x="190.869141" xlink:href="#DejaVuSans-51"/>
       <use x="254.492188" xlink:href="#DejaVuSans-52"/>
       <use x="318.115234" xlink:href="#DejaVuSans-52"/>
      </g>
     </g>
    </g>
    <g id="xtick_19">
     <g id="line2d_32">
      <g>
       <use style="stroke:#000000;stroke-width:0.8;" x="366.021818" xlink:href="#mc8e7d1ad80" y="41.472"/>
      </g>
     </g>
     <g id="text_33">
      <!-- 648353 -->
      <g transform="translate(351.367132 32.833526)rotate(-10)scale(0.08 -0.08)">
       <use xlink:href="#DejaVuSans-54"/>
       <use x="63.623047" xlink:href="#DejaVuSans-52"/>
       <use x="127.246094" xlink:href="#DejaVuSans-56"/>
       <use x="190.869141" xlink:href="#DejaVuSans-51"/>
       <use x="254.492188" xlink:href="#DejaVuSans-53"/>
       <use x="318.115234" xlink:href="#DejaVuSans-51"/>
      </g>
     </g>
    </g>
    <g id="xtick_20">
     <g id="line2d_33">
      <g>
       <use style="stroke:#000000;stroke-width:0.8;" x="398.487273" xlink:href="#mc8e7d1ad80" y="41.472"/>
      </g>
     </g>
     <g id="text_34">
      <!-- 720368 -->
      <g transform="translate(383.832587 32.833526)rotate(-10)scale(0.08 -0.08)">
       <use xlink:href="#DejaVuSans-55"/>
       <use x="63.623047" xlink:href="#DejaVuSans-50"/>
       <use x="127.246094" xlink:href="#DejaVuSans-48"/>
       <use x="190.869141" xlink:href="#DejaVuSans-51"/>
       <use x="254.492188" xlink:href="#DejaVuSans-54"/>
       <use x="318.115234" xlink:href="#DejaVuSans-56"/>
      </g>
     </g>
    </g>
    <g id="text_35">
     <!-- # of Fitness Evaluation -->
     <defs>
      <path d="M 9.8125 72.90625 
L 55.90625 72.90625 
L 55.90625 64.59375 
L 19.671875 64.59375 
L 19.671875 43.015625 
L 54.390625 43.015625 
L 54.390625 34.71875 
L 19.671875 34.71875 
L 19.671875 8.296875 
L 56.78125 8.296875 
L 56.78125 0 
L 9.8125 0 
z
" id="DejaVuSans-69"/>
     </defs>
     <g transform="translate(178.327187 17.543911)scale(0.1 -0.1)">
      <use xlink:href="#DejaVuSans-35"/>
      <use x="83.789062" xlink:href="#DejaVuSans-32"/>
      <use x="115.576172" xlink:href="#DejaVuSans-111"/>
      <use x="176.757812" xlink:href="#DejaVuSans-102"/>
      <use x="211.962891" xlink:href="#DejaVuSans-32"/>
      <use x="243.75" xlink:href="#DejaVuSans-70"/>
      <use x="301.160156" xlink:href="#DejaVuSans-105"/>
      <use x="328.943359" xlink:href="#DejaVuSans-116"/>
      <use x="368.152344" xlink:href="#DejaVuSans-110"/>
      <use x="431.53125" xlink:href="#DejaVuSans-101"/>
      <use x="493.054688" xlink:href="#DejaVuSans-115"/>
      <use x="545.154297" xlink:href="#DejaVuSans-115"/>
      <use x="597.253906" xlink:href="#DejaVuSans-32"/>
      <use x="629.041016" xlink:href="#DejaVuSans-69"/>
      <use x="692.224609" xlink:href="#DejaVuSans-118"/>
      <use x="751.404297" xlink:href="#DejaVuSans-97"/>
      <use x="812.683594" xlink:href="#DejaVuSans-108"/>
      <use x="840.466797" xlink:href="#DejaVuSans-117"/>
      <use x="903.845703" xlink:href="#DejaVuSans-97"/>
      <use x="965.125" xlink:href="#DejaVuSans-116"/>
      <use x="1004.333984" xlink:href="#DejaVuSans-105"/>
      <use x="1032.117188" xlink:href="#DejaVuSans-111"/>
      <use x="1093.298828" xlink:href="#DejaVuSans-110"/>
     </g>
    </g>
   </g>
   <g id="line2d_34">
    <path clip-path="url(#pbd05366a24)" d="M 73.832727 295.488 
L 74.319709 276.462322 
L 74.644364 268.830892 
L 75.131345 249.724788 
L 75.456 245.253721 
L 76.105309 228.830662 
L 76.592291 223.703556 
L 76.754618 223.503137 
L 77.890909 213.058944 
L 78.215564 207.786912 
L 78.377891 207.737206 
L 78.540218 204.715415 
L 78.702545 204.670593 
L 78.864873 200.925044 
L 79.0272 200.925044 
L 79.189527 198.849159 
L 79.351855 198.786602 
L 79.676509 193.60937 
L 79.838836 191.779872 
L 80.163491 191.779872 
L 80.325818 190.431789 
L 80.488145 190.329221 
L 80.650473 188.7965 
L 81.137455 188.728054 
L 81.299782 188.628021 
L 81.624436 186.753186 
L 81.949091 184.687858 
L 82.273745 184.687858 
L 82.436073 184.072679 
L 82.5984 183.900966 
L 82.760727 183.900966 
L 83.247709 181.077116 
L 83.572364 174.972751 
L 83.734691 174.972751 
L 83.897018 174.097984 
L 84.221673 173.951734 
L 84.384 173.44521 
L 84.546327 173.44521 
L 84.708655 173.182577 
L 84.870982 170.75965 
L 85.033309 170.073392 
L 85.357964 170.073392 
L 85.682618 168.790872 
L 85.844945 168.264638 
L 86.1696 168.264638 
L 86.331927 167.845467 
L 86.494255 167.845467 
L 86.656582 167.186896 
L 86.981236 167.169692 
L 87.143564 166.908863 
L 87.305891 166.908863 
L 87.468218 165.496092 
L 87.630545 165.496092 
L 87.792873 164.90816 
L 87.9552 163.363193 
L 88.117527 163.247374 
L 88.442182 160.087386 
L 88.604509 159.890075 
L 88.766836 159.890075 
L 88.929164 158.027811 
L 89.416145 158.027811 
L 89.7408 157.881123 
L 90.390109 157.881123 
L 90.552436 155.826448 
L 90.714764 155.826448 
L 90.877091 155.485701 
L 91.039418 154.076522 
L 91.5264 154.037089 
L 91.851055 154.037089 
L 92.175709 151.272161 
L 92.500364 151.272161 
L 92.662691 150.884891 
L 92.825018 149.807672 
L 92.987345 149.807672 
L 93.149673 148.846562 
L 93.798982 148.78212 
L 93.961309 148.610812 
L 94.123636 148.610812 
L 94.448291 145.256819 
L 94.610618 145.256819 
L 94.772945 144.639934 
L 95.0976 144.639934 
L 95.259927 143.109708 
L 95.422255 142.965578 
L 95.584582 142.623128 
L 96.233891 142.623128 
L 96.396218 142.50783 
L 96.558545 142.252256 
L 97.370182 142.162276 
L 97.532509 141.239701 
L 97.694836 141.239701 
L 97.857164 140.735157 
L 99.155782 140.735157 
L 99.318109 140.190677 
L 99.805091 140.190677 
L 99.967418 139.224225 
L 101.915345 139.132032 
L 102.077673 138.498897 
L 102.24 138.498897 
L 102.402327 137.505708 
L 102.564655 137.505708 
L 102.726982 136.479285 
L 103.863273 136.423287 
L 104.0256 136.063895 
L 104.187927 136.063895 
L 104.350255 135.357974 
L 104.999564 135.357974 
L 105.161891 134.384129 
L 105.8112 134.384129 
L 105.973527 134.062203 
L 106.135855 134.062203 
L 106.460509 133.850356 
L 107.5968 133.850356 
L 107.759127 133.664069 
L 109.057745 133.664069 
L 109.220073 132.251344 
L 109.544727 132.251344 
L 109.707055 131.076579 
L 110.356364 131.076579 
L 110.518691 130.804146 
L 110.843345 130.792521 
L 111.330327 129.529015 
L 112.304291 129.529015 
L 112.466618 129.258579 
L 112.9536 129.258579 
L 113.115927 127.430109 
L 113.278255 127.210131 
L 113.602909 127.210131 
L 113.765236 126.751071 
L 113.927564 126.751071 
L 114.089891 124.521874 
L 114.252218 124.229334 
L 114.576873 124.229334 
L 114.7392 123.354196 
L 115.875491 123.354196 
L 116.037818 121.176828 
L 117.336436 121.176828 
L 117.498764 120.487503 
L 117.985745 120.447545 
L 119.609018 120.415101 
L 119.933673 120.276535 
L 120.582982 120.276535 
L 120.745309 119.285617 
L 121.394618 119.253591 
L 121.556945 117.841847 
L 121.719273 117.841847 
L 121.8816 115.93826 
L 123.017891 115.93826 
L 123.342545 114.921731 
L 124.154182 114.921731 
L 124.316509 113.663623 
L 125.4528 113.663623 
L 125.615127 113.243048 
L 126.264436 113.243048 
L 126.589091 111.768693 
L 127.076073 111.768693 
L 127.563055 110.809592 
L 130.322618 110.809592 
L 130.484945 110.419519 
L 134.705455 110.352651 
L 134.867782 108.361398 
L 135.030109 107.937299 
L 137.140364 107.937299 
L 137.302691 107.623137 
L 138.114327 107.623137 
L 138.276655 107.206969 
L 142.659491 107.130283 
L 142.821818 106.553968 
L 143.146473 106.553968 
L 143.3088 106.222759 
L 143.471127 105.04903 
L 144.932073 105.04903 
L 145.0944 104.549065 
L 146.068364 104.549065 
L 146.230691 103.793021 
L 149.314909 103.793021 
L 149.477236 102.081192 
L 150.613527 102.081192 
L 150.775855 100.557095 
L 156.781964 100.557095 
L 156.944291 99.379259 
L 158.567564 99.379259 
L 158.729891 98.931076 
L 162.625745 98.850322 
L 162.788073 97.982584 
L 163.112727 97.982584 
L 163.275055 97.635604 
L 167.495564 97.635604 
L 167.657891 97.473672 
L 168.631855 97.473672 
L 168.794182 97.246136 
L 169.768145 97.246136 
L 169.930473 96.250167 
L 170.255127 96.173329 
L 174.475636 96.173329 
L 174.637964 95.150133 
L 175.4496 95.150133 
L 175.611927 94.111879 
L 176.748218 94.111879 
L 176.910545 93.598988 
L 178.858473 93.598988 
L 179.0208 93.37245 
L 179.183127 93.37245 
L 179.345455 92.947537 
L 181.618036 92.947537 
L 181.780364 91.907337 
L 186.325527 91.820965 
L 186.487855 90.760514 
L 193.467927 90.752346 
L 193.792582 89.573362 
L 195.253527 89.573362 
L 195.415855 88.833412 
L 197.363782 88.833412 
L 197.526109 88.134546 
L 202.558255 88.11222 
L 202.882909 85.653182 
L 203.369891 85.578051 
L 203.694545 85.479309 
L 204.181527 85.479309 
L 204.343855 84.675388 
L 208.239709 84.675388 
L 208.402036 84.474194 
L 210.025309 84.474194 
L 210.187636 84.001526 
L 215.219782 83.97444 
L 215.382109 83.60687 
L 215.544436 83.60687 
L 215.706764 82.461589 
L 216.193745 82.461589 
L 216.356073 81.261529 
L 217.330036 81.261529 
L 217.492364 79.417281 
L 218.628655 79.417281 
L 218.790982 78.594383 
L 219.927273 78.594383 
L 220.0896 76.414086 
L 223.011491 76.414086 
L 223.173818 75.714908 
L 227.556655 75.714908 
L 227.718982 75.08341 
L 228.692945 75.08341 
L 228.855273 73.442703 
L 235.186036 73.442703 
L 235.348364 71.643267 
L 236.971636 71.643267 
L 237.133964 71.380383 
L 243.3024 71.380383 
L 243.464727 70.919125 
L 262.619345 70.822534 
L 262.781673 70.594361 
L 266.352873 70.50516 
L 266.677527 70.389217 
L 268.463127 70.389217 
L 268.625455 69.084077 
L 274.469236 69.084077 
L 274.631564 67.516236 
L 275.118545 67.516236 
L 275.280873 67.043775 
L 279.501382 67.041739 
L 279.663709 66.860495 
L 285.182836 66.815337 
L 285.345164 66.335102 
L 295.0848 66.335102 
L 295.247127 65.839776 
L 297.032727 65.839776 
L 297.195055 65.01828 
L 301.415564 65.01828 
L 301.577891 64.812515 
L 302.389527 64.812515 
L 302.551855 62.467366 
L 303.688145 62.467366 
L 303.850473 62.287524 
L 310.343564 62.287524 
L 310.505891 60.978194 
L 314.888727 60.978194 
L 315.051055 60.159185 
L 325.926982 60.159185 
L 326.089309 59.839902 
L 329.0112 59.839902 
L 329.173527 59.234604 
L 335.991273 59.234604 
L 336.1536 58.724179 
L 339.237818 58.724179 
L 339.400145 58.259603 
L 356.282182 58.259603 
L 356.444509 57.526589 
L 366.671127 57.526589 
L 366.833455 57.292596 
L 367.807418 57.292596 
L 368.132073 57.181327 
L 376.897745 57.181327 
L 377.2224 57.06313 
L 379.657309 57.06313 
L 379.819636 56.618446 
L 380.631273 56.618446 
L 380.7936 56.317852 
L 380.955927 56.317852 
L 381.118255 56.136615 
L 383.715491 56.136615 
L 383.877818 55.81409 
L 384.851782 55.81409 
L 385.014109 54.33059 
L 385.176436 54.33059 
L 385.338764 53.812037 
L 387.611345 53.812037 
L 387.773673 53.568 
L 398.487273 53.568 
L 398.487273 53.568 
" style="fill:none;stroke:#1f77b4;stroke-dasharray:5.55,2.4;stroke-dashoffset:0;stroke-width:1.5;"/>
   </g>
   <g id="patch_11">
    <path d="M 57.6 307.584 
L 57.6 41.472 
" style="fill:none;stroke:#000000;stroke-linecap:square;stroke-linejoin:miter;stroke-width:0.8;"/>
   </g>
   <g id="patch_12">
    <path d="M 414.72 307.584 
L 414.72 41.472 
" style="fill:none;stroke:#000000;stroke-linecap:square;stroke-linejoin:miter;stroke-width:0.8;"/>
   </g>
   <g id="patch_13">
    <path d="M 57.6 307.584 
L 414.72 307.584 
" style="fill:none;stroke:#000000;stroke-linecap:square;stroke-linejoin:miter;stroke-width:0.8;"/>
   </g>
   <g id="patch_14">
    <path d="M 57.6 41.472 
L 414.72 41.472 
" style="fill:none;stroke:#000000;stroke-linecap:square;stroke-linejoin:miter;stroke-width:0.8;"/>
   </g>
   <g id="legend_1">
    <g id="patch_15">
     <path d="M 64.6 78.82825 
L 105.740625 78.82825 
Q 107.740625 78.82825 107.740625 76.82825 
L 107.740625 48.472 
Q 107.740625 46.472 105.740625 46.472 
L 64.6 46.472 
Q 62.6 46.472 62.6 48.472 
L 62.6 76.82825 
Q 62.6 78.82825 64.6 78.82825 
z
" style="fill:#ffffff;opacity:0.8;stroke:#cccccc;stroke-linejoin:miter;"/>
    </g>
    <g id="line2d_35">
     <path d="M 66.6 54.570437 
L 86.6 54.570437 
" style="fill:none;stroke:#1f77b4;stroke-linecap:square;stroke-width:1.5;"/>
    </g>
    <g id="line2d_36"/>
    <g id="text_36">
     <!-- l1 -->
     <g transform="translate(94.6 58.070437)scale(0.1 -0.1)">
      <use xlink:href="#DejaVuSans-108"/>
      <use x="27.783203" xlink:href="#DejaVuSans-49"/>
     </g>
    </g>
    <g id="line2d_37">
     <path d="M 66.6 69.248562 
L 86.6 69.248562 
" style="fill:none;stroke:#ff0000;stroke-linecap:square;stroke-width:1.5;"/>
    </g>
    <g id="line2d_38"/>
    <g id="text_37">
     <!-- l2 -->
     <g transform="translate(94.6 72.748562)scale(0.1 -0.1)">
      <use xlink:href="#DejaVuSans-108"/>
      <use x="27.783203" xlink:href="#DejaVuSans-50"/>
     </g>
    </g>
   </g>
  </g>
 </g>
 <defs>
  <clipPath id="pbd05366a24">
   <rect height="266.112" width="357.12" x="57.6" y="41.472"/>
  </clipPath>
 </defs>
</svg>
